G04*
G04 #@! TF.GenerationSoftware,Altium Limited,Altium Designer,20.1.8 (145)*
G04*
G04 Layer_Physical_Order=1*
G04 Layer_Color=255*
%FSLAX25Y25*%
%MOIN*%
G70*
G04*
G04 #@! TF.SameCoordinates,8B47BC37-8199-49A1-8C2A-9A070CC082B9*
G04*
G04*
G04 #@! TF.FilePolarity,Positive*
G04*
G01*
G75*
%ADD13C,0.01000*%
%ADD14R,0.10236X0.04331*%
%ADD15R,0.06693X0.04331*%
%ADD16R,0.05000X0.12520*%
G04:AMPARAMS|DCode=17|XSize=82.68mil|YSize=54.33mil|CornerRadius=4.08mil|HoleSize=0mil|Usage=FLASHONLY|Rotation=0.000|XOffset=0mil|YOffset=0mil|HoleType=Round|Shape=RoundedRectangle|*
%AMROUNDEDRECTD17*
21,1,0.08268,0.04618,0,0,0.0*
21,1,0.07453,0.05433,0,0,0.0*
1,1,0.00815,0.03726,-0.02309*
1,1,0.00815,-0.03726,-0.02309*
1,1,0.00815,-0.03726,0.02309*
1,1,0.00815,0.03726,0.02309*
%
%ADD17ROUNDEDRECTD17*%
%ADD27C,0.02756*%
%ADD28C,0.05906*%
%ADD29R,0.05906X0.05906*%
%ADD30R,0.05906X0.05906*%
%ADD31C,0.19685*%
%ADD32C,0.02756*%
G36*
X243000Y527698D02*
X242808Y527236D01*
X241567D01*
Y513213D01*
X227641D01*
X213105Y527749D01*
X213296Y528211D01*
X242487D01*
X243000Y527698D01*
D02*
G37*
G36*
X226169Y510972D02*
X226595Y510687D01*
X227098Y510587D01*
X248173D01*
X248339Y510339D01*
X248535Y510208D01*
X248383Y509708D01*
X209818D01*
Y513142D01*
X210898D01*
Y525590D01*
X211360Y525782D01*
X226169Y510972D01*
D02*
G37*
G36*
X197503Y527749D02*
X196990Y527236D01*
X194323D01*
Y513142D01*
X200898D01*
Y526424D01*
X204323D01*
Y513142D01*
X205402D01*
Y509708D01*
X162895D01*
X162574Y510029D01*
Y513142D01*
X163654D01*
Y527236D01*
X158546D01*
X158355Y527698D01*
X158868Y528211D01*
X197312D01*
X197503Y527749D01*
D02*
G37*
G36*
X315475Y500748D02*
X315500Y500621D01*
Y499500D01*
X316462D01*
X316787Y499435D01*
X350908D01*
Y185525D01*
X322172D01*
X321750Y185713D01*
X321750Y186025D01*
Y195285D01*
X201213D01*
Y186025D01*
X201213Y185713D01*
X200790Y185525D01*
X101565D01*
Y248700D01*
X102065Y248852D01*
X102072Y248841D01*
X114688Y236225D01*
X114688Y236225D01*
X143341Y207572D01*
X143767Y207287D01*
X144269Y207187D01*
X172139D01*
X172439Y206739D01*
X173155Y206260D01*
X174000Y206092D01*
X174845Y206260D01*
X175561Y206739D01*
X176040Y207455D01*
X176208Y208300D01*
X176040Y209145D01*
X175561Y209861D01*
X174845Y210340D01*
X174000Y210508D01*
X173155Y210340D01*
X172439Y209861D01*
X172406Y209813D01*
X144813D01*
X142400Y212225D01*
X142592Y212687D01*
X176350D01*
X176852Y212787D01*
X177278Y213072D01*
X178428Y214222D01*
X178713Y214648D01*
X178813Y215150D01*
Y219415D01*
X179061Y219581D01*
X179487Y220219D01*
X179831Y220192D01*
X179987Y220135D01*
Y207244D01*
X173256Y200513D01*
X164500D01*
X163998Y200413D01*
X163572Y200128D01*
X161872Y198428D01*
X161587Y198002D01*
X161487Y197500D01*
Y192586D01*
X161587Y192084D01*
X161872Y191658D01*
X162458Y191072D01*
X162883Y190787D01*
X163386Y190687D01*
X186500D01*
X187002Y190787D01*
X187428Y191072D01*
X187713Y191498D01*
X187813Y192000D01*
Y194956D01*
X190044Y197187D01*
X203500D01*
X204002Y197287D01*
X204428Y197572D01*
X209544Y202687D01*
X285500D01*
X285674Y202722D01*
X291404D01*
X291906Y202822D01*
X292332Y203106D01*
X293894Y204668D01*
X294178Y205094D01*
X294278Y205596D01*
Y223422D01*
X309544Y238687D01*
X342127D01*
X342629Y238787D01*
X343055Y239072D01*
X348628Y244645D01*
X348773Y244862D01*
X348913Y245071D01*
X348913Y245071D01*
X348913Y245071D01*
X348960Y245307D01*
X349013Y245573D01*
X349013Y245619D01*
X349013Y245619D01*
X349013Y245620D01*
Y291800D01*
X348913Y292302D01*
X348628Y292728D01*
X348128Y293228D01*
X347702Y293513D01*
X347200Y293613D01*
X339367D01*
X339001Y294113D01*
X339108Y294650D01*
X339050Y294943D01*
X348228Y304122D01*
X348513Y304548D01*
X348613Y305050D01*
Y359200D01*
X348513Y359702D01*
X348228Y360128D01*
X329813Y378544D01*
Y413740D01*
X334504D01*
Y419646D01*
X322693D01*
Y413740D01*
X322987D01*
Y397627D01*
X322739Y397461D01*
X322260Y396745D01*
X322092Y395900D01*
X322260Y395055D01*
X322739Y394339D01*
X323455Y393860D01*
X324300Y393692D01*
X325145Y393860D01*
X325861Y394339D01*
X326340Y395055D01*
X326508Y395900D01*
X326340Y396745D01*
X325861Y397461D01*
X325613Y397627D01*
Y413740D01*
X327187D01*
Y378000D01*
X327287Y377498D01*
X327572Y377072D01*
X345987Y358656D01*
Y341953D01*
X343500D01*
Y338000D01*
Y334047D01*
X345987D01*
Y331037D01*
X345487Y330806D01*
X344886Y331267D01*
X343976Y331644D01*
X343000Y331772D01*
X342024Y331644D01*
X341114Y331267D01*
X340333Y330667D01*
X339733Y329886D01*
X339356Y328976D01*
X339228Y328000D01*
X339356Y327024D01*
X339594Y326450D01*
X333272Y320128D01*
X332987Y319702D01*
X332887Y319200D01*
Y291300D01*
X332987Y290798D01*
X333272Y290372D01*
X333322Y290322D01*
X333748Y290037D01*
X334250Y289937D01*
X337750D01*
X338252Y290037D01*
X338678Y290322D01*
X339344Y290987D01*
X339963D01*
X340194Y290487D01*
X339733Y289886D01*
X339356Y288976D01*
X339228Y288000D01*
X339303Y287425D01*
X333939Y282061D01*
X333460Y281345D01*
X333292Y280500D01*
Y274915D01*
X298085Y239708D01*
X288500D01*
X287655Y239540D01*
X286939Y239061D01*
X275085Y227208D01*
X249434D01*
X249247Y227558D01*
X249213Y227708D01*
X249311Y228203D01*
Y230012D01*
X238988D01*
Y228203D01*
X239087Y227708D01*
X239052Y227558D01*
X238865Y227208D01*
X213607D01*
X213420Y227558D01*
X213386Y227708D01*
X213484Y228203D01*
Y230012D01*
X203161D01*
Y228203D01*
X203260Y227708D01*
X203225Y227558D01*
X203038Y227208D01*
X201960D01*
X201693Y227708D01*
X201992Y228155D01*
X202160Y229000D01*
X201992Y229845D01*
X201513Y230561D01*
X201265Y230727D01*
Y247330D01*
X201765Y247482D01*
X201872Y247322D01*
X201972Y247222D01*
X202398Y246937D01*
X202900Y246837D01*
X203378D01*
Y245841D01*
X203471Y245374D01*
X203735Y244979D01*
X204130Y244715D01*
X204596Y244622D01*
X212049D01*
X212515Y244715D01*
X212911Y244979D01*
X213175Y245374D01*
X213267Y245841D01*
Y246837D01*
X239205D01*
Y245841D01*
X239298Y245374D01*
X239562Y244979D01*
X239957Y244715D01*
X240423Y244622D01*
X247876D01*
X248342Y244715D01*
X248737Y244979D01*
X249002Y245374D01*
X249094Y245841D01*
Y246837D01*
X250732D01*
X251827Y245742D01*
Y241693D01*
X260094D01*
Y247599D01*
X253683D01*
X252204Y249078D01*
X251778Y249362D01*
X251276Y249462D01*
X249094D01*
Y250459D01*
X249002Y250925D01*
X248737Y251320D01*
X248342Y251584D01*
X247876Y251677D01*
X240423D01*
X239957Y251584D01*
X239562Y251320D01*
X239298Y250925D01*
X239205Y250459D01*
Y249462D01*
X213267D01*
Y250459D01*
X213175Y250925D01*
X212911Y251320D01*
X212515Y251584D01*
X212049Y251677D01*
X204596D01*
X204575Y251678D01*
X204036Y252076D01*
X204013Y252192D01*
X203728Y252618D01*
X199531Y256815D01*
X199715Y257335D01*
X200345Y257460D01*
X201061Y257939D01*
X201540Y258655D01*
X201708Y259500D01*
X201540Y260345D01*
X201061Y261061D01*
X200345Y261540D01*
X199500Y261708D01*
X198655Y261540D01*
X197939Y261061D01*
X197460Y260345D01*
X197354Y259813D01*
X196000D01*
X195498Y259713D01*
X195072Y259428D01*
X194187Y258544D01*
X193663Y258726D01*
X193540Y259345D01*
X193061Y260061D01*
X192345Y260540D01*
X191500Y260708D01*
X190756Y260560D01*
X190256Y260829D01*
Y261508D01*
X179933D01*
Y259699D01*
X180019Y259265D01*
X179744Y258765D01*
X169976D01*
X169474Y258665D01*
X169048Y258381D01*
X165072Y254405D01*
X164787Y253979D01*
X164687Y253477D01*
Y241727D01*
X164439Y241561D01*
X163960Y240845D01*
X163792Y240000D01*
X163960Y239155D01*
X164439Y238439D01*
X165155Y237960D01*
X166000Y237792D01*
X166845Y237960D01*
X167561Y238439D01*
X168040Y239155D01*
X168208Y240000D01*
X168040Y240845D01*
X167561Y241561D01*
X167313Y241727D01*
Y250629D01*
X167813Y250896D01*
X168155Y250667D01*
X169000Y250499D01*
X169845Y250667D01*
X170561Y251146D01*
X170797Y251499D01*
X171398D01*
X171439Y251439D01*
X172155Y250960D01*
X173000Y250792D01*
X173845Y250960D01*
X174561Y251439D01*
X174727Y251687D01*
X188193D01*
X188326Y251020D01*
X188804Y250304D01*
X188728Y249754D01*
X188439Y249561D01*
X188273Y249313D01*
X182500D01*
X181998Y249213D01*
X181572Y248928D01*
X165956Y233313D01*
X156920D01*
X156418Y233213D01*
X155992Y232928D01*
X155406Y232342D01*
X155122Y231916D01*
X155022Y231414D01*
Y223896D01*
X155122Y223394D01*
X155406Y222968D01*
X156052Y222322D01*
X155861Y221860D01*
X153497D01*
X141538Y233819D01*
Y242596D01*
X143130Y244187D01*
X148886D01*
X149093Y243687D01*
X145212Y239806D01*
X144928Y239380D01*
X144828Y238878D01*
Y237821D01*
X144439Y237561D01*
X143960Y236845D01*
X143792Y236000D01*
X143960Y235155D01*
X144439Y234439D01*
X145155Y233960D01*
X146000Y233792D01*
X146845Y233960D01*
X147561Y234439D01*
X148040Y235155D01*
X148208Y236000D01*
X148040Y236845D01*
X147561Y237561D01*
X147453Y237633D01*
Y238334D01*
X161428Y252309D01*
X161713Y252735D01*
X161813Y253238D01*
Y259721D01*
X161713Y260223D01*
X161428Y260649D01*
X159599Y262478D01*
X159708Y263027D01*
X159540Y263872D01*
X159061Y264588D01*
X158345Y265066D01*
X157500Y265234D01*
X156655Y265066D01*
X155939Y264588D01*
X155460Y263872D01*
X155292Y263027D01*
X155460Y262182D01*
X155939Y261466D01*
X156655Y260987D01*
X157500Y260819D01*
X157538Y260826D01*
X159187Y259177D01*
Y253781D01*
X157313Y251906D01*
X156813Y252114D01*
Y253871D01*
X156713Y254373D01*
X156428Y254799D01*
X154532Y256695D01*
X154106Y256979D01*
X153604Y257079D01*
X151396D01*
X150894Y256979D01*
X150468Y256695D01*
X148907Y255134D01*
X148622Y254708D01*
X148522Y254205D01*
Y253109D01*
X148034Y252621D01*
X147555Y252766D01*
X147540Y252845D01*
X147061Y253561D01*
X146345Y254040D01*
X145500Y254208D01*
X145159Y254650D01*
Y257950D01*
X145541Y258264D01*
X148768D01*
Y262008D01*
Y265752D01*
X145541D01*
X145159Y266066D01*
Y275805D01*
X145541Y276118D01*
X147955D01*
Y272995D01*
X147707Y272829D01*
X147228Y272113D01*
X147060Y271268D01*
X147228Y270423D01*
X147707Y269707D01*
X148423Y269228D01*
X149268Y269060D01*
X150113Y269228D01*
X150829Y269707D01*
X151307Y270423D01*
X151476Y271268D01*
X151307Y272113D01*
X150829Y272829D01*
X150580Y272995D01*
Y276118D01*
X152994D01*
X153460Y276211D01*
X153856Y276475D01*
X154120Y276870D01*
X154212Y277337D01*
Y278333D01*
X180150D01*
Y277337D01*
X180243Y276870D01*
X180507Y276475D01*
X180902Y276211D01*
X181368Y276118D01*
X188821D01*
X189287Y276211D01*
X189682Y276475D01*
X189946Y276870D01*
X190039Y277337D01*
Y277772D01*
X190539Y277979D01*
X191639Y276879D01*
X192065Y276595D01*
X192567Y276495D01*
X192772D01*
Y273189D01*
X200227D01*
Y272452D01*
X200256Y272305D01*
X200160Y272161D01*
X199992Y271316D01*
X200160Y270472D01*
X200639Y269755D01*
X201355Y269277D01*
X202200Y269109D01*
X203045Y269277D01*
X203761Y269755D01*
X204240Y270472D01*
X204408Y271316D01*
X204240Y272161D01*
X203761Y272878D01*
X203045Y273356D01*
X202852Y273394D01*
Y278841D01*
X202752Y279343D01*
X202468Y279769D01*
X201335Y280901D01*
X201384Y281399D01*
X201444Y281439D01*
X201610Y281687D01*
X203378D01*
Y277337D01*
X203471Y276870D01*
X203735Y276475D01*
X204130Y276211D01*
X204596Y276118D01*
X212049D01*
X212515Y276211D01*
X212911Y276475D01*
X213175Y276870D01*
X213267Y277337D01*
Y278333D01*
X239205D01*
Y277337D01*
X239298Y276870D01*
X239562Y276475D01*
X239957Y276211D01*
X240423Y276118D01*
X247876D01*
X248342Y276211D01*
X248737Y276475D01*
X249002Y276870D01*
X249094Y277337D01*
Y278333D01*
X250732D01*
X251827Y277238D01*
Y273189D01*
X260094D01*
Y279095D01*
X253683D01*
X252204Y280574D01*
X251778Y280858D01*
X251276Y280958D01*
X249094D01*
Y281955D01*
X249002Y282421D01*
X248737Y282816D01*
X248342Y283080D01*
X247876Y283173D01*
X240423D01*
X239957Y283080D01*
X239562Y282816D01*
X239298Y282421D01*
X239205Y281955D01*
Y280958D01*
X213267D01*
Y281955D01*
X213175Y282421D01*
X212911Y282816D01*
X212515Y283080D01*
X212049Y283173D01*
X209940D01*
X209874Y283502D01*
X209590Y283928D01*
X209164Y284213D01*
X208661Y284313D01*
X201610D01*
X201444Y284561D01*
X200728Y285040D01*
X199883Y285208D01*
X199038Y285040D01*
X198322Y284561D01*
X197843Y283845D01*
X197675Y283000D01*
X197843Y282155D01*
X197888Y282088D01*
X197652Y281647D01*
X196577D01*
X196341Y282088D01*
X196417Y282202D01*
X196586Y283047D01*
X196417Y283892D01*
X195939Y284608D01*
X195223Y285087D01*
X194396Y285251D01*
X194342Y285305D01*
X193916Y285589D01*
X193414Y285689D01*
X192350D01*
X176448Y301592D01*
X196564Y321707D01*
X203064D01*
X203378Y321325D01*
Y316707D01*
X203471Y316241D01*
X203735Y315845D01*
X204130Y315581D01*
X204596Y315489D01*
X212049D01*
X212515Y315581D01*
X212911Y315845D01*
X213175Y316241D01*
X213267Y316707D01*
Y317703D01*
X239205D01*
Y316707D01*
X239298Y316241D01*
X239562Y315845D01*
X239957Y315581D01*
X240423Y315489D01*
X247876D01*
X248342Y315581D01*
X248737Y315845D01*
X249002Y316241D01*
X249094Y316707D01*
Y317703D01*
X250732D01*
X251827Y316609D01*
Y312559D01*
X260094D01*
Y318465D01*
X253683D01*
X252204Y319944D01*
X251778Y320229D01*
X251276Y320329D01*
X249094D01*
Y321325D01*
X249002Y321791D01*
X248737Y322186D01*
X248342Y322451D01*
X247876Y322543D01*
X240423D01*
X239957Y322451D01*
X239562Y322186D01*
X239298Y321791D01*
X239205Y321325D01*
Y320329D01*
X227158D01*
Y332191D01*
X227658Y332290D01*
X227969Y331539D01*
X228569Y330758D01*
X229350Y330158D01*
X230260Y329781D01*
X231236Y329653D01*
X232213Y329781D01*
X232786Y330019D01*
X238490Y324315D01*
X238916Y324031D01*
X239418Y323931D01*
X262713D01*
X269687Y316956D01*
Y303227D01*
X269439Y303061D01*
X268960Y302345D01*
X268792Y301500D01*
X268960Y300655D01*
X269439Y299939D01*
X270155Y299460D01*
X271000Y299292D01*
X271845Y299460D01*
X272561Y299939D01*
X273040Y300655D01*
X273208Y301500D01*
X273040Y302345D01*
X272561Y303061D01*
X272313Y303227D01*
Y317500D01*
X272213Y318002D01*
X271928Y318428D01*
X264185Y326171D01*
X263759Y326456D01*
X263257Y326556D01*
X239962D01*
X234643Y331875D01*
X234880Y332449D01*
X235009Y333425D01*
X234880Y334402D01*
X234503Y335311D01*
X233904Y336093D01*
X233122Y336692D01*
X232549Y336930D01*
Y495275D01*
X233122Y495513D01*
X233904Y496112D01*
X234503Y496893D01*
X234880Y497803D01*
X235009Y498780D01*
X234880Y499756D01*
X234503Y500666D01*
X233904Y501447D01*
X233122Y502047D01*
X232213Y502423D01*
X231236Y502552D01*
X230260Y502423D01*
X229350Y502047D01*
X228569Y501447D01*
X227969Y500666D01*
X227592Y499756D01*
X227464Y498780D01*
X227592Y497803D01*
X227969Y496893D01*
X228569Y496112D01*
X229350Y495513D01*
X229924Y495275D01*
Y336930D01*
X229350Y336692D01*
X228569Y336093D01*
X227969Y335311D01*
X227658Y334560D01*
X227158Y334660D01*
Y343179D01*
X227058Y343682D01*
X227048Y343697D01*
X227208Y344500D01*
X227040Y345345D01*
X226561Y346061D01*
X225845Y346540D01*
X225000Y346708D01*
X224155Y346540D01*
X223439Y346061D01*
X223049Y345477D01*
X222549Y345629D01*
Y495275D01*
X223122Y495513D01*
X223904Y496112D01*
X224503Y496893D01*
X224880Y497803D01*
X225009Y498780D01*
X224880Y499756D01*
X224503Y500666D01*
X223904Y501447D01*
X223122Y502047D01*
X222213Y502423D01*
X221236Y502552D01*
X220260Y502423D01*
X219350Y502047D01*
X218569Y501447D01*
X217969Y500666D01*
X217592Y499756D01*
X217464Y498780D01*
X217592Y497803D01*
X217969Y496893D01*
X218569Y496112D01*
X219350Y495513D01*
X219924Y495275D01*
Y336930D01*
X219350Y336692D01*
X218569Y336093D01*
X217969Y335311D01*
X217592Y334402D01*
X217464Y333425D01*
X217592Y332449D01*
X217969Y331539D01*
X218569Y330758D01*
X219350Y330158D01*
X220260Y329781D01*
X221236Y329653D01*
X222213Y329781D01*
X223122Y330158D01*
X223904Y330758D01*
X224033Y330926D01*
X224533Y330756D01*
Y320329D01*
X213267D01*
Y321325D01*
X213175Y321791D01*
X212911Y322186D01*
X212515Y322451D01*
X212049Y322543D01*
X208860D01*
X208669Y323005D01*
X212593Y326929D01*
X216428Y330764D01*
X216713Y331190D01*
X216813Y331693D01*
Y384273D01*
X217061Y384439D01*
X217540Y385155D01*
X217708Y386000D01*
X217540Y386845D01*
X217061Y387561D01*
X216345Y388040D01*
X215500Y388208D01*
X214655Y388040D01*
X213939Y387561D01*
X213460Y386845D01*
X213292Y386000D01*
X213460Y385155D01*
X213939Y384439D01*
X214187Y384273D01*
Y336505D01*
X213687Y336259D01*
X213122Y336692D01*
X212549Y336930D01*
Y495275D01*
X213122Y495513D01*
X213904Y496112D01*
X214503Y496893D01*
X214880Y497803D01*
X215009Y498780D01*
X214880Y499756D01*
X214503Y500666D01*
X213904Y501447D01*
X213122Y502047D01*
X212213Y502423D01*
X211236Y502552D01*
X210260Y502423D01*
X209350Y502047D01*
X208569Y501447D01*
X207969Y500666D01*
X207592Y499756D01*
X207464Y498780D01*
X207592Y497803D01*
X207969Y496893D01*
X208569Y496112D01*
X209350Y495513D01*
X209924Y495275D01*
Y336930D01*
X209350Y336692D01*
X208569Y336093D01*
X208458Y335949D01*
X207959Y335965D01*
X207761Y336261D01*
X207045Y336740D01*
X206200Y336908D01*
X205355Y336740D01*
X204639Y336261D01*
X204475Y336016D01*
X203975Y335999D01*
X203904Y336093D01*
X203122Y336692D01*
X202549Y336930D01*
Y495275D01*
X203122Y495513D01*
X203904Y496112D01*
X204503Y496893D01*
X204880Y497803D01*
X205009Y498780D01*
X204880Y499756D01*
X204503Y500666D01*
X203904Y501447D01*
X203122Y502047D01*
X202213Y502423D01*
X201236Y502552D01*
X200260Y502423D01*
X199350Y502047D01*
X198569Y501447D01*
X197969Y500666D01*
X197592Y499756D01*
X197464Y498780D01*
X197592Y497803D01*
X197969Y496893D01*
X198569Y496112D01*
X199350Y495513D01*
X199924Y495275D01*
Y336930D01*
X199350Y336692D01*
X198569Y336093D01*
X197969Y335311D01*
X197592Y334402D01*
X197464Y333425D01*
X197592Y332449D01*
X197830Y331875D01*
X196452Y330498D01*
X194976D01*
Y337165D01*
X192549D01*
Y340000D01*
Y495040D01*
X194976D01*
Y502520D01*
X187496D01*
Y495040D01*
X189924D01*
Y343330D01*
X189537Y343012D01*
X189536Y343013D01*
X173700D01*
X173198Y342913D01*
X172772Y342628D01*
X137510Y307366D01*
X137225Y306940D01*
X137125Y306438D01*
Y287471D01*
X136684Y287235D01*
X136617Y287280D01*
X135772Y287448D01*
X135486Y287391D01*
X135100Y287708D01*
Y329350D01*
X159037Y353287D01*
X180973D01*
X181139Y353039D01*
X181855Y352560D01*
X182700Y352392D01*
X183545Y352560D01*
X184261Y353039D01*
X184740Y353755D01*
X184908Y354600D01*
X184740Y355445D01*
X184261Y356161D01*
X183545Y356640D01*
X182700Y356808D01*
X181855Y356640D01*
X181139Y356161D01*
X180973Y355913D01*
X158493D01*
X157991Y355813D01*
X157565Y355528D01*
X150575Y348538D01*
X150113Y348729D01*
Y350673D01*
X150361Y350839D01*
X150840Y351555D01*
X151008Y352400D01*
X150840Y353245D01*
X150361Y353961D01*
X149645Y354440D01*
X148800Y354608D01*
X147955Y354440D01*
X147239Y353961D01*
X146760Y353245D01*
X146592Y352400D01*
X146760Y351555D01*
X147239Y350839D01*
X147487Y350673D01*
Y348044D01*
X146660Y347216D01*
X146199Y347462D01*
X146286Y347900D01*
X146118Y348745D01*
X145639Y349461D01*
X145391Y349627D01*
Y379334D01*
X169528Y403472D01*
X169813Y403898D01*
X169913Y404400D01*
Y404567D01*
X170413Y404909D01*
X171000Y404792D01*
X171845Y404960D01*
X172561Y405439D01*
X173040Y406155D01*
X173208Y407000D01*
X173040Y407845D01*
X172561Y408561D01*
X172313Y408727D01*
Y413740D01*
X177024D01*
Y419646D01*
X165213D01*
Y413740D01*
X167287D01*
Y404944D01*
X143150Y380806D01*
X142865Y380380D01*
X142765Y379878D01*
Y349627D01*
X142517Y349461D01*
X142038Y348745D01*
X141870Y347900D01*
X142038Y347055D01*
X142517Y346339D01*
X143233Y345860D01*
X144078Y345692D01*
X144516Y345779D01*
X144762Y345319D01*
X131072Y331628D01*
X130787Y331202D01*
X130687Y330700D01*
Y302543D01*
X130187Y302332D01*
X129917Y302513D01*
X129414Y302613D01*
X112527D01*
X112361Y302861D01*
X111645Y303340D01*
X110800Y303508D01*
X109955Y303340D01*
X109239Y302861D01*
X108760Y302145D01*
X108592Y301300D01*
X108760Y300455D01*
X109239Y299739D01*
X109955Y299260D01*
X110800Y299092D01*
X111645Y299260D01*
X112361Y299739D01*
X112527Y299987D01*
X128687D01*
Y288836D01*
X128604Y288753D01*
X128320Y288327D01*
X128220Y287825D01*
Y282655D01*
X128320Y282153D01*
X128604Y281727D01*
X128687Y281644D01*
Y226591D01*
X128225Y226400D01*
X116544Y238081D01*
X116544Y238082D01*
X104313Y250313D01*
Y374456D01*
X120807Y390950D01*
X121100Y390892D01*
X121945Y391060D01*
X122016Y391108D01*
X122571Y390878D01*
X122587Y390798D01*
X122872Y390372D01*
X132750Y380493D01*
X132692Y380200D01*
X132860Y379355D01*
X133339Y378639D01*
X133528Y378513D01*
X133376Y378013D01*
X130542D01*
X130376Y378261D01*
X129660Y378740D01*
X128815Y378908D01*
X127970Y378740D01*
X127254Y378261D01*
X126775Y377545D01*
X126607Y376700D01*
X126775Y375855D01*
X127254Y375139D01*
X127970Y374660D01*
X128815Y374492D01*
X129660Y374660D01*
X130376Y375139D01*
X130542Y375387D01*
X136250D01*
X136752Y375487D01*
X137178Y375772D01*
X163464Y402057D01*
X163748Y402483D01*
X163848Y402985D01*
Y438206D01*
X164644Y439002D01*
X165213D01*
Y437362D01*
X177024D01*
Y443268D01*
X165213D01*
Y441628D01*
X164100D01*
X163598Y441528D01*
X163172Y441243D01*
X161607Y439678D01*
X161323Y439252D01*
X161223Y438750D01*
Y403529D01*
X137549Y379855D01*
X137088Y380102D01*
X137108Y380200D01*
X136940Y381045D01*
X136461Y381761D01*
X135745Y382240D01*
X134900Y382408D01*
X134607Y382349D01*
X125113Y391844D01*
Y413740D01*
X129780D01*
Y419646D01*
X117968D01*
Y413740D01*
X122487D01*
Y395308D01*
X122046Y395072D01*
X121945Y395140D01*
X121100Y395308D01*
X120255Y395140D01*
X119539Y394661D01*
X119060Y393945D01*
X118892Y393100D01*
X118950Y392807D01*
X102072Y375928D01*
X102065Y375917D01*
X101565Y376069D01*
Y390732D01*
X112785D01*
Y406906D01*
X113247Y407097D01*
X116150Y404193D01*
X116092Y403900D01*
X116260Y403055D01*
X116739Y402339D01*
X117455Y401860D01*
X118300Y401692D01*
X119145Y401860D01*
X119861Y402339D01*
X120340Y403055D01*
X120508Y403900D01*
X120340Y404745D01*
X119861Y405461D01*
X119145Y405940D01*
X118300Y406108D01*
X118007Y406049D01*
X115013Y409044D01*
Y438471D01*
X115544Y439002D01*
X117968D01*
Y437362D01*
X129780D01*
Y443268D01*
X117968D01*
Y441628D01*
X115000D01*
X114498Y441528D01*
X114072Y441243D01*
X113247Y440418D01*
X112785Y440609D01*
Y455287D01*
X101565D01*
Y499435D01*
X135685D01*
X136010Y499500D01*
X137000D01*
Y530931D01*
X157213D01*
X157370Y530519D01*
X157375Y530431D01*
X155572Y528628D01*
X155287Y528202D01*
X155187Y527700D01*
Y473100D01*
X155287Y472598D01*
X155572Y472172D01*
X166650Y461093D01*
X166592Y460800D01*
X166760Y459955D01*
X167239Y459239D01*
X167955Y458760D01*
X168800Y458592D01*
X169645Y458760D01*
X170361Y459239D01*
X170840Y459955D01*
X171008Y460800D01*
X170840Y461645D01*
X170361Y462361D01*
X169645Y462840D01*
X168800Y463008D01*
X168507Y462950D01*
X157813Y473644D01*
Y508290D01*
X158313Y508339D01*
X158326Y508270D01*
X158805Y507553D01*
X160419Y505939D01*
X161136Y505460D01*
X161981Y505292D01*
X238792D01*
Y501619D01*
X238569Y501447D01*
X237969Y500666D01*
X237592Y499756D01*
X237464Y498780D01*
X237592Y497803D01*
X237969Y496893D01*
X238569Y496112D01*
X239028Y495759D01*
Y336445D01*
X238569Y336093D01*
X237969Y335311D01*
X237592Y334402D01*
X237464Y333425D01*
X237592Y332449D01*
X237969Y331539D01*
X238569Y330758D01*
X239350Y330158D01*
X240260Y329781D01*
X241236Y329653D01*
X242213Y329781D01*
X243122Y330158D01*
X243904Y330758D01*
X244503Y331539D01*
X244880Y332449D01*
X245009Y333425D01*
X244880Y334402D01*
X244503Y335311D01*
X243904Y336093D01*
X243444Y336445D01*
Y495759D01*
X243904Y496112D01*
X244503Y496893D01*
X244880Y497803D01*
X245009Y498780D01*
X244880Y499756D01*
X244503Y500666D01*
X243904Y501447D01*
X243208Y501981D01*
Y505292D01*
X300484D01*
X301329Y505460D01*
X302045Y505939D01*
X303660Y507553D01*
X304138Y508270D01*
X304306Y509114D01*
Y513142D01*
X305253D01*
Y498731D01*
X304812Y498495D01*
X304745Y498540D01*
X303900Y498708D01*
X303055Y498540D01*
X302339Y498061D01*
X301860Y497345D01*
X301692Y496500D01*
X301750Y496207D01*
X273572Y468028D01*
X273287Y467602D01*
X273187Y467100D01*
Y434227D01*
X272939Y434061D01*
X272460Y433345D01*
X272292Y432500D01*
X272460Y431655D01*
X272939Y430939D01*
X273655Y430460D01*
X274500Y430292D01*
X274996Y430391D01*
X275449Y429974D01*
Y424370D01*
X286787D01*
X287260Y424370D01*
X287287Y423881D01*
Y420134D01*
X287260Y419646D01*
X275449D01*
Y413740D01*
X279987D01*
Y392544D01*
X265893Y378450D01*
X265600Y378508D01*
X264755Y378340D01*
X264039Y377861D01*
X263560Y377145D01*
X263392Y376300D01*
X263560Y375455D01*
X264039Y374739D01*
X264755Y374260D01*
X265600Y374092D01*
X266445Y374260D01*
X267161Y374739D01*
X267640Y375455D01*
X267808Y376300D01*
X267750Y376593D01*
X282228Y391072D01*
X282513Y391498D01*
X282613Y392000D01*
Y413740D01*
X286135D01*
X286500Y413240D01*
X286392Y412700D01*
X286560Y411855D01*
X287039Y411139D01*
X287755Y410660D01*
X288600Y410492D01*
X289445Y410660D01*
X290161Y411139D01*
X290640Y411855D01*
X290808Y412700D01*
X290640Y413545D01*
X290161Y414261D01*
X289913Y414427D01*
Y438750D01*
X289813Y439252D01*
X289528Y439678D01*
X287963Y441243D01*
X287537Y441528D01*
X287260Y441583D01*
Y443268D01*
X275813D01*
Y447992D01*
X287260D01*
Y453898D01*
X279713D01*
Y460380D01*
X289683Y470351D01*
X289976Y470292D01*
X290821Y470460D01*
X291537Y470939D01*
X292016Y471655D01*
X292184Y472500D01*
X292016Y473345D01*
X291537Y474061D01*
X290821Y474540D01*
X289976Y474708D01*
X289131Y474540D01*
X288415Y474061D01*
X287937Y473345D01*
X287769Y472500D01*
X287827Y472207D01*
X277472Y461852D01*
X277187Y461426D01*
X277087Y460924D01*
Y453898D01*
X275813D01*
Y466556D01*
X303607Y494350D01*
X303900Y494292D01*
X304745Y494460D01*
X304812Y494505D01*
X305253Y494269D01*
Y448509D01*
X302793Y446049D01*
X302500Y446108D01*
X301655Y445940D01*
X300939Y445461D01*
X300460Y444745D01*
X300292Y443900D01*
X300460Y443055D01*
X300939Y442339D01*
X301655Y441860D01*
X302500Y441692D01*
X303345Y441860D01*
X304061Y442339D01*
X304540Y443055D01*
X304708Y443900D01*
X304649Y444193D01*
X307494Y447037D01*
X307778Y447463D01*
X307878Y447965D01*
Y526835D01*
X307778Y527337D01*
X307494Y527763D01*
X305228Y530028D01*
X304802Y530313D01*
X304300Y530413D01*
X293698D01*
X293196Y530313D01*
X292770Y530028D01*
X291170Y528428D01*
X290886Y528002D01*
X290786Y527500D01*
Y527236D01*
X288811D01*
Y513142D01*
X295386D01*
Y527236D01*
X294891D01*
X294623Y527736D01*
X294657Y527787D01*
X303341D01*
X303375Y527736D01*
X303108Y527236D01*
X298811D01*
Y513142D01*
X299891D01*
Y510029D01*
X299570Y509708D01*
X257062D01*
Y513142D01*
X258142D01*
Y527236D01*
X251567D01*
Y513992D01*
X251067Y513725D01*
X250745Y513940D01*
X249900Y514108D01*
X249055Y513940D01*
X248642Y513663D01*
X248142Y513931D01*
Y527236D01*
X246167D01*
Y527700D01*
X246067Y528202D01*
X245783Y528628D01*
X243979Y530431D01*
X243985Y530519D01*
X244141Y530931D01*
X315475D01*
Y500748D01*
D02*
G37*
G36*
X287260Y437362D02*
X287287Y436874D01*
Y430764D01*
X287269Y430433D01*
X286764Y430361D01*
X286423Y430776D01*
X286508Y431200D01*
X286340Y432045D01*
X285861Y432761D01*
X285145Y433240D01*
X284300Y433408D01*
X283455Y433240D01*
X282739Y432761D01*
X282260Y432045D01*
X282092Y431200D01*
X282177Y430776D01*
X281766Y430276D01*
X275968D01*
X275817Y430776D01*
X276061Y430939D01*
X276540Y431655D01*
X276708Y432500D01*
X276540Y433345D01*
X276061Y434061D01*
X275813Y434227D01*
Y437362D01*
X287260D01*
D02*
G37*
G36*
X181422Y339887D02*
X181260Y339645D01*
X181092Y338800D01*
X181260Y337955D01*
X181739Y337239D01*
X181987Y337073D01*
Y327344D01*
X142046Y287403D01*
X141584Y287594D01*
Y303401D01*
X172034Y333851D01*
X172327Y333792D01*
X173172Y333960D01*
X173888Y334439D01*
X174367Y335155D01*
X174535Y336000D01*
X174367Y336845D01*
X173888Y337561D01*
X173172Y338040D01*
X172697Y338134D01*
X172533Y338677D01*
X174244Y340387D01*
X181155D01*
X181422Y339887D01*
D02*
G37*
G36*
X189924Y339456D02*
Y337165D01*
X187496D01*
Y329685D01*
X192092D01*
X192283Y329223D01*
X190373Y327313D01*
X185587D01*
X185113Y327218D01*
X185078Y327217D01*
X184613Y327498D01*
Y337073D01*
X184861Y337239D01*
X185340Y337955D01*
X185508Y338800D01*
X185340Y339645D01*
X185178Y339887D01*
X185445Y340387D01*
X188993D01*
X189924Y339456D01*
D02*
G37*
G36*
X345987Y324963D02*
Y321037D01*
X345487Y320806D01*
X344886Y321267D01*
X343976Y321644D01*
X343000Y321772D01*
X342024Y321644D01*
X341114Y321267D01*
X340333Y320668D01*
X339733Y319886D01*
X339356Y318976D01*
X339228Y318000D01*
X339356Y317024D01*
X339733Y316114D01*
X340333Y315333D01*
X341114Y314733D01*
X342024Y314356D01*
X343000Y314228D01*
X343976Y314356D01*
X344886Y314733D01*
X345487Y315194D01*
X345987Y314963D01*
Y311037D01*
X345487Y310806D01*
X344886Y311267D01*
X343976Y311644D01*
X343000Y311772D01*
X342024Y311644D01*
X341114Y311267D01*
X340333Y310667D01*
X339733Y309886D01*
X339356Y308976D01*
X339228Y308000D01*
X339356Y307024D01*
X339733Y306114D01*
X340333Y305332D01*
X341114Y304733D01*
X342024Y304356D01*
X343000Y304228D01*
X343976Y304356D01*
X344090Y304403D01*
X344373Y303979D01*
X337193Y296799D01*
X336900Y296858D01*
X336055Y296690D01*
X335954Y296622D01*
X335513Y296858D01*
Y318656D01*
X341450Y324594D01*
X342024Y324356D01*
X343000Y324228D01*
X343976Y324356D01*
X344886Y324733D01*
X345487Y325194D01*
X345987Y324963D01*
D02*
G37*
G36*
X189814Y324225D02*
X166072Y300484D01*
X165787Y300058D01*
X165687Y299555D01*
Y294727D01*
X165439Y294561D01*
X164960Y293845D01*
X164792Y293000D01*
X164960Y292155D01*
X165439Y291439D01*
X166155Y290960D01*
X167000Y290792D01*
X167845Y290960D01*
X168561Y291439D01*
X169040Y292155D01*
X169208Y293000D01*
X169040Y293845D01*
X168561Y294561D01*
X168313Y294727D01*
Y299012D01*
X171444Y302143D01*
X171906Y301952D01*
Y300437D01*
X172006Y299935D01*
X172290Y299509D01*
X176470Y295330D01*
X176223Y294869D01*
X175600Y294993D01*
X174755Y294825D01*
X174039Y294346D01*
X173560Y293630D01*
X173392Y292785D01*
X173451Y292492D01*
X165319Y284360D01*
X157227D01*
X157061Y284608D01*
X156345Y285087D01*
X155500Y285255D01*
X154655Y285087D01*
X153939Y284608D01*
X153460Y283892D01*
X153305Y283111D01*
X152994Y283173D01*
X145541D01*
X145379Y283307D01*
X145354Y283910D01*
X186131Y324687D01*
X189622D01*
X189814Y324225D01*
D02*
G37*
G36*
X188164Y283635D02*
X187973Y283173D01*
X181368D01*
X180902Y283080D01*
X180507Y282816D01*
X180243Y282421D01*
X180150Y281955D01*
Y280958D01*
X172742D01*
X172597Y281344D01*
X172574Y281458D01*
X173040Y282155D01*
X173208Y283000D01*
X173150Y283293D01*
X178207Y288351D01*
X178500Y288292D01*
X179345Y288460D01*
X180061Y288939D01*
X180540Y289655D01*
X180689Y290404D01*
X181149Y290650D01*
X188164Y283635D01*
D02*
G37*
G36*
X339260Y280484D02*
Y274260D01*
X346387D01*
Y260607D01*
X345887Y260466D01*
X345271Y261472D01*
X344163Y262769D01*
X342865Y263878D01*
X341410Y264769D01*
X339833Y265423D01*
X338174Y265821D01*
X336972Y265915D01*
Y255079D01*
Y244242D01*
X338174Y244337D01*
X339833Y244735D01*
X341410Y245388D01*
X342865Y246280D01*
X344163Y247388D01*
X345271Y248686D01*
X345887Y249691D01*
X346387Y249550D01*
Y246117D01*
X341583Y241313D01*
X309000D01*
X308498Y241213D01*
X308072Y240928D01*
X292037Y224893D01*
X291753Y224468D01*
X291653Y223965D01*
Y208931D01*
X291212Y208695D01*
X291145Y208740D01*
X290300Y208908D01*
X289455Y208740D01*
X288739Y208261D01*
X288573Y208013D01*
X207200D01*
X206698Y207913D01*
X206272Y207628D01*
X202593Y203949D01*
X202300Y204008D01*
X201455Y203840D01*
X200739Y203361D01*
X200260Y202645D01*
X200092Y201800D01*
X200260Y200955D01*
X200690Y200313D01*
X200545Y199813D01*
X189500D01*
X188998Y199713D01*
X188572Y199428D01*
X185572Y196428D01*
X185287Y196002D01*
X185187Y195500D01*
Y193313D01*
X182024D01*
X181872Y193813D01*
X182061Y193939D01*
X202604Y214482D01*
X203083Y215198D01*
X203251Y216043D01*
Y222792D01*
X276000D01*
X276845Y222960D01*
X277561Y223439D01*
X289415Y235292D01*
X299000D01*
X299845Y235460D01*
X300561Y235939D01*
X337061Y272439D01*
X337540Y273155D01*
X337708Y274000D01*
Y279586D01*
X338798Y280676D01*
X339260Y280484D01*
D02*
G37*
G36*
X174349Y233786D02*
X174292Y233500D01*
X174460Y232655D01*
X174939Y231939D01*
X174681Y231510D01*
X172406Y229235D01*
X172122Y228809D01*
X172022Y228307D01*
Y225396D01*
X172122Y224894D01*
X172406Y224468D01*
X173053Y223822D01*
Y221031D01*
X172612Y220795D01*
X172545Y220840D01*
X171700Y221008D01*
X171407Y220950D01*
X169598Y222758D01*
X169173Y223042D01*
X168670Y223142D01*
X163423D01*
X163155Y223642D01*
X163213Y223728D01*
X163313Y224231D01*
Y225820D01*
X163561Y225986D01*
X164040Y226702D01*
X164208Y227547D01*
X164040Y228392D01*
X163995Y228459D01*
X164231Y228900D01*
X168213D01*
X168715Y229000D01*
X169141Y229284D01*
X173888Y234032D01*
X174349Y233786D01*
D02*
G37*
G36*
X183287Y226265D02*
Y211262D01*
X183113Y211133D01*
X182613Y211386D01*
Y221200D01*
X182513Y221702D01*
X182228Y222128D01*
X178149Y226207D01*
X178208Y226500D01*
X178040Y227345D01*
X177561Y228061D01*
X176845Y228540D01*
X176586Y228591D01*
X176381Y229142D01*
X176547Y229356D01*
X180197D01*
X183287Y226265D01*
D02*
G37*
G36*
X190939Y237939D02*
X191655Y237460D01*
X192500Y237292D01*
X193345Y237460D01*
X193412Y237505D01*
X193853Y237269D01*
Y222952D01*
X193622Y222606D01*
X193522Y222104D01*
Y219896D01*
X193622Y219394D01*
X193892Y218990D01*
X193460Y218345D01*
X193292Y217500D01*
X193460Y216655D01*
X193939Y215939D01*
X194655Y215460D01*
X195500Y215292D01*
X196345Y215460D01*
X197061Y215939D01*
X197540Y216655D01*
X197708Y217500D01*
X197543Y218330D01*
X197541Y218348D01*
X197802Y218852D01*
X198345Y218960D01*
X198395Y218993D01*
X198836Y218758D01*
Y216958D01*
X179586Y197708D01*
X174784D01*
X174632Y198208D01*
X174728Y198272D01*
X182228Y205772D01*
X182513Y206198D01*
X182613Y206700D01*
Y207445D01*
X183113Y207590D01*
X183755Y207160D01*
X184600Y206992D01*
X185445Y207160D01*
X186161Y207639D01*
X186640Y208355D01*
X186808Y209200D01*
X186640Y210045D01*
X186161Y210761D01*
X185913Y210927D01*
Y226809D01*
X185813Y227311D01*
X185528Y227737D01*
X181668Y231596D01*
X181243Y231881D01*
X180740Y231981D01*
X178620D01*
X178384Y232422D01*
X178540Y232655D01*
X178708Y233500D01*
X178649Y233793D01*
X183044Y238187D01*
X190773D01*
X190939Y237939D01*
D02*
G37*
%LPC*%
G36*
X261736Y502701D02*
Y499280D01*
X265157D01*
X265087Y499812D01*
X264689Y500773D01*
X264055Y501599D01*
X263230Y502232D01*
X262268Y502631D01*
X261736Y502701D01*
D02*
G37*
G36*
X260736D02*
X260204Y502631D01*
X259243Y502232D01*
X258417Y501599D01*
X257784Y500773D01*
X257385Y499812D01*
X257315Y499280D01*
X260736D01*
Y502701D01*
D02*
G37*
G36*
X265157Y498280D02*
X261736D01*
Y494859D01*
X262268Y494929D01*
X263230Y495327D01*
X264055Y495961D01*
X264689Y496786D01*
X265087Y497748D01*
X265157Y498280D01*
D02*
G37*
G36*
X260736D02*
X257315D01*
X257385Y497748D01*
X257784Y496786D01*
X258417Y495961D01*
X259243Y495327D01*
X260204Y494929D01*
X260736Y494859D01*
Y498280D01*
D02*
G37*
G36*
X336972Y495837D02*
Y485500D01*
X347309D01*
X347215Y486701D01*
X346816Y488361D01*
X346163Y489938D01*
X345271Y491393D01*
X344163Y492691D01*
X342865Y493799D01*
X341410Y494691D01*
X339833Y495344D01*
X338174Y495742D01*
X336972Y495837D01*
D02*
G37*
G36*
X335972D02*
X334771Y495742D01*
X333112Y495344D01*
X331535Y494691D01*
X330080Y493799D01*
X328782Y492691D01*
X327674Y491393D01*
X326782Y489938D01*
X326129Y488361D01*
X325730Y486701D01*
X325636Y485500D01*
X335972D01*
Y495837D01*
D02*
G37*
G36*
X116500D02*
Y485500D01*
X126837D01*
X126742Y486701D01*
X126344Y488361D01*
X125691Y489938D01*
X124799Y491393D01*
X123690Y492691D01*
X122393Y493799D01*
X120938Y494691D01*
X119361Y495344D01*
X117701Y495742D01*
X116500Y495837D01*
D02*
G37*
G36*
X115500D02*
X114299Y495742D01*
X112639Y495344D01*
X111062Y494691D01*
X109607Y493799D01*
X108309Y492691D01*
X107201Y491393D01*
X106309Y489938D01*
X105656Y488361D01*
X105258Y486701D01*
X105163Y485500D01*
X115500D01*
Y495837D01*
D02*
G37*
G36*
X347309Y484500D02*
X336972D01*
Y474163D01*
X338174Y474258D01*
X339833Y474656D01*
X341410Y475309D01*
X342865Y476201D01*
X344163Y477310D01*
X345271Y478607D01*
X346163Y480062D01*
X346816Y481639D01*
X347215Y483299D01*
X347309Y484500D01*
D02*
G37*
G36*
X335972D02*
X325636D01*
X325730Y483299D01*
X326129Y481639D01*
X326782Y480062D01*
X327674Y478607D01*
X328782Y477310D01*
X330080Y476201D01*
X331535Y475309D01*
X333112Y474656D01*
X334771Y474258D01*
X335972Y474163D01*
Y484500D01*
D02*
G37*
G36*
X126837D02*
X116500D01*
Y474163D01*
X117701Y474258D01*
X119361Y474656D01*
X120938Y475309D01*
X122393Y476201D01*
X123690Y477310D01*
X124799Y478607D01*
X125691Y480062D01*
X126344Y481639D01*
X126742Y483299D01*
X126837Y484500D01*
D02*
G37*
G36*
X115500D02*
X105163D01*
X105258Y483299D01*
X105656Y481639D01*
X106309Y480062D01*
X107201Y478607D01*
X108309Y477310D01*
X109607Y476201D01*
X111062Y475309D01*
X112639Y474656D01*
X114299Y474258D01*
X115500Y474163D01*
Y484500D01*
D02*
G37*
G36*
X153654Y527236D02*
X147079D01*
Y513142D01*
X149054D01*
Y471900D01*
X149153Y471398D01*
X149438Y470972D01*
X164638Y455772D01*
X165064Y455487D01*
X165566Y455387D01*
X175873D01*
X176039Y455139D01*
X176755Y454660D01*
X177600Y454492D01*
X178445Y454660D01*
X179161Y455139D01*
X179640Y455855D01*
X179808Y456700D01*
X179640Y457545D01*
X179161Y458261D01*
X178445Y458740D01*
X177600Y458908D01*
X176755Y458740D01*
X176039Y458261D01*
X175873Y458013D01*
X166110D01*
X151679Y472444D01*
Y513142D01*
X153654D01*
Y527236D01*
D02*
G37*
G36*
X177024Y453898D02*
X165213D01*
Y452258D01*
X158846D01*
X158344Y452158D01*
X157918Y451873D01*
X157789Y451745D01*
X157496Y451803D01*
X156651Y451635D01*
X155935Y451156D01*
X155456Y450440D01*
X155288Y449595D01*
X155456Y448750D01*
X155935Y448034D01*
X156651Y447555D01*
X157496Y447387D01*
X158341Y447555D01*
X159057Y448034D01*
X159536Y448750D01*
X159704Y449595D01*
X159734Y449632D01*
X165213D01*
Y447992D01*
X177024D01*
Y453898D01*
D02*
G37*
G36*
X129800Y461108D02*
X128955Y460940D01*
X128239Y460461D01*
X127760Y459745D01*
X127592Y458900D01*
X127760Y458055D01*
X128239Y457339D01*
X128487Y457173D01*
Y453898D01*
X117968D01*
Y447992D01*
X129780D01*
Y449648D01*
X130202Y449732D01*
X130628Y450017D01*
X130728Y450117D01*
X131013Y450543D01*
X131113Y451045D01*
Y457173D01*
X131361Y457339D01*
X131840Y458055D01*
X132008Y458900D01*
X131840Y459745D01*
X131361Y460461D01*
X130645Y460940D01*
X129800Y461108D01*
D02*
G37*
G36*
X261736Y442633D02*
Y440808D01*
X263561D01*
X263476Y441236D01*
X262951Y442023D01*
X262164Y442548D01*
X261736Y442633D01*
D02*
G37*
G36*
X260736D02*
X260308Y442548D01*
X259522Y442023D01*
X258996Y441236D01*
X258911Y440808D01*
X260736D01*
Y442633D01*
D02*
G37*
G36*
X263561Y439808D02*
X261736D01*
Y437983D01*
X262164Y438068D01*
X262951Y438594D01*
X263476Y439380D01*
X263561Y439808D01*
D02*
G37*
G36*
X260736D02*
X258911D01*
X258996Y439380D01*
X259522Y438594D01*
X260308Y438068D01*
X260736Y437983D01*
Y439808D01*
D02*
G37*
G36*
X334504Y453898D02*
X322693D01*
Y447992D01*
X327287D01*
Y447427D01*
X327039Y447261D01*
X326560Y446545D01*
X326392Y445700D01*
X326560Y444855D01*
X327039Y444139D01*
X327594Y443768D01*
X327443Y443268D01*
X322693D01*
Y441628D01*
X322415D01*
X321913Y441528D01*
X321487Y441243D01*
X315072Y434828D01*
X314787Y434402D01*
X314687Y433900D01*
Y361827D01*
X314439Y361661D01*
X313960Y360945D01*
X313792Y360100D01*
X313960Y359255D01*
X314439Y358539D01*
X315155Y358060D01*
X316000Y357892D01*
X316845Y358060D01*
X317561Y358539D01*
X318040Y359255D01*
X318208Y360100D01*
X318040Y360945D01*
X317561Y361661D01*
X317313Y361827D01*
Y426652D01*
X317508Y427072D01*
X317508Y427072D01*
Y427072D01*
X317813Y427102D01*
X317820Y427064D01*
X317937Y426478D01*
X318415Y425762D01*
X319131Y425283D01*
X319976Y425115D01*
X320821Y425283D01*
X321537Y425762D01*
X321704Y426010D01*
X322693D01*
Y424370D01*
X334504D01*
Y430276D01*
X322693D01*
Y428635D01*
X321704D01*
X321537Y428884D01*
X320821Y429362D01*
X319976Y429531D01*
X319131Y429362D01*
X318415Y428884D01*
X317937Y428168D01*
X317820Y427582D01*
X317813Y427544D01*
X317508Y427574D01*
Y427574D01*
X317508Y427574D01*
X317313Y427993D01*
Y433356D01*
X322231Y438275D01*
X322693Y438083D01*
Y437362D01*
X334504D01*
Y443268D01*
X329757D01*
X329606Y443768D01*
X330161Y444139D01*
X330640Y444855D01*
X330808Y445700D01*
X330640Y446545D01*
X330161Y447261D01*
X329913Y447427D01*
Y447992D01*
X334504D01*
Y453898D01*
D02*
G37*
G36*
X129780Y430276D02*
X117968D01*
Y424370D01*
X129780D01*
Y426010D01*
X130769D01*
X130935Y425762D01*
X131651Y425283D01*
X132496Y425115D01*
X133341Y425283D01*
X134057Y425762D01*
X134536Y426478D01*
X134704Y427323D01*
X134536Y428168D01*
X134057Y428884D01*
X133341Y429362D01*
X132496Y429531D01*
X131651Y429362D01*
X130935Y428884D01*
X130769Y428635D01*
X129780D01*
Y430276D01*
D02*
G37*
G36*
X171100Y436008D02*
X170255Y435840D01*
X169539Y435361D01*
X169060Y434645D01*
X168892Y433800D01*
X169060Y432955D01*
X169539Y432239D01*
X169787Y432073D01*
Y430276D01*
X165213D01*
Y424370D01*
X177024D01*
Y430276D01*
X172413D01*
Y432073D01*
X172661Y432239D01*
X173140Y432955D01*
X173308Y433800D01*
X173140Y434645D01*
X172661Y435361D01*
X171945Y435840D01*
X171100Y436008D01*
D02*
G37*
G36*
X342500Y341953D02*
X339047D01*
Y338500D01*
X342500D01*
Y341953D01*
D02*
G37*
G36*
Y337500D02*
X339047D01*
Y334047D01*
X342500D01*
Y337500D01*
D02*
G37*
G36*
X261736Y337346D02*
Y333925D01*
X265157D01*
X265087Y334457D01*
X264689Y335419D01*
X264055Y336244D01*
X263230Y336878D01*
X262268Y337276D01*
X261736Y337346D01*
D02*
G37*
G36*
X260736D02*
X260204Y337276D01*
X259243Y336878D01*
X258417Y336244D01*
X257784Y335419D01*
X257385Y334457D01*
X257315Y333925D01*
X260736D01*
Y337346D01*
D02*
G37*
G36*
X251236Y502552D02*
X250260Y502423D01*
X249350Y502047D01*
X248569Y501447D01*
X247969Y500666D01*
X247592Y499756D01*
X247464Y498780D01*
X247592Y497803D01*
X247969Y496893D01*
X248569Y496112D01*
X249350Y495513D01*
X249924Y495275D01*
Y336930D01*
X249350Y336692D01*
X248569Y336093D01*
X247969Y335311D01*
X247592Y334402D01*
X247464Y333425D01*
X247592Y332449D01*
X247969Y331539D01*
X248569Y330758D01*
X249350Y330158D01*
X250260Y329781D01*
X251236Y329653D01*
X252213Y329781D01*
X253122Y330158D01*
X253904Y330758D01*
X254503Y331539D01*
X254880Y332449D01*
X255009Y333425D01*
X254880Y334402D01*
X254503Y335311D01*
X253904Y336093D01*
X253122Y336692D01*
X252549Y336930D01*
Y495275D01*
X253122Y495513D01*
X253904Y496112D01*
X254503Y496893D01*
X254880Y497803D01*
X255009Y498780D01*
X254880Y499756D01*
X254503Y500666D01*
X253904Y501447D01*
X253122Y502047D01*
X252213Y502423D01*
X251236Y502552D01*
D02*
G37*
G36*
X265157Y332925D02*
X261736D01*
Y329504D01*
X262268Y329574D01*
X263230Y329973D01*
X264055Y330606D01*
X264689Y331432D01*
X265087Y332393D01*
X265157Y332925D01*
D02*
G37*
G36*
X260736D02*
X257315D01*
X257385Y332393D01*
X257784Y331432D01*
X258417Y330606D01*
X259243Y329973D01*
X260204Y329574D01*
X260736Y329504D01*
Y332925D01*
D02*
G37*
G36*
X260307Y308047D02*
X256461D01*
Y305382D01*
X260307D01*
Y308047D01*
D02*
G37*
G36*
X255461D02*
X251614D01*
Y305382D01*
X255461D01*
Y308047D01*
D02*
G37*
G36*
X247876Y305122D02*
X244650D01*
Y301878D01*
X249311D01*
Y303687D01*
X249202Y304236D01*
X248891Y304702D01*
X248425Y305013D01*
X247876Y305122D01*
D02*
G37*
G36*
X243650D02*
X240423D01*
X239874Y305013D01*
X239408Y304702D01*
X239097Y304236D01*
X238988Y303687D01*
Y301878D01*
X243650D01*
Y305122D01*
D02*
G37*
G36*
X212049D02*
X208823D01*
Y301878D01*
X213484D01*
Y303687D01*
X213375Y304236D01*
X213064Y304702D01*
X212598Y305013D01*
X212049Y305122D01*
D02*
G37*
G36*
X207823D02*
X204596D01*
X204047Y305013D01*
X203582Y304702D01*
X203271Y304236D01*
X203161Y303687D01*
Y301878D01*
X207823D01*
Y305122D01*
D02*
G37*
G36*
X260307Y304382D02*
X256461D01*
Y301717D01*
X260307D01*
Y304382D01*
D02*
G37*
G36*
X255461D02*
X251614D01*
Y301717D01*
X255461D01*
Y304382D01*
D02*
G37*
G36*
X249311Y300878D02*
X244650D01*
Y297634D01*
X247876D01*
X248425Y297743D01*
X248891Y298054D01*
X249202Y298520D01*
X249311Y299069D01*
Y300878D01*
D02*
G37*
G36*
X243650D02*
X238988D01*
Y299069D01*
X239097Y298520D01*
X239408Y298054D01*
X239874Y297743D01*
X240423Y297634D01*
X243650D01*
Y300878D01*
D02*
G37*
G36*
X213484D02*
X208823D01*
Y297634D01*
X212049D01*
X212598Y297743D01*
X213064Y298054D01*
X213375Y298520D01*
X213484Y299069D01*
Y300878D01*
D02*
G37*
G36*
X207823D02*
X203161D01*
Y299069D01*
X203271Y298520D01*
X203582Y298054D01*
X204047Y297743D01*
X204596Y297634D01*
X207823D01*
Y300878D01*
D02*
G37*
G36*
X306931Y283173D02*
X299478D01*
X299012Y283080D01*
X298617Y282816D01*
X298353Y282421D01*
X298260Y281955D01*
Y280958D01*
X272323D01*
Y281955D01*
X272230Y282421D01*
X271966Y282816D01*
X271571Y283080D01*
X271104Y283173D01*
X263652D01*
X263185Y283080D01*
X262790Y282816D01*
X262526Y282421D01*
X262433Y281955D01*
Y277337D01*
X262526Y276870D01*
X262790Y276475D01*
X263185Y276211D01*
X263652Y276118D01*
X266065D01*
Y270747D01*
X265878Y270622D01*
X265399Y269906D01*
X265231Y269061D01*
X265399Y268216D01*
X265878Y267500D01*
X266594Y267021D01*
X267439Y266853D01*
X268284Y267021D01*
X269000Y267500D01*
X269479Y268216D01*
X269647Y269061D01*
X269479Y269906D01*
X269000Y270622D01*
X268691Y270829D01*
Y276118D01*
X271104D01*
X271571Y276211D01*
X271966Y276475D01*
X272230Y276870D01*
X272323Y277337D01*
Y278333D01*
X298260D01*
Y277337D01*
X298353Y276870D01*
X298617Y276475D01*
X299012Y276211D01*
X299478Y276118D01*
X306931D01*
X307397Y276211D01*
X307793Y276475D01*
X308057Y276870D01*
X308150Y277337D01*
Y278333D01*
X309787D01*
X310882Y277238D01*
Y273189D01*
X319150D01*
Y279095D01*
X312738D01*
X311259Y280574D01*
X310833Y280858D01*
X310331Y280958D01*
X308150D01*
Y281955D01*
X308057Y282421D01*
X307793Y282816D01*
X307397Y283080D01*
X306931Y283173D01*
D02*
G37*
G36*
X201252Y268677D02*
X197406D01*
Y266012D01*
X201252D01*
Y268677D01*
D02*
G37*
G36*
X319362D02*
X315516D01*
Y266012D01*
X319362D01*
Y268677D01*
D02*
G37*
G36*
X260307D02*
X256461D01*
Y266012D01*
X260307D01*
Y268677D01*
D02*
G37*
G36*
X314516D02*
X310669D01*
Y266012D01*
X314516D01*
Y268677D01*
D02*
G37*
G36*
X255461D02*
X251614D01*
Y266012D01*
X255461D01*
Y268677D01*
D02*
G37*
G36*
X196406D02*
X192559D01*
Y266012D01*
X196406D01*
Y268677D01*
D02*
G37*
G36*
X306931Y265752D02*
X303705D01*
Y262508D01*
X308366D01*
Y264317D01*
X308257Y264866D01*
X307946Y265332D01*
X307480Y265643D01*
X306931Y265752D01*
D02*
G37*
G36*
X302705D02*
X299478D01*
X298929Y265643D01*
X298464Y265332D01*
X298153Y264866D01*
X298043Y264317D01*
Y262508D01*
X302705D01*
Y265752D01*
D02*
G37*
G36*
X271104D02*
X267878D01*
Y262508D01*
X272539D01*
Y264317D01*
X272430Y264866D01*
X272119Y265332D01*
X271654Y265643D01*
X271104Y265752D01*
D02*
G37*
G36*
X266878D02*
X263652D01*
X263102Y265643D01*
X262637Y265332D01*
X262326Y264866D01*
X262217Y264317D01*
Y262508D01*
X266878D01*
Y265752D01*
D02*
G37*
G36*
X247876D02*
X244650D01*
Y262508D01*
X249311D01*
Y264317D01*
X249202Y264866D01*
X248891Y265332D01*
X248425Y265643D01*
X247876Y265752D01*
D02*
G37*
G36*
X243650D02*
X240423D01*
X239874Y265643D01*
X239408Y265332D01*
X239097Y264866D01*
X238988Y264317D01*
Y262508D01*
X243650D01*
Y265752D01*
D02*
G37*
G36*
X212049D02*
X208823D01*
Y262508D01*
X213484D01*
Y264317D01*
X213375Y264866D01*
X213064Y265332D01*
X212598Y265643D01*
X212049Y265752D01*
D02*
G37*
G36*
X207823D02*
X204596D01*
X204047Y265643D01*
X203582Y265332D01*
X203271Y264866D01*
X203161Y264317D01*
Y262508D01*
X207823D01*
Y265752D01*
D02*
G37*
G36*
X188821D02*
X185595D01*
Y262508D01*
X190256D01*
Y264317D01*
X190147Y264866D01*
X189836Y265332D01*
X189370Y265643D01*
X188821Y265752D01*
D02*
G37*
G36*
X184595D02*
X181368D01*
X180819Y265643D01*
X180353Y265332D01*
X180042Y264866D01*
X179933Y264317D01*
Y262508D01*
X184595D01*
Y265752D01*
D02*
G37*
G36*
X152994D02*
X149768D01*
Y262508D01*
X154429D01*
Y264317D01*
X154320Y264866D01*
X154009Y265332D01*
X153543Y265643D01*
X152994Y265752D01*
D02*
G37*
G36*
X319362Y265012D02*
X315516D01*
Y262347D01*
X319362D01*
Y265012D01*
D02*
G37*
G36*
X314516D02*
X310669D01*
Y262347D01*
X314516D01*
Y265012D01*
D02*
G37*
G36*
X260307D02*
X256461D01*
Y262347D01*
X260307D01*
Y265012D01*
D02*
G37*
G36*
X255461D02*
X251614D01*
Y262347D01*
X255461D01*
Y265012D01*
D02*
G37*
G36*
X201252D02*
X197406D01*
Y262347D01*
X201252D01*
Y265012D01*
D02*
G37*
G36*
X196406D02*
X192559D01*
Y262347D01*
X196406D01*
Y265012D01*
D02*
G37*
G36*
X308366Y261508D02*
X303705D01*
Y258264D01*
X306931D01*
X307480Y258373D01*
X307946Y258684D01*
X308257Y259150D01*
X308366Y259699D01*
Y261508D01*
D02*
G37*
G36*
X302705D02*
X298043D01*
Y259699D01*
X298153Y259150D01*
X298464Y258684D01*
X298929Y258373D01*
X299478Y258264D01*
X302705D01*
Y261508D01*
D02*
G37*
G36*
X272539D02*
X267878D01*
Y258264D01*
X271104D01*
X271654Y258373D01*
X272119Y258684D01*
X272430Y259150D01*
X272539Y259699D01*
Y261508D01*
D02*
G37*
G36*
X266878D02*
X262217D01*
Y259699D01*
X262326Y259150D01*
X262637Y258684D01*
X263102Y258373D01*
X263652Y258264D01*
X266878D01*
Y261508D01*
D02*
G37*
G36*
X249311D02*
X244650D01*
Y258264D01*
X247876D01*
X248425Y258373D01*
X248891Y258684D01*
X249202Y259150D01*
X249311Y259699D01*
Y261508D01*
D02*
G37*
G36*
X243650D02*
X238988D01*
Y259699D01*
X239097Y259150D01*
X239408Y258684D01*
X239874Y258373D01*
X240423Y258264D01*
X243650D01*
Y261508D01*
D02*
G37*
G36*
X213484D02*
X208823D01*
Y258264D01*
X212049D01*
X212598Y258373D01*
X213064Y258684D01*
X213375Y259150D01*
X213484Y259699D01*
Y261508D01*
D02*
G37*
G36*
X207823D02*
X203161D01*
Y259699D01*
X203271Y259150D01*
X203582Y258684D01*
X204047Y258373D01*
X204596Y258264D01*
X207823D01*
Y261508D01*
D02*
G37*
G36*
X154429D02*
X149768D01*
Y258264D01*
X152994D01*
X153543Y258373D01*
X154009Y258684D01*
X154320Y259150D01*
X154429Y259699D01*
Y261508D01*
D02*
G37*
G36*
X116500Y265915D02*
Y255579D01*
X126837D01*
X126742Y256780D01*
X126344Y258440D01*
X125691Y260016D01*
X124799Y261472D01*
X123690Y262769D01*
X122393Y263878D01*
X120938Y264769D01*
X119361Y265423D01*
X117701Y265821D01*
X116500Y265915D01*
D02*
G37*
G36*
X115500D02*
X114299Y265821D01*
X112639Y265423D01*
X111062Y264769D01*
X109607Y263878D01*
X108309Y262769D01*
X107201Y261472D01*
X106309Y260016D01*
X105656Y258440D01*
X105258Y256780D01*
X105163Y255579D01*
X115500D01*
Y265915D01*
D02*
G37*
G36*
X306500Y256525D02*
Y254700D01*
X308325D01*
X308240Y255128D01*
X307714Y255914D01*
X306928Y256440D01*
X306500Y256525D01*
D02*
G37*
G36*
X305500D02*
X305072Y256440D01*
X304286Y255914D01*
X303760Y255128D01*
X303675Y254700D01*
X305500D01*
Y256525D01*
D02*
G37*
G36*
X308325Y253700D02*
X306500D01*
Y251875D01*
X306928Y251960D01*
X307714Y252486D01*
X308240Y253272D01*
X308325Y253700D01*
D02*
G37*
G36*
X305500D02*
X303675D01*
X303760Y253272D01*
X304286Y252486D01*
X305072Y251960D01*
X305500Y251875D01*
Y253700D01*
D02*
G37*
G36*
X126837Y254579D02*
X116500D01*
Y244242D01*
X117701Y244337D01*
X119361Y244735D01*
X120938Y245388D01*
X122393Y246280D01*
X123690Y247388D01*
X124799Y248686D01*
X125691Y250141D01*
X126344Y251718D01*
X126742Y253377D01*
X126837Y254579D01*
D02*
G37*
G36*
X115500D02*
X105163D01*
X105258Y253377D01*
X105656Y251718D01*
X106309Y250141D01*
X107201Y248686D01*
X108309Y247388D01*
X109607Y246280D01*
X111062Y245388D01*
X112639Y244735D01*
X114299Y244337D01*
X115500Y244242D01*
Y254579D01*
D02*
G37*
G36*
X260307Y237181D02*
X256461D01*
Y234516D01*
X260307D01*
Y237181D01*
D02*
G37*
G36*
X255461D02*
X251614D01*
Y234516D01*
X255461D01*
Y237181D01*
D02*
G37*
G36*
X247876Y234256D02*
X244650D01*
Y231012D01*
X249311D01*
Y232821D01*
X249202Y233370D01*
X248891Y233836D01*
X248425Y234147D01*
X247876Y234256D01*
D02*
G37*
G36*
X243650D02*
X240423D01*
X239874Y234147D01*
X239408Y233836D01*
X239097Y233370D01*
X238988Y232821D01*
Y231012D01*
X243650D01*
Y234256D01*
D02*
G37*
G36*
X212049D02*
X208823D01*
Y231012D01*
X213484D01*
Y232821D01*
X213375Y233370D01*
X213064Y233836D01*
X212598Y234147D01*
X212049Y234256D01*
D02*
G37*
G36*
X207823D02*
X204596D01*
X204047Y234147D01*
X203582Y233836D01*
X203271Y233370D01*
X203161Y232821D01*
Y231012D01*
X207823D01*
Y234256D01*
D02*
G37*
G36*
X260307Y233516D02*
X256461D01*
Y230851D01*
X260307D01*
Y233516D01*
D02*
G37*
G36*
X255461D02*
X251614D01*
Y230851D01*
X255461D01*
Y233516D01*
D02*
G37*
G36*
X346532Y204031D02*
X343079D01*
Y200579D01*
X346532D01*
Y204031D01*
D02*
G37*
G36*
X342079D02*
X338626D01*
Y200579D01*
X342079D01*
Y204031D01*
D02*
G37*
G36*
X332579Y203851D02*
X331602Y203723D01*
X330693Y203346D01*
X329911Y202746D01*
X329312Y201965D01*
X328935Y201055D01*
X328806Y200079D01*
X328935Y199102D01*
X329312Y198193D01*
X329911Y197411D01*
X330693Y196812D01*
X331602Y196435D01*
X332579Y196306D01*
X333555Y196435D01*
X334465Y196812D01*
X335246Y197411D01*
X335846Y198193D01*
X336223Y199102D01*
X336351Y200079D01*
X336223Y201055D01*
X335846Y201965D01*
X335246Y202746D01*
X334465Y203346D01*
X333555Y203723D01*
X332579Y203851D01*
D02*
G37*
G36*
X346532Y199579D02*
X343079D01*
Y196126D01*
X346532D01*
Y199579D01*
D02*
G37*
G36*
X342079D02*
X338626D01*
Y196126D01*
X342079D01*
Y199579D01*
D02*
G37*
G36*
X335972Y265915D02*
X334771Y265821D01*
X333112Y265423D01*
X331535Y264769D01*
X330080Y263878D01*
X328782Y262769D01*
X327674Y261472D01*
X326782Y260016D01*
X326129Y258440D01*
X325730Y256780D01*
X325636Y255579D01*
X335972D01*
Y265915D01*
D02*
G37*
G36*
Y254579D02*
X325636D01*
X325730Y253377D01*
X326129Y251718D01*
X326782Y250141D01*
X327674Y248686D01*
X328782Y247388D01*
X330080Y246280D01*
X331535Y245388D01*
X333112Y244735D01*
X334771Y244337D01*
X335972Y244242D01*
Y254579D01*
D02*
G37*
%LPD*%
D13*
X182500Y248000D02*
X190000D01*
X168213Y230213D02*
X184213Y246213D01*
X188018D01*
X188896Y245335D01*
X191104D01*
X192665Y246896D01*
Y248221D01*
X194972Y250528D01*
Y251979D01*
X194669Y252282D02*
X194972Y251979D01*
X194669Y252282D02*
Y254490D01*
X166500Y232000D02*
X182500Y248000D01*
X186914Y243547D02*
X194914D01*
X195165Y243296D01*
X173000Y253000D02*
X189231D01*
X190365Y251865D01*
X191164Y258164D02*
X191500Y258500D01*
X192221Y262008D02*
X195725Y265512D01*
X185095Y262008D02*
X192221D01*
X171896Y255665D02*
X193165D01*
X189683Y258164D02*
X191164D01*
X188972Y257453D02*
X189683Y258164D01*
X169976Y257453D02*
X188972D01*
X160896Y230213D02*
X168213D01*
X195165Y222435D02*
Y243296D01*
X130000Y225417D02*
X141417Y214000D01*
X130000Y225417D02*
Y282187D01*
X129532Y287825D02*
X130000Y288292D01*
Y300714D01*
X129532Y282655D02*
X130000Y282187D01*
X131320Y283395D02*
Y287084D01*
X129532Y282655D02*
Y287825D01*
X131320Y287084D02*
X132000Y287765D01*
X133107Y284136D02*
Y286344D01*
X131320Y283395D02*
X132000Y282715D01*
X110800Y301300D02*
X129414D01*
X130000Y300714D01*
X133107Y286344D02*
X133787Y287024D01*
X133107Y284136D02*
X133787Y283455D01*
X132000Y330700D02*
X148800Y347500D01*
X132000Y225944D02*
Y282715D01*
Y287765D02*
Y330700D01*
Y225944D02*
X141810Y216135D01*
X133787Y329894D02*
X158493Y354600D01*
X133787Y226685D02*
Y283455D01*
Y287024D02*
Y329894D01*
Y226685D02*
X140972Y219500D01*
X135772Y227228D02*
Y285240D01*
Y227228D02*
X139500Y223500D01*
X194000Y283425D02*
X194378Y283047D01*
X211665Y327857D02*
X215500Y331693D01*
Y386000D01*
X196020Y323020D02*
X206827D01*
X211665Y327857D02*
X211665D01*
X206827Y323020D02*
X211665Y327857D01*
X309000Y240000D02*
X342127D01*
X292965Y205596D02*
Y223965D01*
X309000Y240000D01*
X291404Y204035D02*
X292965Y205596D01*
X285535Y204035D02*
X291404D01*
X209000Y204000D02*
X285500D01*
X285535Y204035D01*
X207200Y206700D02*
X290300D01*
X202300Y201800D02*
X207200Y206700D01*
X342127Y240000D02*
X347700Y245573D01*
X189500Y198500D02*
X203500D01*
X209000Y204000D01*
X186500Y195500D02*
X189500Y198500D01*
X186500Y192000D02*
Y195500D01*
X347700Y245620D02*
Y291800D01*
X347700Y245573D02*
X347700Y245620D01*
X163386Y192000D02*
X186500D01*
X162800Y192586D02*
X163386Y192000D01*
X162800Y192586D02*
Y197500D01*
X164500Y199200D01*
X156920Y232000D02*
X166500D01*
X176500Y233500D02*
X182500Y239500D01*
X192500D01*
X199952Y229000D02*
Y250452D01*
X200000Y250500D01*
X197287Y221213D02*
Y253338D01*
Y221213D02*
X197500Y221000D01*
X197287Y253338D02*
X197335Y253386D01*
X194835Y222104D02*
X195165Y222435D01*
X194835Y219896D02*
Y222104D01*
Y219896D02*
X195330Y219400D01*
Y217670D02*
Y219400D01*
Y217670D02*
X195500Y217500D01*
X202800Y248250D02*
Y251690D01*
Y248250D02*
X202900Y248150D01*
X208323D01*
X267439Y269061D02*
X267500Y269000D01*
X267378Y269122D02*
X267439Y269061D01*
X267378Y269122D02*
Y279646D01*
X157500Y262721D02*
X160500Y259721D01*
X157500Y262721D02*
Y263027D01*
X149268Y279646D02*
X190728D01*
X149268Y262008D02*
X154260Y267000D01*
X180103D02*
X185095Y262008D01*
X154260Y267000D02*
X180103D01*
X160500Y253238D02*
Y259721D01*
X146000Y236000D02*
X146140Y236140D01*
Y238878D01*
X160500Y253238D01*
X149835Y252565D02*
Y254205D01*
X152132Y252335D02*
X152500D01*
X151396Y255767D02*
X153604D01*
X149835Y254205D02*
X151396Y255767D01*
X146604Y249335D02*
X149835Y252565D01*
X147344Y247547D02*
X152132Y252335D01*
X142059Y251672D02*
X144396Y249335D01*
X155500Y251500D02*
Y253871D01*
X149500Y245500D02*
X155500Y251500D01*
X142586Y245500D02*
X149500D01*
X149268Y271268D02*
Y279646D01*
X171000Y283000D02*
X178500Y290500D01*
X165862Y283047D02*
X175600Y292785D01*
X155500Y283047D02*
X165862D01*
X166000Y240000D02*
Y253477D01*
X169976Y257453D01*
X156335Y231414D02*
X156920Y232000D01*
X162000Y224231D02*
Y227547D01*
X159000Y225000D02*
Y228317D01*
X160896Y230213D01*
X156335Y223896D02*
Y231414D01*
X169000Y252707D02*
Y252769D01*
X171896Y255665D01*
X193165D02*
X196000Y258500D01*
X196231Y256051D02*
X198439D01*
X194669Y254490D02*
X196231Y256051D01*
X196000Y258500D02*
X198036D01*
X199036Y259500D01*
X199500D01*
X198439Y256051D02*
X202800Y251690D01*
X195725Y265512D02*
X196906D01*
X194000Y283425D02*
Y283791D01*
X199883Y283000D02*
X208661D01*
Y279984D02*
Y283000D01*
X173219Y300437D02*
Y302746D01*
X195280Y324807D01*
X203835D01*
X173219Y300437D02*
X193321Y280335D01*
X200045D01*
X201539Y278841D01*
X190728Y279646D02*
X192567Y277807D01*
X195240D02*
X196906Y276142D01*
X192567Y277807D02*
X195240D01*
X193414Y284377D02*
X194000Y283791D01*
X191807Y284377D02*
X193414D01*
X263257Y325243D02*
X271000Y317500D01*
Y301500D02*
Y317500D01*
X306000Y262008D02*
X310331D01*
X320532Y296500D02*
X329032Y305000D01*
X255961Y304882D02*
X264343Y296500D01*
X320532D01*
X254780Y304882D02*
X255961D01*
X239418Y325243D02*
X263257D01*
X231236Y333425D02*
X239418Y325243D01*
X225845Y319016D02*
Y343179D01*
X225000Y344025D02*
Y344500D01*
X225845Y319016D02*
X244150D01*
X218000D02*
X225845D01*
X208323D02*
X218000D01*
X225000Y344025D02*
X225845Y343179D01*
X244150Y319016D02*
X251276D01*
X157896Y222335D02*
X160104D01*
X161585Y218760D02*
X161989Y219164D01*
X168670Y221830D02*
X171700Y218800D01*
X161989Y219164D02*
X165616D01*
X162127Y221830D02*
X168670D01*
X138438Y232534D02*
X152212Y218760D01*
X152953Y220547D02*
X160844D01*
X140225Y233275D02*
X152953Y220547D01*
X156335Y223896D02*
X157896Y222335D01*
X160104D02*
X162000Y224231D01*
X152212Y218760D02*
X161585D01*
X160844Y220547D02*
X162127Y221830D01*
X175696Y230668D02*
X180740D01*
X173335Y225396D02*
Y228307D01*
X175696Y230668D01*
X141810Y216135D02*
X172804D01*
X174365Y217696D02*
Y224365D01*
X172804Y216135D02*
X174365Y217696D01*
X173335Y225396D02*
X174365Y224365D01*
X141417Y214000D02*
X176350D01*
X177500Y215150D01*
Y221142D01*
X175006Y302006D02*
X196020Y323020D01*
X175006Y301178D02*
X191807Y284377D01*
X175006Y301178D02*
Y302006D01*
X190917Y326000D02*
X194102Y329185D01*
X194039Y326595D02*
X203095D01*
X194102Y329185D02*
X196996D01*
X167000Y293000D02*
Y299555D01*
X185587Y326000D02*
X190917D01*
X167000Y299555D02*
X194039Y326595D01*
X196996Y329185D02*
X201236Y333425D01*
X203095Y326595D02*
X206200Y329700D01*
Y334700D01*
X203835Y324807D02*
X211236Y332208D01*
Y498780D01*
X201539Y272452D02*
X202200Y271792D01*
Y271316D02*
Y271792D01*
X201539Y272452D02*
Y278841D01*
X221236Y333425D02*
Y498780D01*
X140225Y233275D02*
Y243139D01*
X138438Y232534D02*
Y306438D01*
X173700Y341700D01*
X140225Y243139D02*
X142586Y245500D01*
X153604Y255767D02*
X155500Y253871D01*
X140272Y250931D02*
Y303945D01*
X172327Y336000D01*
X143656Y247547D02*
X147344D01*
X140272Y250931D02*
X143656Y247547D01*
X142059Y251672D02*
Y285559D01*
X183300Y326800D01*
X144396Y249335D02*
X146604D01*
X143846Y284259D02*
X185587Y326000D01*
X143846Y253654D02*
Y284259D01*
Y253654D02*
X145500Y252000D01*
X171000Y407000D02*
Y416593D01*
X171100Y416693D01*
X181300Y206700D02*
Y221200D01*
X176000Y226500D02*
X181300Y221200D01*
X180740Y230668D02*
X184600Y226809D01*
Y209200D02*
Y226809D01*
X173800Y199200D02*
X181300Y206700D01*
X201236Y333425D02*
Y498780D01*
X173700Y341700D02*
X189536D01*
X140972Y219500D02*
X146500D01*
X139500Y223500D02*
X143000D01*
X115616Y237153D02*
X115616D01*
X144269Y208500D01*
X173800D01*
X191236Y340000D02*
Y498780D01*
Y333425D02*
Y340000D01*
X103000Y249769D02*
X115616Y237153D01*
X103000Y249769D02*
Y375000D01*
X173800Y208500D02*
X174000Y208300D01*
X208323Y279646D02*
X208661Y279984D01*
X281300Y392000D02*
Y416693D01*
X123800Y391300D02*
Y416693D01*
X278400Y450945D02*
Y460924D01*
X328600Y445700D02*
Y450945D01*
X324300Y416693D02*
X328500D01*
X324300Y395900D02*
Y416693D01*
X328500Y378000D02*
Y416693D01*
X284300Y427323D02*
Y431200D01*
X168600Y404400D02*
Y416693D01*
X171100D01*
Y427323D02*
Y433800D01*
X189536Y341700D02*
X191236Y340000D01*
X148800Y347500D02*
Y352400D01*
X123800Y416693D02*
X123874D01*
X123800Y391300D02*
X134900Y380200D01*
X158493Y354600D02*
X182700D01*
X328500Y416693D02*
X328598D01*
X328500Y378000D02*
X347300Y359200D01*
Y305050D02*
Y359200D01*
X336900Y294650D02*
X347300Y305050D01*
X115000Y440315D02*
X123874D01*
X113700Y439015D02*
X115000Y440315D01*
X113700Y408500D02*
Y439015D01*
Y408500D02*
X118300Y403900D01*
X158846Y450945D02*
X171118D01*
X157496Y449595D02*
X158846Y450945D01*
X164500Y199200D02*
X173800D01*
X347200Y292300D02*
X347700Y291800D01*
X338800Y292300D02*
X347200D01*
X337750Y291250D02*
X338800Y292300D01*
X334250Y291250D02*
X337750D01*
X334200Y291300D02*
X334250Y291250D01*
X334200Y291300D02*
Y319200D01*
X343000Y328000D01*
X227098Y511900D02*
X249900D01*
X211261Y527736D02*
X227098Y511900D01*
X199347Y527736D02*
X211261D01*
X197610Y526000D02*
X199347Y527736D01*
X197610Y520189D02*
Y526000D01*
X292098Y520189D02*
Y527500D01*
X293698Y529100D01*
X304300D01*
X306565Y526835D01*
Y447965D02*
Y526835D01*
X302500Y443900D02*
X306565Y447965D01*
X183300Y326800D02*
Y338800D01*
X103000Y375000D02*
X121100Y393100D01*
X274500Y467100D02*
X303900Y496500D01*
X274500Y432500D02*
Y467100D01*
X156500Y473100D02*
X168800Y460800D01*
X156500Y473100D02*
Y527700D01*
X158324Y529524D01*
X243031D01*
X244854Y527700D01*
Y520189D02*
Y527700D01*
X316000Y360100D02*
Y433900D01*
X322415Y440315D01*
X328598D01*
X281300Y416693D02*
X281354D01*
X265600Y376300D02*
X281300Y392000D01*
X128815Y376700D02*
X136250D01*
X162535Y402985D01*
Y438750D01*
X164100Y440315D01*
X171118D01*
X150366Y471900D02*
Y520189D01*
Y471900D02*
X165566Y456700D01*
X177600D01*
X144078Y347900D02*
Y379878D01*
X168600Y404400D01*
X129800Y451045D02*
Y458900D01*
X129700Y450945D02*
X129800Y451045D01*
X123874Y450945D02*
X129700D01*
X123874Y427323D02*
X132496D01*
X171100D02*
X171118D01*
X171100Y416693D02*
X171118D01*
X281354Y427323D02*
X284300D01*
X319976D02*
X328598D01*
Y450945D02*
X328600D01*
X278400D02*
X281354D01*
X278400Y460924D02*
X289976Y472500D01*
X288600Y412700D02*
Y438750D01*
X287035Y440315D02*
X288600Y438750D01*
X281354Y440315D02*
X287035D01*
X315016Y265512D02*
X316167D01*
X313835D02*
X315016D01*
X329032Y279528D02*
Y305000D01*
X316167Y265512D02*
X317832Y267177D01*
Y268329D02*
X329032Y279528D01*
X317832Y267177D02*
Y268329D01*
X208323Y230512D02*
X244150D01*
X255961Y234016D02*
X266792D01*
X244150Y230512D02*
X251276D01*
X267378Y234602D02*
Y262008D01*
X266792Y234016D02*
X267378Y234602D01*
X254780Y234016D02*
X255961D01*
X329032Y305000D02*
Y338000D01*
X244150Y248150D02*
X251276D01*
X254780Y244646D01*
X255961D01*
X208323Y248150D02*
X244150D01*
Y279646D02*
X251276D01*
X208323Y301378D02*
X244150D01*
X208323Y279646D02*
X244150D01*
Y301378D02*
X251276D01*
X251276Y319016D02*
X254780Y315512D01*
X255961D01*
X303205Y279646D02*
X310331D01*
X313835Y276142D01*
X315016D01*
X267378Y279646D02*
X303205D01*
X251276D02*
X254780Y276142D01*
X255961D01*
X251276Y301378D02*
X254780Y304882D01*
X251276Y230512D02*
X254780Y234016D01*
X310331Y262008D02*
X313835Y265512D01*
X267378Y262008D02*
X303205D01*
X260646D02*
X267378D01*
X257142Y265512D02*
X260646Y262008D01*
X255961Y265512D02*
X257142D01*
X244150Y262008D02*
X251276D01*
X254780Y265512D01*
X255961D01*
X208323Y262008D02*
X244150D01*
X201591D02*
X208323D01*
X198087Y265512D02*
X201591Y262008D01*
X196906Y265512D02*
X198087D01*
X231236Y333425D02*
Y498780D01*
X251236Y333425D02*
Y498780D01*
X100252Y184213D02*
X352220D01*
X316787Y500748D02*
X352220D01*
Y184213D02*
Y500748D01*
X135685Y532244D02*
X316787D01*
Y500748D02*
Y532244D01*
X100252Y500748D02*
X135685D01*
Y532244D01*
X100252Y184213D02*
Y500748D01*
X203000Y187500D02*
Y193498D01*
X205999D01*
X206999Y192498D01*
Y190499D01*
X205999Y189499D01*
X203000D01*
X208998Y191499D02*
Y187500D01*
Y189499D01*
X209998Y190499D01*
X210997Y191499D01*
X211997D01*
X217995Y187500D02*
X215996D01*
X214996Y188500D01*
Y190499D01*
X215996Y191499D01*
X217995D01*
X218995Y190499D01*
Y189499D01*
X214996D01*
X220994Y187500D02*
X223993D01*
X224993Y188500D01*
X223993Y189499D01*
X221994D01*
X220994Y190499D01*
X221994Y191499D01*
X224993D01*
X226992Y187500D02*
X229991D01*
X230991Y188500D01*
X229991Y189499D01*
X227992D01*
X226992Y190499D01*
X227992Y191499D01*
X230991D01*
X232990D02*
Y188500D01*
X233990Y187500D01*
X236989D01*
Y191499D01*
X238988D02*
Y187500D01*
Y189499D01*
X239988Y190499D01*
X240988Y191499D01*
X241987D01*
X247985Y187500D02*
X245986D01*
X244986Y188500D01*
Y190499D01*
X245986Y191499D01*
X247985D01*
X248985Y190499D01*
Y189499D01*
X244986D01*
X254983Y192498D02*
X253983Y193498D01*
X251984D01*
X250985Y192498D01*
Y191499D01*
X251984Y190499D01*
X253983D01*
X254983Y189499D01*
Y188500D01*
X253983Y187500D01*
X251984D01*
X250985Y188500D01*
X259982Y187500D02*
X257982D01*
X256982Y188500D01*
Y190499D01*
X257982Y191499D01*
X259982D01*
X260981Y190499D01*
Y189499D01*
X256982D01*
X262981Y187500D02*
Y191499D01*
X265980D01*
X266979Y190499D01*
Y187500D01*
X268979D02*
X271978D01*
X272977Y188500D01*
X271978Y189499D01*
X269978D01*
X268979Y190499D01*
X269978Y191499D01*
X272977D01*
X275976Y187500D02*
X277976D01*
X278975Y188500D01*
Y190499D01*
X277976Y191499D01*
X275976D01*
X274977Y190499D01*
Y188500D01*
X275976Y187500D01*
X280975Y191499D02*
Y187500D01*
Y189499D01*
X281975Y190499D01*
X282974Y191499D01*
X283974D01*
X292971D02*
X294970Y187500D01*
X296970Y191499D01*
X298969Y192498D02*
X299969Y193498D01*
X301968D01*
X302968Y192498D01*
Y188500D01*
X301968Y187500D01*
X299969D01*
X298969Y188500D01*
Y192498D01*
X304967Y187500D02*
Y188500D01*
X305967D01*
Y187500D01*
X304967D01*
X309965Y192498D02*
X310965Y193498D01*
X312964D01*
X313964Y192498D01*
Y188500D01*
X312964Y187500D01*
X310965D01*
X309965Y188500D01*
Y192498D01*
X319962Y187500D02*
X315964D01*
X319962Y191499D01*
Y192498D01*
X318963Y193498D01*
X316963D01*
X315964Y192498D01*
X110997Y453500D02*
X104999D01*
Y450501D01*
X105999Y449501D01*
X106999D01*
X107998D01*
X108998Y450501D01*
Y453500D01*
Y447502D02*
X105999D01*
X104999Y446502D01*
Y443503D01*
X104000D01*
X103000Y444503D01*
Y445503D01*
X104999Y443503D02*
X108998D01*
X110997Y435506D02*
X104999D01*
X107998D01*
Y431507D01*
X110997D01*
X104999D01*
X108998Y428508D02*
Y426509D01*
X107998Y425509D01*
X104999D01*
Y428508D01*
X105999Y429508D01*
X106999Y428508D01*
Y425509D01*
X108998Y423510D02*
X104999D01*
X106999D01*
X107998Y422510D01*
X108998Y421510D01*
Y420511D01*
Y416512D02*
Y414513D01*
X107998Y413513D01*
X104999D01*
Y416512D01*
X105999Y417512D01*
X106999Y416512D01*
Y413513D01*
X104999Y411514D02*
X110997D01*
X106999D02*
X108998Y408515D01*
X106999Y411514D02*
X104999Y408515D01*
Y405515D02*
Y403516D01*
Y404516D01*
X108998D01*
Y405515D01*
Y400517D02*
X104999Y398518D01*
X108998Y396518D01*
X104999Y394519D02*
Y392520D01*
Y393519D01*
X108998D01*
Y394519D01*
D14*
X123874Y427323D02*
D03*
Y416693D02*
D03*
X171118Y427323D02*
D03*
Y416693D02*
D03*
X328598Y427323D02*
D03*
Y416693D02*
D03*
X281354Y427323D02*
D03*
Y416693D02*
D03*
X123874Y440315D02*
D03*
Y450945D02*
D03*
X171118Y440315D02*
D03*
Y450945D02*
D03*
X328598Y440315D02*
D03*
Y450945D02*
D03*
X281354Y440315D02*
D03*
Y450945D02*
D03*
D15*
X255961Y304882D02*
D03*
Y315512D02*
D03*
X315016Y265512D02*
D03*
Y276142D02*
D03*
X255961Y265512D02*
D03*
Y276142D02*
D03*
X196906Y276142D02*
D03*
Y265512D02*
D03*
X255961Y244646D02*
D03*
Y234016D02*
D03*
D16*
X150366Y520189D02*
D03*
X160366D02*
D03*
X207610D02*
D03*
X197610D02*
D03*
X244854D02*
D03*
X254854D02*
D03*
X302098D02*
D03*
X292098D02*
D03*
D17*
X303205Y279646D02*
D03*
Y262008D02*
D03*
X267378Y279646D02*
D03*
Y262008D02*
D03*
X244150Y319016D02*
D03*
Y301378D02*
D03*
X208323Y319016D02*
D03*
Y301378D02*
D03*
X185095Y279646D02*
D03*
Y262008D02*
D03*
X149268Y279646D02*
D03*
Y262008D02*
D03*
X244150Y279646D02*
D03*
Y262008D02*
D03*
X208323Y279646D02*
D03*
Y262008D02*
D03*
X244150Y248150D02*
D03*
Y230512D02*
D03*
X208323Y248150D02*
D03*
Y230512D02*
D03*
D27*
X306000Y254200D02*
Y262008D01*
X165500Y195500D02*
X180500D01*
X201043Y216043D01*
Y224457D01*
X200500Y225000D02*
X201043Y224457D01*
X200500Y225000D02*
X276000D01*
X288500Y237500D02*
X289500D01*
X276000Y225000D02*
X288500Y237500D01*
X303205Y262008D02*
X306000D01*
X261236Y440308D02*
Y498780D01*
Y333425D02*
Y440308D01*
X299000Y237500D02*
X335500Y274000D01*
Y280500D02*
X343000Y288000D01*
X335500Y274000D02*
Y280500D01*
X289500Y237500D02*
X299000D01*
X329032Y338000D02*
X343000D01*
X301500D02*
X329032D01*
X254500Y519835D02*
X254854Y520189D01*
X241000Y499016D02*
Y507500D01*
Y499016D02*
X241236Y498780D01*
X241000Y507500D02*
X255000D01*
X207500D02*
X241000D01*
X241236Y333425D02*
Y498780D01*
X161981Y507500D02*
X207500D01*
X207610Y507610D02*
Y520189D01*
X207500Y507500D02*
X207610Y507610D01*
X255000Y507500D02*
X300484D01*
X254854Y507646D02*
Y520189D01*
Y507646D02*
X255000Y507500D01*
X302098Y509114D02*
Y520189D01*
X300484Y507500D02*
X302098Y509114D01*
X160366D02*
X161981Y507500D01*
X160366Y509114D02*
Y520189D01*
X261236Y333425D02*
X296925D01*
X301500Y338000D01*
D28*
X261236Y333425D02*
D03*
X251236D02*
D03*
X241236D02*
D03*
X231236D02*
D03*
X221236D02*
D03*
X211236D02*
D03*
X201236D02*
D03*
X332579Y200079D02*
D03*
X343000Y308000D02*
D03*
Y318000D02*
D03*
Y328000D02*
D03*
Y288000D02*
D03*
X201236Y498780D02*
D03*
X211236D02*
D03*
X221236D02*
D03*
X231236D02*
D03*
X241236D02*
D03*
X251236D02*
D03*
X261236D02*
D03*
D29*
X191236Y333425D02*
D03*
X342579Y200079D02*
D03*
X191236Y498780D02*
D03*
D30*
X343000Y338000D02*
D03*
Y278000D02*
D03*
D31*
X116000Y255079D02*
D03*
Y485000D02*
D03*
X336472Y255079D02*
D03*
Y485000D02*
D03*
D32*
X190000Y248000D02*
D03*
X186914Y243547D02*
D03*
X190365Y251865D02*
D03*
X191500Y258500D02*
D03*
X135772Y285240D02*
D03*
X194378Y283047D02*
D03*
X215500Y386000D02*
D03*
X290300Y206700D02*
D03*
X202300Y201800D02*
D03*
X165500Y195500D02*
D03*
X176500Y233500D02*
D03*
X199952Y229000D02*
D03*
X197500Y221000D02*
D03*
X192500Y239500D02*
D03*
X195500Y217500D02*
D03*
X200500Y225000D02*
D03*
X267439Y269061D02*
D03*
X157500Y263027D02*
D03*
X152500Y252335D02*
D03*
X146000Y236000D02*
D03*
X149268Y271268D02*
D03*
X289500Y237500D02*
D03*
X171000Y283000D02*
D03*
X166000Y240000D02*
D03*
X162000Y227547D02*
D03*
X169000Y252707D02*
D03*
X173000Y253000D02*
D03*
X197335Y253386D02*
D03*
X200000Y250500D02*
D03*
X199500Y259500D02*
D03*
X178500Y290500D02*
D03*
X155500Y283047D02*
D03*
X199883Y283000D02*
D03*
X271000Y301500D02*
D03*
X159000Y225000D02*
D03*
X165616Y219164D02*
D03*
X171700Y218800D02*
D03*
X167000Y293000D02*
D03*
X225000Y344500D02*
D03*
X145500Y252000D02*
D03*
X171000Y407000D02*
D03*
X176000Y226500D02*
D03*
X172327Y336000D02*
D03*
X143000Y223500D02*
D03*
X146500Y219500D02*
D03*
X202200Y271316D02*
D03*
X175600Y292785D02*
D03*
X184600Y209200D02*
D03*
X148800Y352400D02*
D03*
X134900Y380200D02*
D03*
X182700Y354600D02*
D03*
X336900Y294650D02*
D03*
X118300Y403900D02*
D03*
X157496Y449595D02*
D03*
X249900Y511900D02*
D03*
X302500Y443900D02*
D03*
X183300Y338800D02*
D03*
X121100Y393100D02*
D03*
X174000Y208300D02*
D03*
X110800Y301300D02*
D03*
X177500Y221142D02*
D03*
X303900Y496500D02*
D03*
X274500Y432500D02*
D03*
X168800Y460800D02*
D03*
X206200Y334700D02*
D03*
X316000Y360100D02*
D03*
X265600Y376300D02*
D03*
X128815Y376700D02*
D03*
X177600Y456700D02*
D03*
X144078Y347900D02*
D03*
X129800Y458900D02*
D03*
X132496Y427323D02*
D03*
X171100Y433800D02*
D03*
X284300Y431200D02*
D03*
X319976Y427323D02*
D03*
X324300Y395900D02*
D03*
X328600Y445700D02*
D03*
X289976Y472500D02*
D03*
X288600Y412700D02*
D03*
X306000Y254200D02*
D03*
X261236Y440308D02*
D03*
M02*
