G04*
G04 #@! TF.GenerationSoftware,Altium Limited,Altium Designer,20.1.8 (145)*
G04*
G04 Layer_Color=16711935*
%FSLAX25Y25*%
%MOIN*%
G70*
G04*
G04 #@! TF.SameCoordinates,8B47BC37-8199-49A1-8C2A-9A070CC082B9*
G04*
G04*
G04 #@! TF.FilePolarity,Positive*
G04*
G01*
G75*
%ADD10C,0.00787*%
%ADD12C,0.00500*%
%ADD58C,0.00000*%
%ADD59C,0.00394*%
%ADD60C,0.00197*%
D10*
X187505Y247107D02*
X186914Y247697D01*
X186323Y247107D01*
X186914Y246516D01*
X187505Y247107D01*
X234382Y405634D02*
X233594D01*
X234382D01*
D12*
X288992Y224272D02*
Y250728D01*
X274346Y224272D02*
X288992D01*
X274346D02*
Y250728D01*
X288992D01*
X155827Y244173D02*
X184173D01*
X155827Y215827D02*
Y244173D01*
Y215827D02*
X184173D01*
Y244173D01*
X221350Y395791D02*
X227650D01*
X221350Y407209D02*
X227650D01*
X221350Y395791D02*
Y407209D01*
X227650Y395791D02*
Y407209D01*
X107189Y201189D02*
Y224811D01*
X130811D01*
Y201189D02*
Y224811D01*
X107189Y201189D02*
X130811D01*
X273480Y282638D02*
X297102D01*
X273480Y259016D02*
Y282638D01*
Y259016D02*
X297102D01*
Y282638D01*
X214425Y322008D02*
X238047D01*
X214425Y298386D02*
Y322008D01*
Y298386D02*
X238047D01*
Y322008D01*
X155370Y282638D02*
X178992D01*
X155370Y259016D02*
Y282638D01*
Y259016D02*
X178992D01*
Y282638D01*
X214425D02*
X238047D01*
X214425Y259016D02*
Y282638D01*
Y259016D02*
X238047D01*
Y282638D01*
X214425Y251142D02*
X238047D01*
X214425Y227520D02*
Y251142D01*
Y227520D02*
X238047D01*
Y251142D01*
D58*
X152700Y330200D02*
X151851Y329849D01*
X151500Y329000D01*
X151851Y328151D01*
X152700Y327800D01*
X130296Y444430D02*
X131145Y444781D01*
X131496Y445630D01*
X131145Y446478D01*
X130296Y446830D01*
X287776Y444430D02*
X288625Y444781D01*
X288976Y445630D01*
X288625Y446478D01*
X287776Y446830D01*
X118300Y321100D02*
X152700D01*
Y327800D01*
Y330200D01*
Y336900D01*
X118300D02*
X152700D01*
X118300Y321100D02*
Y336900D01*
X151400D02*
Y341200D01*
X149600D02*
X151400D01*
X149600Y336900D02*
Y341200D01*
Y336900D02*
X151400D01*
X146400D02*
Y341200D01*
X144600D02*
X146400D01*
X144600Y336900D02*
Y341200D01*
Y336900D02*
X146400D01*
X141400D02*
Y341200D01*
X139600D02*
X141400D01*
X139600Y336900D02*
Y341200D01*
Y336900D02*
X141400D01*
X136400D02*
Y341200D01*
X134600D02*
X136400D01*
X134600Y336900D02*
Y341200D01*
Y336900D02*
X136400D01*
X131400D02*
Y341200D01*
X129600D02*
X131400D01*
X129600Y336900D02*
Y341200D01*
Y336900D02*
X131400D01*
X126400D02*
Y341200D01*
X124600D02*
X126400D01*
X124600Y336900D02*
Y341200D01*
Y336900D02*
X126400D01*
X121400D02*
Y341200D01*
X119600D02*
X121400D01*
X119600Y336900D02*
Y341200D01*
Y336900D02*
X121400D01*
X119600Y316800D02*
Y321100D01*
Y316800D02*
X121400D01*
Y321100D01*
X119600D02*
X121400D01*
X124600Y316800D02*
Y321100D01*
Y316800D02*
X126400D01*
Y321100D01*
X124600D02*
X126400D01*
X129600Y316800D02*
Y321100D01*
Y316800D02*
X131400D01*
Y321100D01*
X129600D02*
X131400D01*
X134600Y316800D02*
Y321100D01*
Y316800D02*
X136400D01*
Y321100D01*
X134600D02*
X136400D01*
X139600Y316800D02*
Y321100D01*
Y316800D02*
X141400D01*
Y321100D01*
X139600D02*
X141400D01*
X144600Y316800D02*
Y321100D01*
Y316800D02*
X146400D01*
Y321100D01*
X144600D02*
X146400D01*
X149600Y316800D02*
Y321100D01*
Y316800D02*
X151400D01*
Y321100D01*
X149600D02*
X151400D01*
X130296Y453530D02*
X164696D01*
X130296Y446830D02*
Y453530D01*
Y444430D02*
Y446830D01*
Y437730D02*
Y444430D01*
Y437730D02*
X164696D01*
Y453530D01*
X131596Y433430D02*
Y437730D01*
Y433430D02*
X133396D01*
Y437730D01*
X131596D02*
X133396D01*
X136596Y433430D02*
Y437730D01*
Y433430D02*
X138396D01*
Y437730D01*
X136596D02*
X138396D01*
X141596Y433430D02*
Y437730D01*
Y433430D02*
X143396D01*
Y437730D01*
X141596D02*
X143396D01*
X146596Y433430D02*
Y437730D01*
Y433430D02*
X148396D01*
Y437730D01*
X146596D02*
X148396D01*
X151596Y433430D02*
Y437730D01*
Y433430D02*
X153396D01*
Y437730D01*
X151596D02*
X153396D01*
X156596Y433430D02*
Y437730D01*
Y433430D02*
X158396D01*
Y437730D01*
X156596D02*
X158396D01*
X161596Y433430D02*
Y437730D01*
Y433430D02*
X163396D01*
Y437730D01*
X161596D02*
X163396D01*
Y453530D02*
Y457830D01*
X161596D02*
X163396D01*
X161596Y453530D02*
Y457830D01*
Y453530D02*
X163396D01*
X158396D02*
Y457830D01*
X156596D02*
X158396D01*
X156596Y453530D02*
Y457830D01*
Y453530D02*
X158396D01*
X153396D02*
Y457830D01*
X151596D02*
X153396D01*
X151596Y453530D02*
Y457830D01*
Y453530D02*
X153396D01*
X148396D02*
Y457830D01*
X146596D02*
X148396D01*
X146596Y453530D02*
Y457830D01*
Y453530D02*
X148396D01*
X143396D02*
Y457830D01*
X141596D02*
X143396D01*
X141596Y453530D02*
Y457830D01*
Y453530D02*
X143396D01*
X138396D02*
Y457830D01*
X136596D02*
X138396D01*
X136596Y453530D02*
Y457830D01*
Y453530D02*
X138396D01*
X133396D02*
Y457830D01*
X131596D02*
X133396D01*
X131596Y453530D02*
Y457830D01*
Y453530D02*
X133396D01*
X289076D02*
X290876D01*
X289076D02*
Y457830D01*
X290876D01*
Y453530D02*
Y457830D01*
X294076Y453530D02*
X295876D01*
X294076D02*
Y457830D01*
X295876D01*
Y453530D02*
Y457830D01*
X299076Y453530D02*
X300876D01*
X299076D02*
Y457830D01*
X300876D01*
Y453530D02*
Y457830D01*
X304076Y453530D02*
X305876D01*
X304076D02*
Y457830D01*
X305876D01*
Y453530D02*
Y457830D01*
X309076Y453530D02*
X310876D01*
X309076D02*
Y457830D01*
X310876D01*
Y453530D02*
Y457830D01*
X314076Y453530D02*
X315876D01*
X314076D02*
Y457830D01*
X315876D01*
Y453530D02*
Y457830D01*
X319076Y453530D02*
X320876D01*
X319076D02*
Y457830D01*
X320876D01*
Y453530D02*
Y457830D01*
X319076Y437730D02*
X320876D01*
Y433430D02*
Y437730D01*
X319076Y433430D02*
X320876D01*
X319076D02*
Y437730D01*
X314076D02*
X315876D01*
Y433430D02*
Y437730D01*
X314076Y433430D02*
X315876D01*
X314076D02*
Y437730D01*
X309076D02*
X310876D01*
Y433430D02*
Y437730D01*
X309076Y433430D02*
X310876D01*
X309076D02*
Y437730D01*
X304076D02*
X305876D01*
Y433430D02*
Y437730D01*
X304076Y433430D02*
X305876D01*
X304076D02*
Y437730D01*
X299076D02*
X300876D01*
Y433430D02*
Y437730D01*
X299076Y433430D02*
X300876D01*
X299076D02*
Y437730D01*
X294076D02*
X295876D01*
Y433430D02*
Y437730D01*
X294076Y433430D02*
X295876D01*
X294076D02*
Y437730D01*
X289076D02*
X290876D01*
Y433430D02*
Y437730D01*
X289076Y433430D02*
X290876D01*
X289076D02*
Y437730D01*
X322176D02*
Y453530D01*
X287776Y437730D02*
X322176D01*
X287776D02*
Y444430D01*
Y446830D01*
Y453530D01*
X322176D01*
D59*
X344193Y206957D02*
Y214043D01*
X330807Y206957D02*
Y214043D01*
X344193D01*
X330807Y206957D02*
X344193D01*
X129071Y415413D02*
Y428602D01*
X118677Y415413D02*
Y428602D01*
X129071D01*
X118677Y415413D02*
X129071D01*
X176315D02*
Y428602D01*
X165921Y415413D02*
Y428602D01*
X176315D01*
X165921Y415413D02*
X176315D01*
X333795D02*
Y428602D01*
X323402Y415413D02*
Y428602D01*
X333795D01*
X323402Y415413D02*
X333795D01*
X286551D02*
Y428602D01*
X276157Y415413D02*
Y428602D01*
X286551D01*
X276157Y415413D02*
X286551D01*
X252417Y303504D02*
X259504D01*
X252417Y316890D02*
X259504D01*
X252417Y303504D02*
Y316890D01*
X259504Y303504D02*
Y316890D01*
X219307Y389543D02*
X232693D01*
X219307Y382457D02*
X232693D01*
Y389543D01*
X219307Y382457D02*
Y389543D01*
X219303Y364094D02*
X229697D01*
X219303Y350906D02*
X229697D01*
X219303D02*
Y364094D01*
X229697Y350906D02*
Y364094D01*
X135957Y207193D02*
X143043D01*
X135957Y193807D02*
X143043D01*
X135957D02*
Y207193D01*
X143043Y193807D02*
Y207193D01*
X177693Y197457D02*
Y204543D01*
X164307Y197457D02*
Y204543D01*
X177693D01*
X164307Y197457D02*
X177693D01*
X315697Y234406D02*
Y247594D01*
X305303Y234406D02*
Y247594D01*
Y234406D02*
X315697D01*
X305303Y247594D02*
X315697D01*
X274307Y214457D02*
Y221543D01*
X287693Y214457D02*
Y221543D01*
X274307Y214457D02*
X287693D01*
X274307Y221543D02*
X287693D01*
X315697Y213406D02*
Y226594D01*
X305303Y213406D02*
Y226594D01*
Y213406D02*
X315697D01*
X305303Y226594D02*
X315697D01*
X241803Y409906D02*
Y423094D01*
X252197Y409906D02*
Y423094D01*
X241803D02*
X252197D01*
X241803Y409906D02*
X252197D01*
X218406Y420803D02*
X231594D01*
X218406Y431197D02*
X231594D01*
X218406Y420803D02*
Y431197D01*
X231594Y420803D02*
Y431197D01*
X244441Y351752D02*
X249559D01*
Y363248D01*
X244441D02*
X249559D01*
X244441Y351752D02*
Y363248D01*
Y355492D02*
X248181Y351752D01*
X165906Y295803D02*
X179095D01*
X165906Y306197D02*
X179095D01*
X165906Y295803D02*
Y306197D01*
X179095Y295803D02*
Y306197D01*
X105307Y304957D02*
Y312043D01*
X118693Y304957D02*
Y312043D01*
X105307Y304957D02*
X118693D01*
X105307Y312043D02*
X118693D01*
X105406Y301697D02*
X118595D01*
X105406Y291303D02*
X118595D01*
Y301697D01*
X105406Y291303D02*
Y301697D01*
X142405Y362197D02*
X155594D01*
X142405Y351803D02*
X155594D01*
Y362197D01*
X142405Y351803D02*
Y362197D01*
X116906D02*
X130095D01*
X116906Y351803D02*
X130095D01*
Y362197D01*
X116906Y351803D02*
Y362197D01*
X277811Y438937D02*
X284898D01*
X277811Y452323D02*
X284898D01*
Y438937D02*
Y452323D01*
X277811Y438937D02*
Y452323D01*
X120331Y438937D02*
X127417D01*
X120331Y452323D02*
X127417D01*
Y438937D02*
Y452323D01*
X120331Y438937D02*
Y452323D01*
X311472Y264134D02*
X318559D01*
X311472Y277520D02*
X318559D01*
X311472Y264134D02*
Y277520D01*
X318559Y264134D02*
Y277520D01*
X242693Y235158D02*
Y242244D01*
X229307Y235158D02*
Y242244D01*
X242693D01*
X229307Y235158D02*
X242693D01*
Y197756D02*
Y204843D01*
X229307Y197756D02*
Y204843D01*
X242693D01*
X229307Y197756D02*
X242693D01*
X297803Y265906D02*
Y279094D01*
X308197Y265906D02*
Y279094D01*
X297803D02*
X308197D01*
X297803Y265906D02*
X308197D01*
X252417Y264134D02*
X259504D01*
X252417Y277520D02*
X259504D01*
X252417Y264134D02*
Y277520D01*
X259504Y264134D02*
Y277520D01*
X200449Y264134D02*
Y277520D01*
X193362Y264134D02*
Y277520D01*
X200449D01*
X193362Y264134D02*
X200449D01*
X118677Y439036D02*
X129071D01*
X118677Y452224D02*
X129071D01*
X118677Y439036D02*
Y452224D01*
X129071Y439036D02*
Y452224D01*
X165921Y439036D02*
X176315D01*
X165921Y452224D02*
X176315D01*
X165921Y439036D02*
Y452224D01*
X176315Y439036D02*
Y452224D01*
X165921Y401043D02*
X176315D01*
X165921Y387854D02*
X176315D01*
X165921D02*
Y401043D01*
X176315Y387854D02*
Y401043D01*
X118677Y387854D02*
X129071D01*
X118677Y401043D02*
X129071D01*
Y387854D02*
Y401043D01*
X118677Y387854D02*
Y401043D01*
X323402Y387854D02*
X333795D01*
X323402Y401043D02*
X333795D01*
Y387854D02*
Y401043D01*
X323402Y387854D02*
Y401043D01*
X276157Y387854D02*
X286551D01*
X276157Y401043D02*
X286551D01*
Y387854D02*
Y401043D01*
X276157Y387854D02*
Y401043D01*
X323402Y439036D02*
X333795D01*
X323402Y452224D02*
X333795D01*
X323402Y439036D02*
Y452224D01*
X333795Y439036D02*
Y452224D01*
X276157Y439036D02*
X286551D01*
X276157Y452224D02*
X286551D01*
X276157Y439036D02*
Y452224D01*
X286551Y439036D02*
Y452224D01*
X259504Y232638D02*
Y246024D01*
X252417Y232638D02*
Y246024D01*
X259504D01*
X252417Y232638D02*
X259504D01*
X116807Y374543D02*
X130193D01*
X116807Y367457D02*
X130193D01*
Y374543D01*
X116807Y367457D02*
Y374543D01*
X142307D02*
X155693D01*
X142307Y367457D02*
X155693D01*
Y374543D01*
X142307Y367457D02*
Y374543D01*
X165807Y309457D02*
X179193D01*
X165807Y316543D02*
X179193D01*
X165807Y309457D02*
Y316543D01*
X179193Y309457D02*
Y316543D01*
X161543Y322307D02*
Y335693D01*
X154457Y322307D02*
Y335693D01*
Y322307D02*
X161543D01*
X154457Y335693D02*
X161543D01*
D60*
X239323Y350532D02*
X254677D01*
Y364469D01*
X239323D02*
X254677D01*
X239323Y350532D02*
Y364469D01*
M02*
