M48
;Layer_Color=9474304
;FILE_FORMAT=2:5
INCH,LZ
;TYPE=PLATED
T1F00S00C0.00787
T2F00S00C0.01000
T3F00S00C0.03543
T4F00S00C0.09055
%
T01
X01655Y01955
X02005Y0225
X02895Y02375
X0261236Y0440308
T02
X03369Y029465
X0306Y02542
X0267439Y0269061
X0271Y03015
X0199883Y0283
X0194378Y0283047
X02022Y0271316
X01995Y02595
X0197335Y0253386
X02Y02505
X0190365Y0251865
X019Y0248
X0186914Y0243547
X01925Y02395
X0199952Y0229
X01975Y0221
X01955Y02175
X01846Y02092
X0174Y02083
X01717Y02188
X0165616Y0219164
X0162Y0227547
X0159Y0225
X0176Y02265
X01775Y0221142
X01765Y02335
X0166Y024
X0169Y0252707
X0173Y0253
X01915Y02585
X01575Y0263027
X0171Y0283
X0167Y0293
X01756Y0292785
X01785Y02905
X02023Y02018
X02903Y02067
X01465Y02195
X0143Y02235
X0146Y0236
X01455Y0252
X01525Y0252335
X0149268Y0271268
X01555Y0283047
X0135772Y028524
X01108Y03013
X0144078Y03479
X01488Y03524
X01349Y03802
X0128815Y03767
X01211Y03931
X01183Y04039
X0132496Y0427323
X01298Y04589
X0157496Y0449595
X01688Y04608
X01776Y04567
X01711Y04338
X0171Y0407
X01827Y03546
X01833Y03388
X0172327Y0336
X02062Y03347
X0225Y03445
X02155Y0386
X02656Y03763
X02886Y04127
X02843Y04312
X02745Y04325
X03025Y04439
X03286Y04457
X0319976Y0427323
X03243Y03959
X0316Y03601
X0289976Y04725
X03039Y04965
X02499Y05119
T03
X0332579Y0200079
X0342579
X0343Y0278
Y0288
Y0308
X0261236Y0333425
X0251236
X0241236
X0231236
X0221236
X0211236
X0201236
X0191236
X0343Y0338
Y0328
Y0318
X0261236Y049878
X0251236
X0241236
X0231236
X0221236
X0211236
X0201236
X0191236
T04
X0336472Y0255079
X0116
X0336472Y0485
X0116
M30
