G04*
G04 #@! TF.GenerationSoftware,Altium Limited,Altium Designer,20.1.8 (145)*
G04*
G04 Layer_Color=8421504*
%FSLAX25Y25*%
%MOIN*%
G70*
G04*
G04 #@! TF.SameCoordinates,8B47BC37-8199-49A1-8C2A-9A070CC082B9*
G04*
G04*
G04 #@! TF.FilePolarity,Positive*
G04*
G01*
G75*
%ADD14R,0.10236X0.04331*%
%ADD15R,0.06693X0.04331*%
%ADD16R,0.05000X0.12520*%
G04:AMPARAMS|DCode=17|XSize=82.68mil|YSize=54.33mil|CornerRadius=4.08mil|HoleSize=0mil|Usage=FLASHONLY|Rotation=0.000|XOffset=0mil|YOffset=0mil|HoleType=Round|Shape=RoundedRectangle|*
%AMROUNDEDRECTD17*
21,1,0.08268,0.04618,0,0,0.0*
21,1,0.07453,0.05433,0,0,0.0*
1,1,0.00815,0.03726,-0.02309*
1,1,0.00815,-0.03726,-0.02309*
1,1,0.00815,-0.03726,0.02309*
1,1,0.00815,0.03726,0.02309*
%
%ADD17ROUNDEDRECTD17*%
D14*
X123874Y427323D02*
D03*
Y416693D02*
D03*
X171118Y427323D02*
D03*
Y416693D02*
D03*
X328598Y427323D02*
D03*
Y416693D02*
D03*
X281354Y427323D02*
D03*
Y416693D02*
D03*
X123874Y440315D02*
D03*
Y450945D02*
D03*
X171118Y440315D02*
D03*
Y450945D02*
D03*
X328598Y440315D02*
D03*
Y450945D02*
D03*
X281354Y440315D02*
D03*
Y450945D02*
D03*
D15*
X255961Y304882D02*
D03*
Y315512D02*
D03*
X315016Y265512D02*
D03*
Y276142D02*
D03*
X255961Y265512D02*
D03*
Y276142D02*
D03*
X196906Y276142D02*
D03*
Y265512D02*
D03*
X255961Y244646D02*
D03*
Y234016D02*
D03*
D16*
X150366Y520189D02*
D03*
X160366D02*
D03*
X207610D02*
D03*
X197610D02*
D03*
X244854D02*
D03*
X254854D02*
D03*
X302098D02*
D03*
X292098D02*
D03*
D17*
X303205Y279646D02*
D03*
Y262008D02*
D03*
X267378Y279646D02*
D03*
Y262008D02*
D03*
X244150Y319016D02*
D03*
Y301378D02*
D03*
X208323Y319016D02*
D03*
Y301378D02*
D03*
X185095Y279646D02*
D03*
Y262008D02*
D03*
X149268Y279646D02*
D03*
Y262008D02*
D03*
X244150Y279646D02*
D03*
Y262008D02*
D03*
X208323Y279646D02*
D03*
Y262008D02*
D03*
X244150Y248150D02*
D03*
Y230512D02*
D03*
X208323Y248150D02*
D03*
Y230512D02*
D03*
M02*
