G04*
G04 #@! TF.GenerationSoftware,Altium Limited,Altium Designer,20.1.8 (145)*
G04*
G04 Layer_Physical_Order=2*
G04 Layer_Color=16711680*
%FSLAX25Y25*%
%MOIN*%
G70*
G04*
G04 #@! TF.SameCoordinates,8B47BC37-8199-49A1-8C2A-9A070CC082B9*
G04*
G04*
G04 #@! TF.FilePolarity,Positive*
G04*
G01*
G75*
%ADD13C,0.01000*%
%ADD14R,0.10236X0.04331*%
%ADD15R,0.06693X0.04331*%
%ADD16R,0.05000X0.12520*%
%ADD27C,0.02756*%
%ADD28C,0.05906*%
%ADD29R,0.05906X0.05906*%
%ADD30R,0.05906X0.05906*%
%ADD31C,0.19685*%
%ADD32C,0.02756*%
%ADD33R,0.04331X0.06693*%
G04:AMPARAMS|DCode=34|XSize=127.56mil|YSize=51.58mil|CornerRadius=3.87mil|HoleSize=0mil|Usage=FLASHONLY|Rotation=270.000|XOffset=0mil|YOffset=0mil|HoleType=Round|Shape=RoundedRectangle|*
%AMROUNDEDRECTD34*
21,1,0.12756,0.04384,0,0,270.0*
21,1,0.11982,0.05158,0,0,270.0*
1,1,0.00774,-0.02192,-0.05991*
1,1,0.00774,-0.02192,0.05991*
1,1,0.00774,0.02192,0.05991*
1,1,0.00774,0.02192,-0.05991*
%
%ADD34ROUNDEDRECTD34*%
G04:AMPARAMS|DCode=35|XSize=36.61mil|YSize=51.58mil|CornerRadius=2.75mil|HoleSize=0mil|Usage=FLASHONLY|Rotation=270.000|XOffset=0mil|YOffset=0mil|HoleType=Round|Shape=RoundedRectangle|*
%AMROUNDEDRECTD35*
21,1,0.03661,0.04608,0,0,270.0*
21,1,0.03112,0.05158,0,0,270.0*
1,1,0.00549,-0.02304,-0.01556*
1,1,0.00549,-0.02304,0.01556*
1,1,0.00549,0.02304,0.01556*
1,1,0.00549,0.02304,-0.01556*
%
%ADD35ROUNDEDRECTD35*%
%ADD36R,0.08300X0.22000*%
G04:AMPARAMS|DCode=37|XSize=11.02mil|YSize=61.42mil|CornerRadius=2.76mil|HoleSize=0mil|Usage=FLASHONLY|Rotation=180.000|XOffset=0mil|YOffset=0mil|HoleType=Round|Shape=RoundedRectangle|*
%AMROUNDEDRECTD37*
21,1,0.01102,0.05591,0,0,180.0*
21,1,0.00551,0.06142,0,0,180.0*
1,1,0.00551,-0.00276,0.02795*
1,1,0.00551,0.00276,0.02795*
1,1,0.00551,0.00276,-0.02795*
1,1,0.00551,-0.00276,-0.02795*
%
%ADD37ROUNDEDRECTD37*%
G04:AMPARAMS|DCode=38|XSize=11.02mil|YSize=61.42mil|CornerRadius=2.76mil|HoleSize=0mil|Usage=FLASHONLY|Rotation=90.000|XOffset=0mil|YOffset=0mil|HoleType=Round|Shape=RoundedRectangle|*
%AMROUNDEDRECTD38*
21,1,0.01102,0.05591,0,0,90.0*
21,1,0.00551,0.06142,0,0,90.0*
1,1,0.00551,0.02795,0.00276*
1,1,0.00551,0.02795,-0.00276*
1,1,0.00551,-0.02795,-0.00276*
1,1,0.00551,-0.02795,0.00276*
%
%ADD38ROUNDEDRECTD38*%
G04:AMPARAMS|DCode=39|XSize=47.64mil|YSize=23.23mil|CornerRadius=5.81mil|HoleSize=0mil|Usage=FLASHONLY|Rotation=180.000|XOffset=0mil|YOffset=0mil|HoleType=Round|Shape=RoundedRectangle|*
%AMROUNDEDRECTD39*
21,1,0.04764,0.01161,0,0,180.0*
21,1,0.03602,0.02323,0,0,180.0*
1,1,0.01161,-0.01801,0.00581*
1,1,0.01161,0.01801,0.00581*
1,1,0.01161,0.01801,-0.00581*
1,1,0.01161,-0.01801,-0.00581*
%
%ADD39ROUNDEDRECTD39*%
%ADD40R,0.04331X0.10236*%
%ADD41R,0.05118X0.02362*%
G04:AMPARAMS|DCode=42|XSize=82.68mil|YSize=54.33mil|CornerRadius=4.08mil|HoleSize=0mil|Usage=FLASHONLY|Rotation=270.000|XOffset=0mil|YOffset=0mil|HoleType=Round|Shape=RoundedRectangle|*
%AMROUNDEDRECTD42*
21,1,0.08268,0.04618,0,0,270.0*
21,1,0.07453,0.05433,0,0,270.0*
1,1,0.00815,-0.02309,-0.03726*
1,1,0.00815,-0.02309,0.03726*
1,1,0.00815,0.02309,0.03726*
1,1,0.00815,0.02309,-0.03726*
%
%ADD42ROUNDEDRECTD42*%
%ADD43R,0.02000X0.07800*%
%ADD44C,0.03937*%
G36*
X271993Y527749D02*
X258604Y514360D01*
X258142Y514551D01*
Y527236D01*
X256239D01*
X256165Y527735D01*
X256550Y528211D01*
X271802D01*
X271993Y527749D01*
D02*
G37*
G36*
X239157D02*
X224620Y513213D01*
X210898D01*
Y527236D01*
X209656D01*
X209465Y527698D01*
X209978Y528211D01*
X238965D01*
X239157Y527749D01*
D02*
G37*
G36*
X199433Y527911D02*
X199241Y527449D01*
X198110D01*
Y520689D01*
X201110D01*
Y525580D01*
X201572Y525772D01*
X201937Y525406D01*
Y513650D01*
X202037Y513148D01*
X202322Y512722D01*
X204072Y510972D01*
X204498Y510687D01*
X205000Y510587D01*
X225164D01*
X225666Y510687D01*
X226092Y510972D01*
X240893Y525772D01*
X241354Y525581D01*
Y520689D01*
X244854D01*
X248354D01*
Y526424D01*
X251567D01*
Y513992D01*
X251067Y513725D01*
X250745Y513940D01*
X249900Y514108D01*
X249055Y513940D01*
X248795Y513766D01*
X248354Y514002D01*
Y519689D01*
X245354D01*
Y512929D01*
X247428D01*
X247797Y512429D01*
X247692Y511900D01*
X247860Y511055D01*
X248339Y510339D01*
X249055Y509860D01*
X249900Y509692D01*
X250745Y509860D01*
X251461Y510339D01*
X251627Y510587D01*
X258000D01*
X258502Y510687D01*
X258928Y510972D01*
X274380Y526424D01*
X288598D01*
Y520689D01*
X292098D01*
Y520189D01*
X292598D01*
Y512929D01*
X295598D01*
X295687Y512466D01*
Y482900D01*
X295787Y482398D01*
X296072Y481972D01*
X310987Y467056D01*
Y463519D01*
X310487Y463312D01*
X290464Y483335D01*
X290038Y483620D01*
X289536Y483720D01*
X248063D01*
Y495994D01*
X248536Y496155D01*
X248569Y496112D01*
X249350Y495513D01*
X250260Y495136D01*
X251236Y495007D01*
X252213Y495136D01*
X253122Y495513D01*
X253904Y496112D01*
X254503Y496893D01*
X254880Y497803D01*
X255009Y498780D01*
X254880Y499756D01*
X254503Y500666D01*
X253904Y501447D01*
X253122Y502047D01*
X252213Y502423D01*
X251236Y502552D01*
X250260Y502423D01*
X249350Y502047D01*
X248569Y501447D01*
X248265Y501051D01*
X247709Y501029D01*
X247644Y501063D01*
X244678Y504028D01*
X244252Y504313D01*
X243750Y504413D01*
X152744D01*
X147813Y509344D01*
Y512929D01*
X149866D01*
Y520189D01*
X150366D01*
Y520689D01*
X153866D01*
Y526541D01*
X156724Y526562D01*
X157079Y526209D01*
Y513142D01*
X163654D01*
Y527236D01*
X161588D01*
X161579Y527917D01*
X161564Y527987D01*
X161782Y528350D01*
X161970Y528487D01*
X198856D01*
X199433Y527911D01*
D02*
G37*
G36*
X311987Y525706D02*
Y480200D01*
X312087Y479698D01*
X312372Y479272D01*
X329987Y461656D01*
Y447908D01*
X329546Y447672D01*
X329445Y447740D01*
X328600Y447908D01*
X328307Y447850D01*
X326228Y449928D01*
X325802Y450213D01*
X325300Y450313D01*
X322127D01*
X321764Y450643D01*
Y460017D01*
X318189D01*
Y456643D01*
X316764D01*
Y460017D01*
X313613D01*
Y467600D01*
X313513Y468102D01*
X313228Y468528D01*
X298313Y483444D01*
Y513138D01*
X298813Y513142D01*
X300786D01*
Y498302D01*
X300886Y497799D01*
X301170Y497373D01*
X301750Y496793D01*
X301692Y496500D01*
X301860Y495655D01*
X302339Y494939D01*
X303055Y494460D01*
X303900Y494292D01*
X304745Y494460D01*
X305461Y494939D01*
X305940Y495655D01*
X306108Y496500D01*
X305940Y497345D01*
X305461Y498061D01*
X304745Y498540D01*
X303900Y498708D01*
X303850Y498698D01*
X303411Y499074D01*
Y513142D01*
X305386D01*
Y527236D01*
X298811D01*
Y526640D01*
X298313Y526636D01*
X298213Y527139D01*
X297928Y527565D01*
X297744Y527749D01*
X297935Y528211D01*
X309483D01*
X311987Y525706D01*
D02*
G37*
G36*
X245437Y498206D02*
Y482993D01*
X245537Y482490D01*
X245822Y482065D01*
X246408Y481479D01*
X246833Y481194D01*
X247336Y481094D01*
X288992D01*
X307824Y462263D01*
X307542Y461837D01*
X307164Y461913D01*
X301250D01*
X300748Y461813D01*
X300322Y461528D01*
X299048Y460255D01*
X298890Y460017D01*
X298189D01*
Y451455D01*
X296764D01*
Y460017D01*
X293189D01*
Y456643D01*
X291764D01*
Y460017D01*
X291289D01*
Y470773D01*
X291537Y470939D01*
X292016Y471655D01*
X292184Y472500D01*
X292016Y473345D01*
X291537Y474061D01*
X290821Y474540D01*
X289976Y474708D01*
X289131Y474540D01*
X288415Y474061D01*
X287937Y473345D01*
X287769Y472500D01*
X287937Y471655D01*
X288415Y470939D01*
X288664Y470773D01*
Y460017D01*
X288189D01*
Y452658D01*
X287689Y452248D01*
X287641Y452258D01*
X285488D01*
Y453898D01*
X282667D01*
Y462914D01*
X282567Y463416D01*
X282282Y463842D01*
X281697Y464428D01*
X281271Y464713D01*
X280768Y464813D01*
X242549D01*
Y495275D01*
X243122Y495513D01*
X243904Y496112D01*
X244503Y496893D01*
X244880Y497803D01*
X244937Y498239D01*
X245437Y498206D01*
D02*
G37*
G36*
X144863Y528482D02*
X145195Y528094D01*
X145225Y527987D01*
X145187Y527800D01*
Y508800D01*
X145287Y508298D01*
X145572Y507872D01*
X151272Y502172D01*
X151698Y501887D01*
X152200Y501787D01*
X187496D01*
Y495040D01*
X194976D01*
Y501787D01*
X198234D01*
X198446Y501287D01*
X197969Y500666D01*
X197592Y499756D01*
X197464Y498780D01*
X197592Y497803D01*
X197969Y496893D01*
X198569Y496112D01*
X199350Y495513D01*
X200260Y495136D01*
X201236Y495007D01*
X202213Y495136D01*
X203122Y495513D01*
X203904Y496112D01*
X204503Y496893D01*
X204880Y497803D01*
X205009Y498780D01*
X204880Y499756D01*
X204503Y500666D01*
X204026Y501287D01*
X204238Y501787D01*
X208234D01*
X208446Y501287D01*
X207969Y500666D01*
X207592Y499756D01*
X207464Y498780D01*
X207592Y497803D01*
X207969Y496893D01*
X208569Y496112D01*
X209350Y495513D01*
X210260Y495136D01*
X211236Y495007D01*
X212213Y495136D01*
X213122Y495513D01*
X213904Y496112D01*
X214503Y496893D01*
X214880Y497803D01*
X215009Y498780D01*
X214880Y499756D01*
X214503Y500666D01*
X214026Y501287D01*
X214238Y501787D01*
X218234D01*
X218446Y501287D01*
X217969Y500666D01*
X217592Y499756D01*
X217464Y498780D01*
X217592Y497803D01*
X217969Y496893D01*
X218569Y496112D01*
X219350Y495513D01*
X220260Y495136D01*
X221236Y495007D01*
X222213Y495136D01*
X223122Y495513D01*
X223904Y496112D01*
X224503Y496893D01*
X224880Y497803D01*
X225009Y498780D01*
X224880Y499756D01*
X224503Y500666D01*
X224026Y501287D01*
X224238Y501787D01*
X228234D01*
X228446Y501287D01*
X227969Y500666D01*
X227592Y499756D01*
X227464Y498780D01*
X227592Y497803D01*
X227969Y496893D01*
X228569Y496112D01*
X229350Y495513D01*
X230260Y495136D01*
X231236Y495007D01*
X232213Y495136D01*
X233122Y495513D01*
X233904Y496112D01*
X234503Y496893D01*
X234880Y497803D01*
X235009Y498780D01*
X234880Y499756D01*
X234503Y500666D01*
X234026Y501287D01*
X234238Y501787D01*
X238234D01*
X238446Y501287D01*
X237969Y500666D01*
X237592Y499756D01*
X237464Y498780D01*
X237592Y497803D01*
X237969Y496893D01*
X238569Y496112D01*
X239350Y495513D01*
X239924Y495275D01*
Y464813D01*
X124586D01*
X124083Y464713D01*
X123658Y464428D01*
X123072Y463842D01*
X122787Y463416D01*
X122687Y462914D01*
Y453898D01*
X120513D01*
Y464356D01*
X142028Y485872D01*
X142313Y486298D01*
X142413Y486800D01*
Y528487D01*
X144851D01*
X144863Y528482D01*
D02*
G37*
G36*
X141464Y461687D02*
X141283Y461416D01*
X141183Y460914D01*
Y460017D01*
X140709D01*
Y451455D01*
X139283D01*
Y460017D01*
X135709D01*
Y456643D01*
X134283D01*
Y460017D01*
X133141D01*
X132998Y460113D01*
X132496Y460213D01*
X131527D01*
X131361Y460461D01*
X130645Y460940D01*
X129800Y461108D01*
X128955Y460940D01*
X128239Y460461D01*
X127760Y459745D01*
X127592Y458900D01*
X127760Y458055D01*
X128239Y457339D01*
X128955Y456860D01*
X129800Y456692D01*
X130209Y456774D01*
X130709Y456363D01*
Y452658D01*
X130209Y452248D01*
X130160Y452258D01*
X128008D01*
Y453898D01*
X125313D01*
Y462187D01*
X141253D01*
X141464Y461687D01*
D02*
G37*
G36*
X150709Y460017D02*
Y450643D01*
X150779D01*
X150986Y450143D01*
X148756Y447913D01*
X128475D01*
X128008Y447992D01*
Y449632D01*
X129617D01*
X130035Y449214D01*
X130461Y448930D01*
X130963Y448830D01*
X145209D01*
X145711Y448930D01*
X146137Y449214D01*
X147565Y450643D01*
X149283D01*
Y460017D01*
X149713Y460187D01*
X150279D01*
X150709Y460017D01*
D02*
G37*
G36*
X315475Y500748D02*
X315500Y500621D01*
Y499500D01*
X316462D01*
X316787Y499435D01*
X350908D01*
Y185525D01*
X101565D01*
Y499435D01*
X135685D01*
X136010Y499500D01*
X137000D01*
Y530931D01*
X140368D01*
X140575Y530431D01*
X140172Y530028D01*
X139887Y529602D01*
X139787Y529100D01*
Y487344D01*
X118272Y465828D01*
X117987Y465402D01*
X117887Y464900D01*
Y446700D01*
X117987Y446198D01*
X118272Y445772D01*
X118372Y445672D01*
X118798Y445387D01*
X119300Y445287D01*
X149300D01*
X149802Y445387D01*
X150228Y445672D01*
X153424Y448868D01*
X153709Y449294D01*
X153809Y449796D01*
Y450643D01*
X154283D01*
Y460017D01*
X154713Y460187D01*
X155279D01*
X155709Y460017D01*
X155709Y459687D01*
Y450817D01*
X155456Y450440D01*
X155288Y449595D01*
X155456Y448750D01*
X155935Y448034D01*
X156651Y447555D01*
X157496Y447387D01*
X158341Y447555D01*
X159057Y448034D01*
X159536Y448750D01*
X159704Y449595D01*
X159536Y450440D01*
X159283Y450817D01*
Y454017D01*
X160709D01*
Y450643D01*
X164283D01*
Y459687D01*
X164283Y460017D01*
X164713Y460187D01*
X166714D01*
X166760Y459955D01*
X167239Y459239D01*
X167955Y458760D01*
X168800Y458592D01*
X169645Y458760D01*
X170361Y459239D01*
X170840Y459955D01*
X171008Y460800D01*
X170840Y461645D01*
X170772Y461746D01*
X171008Y462187D01*
X280042D01*
Y453898D01*
X277220D01*
Y448713D01*
X187444D01*
X179750Y456407D01*
X179808Y456700D01*
X179640Y457545D01*
X179161Y458261D01*
X178445Y458740D01*
X177600Y458908D01*
X176755Y458740D01*
X176039Y458261D01*
X175560Y457545D01*
X175392Y456700D01*
X175560Y455855D01*
X176039Y455139D01*
X176755Y454660D01*
X177600Y454492D01*
X177893Y454551D01*
X185972Y446472D01*
X186398Y446187D01*
X186900Y446087D01*
X300976D01*
X301128Y445587D01*
X300939Y445461D01*
X300773Y445213D01*
X206872D01*
X206370Y445113D01*
X205944Y444828D01*
X203546Y442430D01*
X153750D01*
X153248Y442330D01*
X152822Y442046D01*
X151568Y440792D01*
X151452Y440617D01*
X150709D01*
Y431243D01*
X154283D01*
Y439794D01*
X154294Y439805D01*
X155709D01*
Y431243D01*
X159283D01*
Y434617D01*
X160709D01*
Y431243D01*
X164283D01*
Y432487D01*
X169373D01*
X169539Y432239D01*
X170255Y431760D01*
X171100Y431592D01*
X171945Y431760D01*
X172661Y432239D01*
X173140Y432955D01*
X173308Y433800D01*
X173140Y434645D01*
X172661Y435361D01*
X171945Y435840D01*
X171100Y436008D01*
X170255Y435840D01*
X169539Y435361D01*
X169373Y435113D01*
X164283D01*
Y439805D01*
X204090D01*
X204592Y439905D01*
X205018Y440189D01*
X207416Y442587D01*
X259467D01*
X259619Y442087D01*
X259522Y442023D01*
X258996Y441236D01*
X258911Y440808D01*
X263561D01*
X263476Y441236D01*
X262951Y442023D01*
X262854Y442087D01*
X263005Y442587D01*
X277008D01*
Y440815D01*
X285701D01*
Y442587D01*
X300773D01*
X300939Y442339D01*
X301655Y441860D01*
X302500Y441692D01*
X303345Y441860D01*
X304061Y442339D01*
X304540Y443055D01*
X304708Y443900D01*
X304540Y444745D01*
X304061Y445461D01*
X303872Y445587D01*
X304024Y446087D01*
X305914D01*
X306416Y446187D01*
X306842Y446472D01*
X308176Y447806D01*
X308250Y447798D01*
X308664Y447628D01*
Y440617D01*
X308189D01*
Y431243D01*
X311764D01*
Y440617D01*
X311289D01*
Y447233D01*
X313228Y449172D01*
X313396Y449422D01*
X313918Y449474D01*
X313974Y449457D01*
X314048Y449345D01*
X315322Y448072D01*
X315748Y447787D01*
X316250Y447687D01*
X324756D01*
X326450Y445993D01*
X326392Y445700D01*
X326560Y444855D01*
X327039Y444139D01*
X327755Y443660D01*
X328600Y443492D01*
X329445Y443660D01*
X329546Y443728D01*
X329987Y443492D01*
Y426044D01*
X329456Y425513D01*
X321972D01*
X321705Y426013D01*
X322016Y426478D01*
X322184Y427323D01*
X322016Y428168D01*
X321537Y428884D01*
X321289Y429050D01*
Y431243D01*
X321764D01*
Y440617D01*
X318189D01*
Y437243D01*
X316764D01*
Y440617D01*
X313189D01*
Y431243D01*
X316764D01*
Y434617D01*
X318189D01*
Y431243D01*
X318664D01*
Y429050D01*
X318415Y428884D01*
X317937Y428168D01*
X317769Y427323D01*
X317937Y426478D01*
X318248Y426013D01*
X317980Y425513D01*
X301794D01*
X301289Y426017D01*
Y431243D01*
X301764D01*
Y440617D01*
X298189D01*
Y431243D01*
X298664D01*
Y425474D01*
X298764Y424971D01*
X299048Y424545D01*
X300322Y423272D01*
X300748Y422987D01*
X301250Y422887D01*
X330000D01*
X330502Y422987D01*
X330928Y423272D01*
X332228Y424572D01*
X332513Y424998D01*
X332613Y425500D01*
Y462200D01*
X332513Y462702D01*
X332228Y463128D01*
X314613Y480744D01*
Y526250D01*
X314513Y526752D01*
X314228Y527178D01*
X310975Y530431D01*
X310980Y530519D01*
X311137Y530931D01*
X315475D01*
Y500748D01*
D02*
G37*
%LPC*%
G36*
X197110Y527449D02*
X194110D01*
Y520689D01*
X197110D01*
Y527449D01*
D02*
G37*
G36*
X244354Y519689D02*
X241354D01*
Y512929D01*
X244354D01*
Y519689D01*
D02*
G37*
G36*
X201110D02*
X198110D01*
Y512929D01*
X201110D01*
Y519689D01*
D02*
G37*
G36*
X197110D02*
X194110D01*
Y512929D01*
X197110D01*
Y519689D01*
D02*
G37*
G36*
X153866D02*
X150866D01*
Y512929D01*
X153866D01*
Y519689D01*
D02*
G37*
G36*
X291598D02*
X288598D01*
Y512929D01*
X291598D01*
Y519689D01*
D02*
G37*
G36*
X261736Y502701D02*
Y499280D01*
X265157D01*
X265087Y499812D01*
X264689Y500773D01*
X264055Y501599D01*
X263230Y502232D01*
X262268Y502631D01*
X261736Y502701D01*
D02*
G37*
G36*
X260736D02*
X260204Y502631D01*
X259243Y502232D01*
X258417Y501599D01*
X257784Y500773D01*
X257385Y499812D01*
X257315Y499280D01*
X260736D01*
Y502701D01*
D02*
G37*
G36*
X265157Y498280D02*
X261736D01*
Y494859D01*
X262268Y494929D01*
X263230Y495327D01*
X264055Y495961D01*
X264689Y496786D01*
X265087Y497748D01*
X265157Y498280D01*
D02*
G37*
G36*
X260736D02*
X257315D01*
X257385Y497748D01*
X257784Y496786D01*
X258417Y495961D01*
X259243Y495327D01*
X260204Y494929D01*
X260736Y494859D01*
Y498280D01*
D02*
G37*
G36*
X336972Y495837D02*
Y485500D01*
X347309D01*
X347215Y486701D01*
X346816Y488361D01*
X346163Y489938D01*
X345271Y491393D01*
X344163Y492691D01*
X342865Y493799D01*
X341410Y494691D01*
X339833Y495344D01*
X338174Y495742D01*
X336972Y495837D01*
D02*
G37*
G36*
X335972D02*
X334771Y495742D01*
X333112Y495344D01*
X331535Y494691D01*
X330080Y493799D01*
X328782Y492691D01*
X327674Y491393D01*
X326782Y489938D01*
X326129Y488361D01*
X325730Y486701D01*
X325636Y485500D01*
X335972D01*
Y495837D01*
D02*
G37*
G36*
X116500D02*
Y485500D01*
X126837D01*
X126742Y486701D01*
X126344Y488361D01*
X125691Y489938D01*
X124799Y491393D01*
X123690Y492691D01*
X122393Y493799D01*
X120938Y494691D01*
X119361Y495344D01*
X117701Y495742D01*
X116500Y495837D01*
D02*
G37*
G36*
X115500D02*
X114299Y495742D01*
X112639Y495344D01*
X111062Y494691D01*
X109607Y493799D01*
X108309Y492691D01*
X107201Y491393D01*
X106309Y489938D01*
X105656Y488361D01*
X105258Y486701D01*
X105163Y485500D01*
X115500D01*
Y495837D01*
D02*
G37*
G36*
X347309Y484500D02*
X336972D01*
Y474163D01*
X338174Y474258D01*
X339833Y474656D01*
X341410Y475309D01*
X342865Y476201D01*
X344163Y477310D01*
X345271Y478607D01*
X346163Y480062D01*
X346816Y481639D01*
X347215Y483299D01*
X347309Y484500D01*
D02*
G37*
G36*
X335972D02*
X325636D01*
X325730Y483299D01*
X326129Y481639D01*
X326782Y480062D01*
X327674Y478607D01*
X328782Y477310D01*
X330080Y476201D01*
X331535Y475309D01*
X333112Y474656D01*
X334771Y474258D01*
X335972Y474163D01*
Y484500D01*
D02*
G37*
G36*
X126837D02*
X116500D01*
Y474163D01*
X117701Y474258D01*
X119361Y474656D01*
X120938Y475309D01*
X122393Y476201D01*
X123690Y477310D01*
X124799Y478607D01*
X125691Y480062D01*
X126344Y481639D01*
X126742Y483299D01*
X126837Y484500D01*
D02*
G37*
G36*
X115500D02*
X105163D01*
X105258Y483299D01*
X105656Y481639D01*
X106309Y480062D01*
X107201Y478607D01*
X108309Y477310D01*
X109607Y476201D01*
X111062Y475309D01*
X112639Y474656D01*
X114299Y474258D01*
X115500Y474163D01*
Y484500D01*
D02*
G37*
G36*
X128220Y443480D02*
X124374D01*
Y440815D01*
X128220D01*
Y443480D01*
D02*
G37*
G36*
X123374D02*
X119527D01*
Y440815D01*
X123374D01*
Y443480D01*
D02*
G37*
G36*
X263561Y439808D02*
X261736D01*
Y437983D01*
X262164Y438068D01*
X262951Y438594D01*
X263476Y439380D01*
X263561Y439808D01*
D02*
G37*
G36*
X260736D02*
X258911D01*
X258996Y439380D01*
X259522Y438594D01*
X260308Y438068D01*
X260736Y437983D01*
Y439808D01*
D02*
G37*
G36*
X296764Y440617D02*
X293189D01*
Y437243D01*
X291764D01*
Y440617D01*
X288189D01*
Y432513D01*
X286027D01*
X285861Y432761D01*
X285145Y433240D01*
X284300Y433408D01*
X283455Y433240D01*
X282739Y432761D01*
X282260Y432045D01*
X282092Y431200D01*
X282260Y430355D01*
X282739Y429639D01*
X283455Y429160D01*
X284300Y428992D01*
X285145Y429160D01*
X285861Y429639D01*
X286027Y429887D01*
X289876D01*
X290379Y429987D01*
X290805Y430272D01*
X290905Y430372D01*
X291189Y430798D01*
X291278Y431243D01*
X291764D01*
Y434617D01*
X293189D01*
Y431243D01*
X296764D01*
Y440617D01*
D02*
G37*
G36*
X139283D02*
X135709D01*
Y437243D01*
X134283D01*
Y440617D01*
X130709D01*
Y431243D01*
X131183D01*
Y429050D01*
X130935Y428884D01*
X130456Y428168D01*
X130288Y427323D01*
X130456Y426478D01*
X130935Y425762D01*
X131651Y425283D01*
X132496Y425115D01*
X133341Y425283D01*
X134057Y425762D01*
X134536Y426478D01*
X134704Y427323D01*
X134536Y428168D01*
X134057Y428884D01*
X133809Y429050D01*
Y431243D01*
X134283D01*
Y434617D01*
X135709D01*
Y431243D01*
X139283D01*
Y440617D01*
D02*
G37*
G36*
X285701Y439815D02*
X281854D01*
Y437150D01*
X285701D01*
Y439815D01*
D02*
G37*
G36*
X280854D02*
X277008D01*
Y437150D01*
X280854D01*
Y439815D01*
D02*
G37*
G36*
X128220D02*
X124374D01*
Y437150D01*
X128220D01*
Y439815D01*
D02*
G37*
G36*
X123374D02*
X119527D01*
Y437150D01*
X123374D01*
Y439815D01*
D02*
G37*
G36*
X306976Y440830D02*
X305476D01*
Y436430D01*
X306976D01*
Y440830D01*
D02*
G37*
G36*
X149496D02*
X147996D01*
Y436430D01*
X149496D01*
Y440830D01*
D02*
G37*
G36*
X304476D02*
X302976D01*
Y436430D01*
X304476D01*
Y440830D01*
D02*
G37*
G36*
X146996D02*
X145496D01*
Y436430D01*
X146996D01*
Y440830D01*
D02*
G37*
G36*
X306976Y435430D02*
X305476D01*
Y431030D01*
X306976D01*
Y435430D01*
D02*
G37*
G36*
X304476D02*
X302976D01*
Y431030D01*
X304476D01*
Y435430D01*
D02*
G37*
G36*
X149496D02*
X147996D01*
Y431030D01*
X149496D01*
Y435430D01*
D02*
G37*
G36*
X146996D02*
X145496D01*
Y431030D01*
X146996D01*
Y435430D01*
D02*
G37*
G36*
X144283Y440617D02*
X140709D01*
Y431243D01*
X141183D01*
Y431104D01*
X141283Y430602D01*
X141568Y430176D01*
X144972Y426772D01*
X145398Y426487D01*
X145900Y426387D01*
X204700D01*
X205202Y426487D01*
X205628Y426772D01*
X210044Y431187D01*
X216732D01*
Y420094D01*
X218246D01*
Y407216D01*
X217758D01*
X217224Y407110D01*
X216772Y406807D01*
X216469Y406355D01*
X216363Y405821D01*
Y404660D01*
X216469Y404126D01*
X216772Y403673D01*
X217224Y403371D01*
X217758Y403265D01*
X220899D01*
X221916Y402248D01*
Y400135D01*
X221416Y399724D01*
X221360Y399735D01*
X217758D01*
X217224Y399629D01*
X216772Y399327D01*
X216469Y398874D01*
X216363Y398341D01*
Y397179D01*
X216469Y396645D01*
X216517Y396574D01*
X210741Y390798D01*
X177024D01*
Y392087D01*
X165213D01*
Y390446D01*
X129780D01*
Y392087D01*
X123970D01*
X123249Y392807D01*
X123308Y393100D01*
X123140Y393945D01*
X122661Y394661D01*
X121945Y395140D01*
X121100Y395308D01*
X120255Y395140D01*
X119539Y394661D01*
X119213Y394173D01*
X118713Y394324D01*
Y396811D01*
X129780D01*
Y402717D01*
X120669D01*
X120372Y403217D01*
X120508Y403900D01*
X120340Y404745D01*
X119861Y405461D01*
X119145Y405940D01*
X118300Y406108D01*
X117455Y405940D01*
X116739Y405461D01*
X116260Y404745D01*
X116092Y403900D01*
X116260Y403055D01*
X116739Y402339D01*
X116987Y402173D01*
Y399864D01*
X116988Y399859D01*
X116472Y399342D01*
X116187Y398916D01*
X116087Y398414D01*
Y385350D01*
X116187Y384848D01*
X116472Y384422D01*
X117822Y383072D01*
X118248Y382787D01*
X118750Y382687D01*
X133894D01*
X133950Y382531D01*
X133977Y382187D01*
X133339Y381761D01*
X132860Y381045D01*
X132692Y380200D01*
X132860Y379355D01*
X133339Y378639D01*
X134055Y378160D01*
X134900Y377992D01*
X135745Y378160D01*
X136461Y378639D01*
X136627Y378887D01*
X141555D01*
X141864Y378424D01*
X141860Y378387D01*
X141472Y378128D01*
X139272Y375928D01*
X138987Y375502D01*
X138887Y375000D01*
Y350665D01*
X138987Y350163D01*
X139272Y349737D01*
X139372Y349637D01*
X139798Y349353D01*
X140300Y349253D01*
X141847D01*
X142083Y348812D01*
X142038Y348745D01*
X141870Y347900D01*
X141929Y347607D01*
X139572Y345250D01*
X139287Y344824D01*
X139187Y344322D01*
Y343387D01*
X138713D01*
Y334013D01*
X142287D01*
Y343387D01*
X142076D01*
X141922Y343887D01*
X143785Y345750D01*
X144078Y345692D01*
X144320Y345741D01*
X144565Y345297D01*
X144569Y345280D01*
X144287Y344859D01*
X144187Y344357D01*
Y343387D01*
X143713D01*
Y334013D01*
X147287D01*
Y343387D01*
X146993D01*
X146887Y343887D01*
X147672Y344672D01*
X147956Y345098D01*
X148056Y345600D01*
Y349946D01*
X148442Y350263D01*
X148596Y350233D01*
X149187Y349641D01*
Y343387D01*
X148713D01*
Y334013D01*
X152287D01*
Y343387D01*
X151813D01*
Y350185D01*
X151731Y350594D01*
X151996Y351095D01*
X157268D01*
Y362906D01*
X155628D01*
Y366866D01*
X157268D01*
Y375134D01*
X155628D01*
Y378750D01*
X155528Y379252D01*
X155243Y379678D01*
X153793Y381128D01*
X153367Y381413D01*
X152865Y381513D01*
X136627D01*
X136461Y381761D01*
X135823Y382187D01*
X135850Y382531D01*
X135906Y382687D01*
X153756D01*
X161387Y375056D01*
Y337480D01*
X158500D01*
Y334315D01*
X158000D01*
Y333815D01*
X153654D01*
Y332113D01*
X133544D01*
X132144Y333513D01*
X132287Y334013D01*
X132287D01*
Y343387D01*
X128713D01*
Y334013D01*
X129187D01*
Y333300D01*
X129287Y332798D01*
X129572Y332372D01*
X131169Y330775D01*
X130978Y330313D01*
X127000D01*
X126498Y330213D01*
X126072Y329928D01*
X124572Y328428D01*
X124287Y328002D01*
X124187Y327500D01*
Y326641D01*
X123859Y326489D01*
X123687Y326469D01*
X121813Y328344D01*
Y334013D01*
X122287D01*
Y343387D01*
X121813D01*
Y347900D01*
X121713Y348402D01*
X121428Y348828D01*
X119662Y350594D01*
X119869Y351095D01*
X121138D01*
Y362906D01*
X119498D01*
Y366866D01*
X121138D01*
Y375134D01*
X115232D01*
Y366866D01*
X116872D01*
Y362906D01*
X115232D01*
Y351095D01*
X116872D01*
Y350215D01*
X116972Y349713D01*
X117257Y349287D01*
X119187Y347356D01*
Y343387D01*
X118713D01*
Y334013D01*
X119187D01*
Y327800D01*
X119287Y327298D01*
X119572Y326872D01*
X121487Y324956D01*
Y323987D01*
X118713D01*
Y316663D01*
X108935D01*
X108433Y316563D01*
X108007Y316278D01*
X105757Y314028D01*
X105472Y313602D01*
X105372Y313100D01*
Y312634D01*
X103732D01*
Y304366D01*
X105372D01*
Y302406D01*
X103732D01*
Y290595D01*
X109638D01*
Y298378D01*
X109928Y298572D01*
X110507Y299150D01*
X110800Y299092D01*
X111645Y299260D01*
X111987Y299489D01*
X112487Y299222D01*
Y274200D01*
X112587Y273698D01*
X112872Y273272D01*
X120759Y265385D01*
X120476Y264961D01*
X119361Y265423D01*
X117701Y265821D01*
X116500Y265915D01*
Y255079D01*
Y244242D01*
X117701Y244337D01*
X119361Y244735D01*
X120938Y245388D01*
X122393Y246280D01*
X123690Y247388D01*
X124799Y248686D01*
X125691Y250141D01*
X126006Y250903D01*
X126506Y250803D01*
Y235858D01*
X125510D01*
X125043Y235765D01*
X124648Y235501D01*
X124384Y235106D01*
X124292Y234640D01*
Y227187D01*
X124384Y226721D01*
X124648Y226326D01*
X125043Y226062D01*
X125510Y225969D01*
X126506D01*
Y200031D01*
X125510D01*
X125043Y199938D01*
X124648Y199674D01*
X124384Y199279D01*
X124292Y198813D01*
Y191360D01*
X124384Y190894D01*
X124648Y190499D01*
X125043Y190235D01*
X125510Y190142D01*
X130128D01*
X130594Y190235D01*
X130989Y190499D01*
X131253Y190894D01*
X131346Y191360D01*
Y193774D01*
X135366D01*
Y192232D01*
X143634D01*
Y198138D01*
X135366D01*
Y196399D01*
X131346D01*
Y198813D01*
X131253Y199279D01*
X130989Y199674D01*
X130594Y199938D01*
X130128Y200031D01*
X129131D01*
Y225969D01*
X130128D01*
X130594Y226062D01*
X130687Y226124D01*
X131187Y225857D01*
Y221000D01*
X131287Y220498D01*
X131572Y220072D01*
X142201Y209442D01*
X142010Y208980D01*
X140000D01*
Y206315D01*
X143846D01*
Y207144D01*
X144308Y207335D01*
X151572Y200072D01*
X151998Y199787D01*
X152500Y199687D01*
X162732D01*
Y196866D01*
X163292D01*
Y195500D01*
X163460Y194655D01*
X163939Y193939D01*
X164655Y193460D01*
X165500Y193292D01*
X166345Y193460D01*
X167061Y193939D01*
X167540Y194655D01*
X167708Y195500D01*
Y196866D01*
X168638D01*
Y205134D01*
X163408D01*
X160486Y208055D01*
Y209136D01*
X160642Y209263D01*
Y213543D01*
Y217595D01*
X160368Y217540D01*
X159966Y217271D01*
X159864Y217340D01*
X159449Y217423D01*
X158898D01*
X158483Y217340D01*
X158131Y217105D01*
X157896Y216753D01*
X157814Y216339D01*
Y210748D01*
X157861Y210513D01*
Y207512D01*
X157960Y207010D01*
X158245Y206584D01*
X161940Y202888D01*
X162054Y202813D01*
X161902Y202313D01*
X153044D01*
X133813Y221544D01*
Y239514D01*
X149135D01*
X149263Y239358D01*
X153543D01*
X157594D01*
X157540Y239632D01*
X157403Y239837D01*
X157457Y239948D01*
X157724Y239966D01*
X158001Y239921D01*
X158245Y239555D01*
X164262Y233538D01*
Y231554D01*
X164362Y231051D01*
X164647Y230626D01*
X166656Y228616D01*
Y227531D01*
X166756Y227029D01*
X167041Y226603D01*
X168072Y225572D01*
X168498Y225287D01*
X169000Y225187D01*
X174273D01*
X174439Y224939D01*
X175155Y224460D01*
X176000Y224292D01*
X176845Y224460D01*
X177561Y224939D01*
X178040Y225655D01*
X178208Y226500D01*
X178040Y227345D01*
X177561Y228061D01*
X176845Y228540D01*
X176000Y228708D01*
X175155Y228540D01*
X174439Y228061D01*
X174273Y227813D01*
X169544D01*
X169282Y228075D01*
Y229159D01*
X169182Y229662D01*
X168897Y230088D01*
X166887Y232097D01*
Y232834D01*
X167349Y233025D01*
X167803Y232572D01*
X168228Y232287D01*
X168731Y232187D01*
X174773D01*
X174939Y231939D01*
X175655Y231460D01*
X176500Y231292D01*
X177345Y231460D01*
X178061Y231939D01*
X178540Y232655D01*
X178708Y233500D01*
X178540Y234345D01*
X178061Y235061D01*
X177345Y235540D01*
X176500Y235708D01*
X175655Y235540D01*
X174939Y235061D01*
X174773Y234813D01*
X169274D01*
X166621Y237466D01*
X166766Y237945D01*
X166845Y237960D01*
X167561Y238439D01*
X168040Y239155D01*
X168208Y240000D01*
X168040Y240845D01*
X167561Y241561D01*
X166845Y242040D01*
X166297Y242149D01*
X166263Y242223D01*
X166253Y242518D01*
X166264Y242534D01*
X166408Y242650D01*
X166772Y242578D01*
X167323D01*
X167738Y242660D01*
X168031Y242856D01*
X168325Y242660D01*
X168740Y242578D01*
X169291D01*
X169706Y242660D01*
X170000Y242856D01*
X170294Y242660D01*
X170709Y242578D01*
X171260D01*
X171675Y242660D01*
X171968Y242856D01*
X172262Y242660D01*
X172677Y242578D01*
X173228D01*
X173643Y242660D01*
X173937Y242856D01*
X174231Y242660D01*
X174646Y242578D01*
X175197D01*
X175612Y242660D01*
X175905Y242856D01*
X176199Y242660D01*
X176614Y242578D01*
X177165D01*
X177580Y242660D01*
X177683Y242729D01*
X178085Y242460D01*
X178358Y242405D01*
Y246457D01*
X179358D01*
Y242405D01*
X179631Y242460D01*
X180034Y242728D01*
X180136Y242660D01*
X180450Y242598D01*
X180601Y242421D01*
X180647Y242350D01*
X180763Y242077D01*
X180687Y241700D01*
Y229116D01*
X180787Y228613D01*
X181072Y228188D01*
X181172Y228088D01*
X181598Y227803D01*
X182100Y227703D01*
X182228Y227547D01*
X186457D01*
X190508D01*
X190453Y227820D01*
X190185Y228223D01*
X190253Y228326D01*
X190336Y228740D01*
Y229291D01*
X190648Y229672D01*
X197484D01*
X197801Y229285D01*
X197744Y229000D01*
X197912Y228155D01*
X198391Y227439D01*
X198757Y227194D01*
X198837Y226654D01*
X198568Y226313D01*
X190855D01*
X190663Y226547D01*
X186457D01*
X182405D01*
X182460Y226274D01*
X182729Y225872D01*
X182660Y225769D01*
X182578Y225354D01*
Y224803D01*
X182660Y224389D01*
X182856Y224095D01*
X182660Y223801D01*
X182578Y223386D01*
Y222835D01*
X182265Y222454D01*
X179227D01*
X179061Y222703D01*
X178345Y223182D01*
X177500Y223350D01*
X176655Y223182D01*
X175939Y222703D01*
X175460Y221987D01*
X175374Y221554D01*
X174832Y221390D01*
X173828Y222393D01*
X173402Y222678D01*
X172900Y222778D01*
X170596D01*
X170094Y222678D01*
X169668Y222393D01*
X168087Y220813D01*
X167904Y220538D01*
X167426Y220479D01*
X167325Y220504D01*
X167177Y220725D01*
X166461Y221204D01*
X165616Y221372D01*
X164771Y221204D01*
X164055Y220725D01*
X163577Y220009D01*
X163409Y219164D01*
X163577Y218320D01*
X163908Y217824D01*
X163603Y217379D01*
X163386Y217423D01*
X162835D01*
X162420Y217340D01*
X162317Y217271D01*
X161915Y217540D01*
X161642Y217595D01*
Y213543D01*
Y209492D01*
X161915Y209546D01*
X162317Y209815D01*
X162420Y209747D01*
X162835Y209664D01*
X163386D01*
X163801Y209747D01*
X164094Y209943D01*
X164388Y209747D01*
X164803Y209664D01*
X165354D01*
X165769Y209747D01*
X166063Y209943D01*
X166357Y209747D01*
X166772Y209664D01*
X167323D01*
X167738Y209747D01*
X168031Y209943D01*
X168325Y209747D01*
X168740Y209664D01*
X169291D01*
X169706Y209747D01*
X170000Y209943D01*
X170294Y209747D01*
X170709Y209664D01*
X171260D01*
X171552Y209722D01*
X171716Y209631D01*
X171960Y209145D01*
X171792Y208300D01*
X171960Y207455D01*
X172439Y206739D01*
X173155Y206260D01*
X174000Y206092D01*
X174845Y206260D01*
X175561Y206739D01*
X175876Y207210D01*
X176118Y207372D01*
X177084Y208338D01*
X177546Y208146D01*
Y206692D01*
X177646Y206189D01*
X177875Y205847D01*
X177723Y205346D01*
X176815D01*
Y201500D01*
X179480D01*
Y203560D01*
X179942Y203751D01*
X182822Y200872D01*
X183248Y200587D01*
X183750Y200487D01*
X200573D01*
X200739Y200239D01*
X201455Y199760D01*
X202300Y199592D01*
X203145Y199760D01*
X203861Y200239D01*
X204340Y200955D01*
X204508Y201800D01*
X204340Y202645D01*
X203861Y203361D01*
X203145Y203840D01*
X202300Y204008D01*
X201455Y203840D01*
X200739Y203361D01*
X200573Y203113D01*
X184294D01*
X180171Y207236D01*
Y209352D01*
X180551Y209664D01*
X181102D01*
X181517Y209747D01*
X181746Y209900D01*
X182418Y209329D01*
X182392Y209200D01*
X182560Y208355D01*
X183039Y207639D01*
X183755Y207160D01*
X184600Y206992D01*
X185445Y207160D01*
X186161Y207639D01*
X186640Y208355D01*
X186808Y209200D01*
X186640Y210045D01*
X186161Y210761D01*
X185445Y211240D01*
X184600Y211408D01*
X184135Y211315D01*
X182186Y212968D01*
Y215304D01*
X182648Y215496D01*
X184530Y213614D01*
X184956Y213329D01*
X185458Y213229D01*
X198418D01*
X198920Y213329D01*
X199346Y213614D01*
X204094Y218361D01*
X204378Y218787D01*
X204478Y219290D01*
Y225680D01*
X204978Y225887D01*
X212687Y218178D01*
Y213087D01*
X209063D01*
Y189513D01*
X218937D01*
Y199987D01*
X227732D01*
Y197165D01*
X233638D01*
Y205433D01*
X227732D01*
Y202612D01*
X218937D01*
Y213087D01*
X215313D01*
Y218721D01*
X215213Y219224D01*
X214928Y219650D01*
X201984Y232593D01*
X201558Y232878D01*
X201056Y232978D01*
X200143D01*
X199951Y233440D01*
X203899Y237387D01*
X209063D01*
Y226913D01*
X218937D01*
Y237388D01*
X227732D01*
Y234567D01*
X233638D01*
Y242835D01*
X227732D01*
Y240013D01*
X218937D01*
Y250487D01*
X211326D01*
X211135Y250949D01*
X227934Y267748D01*
X265712D01*
X265878Y267500D01*
X266594Y267021D01*
X267439Y266853D01*
X268284Y267021D01*
X269000Y267500D01*
X269479Y268216D01*
X269647Y269061D01*
X269479Y269906D01*
X269000Y270622D01*
X268284Y271101D01*
X267439Y271269D01*
X266594Y271101D01*
X265878Y270622D01*
X265712Y270374D01*
X227390D01*
X226888Y270274D01*
X226462Y269989D01*
X209275Y252801D01*
X208813Y252993D01*
Y263456D01*
X217444Y272087D01*
X347200D01*
X347702Y272187D01*
X348128Y272472D01*
X348228Y272572D01*
X348513Y272998D01*
X348613Y273500D01*
Y313700D01*
X348513Y314202D01*
X348228Y314628D01*
X346406Y316450D01*
X346644Y317024D01*
X346772Y318000D01*
X346644Y318976D01*
X346267Y319886D01*
X345668Y320668D01*
X344886Y321267D01*
X343976Y321644D01*
X343000Y321772D01*
X342024Y321644D01*
X341114Y321267D01*
X340333Y320668D01*
X339733Y319886D01*
X339356Y318976D01*
X339228Y318000D01*
X339356Y317024D01*
X339733Y316114D01*
X340333Y315333D01*
X341114Y314733D01*
X342024Y314356D01*
X343000Y314228D01*
X343976Y314356D01*
X344550Y314594D01*
X345987Y313156D01*
Y311037D01*
X345487Y310806D01*
X344886Y311267D01*
X343976Y311644D01*
X343000Y311772D01*
X342024Y311644D01*
X341114Y311267D01*
X340333Y310667D01*
X339980Y310208D01*
X243765D01*
X243444Y310529D01*
Y323580D01*
Y330405D01*
X243904Y330758D01*
X244187Y331127D01*
X244687Y330958D01*
Y330400D01*
X244787Y329898D01*
X245072Y329472D01*
X246572Y327972D01*
X246998Y327687D01*
X247500Y327587D01*
X284800D01*
X285302Y327687D01*
X285728Y327972D01*
X315707Y357950D01*
X316000Y357892D01*
X316845Y358060D01*
X317561Y358539D01*
X318040Y359255D01*
X318208Y360100D01*
X318040Y360945D01*
X317561Y361661D01*
X316845Y362140D01*
X316000Y362308D01*
X315155Y362140D01*
X314439Y361661D01*
X313960Y360945D01*
X313792Y360100D01*
X313850Y359807D01*
X284256Y330213D01*
X264298D01*
X264137Y330713D01*
X264689Y331432D01*
X265087Y332393D01*
X265157Y332925D01*
X257315D01*
X257385Y332393D01*
X257784Y331432D01*
X258335Y330713D01*
X258175Y330213D01*
X253971D01*
X253810Y330686D01*
X253904Y330758D01*
X254503Y331539D01*
X254880Y332449D01*
X255009Y333425D01*
X254880Y334402D01*
X254503Y335311D01*
X253904Y336093D01*
X253122Y336692D01*
X252549Y336930D01*
Y355532D01*
X254480D01*
Y359469D01*
X247787D01*
Y355532D01*
X249924D01*
Y336930D01*
X249350Y336692D01*
X248569Y336093D01*
X247969Y335311D01*
X247813Y334933D01*
X247313Y335033D01*
Y337500D01*
X247213Y338002D01*
X246928Y338428D01*
X244928Y340428D01*
X244502Y340713D01*
X244000Y340813D01*
X237500D01*
X236998Y340713D01*
X236572Y340428D01*
X234572Y338428D01*
X234287Y338002D01*
X234187Y337500D01*
Y336505D01*
X233687Y336259D01*
X233122Y336692D01*
X232213Y337069D01*
X231236Y337198D01*
X230260Y337069D01*
X229350Y336692D01*
X228569Y336093D01*
X227969Y335311D01*
X227592Y334402D01*
X227464Y333425D01*
X227592Y332449D01*
X227969Y331539D01*
X228450Y330913D01*
X228242Y330413D01*
X224230D01*
X224023Y330913D01*
X224503Y331539D01*
X224880Y332449D01*
X225009Y333425D01*
X224880Y334402D01*
X224503Y335311D01*
X223904Y336093D01*
X223122Y336692D01*
X222213Y337069D01*
X221236Y337198D01*
X220260Y337069D01*
X219686Y336831D01*
X218292Y338225D01*
X218484Y338687D01*
X228414D01*
X228917Y338787D01*
X229342Y339072D01*
X229928Y339658D01*
X230213Y340084D01*
X230313Y340586D01*
Y347685D01*
X230213Y348187D01*
X229928Y348613D01*
X229771Y348770D01*
X229962Y349232D01*
X230405D01*
Y350872D01*
X239913D01*
X240416Y350972D01*
X240842Y351257D01*
X241376Y351791D01*
X246213D01*
Y355728D01*
X239520D01*
Y353648D01*
X239370Y353498D01*
X230405D01*
Y355138D01*
X218595D01*
Y349232D01*
X225596D01*
X227687Y347141D01*
Y344851D01*
X227655Y344813D01*
X227322Y344846D01*
X227119Y344946D01*
X227040Y345345D01*
X226561Y346061D01*
X225845Y346540D01*
X225000Y346708D01*
X224155Y346540D01*
X223439Y346061D01*
X223273Y345813D01*
X217556D01*
X207840Y355528D01*
X207414Y355813D01*
X206912Y355913D01*
X184427D01*
X184261Y356161D01*
X183545Y356640D01*
X183283Y356692D01*
X183118Y357234D01*
X193571Y367687D01*
X326450D01*
X326952Y367787D01*
X327378Y368072D01*
X336028Y376722D01*
X336313Y377148D01*
X336413Y377650D01*
Y404850D01*
X336313Y405352D01*
X336028Y405778D01*
X334678Y407128D01*
X334252Y407413D01*
X333750Y407513D01*
X312400D01*
X311898Y407413D01*
X311472Y407128D01*
X305420Y401076D01*
X287260D01*
Y402717D01*
X282613D01*
Y404856D01*
X288307Y410550D01*
X288600Y410492D01*
X289445Y410660D01*
X290161Y411139D01*
X290640Y411855D01*
X290808Y412700D01*
X290640Y413545D01*
X290161Y414261D01*
X289445Y414740D01*
X288600Y414908D01*
X287755Y414740D01*
X287039Y414261D01*
X286560Y413545D01*
X286392Y412700D01*
X286451Y412407D01*
X280372Y406328D01*
X280087Y405902D01*
X279987Y405400D01*
Y402717D01*
X275449D01*
Y396811D01*
X287260D01*
Y398451D01*
X305964D01*
X306466Y398551D01*
X306892Y398836D01*
X312944Y404887D01*
X333206D01*
X333787Y404306D01*
Y402717D01*
X322693D01*
Y397392D01*
X322260Y396745D01*
X322092Y395900D01*
X322260Y395055D01*
X322739Y394339D01*
X323455Y393860D01*
X324300Y393692D01*
X325145Y393860D01*
X325861Y394339D01*
X326340Y395055D01*
X326508Y395900D01*
X326426Y396311D01*
X326836Y396811D01*
X333787D01*
Y392087D01*
X322693D01*
Y390446D01*
X287260D01*
Y392087D01*
X275449D01*
Y386181D01*
X278148D01*
X278275Y386156D01*
X278401Y386181D01*
X279687D01*
Y380313D01*
X227313D01*
Y390956D01*
X230369Y394013D01*
X230654Y394439D01*
X230754Y394941D01*
Y395784D01*
X231242D01*
X231776Y395890D01*
X232228Y396193D01*
X232531Y396645D01*
X232637Y397179D01*
Y398341D01*
X232531Y398874D01*
X232345Y399153D01*
X232382Y399780D01*
X232731Y400303D01*
X232854Y400919D01*
Y401000D01*
X229441D01*
X226028D01*
Y400919D01*
X226151Y400303D01*
X226500Y399780D01*
X226537Y399153D01*
X226351Y398874D01*
X226245Y398341D01*
Y397179D01*
X226351Y396645D01*
X226654Y396193D01*
X227106Y395890D01*
X227640Y395784D01*
X227721D01*
X227928Y395284D01*
X225072Y392428D01*
X224787Y392002D01*
X224687Y391500D01*
Y380313D01*
X212598D01*
Y388942D01*
X218825Y395169D01*
X219110Y395595D01*
X219147Y395784D01*
X221360D01*
X221615Y395372D01*
X221632Y394988D01*
X219757Y393113D01*
X219472Y392687D01*
X219372Y392185D01*
Y390134D01*
X217732D01*
Y387313D01*
X217227D01*
X217061Y387561D01*
X216345Y388040D01*
X215500Y388208D01*
X214655Y388040D01*
X213939Y387561D01*
X213460Y386845D01*
X213292Y386000D01*
X213460Y385155D01*
X213939Y384439D01*
X214655Y383960D01*
X215500Y383792D01*
X216345Y383960D01*
X217061Y384439D01*
X217227Y384687D01*
X217732D01*
Y381866D01*
X223638D01*
Y390134D01*
X221998D01*
Y391641D01*
X224157Y393800D01*
X224441Y394226D01*
X224541Y394728D01*
Y402791D01*
X224441Y403294D01*
X224157Y403720D01*
X222755Y405121D01*
Y405821D01*
X222649Y406355D01*
X222346Y406807D01*
X221894Y407110D01*
X221360Y407216D01*
X220872D01*
Y420094D01*
X222638D01*
Y431187D01*
X227362D01*
Y420094D01*
X229002D01*
Y407216D01*
X227640D01*
X227106Y407110D01*
X226654Y406807D01*
X226351Y406355D01*
X226245Y405821D01*
Y404660D01*
X226351Y404126D01*
X226537Y403847D01*
X226500Y403220D01*
X226151Y402698D01*
X226028Y402081D01*
Y402000D01*
X229441D01*
X232854D01*
Y402081D01*
X232731Y402698D01*
X232382Y403220D01*
X232345Y403847D01*
X232531Y404126D01*
X232637Y404660D01*
Y405821D01*
X232531Y406355D01*
X232228Y406807D01*
X231776Y407110D01*
X231628Y407139D01*
Y420094D01*
X233268D01*
Y424687D01*
X239318D01*
X241094Y422911D01*
Y418862D01*
X252906D01*
Y424768D01*
X242951D01*
X240790Y426928D01*
X240365Y427213D01*
X239862Y427313D01*
X233268D01*
Y431187D01*
X272773D01*
X272939Y430939D01*
X273655Y430460D01*
X274500Y430292D01*
X275345Y430460D01*
X276061Y430939D01*
X276540Y431655D01*
X276708Y432500D01*
X276540Y433345D01*
X276061Y434061D01*
X275345Y434540D01*
X274500Y434708D01*
X273655Y434540D01*
X272939Y434061D01*
X272773Y433813D01*
X209500D01*
X208998Y433713D01*
X208572Y433428D01*
X204156Y429013D01*
X146444D01*
X144574Y430882D01*
X144283Y431243D01*
X144283D01*
X144283Y431243D01*
Y440617D01*
D02*
G37*
G36*
X253118Y414350D02*
X247500D01*
Y411685D01*
X253118D01*
Y414350D01*
D02*
G37*
G36*
X246500D02*
X240882D01*
Y411685D01*
X246500D01*
Y414350D01*
D02*
G37*
G36*
X253118Y410685D02*
X247500D01*
Y408020D01*
X253118D01*
Y410685D01*
D02*
G37*
G36*
X246500D02*
X240882D01*
Y408020D01*
X246500D01*
Y410685D01*
D02*
G37*
G36*
X171000Y409208D02*
X170155Y409040D01*
X169439Y408561D01*
X168960Y407845D01*
X168792Y407000D01*
X168960Y406155D01*
X169439Y405439D01*
X169687Y405273D01*
Y402717D01*
X165213D01*
Y396811D01*
X177024D01*
Y402717D01*
X172313D01*
Y405273D01*
X172561Y405439D01*
X173040Y406155D01*
X173208Y407000D01*
X173040Y407845D01*
X172561Y408561D01*
X171845Y409040D01*
X171000Y409208D01*
D02*
G37*
G36*
X234480Y390347D02*
X231815D01*
Y386500D01*
X234480D01*
Y390347D01*
D02*
G37*
G36*
X230815D02*
X228150D01*
Y386500D01*
X230815D01*
Y390347D01*
D02*
G37*
G36*
X234480Y385500D02*
X231815D01*
Y381653D01*
X234480D01*
Y385500D01*
D02*
G37*
G36*
X230815D02*
X228150D01*
Y381653D01*
X230815D01*
Y385500D01*
D02*
G37*
G36*
X230618Y365980D02*
X225000D01*
Y363315D01*
X230618D01*
Y365980D01*
D02*
G37*
G36*
X224000D02*
X218382D01*
Y363315D01*
X224000D01*
Y365980D01*
D02*
G37*
G36*
X246425Y363421D02*
X243366D01*
Y361740D01*
X246425D01*
Y363421D01*
D02*
G37*
G36*
X242366D02*
X239307D01*
Y361740D01*
X242366D01*
Y363421D01*
D02*
G37*
G36*
X230618Y362315D02*
X225000D01*
Y359650D01*
X230618D01*
Y362315D01*
D02*
G37*
G36*
X224000D02*
X218382D01*
Y359650D01*
X224000D01*
Y362315D01*
D02*
G37*
G36*
X246425Y360740D02*
X243366D01*
Y359059D01*
X246425D01*
Y360740D01*
D02*
G37*
G36*
X242366D02*
X239307D01*
Y359059D01*
X242366D01*
Y360740D01*
D02*
G37*
G36*
X137500Y343600D02*
X136000D01*
Y339200D01*
X137500D01*
Y343600D01*
D02*
G37*
G36*
X135000D02*
X133500D01*
Y339200D01*
X135000D01*
Y343600D01*
D02*
G37*
G36*
X346953Y341953D02*
X343500D01*
Y338500D01*
X346953D01*
Y341953D01*
D02*
G37*
G36*
X342500D02*
X339047D01*
Y338500D01*
X342500D01*
Y341953D01*
D02*
G37*
G36*
X157500Y337480D02*
X153654D01*
Y334815D01*
X157500D01*
Y337480D01*
D02*
G37*
G36*
X346953Y337500D02*
X343500D01*
Y334047D01*
X346953D01*
Y337500D01*
D02*
G37*
G36*
X342500D02*
X339047D01*
Y334047D01*
X342500D01*
Y337500D01*
D02*
G37*
G36*
X128815Y378908D02*
X127970Y378740D01*
X127254Y378261D01*
X126775Y377545D01*
X126607Y376700D01*
X126775Y375855D01*
X126923Y375634D01*
X126656Y375134D01*
X125862D01*
Y366866D01*
X127502D01*
Y362906D01*
X125862D01*
Y358313D01*
X125600D01*
X125098Y358213D01*
X124672Y357928D01*
X124572Y357828D01*
X124287Y357402D01*
X124187Y356900D01*
Y343387D01*
X123713D01*
Y334013D01*
X127287D01*
Y343387D01*
X126813D01*
Y351095D01*
X131768D01*
Y362906D01*
X130128D01*
Y366866D01*
X131768D01*
Y375134D01*
X130974D01*
X130707Y375634D01*
X130855Y375855D01*
X131023Y376700D01*
X130855Y377545D01*
X130376Y378261D01*
X129660Y378740D01*
X128815Y378908D01*
D02*
G37*
G36*
X261736Y337346D02*
Y333925D01*
X265157D01*
X265087Y334457D01*
X264689Y335419D01*
X264055Y336244D01*
X263230Y336878D01*
X262268Y337276D01*
X261736Y337346D01*
D02*
G37*
G36*
X260736D02*
X260204Y337276D01*
X259243Y336878D01*
X258417Y336244D01*
X257784Y335419D01*
X257385Y334457D01*
X257315Y333925D01*
X260736D01*
Y337346D01*
D02*
G37*
G36*
X137500Y338200D02*
X136000D01*
Y333800D01*
X137500D01*
Y338200D01*
D02*
G37*
G36*
X135000D02*
X133500D01*
Y333800D01*
X135000D01*
Y338200D01*
D02*
G37*
G36*
X343000Y331772D02*
X342024Y331644D01*
X341114Y331267D01*
X340333Y330667D01*
X339733Y329886D01*
X339356Y328976D01*
X339228Y328000D01*
X339356Y327024D01*
X339733Y326114D01*
X340333Y325332D01*
X341114Y324733D01*
X342024Y324356D01*
X343000Y324228D01*
X343976Y324356D01*
X344886Y324733D01*
X345668Y325332D01*
X346267Y326114D01*
X346644Y327024D01*
X346772Y328000D01*
X346644Y328976D01*
X346267Y329886D01*
X345668Y330667D01*
X344886Y331267D01*
X343976Y331644D01*
X343000Y331772D01*
D02*
G37*
G36*
X309118Y270350D02*
X303500D01*
Y267685D01*
X309118D01*
Y270350D01*
D02*
G37*
G36*
X302500D02*
X296882D01*
Y267685D01*
X302500D01*
Y270350D01*
D02*
G37*
G36*
X309118Y266685D02*
X303500D01*
Y264020D01*
X309118D01*
Y266685D01*
D02*
G37*
G36*
X302500D02*
X296882D01*
Y264020D01*
X302500D01*
Y266685D01*
D02*
G37*
G36*
X336972Y265915D02*
Y255579D01*
X347309D01*
X347215Y256780D01*
X346816Y258440D01*
X346163Y260016D01*
X345271Y261472D01*
X344163Y262769D01*
X342865Y263878D01*
X341410Y264769D01*
X339833Y265423D01*
X338174Y265821D01*
X336972Y265915D01*
D02*
G37*
G36*
X335972D02*
X334771Y265821D01*
X333112Y265423D01*
X331535Y264769D01*
X330080Y263878D01*
X328782Y262769D01*
X327674Y261472D01*
X326782Y260016D01*
X326129Y258440D01*
X325730Y256780D01*
X325636Y255579D01*
X335972D01*
Y265915D01*
D02*
G37*
G36*
X115500D02*
X114299Y265821D01*
X112639Y265423D01*
X111062Y264769D01*
X109607Y263878D01*
X108309Y262769D01*
X107201Y261472D01*
X106309Y260016D01*
X105656Y258440D01*
X105258Y256780D01*
X105163Y255579D01*
X115500D01*
Y265915D01*
D02*
G37*
G36*
X306500Y256525D02*
Y254700D01*
X308325D01*
X308240Y255128D01*
X307714Y255914D01*
X306928Y256440D01*
X306500Y256525D01*
D02*
G37*
G36*
X305500D02*
X305072Y256440D01*
X304286Y255914D01*
X303760Y255128D01*
X303675Y254700D01*
X305500D01*
Y256525D01*
D02*
G37*
G36*
X308325Y253700D02*
X306500D01*
Y251875D01*
X306928Y251960D01*
X307714Y252486D01*
X308240Y253272D01*
X308325Y253700D01*
D02*
G37*
G36*
X305500D02*
X303675D01*
X303760Y253272D01*
X304286Y252486D01*
X305072Y251960D01*
X305500Y251875D01*
Y253700D01*
D02*
G37*
G36*
X297143Y249372D02*
X295338D01*
Y247016D01*
X298442D01*
Y248072D01*
X298343Y248569D01*
X298061Y248991D01*
X297640Y249273D01*
X297143Y249372D01*
D02*
G37*
G36*
X294338D02*
X292534D01*
X292037Y249273D01*
X291615Y248991D01*
X291334Y248569D01*
X291235Y248072D01*
Y247016D01*
X294338D01*
Y249372D01*
D02*
G37*
G36*
X316618Y249480D02*
X311000D01*
Y246815D01*
X316618D01*
Y249480D01*
D02*
G37*
G36*
X310000D02*
X304382D01*
Y246815D01*
X310000D01*
Y249480D01*
D02*
G37*
G36*
X347309Y254579D02*
X336972D01*
Y244242D01*
X338174Y244337D01*
X339833Y244735D01*
X341410Y245388D01*
X342865Y246280D01*
X344163Y247388D01*
X345271Y248686D01*
X346163Y250141D01*
X346816Y251718D01*
X347215Y253377D01*
X347309Y254579D01*
D02*
G37*
G36*
X335972D02*
X325636D01*
X325730Y253377D01*
X326129Y251718D01*
X326782Y250141D01*
X327674Y248686D01*
X328782Y247388D01*
X330080Y246280D01*
X331535Y245388D01*
X333112Y244735D01*
X334771Y244337D01*
X335972Y244242D01*
Y254579D01*
D02*
G37*
G36*
X115500D02*
X105163D01*
X105258Y253377D01*
X105656Y251718D01*
X106309Y250141D01*
X107201Y248686D01*
X108309Y247388D01*
X109607Y246280D01*
X111062Y245388D01*
X112639Y244735D01*
X114299Y244337D01*
X115500Y244242D01*
Y254579D01*
D02*
G37*
G36*
X298442Y246016D02*
X295338D01*
Y243660D01*
X297143D01*
X297640Y243759D01*
X298061Y244041D01*
X298343Y244462D01*
X298442Y244960D01*
Y246016D01*
D02*
G37*
G36*
X294338D02*
X291235D01*
Y244960D01*
X291334Y244462D01*
X291615Y244041D01*
X292037Y243759D01*
X292534Y243660D01*
X294338D01*
Y246016D01*
D02*
G37*
G36*
X316618Y245815D02*
X311000D01*
Y243150D01*
X316618D01*
Y245815D01*
D02*
G37*
G36*
X310000D02*
X304382D01*
Y243150D01*
X310000D01*
Y245815D01*
D02*
G37*
G36*
X244480Y243047D02*
X241815D01*
Y239201D01*
X244480D01*
Y243047D01*
D02*
G37*
G36*
X240815D02*
X238150D01*
Y239201D01*
X240815D01*
Y243047D01*
D02*
G37*
G36*
X157594Y238358D02*
X153543D01*
X149492D01*
X149546Y238085D01*
X149815Y237683D01*
X149747Y237580D01*
X149664Y237165D01*
Y236614D01*
X149352Y236234D01*
X148161D01*
X148040Y236845D01*
X147561Y237561D01*
X146845Y238040D01*
X146000Y238208D01*
X145155Y238040D01*
X144439Y237561D01*
X143960Y236845D01*
X143792Y236000D01*
X143960Y235155D01*
X144439Y234439D01*
X145155Y233960D01*
X146000Y233792D01*
X146348Y233861D01*
X146576Y233709D01*
X147079Y233609D01*
X149352D01*
X149664Y233228D01*
Y232677D01*
X149352Y232297D01*
X148816D01*
X148314Y232197D01*
X147888Y231912D01*
X142072Y226096D01*
X141787Y225670D01*
X141701Y225236D01*
X141439Y225061D01*
X140960Y224345D01*
X140792Y223500D01*
X140960Y222655D01*
X141439Y221939D01*
X142155Y221460D01*
X143000Y221292D01*
X143845Y221460D01*
X144561Y221939D01*
X144687Y222128D01*
X145187Y221976D01*
Y221227D01*
X144939Y221061D01*
X144460Y220345D01*
X144292Y219500D01*
X144460Y218655D01*
X144939Y217939D01*
X145655Y217460D01*
X146500Y217292D01*
X147345Y217460D01*
X148061Y217939D01*
X148540Y218655D01*
X148708Y219500D01*
X148540Y220345D01*
X148061Y221061D01*
X147813Y221227D01*
Y225597D01*
X149164Y226948D01*
X149593Y226797D01*
X149669Y226746D01*
X149747Y226357D01*
X149943Y226063D01*
X149747Y225769D01*
X149664Y225354D01*
Y224803D01*
X149747Y224389D01*
X149943Y224095D01*
X149747Y223801D01*
X149664Y223386D01*
Y222835D01*
X149747Y222420D01*
X149943Y222126D01*
X149747Y221832D01*
X149664Y221417D01*
Y220866D01*
X149747Y220451D01*
X149943Y220158D01*
X149747Y219864D01*
X149664Y219449D01*
Y218898D01*
X149747Y218483D01*
X149981Y218131D01*
X150333Y217896D01*
X150748Y217814D01*
X156339D01*
X156753Y217896D01*
X157105Y218131D01*
X157340Y218483D01*
X157422Y218898D01*
Y219449D01*
X157340Y219864D01*
X157143Y220158D01*
X157340Y220451D01*
X157422Y220866D01*
Y221417D01*
X157340Y221832D01*
X157143Y222126D01*
X157340Y222420D01*
X157422Y222835D01*
Y222849D01*
X157922Y223116D01*
X158155Y222960D01*
X159000Y222792D01*
X159845Y222960D01*
X160561Y223439D01*
X161040Y224155D01*
X161208Y225000D01*
X161636Y225412D01*
X162000Y225340D01*
X162845Y225507D01*
X163561Y225986D01*
X164040Y226702D01*
X164208Y227547D01*
X164040Y228392D01*
X163561Y229108D01*
X163313Y229274D01*
Y232601D01*
X163213Y233103D01*
X162928Y233529D01*
X158639Y237818D01*
X158213Y238103D01*
X157711Y238202D01*
X157592Y238347D01*
X157594Y238358D01*
D02*
G37*
G36*
X244480Y238201D02*
X241815D01*
Y234354D01*
X244480D01*
Y238201D01*
D02*
G37*
G36*
X240815D02*
X238150D01*
Y234354D01*
X240815D01*
Y238201D01*
D02*
G37*
G36*
X112490Y236075D02*
X110681D01*
Y231413D01*
X113925D01*
Y234640D01*
X113816Y235189D01*
X113505Y235654D01*
X113039Y235966D01*
X112490Y236075D01*
D02*
G37*
G36*
X109681D02*
X107872D01*
X107323Y235966D01*
X106857Y235654D01*
X106546Y235189D01*
X106437Y234640D01*
Y231413D01*
X109681D01*
Y236075D01*
D02*
G37*
G36*
X270692Y244688D02*
X266308D01*
X265850Y244597D01*
X265461Y244338D01*
X265202Y243949D01*
X265111Y243491D01*
Y231509D01*
X265202Y231051D01*
X265461Y230662D01*
X265850Y230403D01*
X266308Y230312D01*
X270692D01*
X271150Y230403D01*
X271538Y230662D01*
X271798Y231051D01*
X271889Y231509D01*
Y243491D01*
X271798Y243949D01*
X271538Y244338D01*
X271150Y244597D01*
X270692Y244688D01*
D02*
G37*
G36*
X113925Y230413D02*
X110681D01*
Y225752D01*
X112490D01*
X113039Y225861D01*
X113505Y226172D01*
X113816Y226638D01*
X113925Y227187D01*
Y230413D01*
D02*
G37*
G36*
X109681D02*
X106437D01*
Y227187D01*
X106546Y226638D01*
X106857Y226172D01*
X107323Y225861D01*
X107872Y225752D01*
X109681D01*
Y230413D01*
D02*
G37*
G36*
X297143Y240139D02*
X292534D01*
X292120Y240056D01*
X291769Y239822D01*
X291692Y239708D01*
X288500D01*
X287655Y239540D01*
X286939Y239061D01*
X284754Y236876D01*
X284275Y236160D01*
X284107Y235315D01*
Y222134D01*
X283362D01*
Y213866D01*
X288987D01*
Y208427D01*
X288739Y208261D01*
X288260Y207545D01*
X288092Y206700D01*
X288260Y205855D01*
X288739Y205139D01*
X289455Y204660D01*
X290300Y204492D01*
X291145Y204660D01*
X291861Y205139D01*
X292340Y205855D01*
X292508Y206700D01*
X292340Y207545D01*
X291861Y208261D01*
X291613Y208427D01*
Y225665D01*
X292113Y225933D01*
X292120Y225928D01*
X292534Y225845D01*
X293901D01*
X294000Y225348D01*
X294478Y224632D01*
X304594Y214515D01*
Y211732D01*
X313283D01*
X316077Y208939D01*
X316793Y208460D01*
X317638Y208292D01*
X329232D01*
Y206366D01*
X330135D01*
Y202918D01*
X329911Y202746D01*
X329312Y201965D01*
X328935Y201055D01*
X328806Y200079D01*
X328935Y199102D01*
X329312Y198193D01*
X329911Y197411D01*
X330693Y196812D01*
X331602Y196435D01*
X332579Y196306D01*
X333555Y196435D01*
X334465Y196812D01*
X335246Y197411D01*
X335846Y198193D01*
X336223Y199102D01*
X336351Y200079D01*
X336223Y201055D01*
X335846Y201965D01*
X335246Y202746D01*
X334550Y203280D01*
Y206366D01*
X335138D01*
Y214634D01*
X329232D01*
Y212708D01*
X318552D01*
X316406Y214855D01*
Y217638D01*
X307717D01*
X298247Y227108D01*
Y228031D01*
X298225Y228140D01*
Y229711D01*
X298725Y229918D01*
X299572Y229072D01*
X299998Y228787D01*
X300500Y228687D01*
X304400D01*
X304594Y228268D01*
Y222362D01*
X316406D01*
Y228268D01*
X312708D01*
Y232732D01*
X316406D01*
Y238638D01*
X304594D01*
Y232732D01*
X308292D01*
Y231313D01*
X301044D01*
X298928Y233428D01*
X298502Y233713D01*
X298000Y233813D01*
X291500D01*
X290998Y233713D01*
X290572Y233428D01*
X289372Y232228D01*
X289087Y231802D01*
X289023Y231478D01*
X288523Y231527D01*
Y234401D01*
X289415Y235292D01*
X291692D01*
X291769Y235178D01*
X292120Y234944D01*
X292534Y234861D01*
X297143D01*
X297557Y234944D01*
X297908Y235178D01*
X298143Y235529D01*
X298225Y235944D01*
Y239056D01*
X298143Y239471D01*
X297908Y239822D01*
X297557Y240056D01*
X297143Y240139D01*
D02*
G37*
G36*
X278850Y222346D02*
X276185D01*
Y218500D01*
X278850D01*
Y222346D01*
D02*
G37*
G36*
X275185D02*
X272520D01*
Y218500D01*
X275185D01*
Y222346D01*
D02*
G37*
G36*
X278850Y217500D02*
X276185D01*
Y213653D01*
X278850D01*
Y217500D01*
D02*
G37*
G36*
X275185D02*
X272520D01*
Y213653D01*
X275185D01*
Y217500D01*
D02*
G37*
G36*
X345980Y214846D02*
X343315D01*
Y211000D01*
X345980D01*
Y214846D01*
D02*
G37*
G36*
X342315D02*
X339650D01*
Y211000D01*
X342315D01*
Y214846D01*
D02*
G37*
G36*
X139000Y208980D02*
X135153D01*
Y206315D01*
X139000D01*
Y208980D01*
D02*
G37*
G36*
X345980Y210000D02*
X343315D01*
Y206153D01*
X345980D01*
Y210000D01*
D02*
G37*
G36*
X342315D02*
X339650D01*
Y206153D01*
X342315D01*
Y210000D01*
D02*
G37*
G36*
X143846Y205315D02*
X140000D01*
Y202650D01*
X143846D01*
Y205315D01*
D02*
G37*
G36*
X139000D02*
X135153D01*
Y202650D01*
X139000D01*
Y205315D01*
D02*
G37*
G36*
X244480Y205646D02*
X241815D01*
Y201799D01*
X244480D01*
Y205646D01*
D02*
G37*
G36*
X240815D02*
X238150D01*
Y201799D01*
X240815D01*
Y205646D01*
D02*
G37*
G36*
X175815Y205346D02*
X173150D01*
Y201500D01*
X175815D01*
Y205346D01*
D02*
G37*
G36*
X346532Y204031D02*
X343079D01*
Y200579D01*
X346532D01*
Y204031D01*
D02*
G37*
G36*
X342079D02*
X338626D01*
Y200579D01*
X342079D01*
Y204031D01*
D02*
G37*
G36*
X244480Y200799D02*
X241815D01*
Y196953D01*
X244480D01*
Y200799D01*
D02*
G37*
G36*
X240815D02*
X238150D01*
Y196953D01*
X240815D01*
Y200799D01*
D02*
G37*
G36*
X179480Y200500D02*
X176815D01*
Y196653D01*
X179480D01*
Y200500D01*
D02*
G37*
G36*
X175815D02*
X173150D01*
Y196653D01*
X175815D01*
Y200500D01*
D02*
G37*
G36*
X346532Y199579D02*
X343079D01*
Y196126D01*
X346532D01*
Y199579D01*
D02*
G37*
G36*
X342079D02*
X338626D01*
Y196126D01*
X342079D01*
Y199579D01*
D02*
G37*
G36*
X112490Y200248D02*
X110681D01*
Y195587D01*
X113925D01*
Y198813D01*
X113816Y199362D01*
X113505Y199828D01*
X113039Y200139D01*
X112490Y200248D01*
D02*
G37*
G36*
X109681D02*
X107872D01*
X107323Y200139D01*
X106857Y199828D01*
X106546Y199362D01*
X106437Y198813D01*
Y195587D01*
X109681D01*
Y200248D01*
D02*
G37*
G36*
X113925Y194587D02*
X110681D01*
Y189925D01*
X112490D01*
X113039Y190034D01*
X113505Y190346D01*
X113816Y190811D01*
X113925Y191360D01*
Y194587D01*
D02*
G37*
G36*
X109681D02*
X106437D01*
Y191360D01*
X106546Y190811D01*
X106857Y190346D01*
X107323Y190034D01*
X107872Y189925D01*
X109681D01*
Y194587D01*
D02*
G37*
%LPD*%
G36*
X209972Y379586D02*
X210072Y379083D01*
X210357Y378658D01*
X210943Y378072D01*
X211368Y377787D01*
X211871Y377687D01*
X263392D01*
X263628Y377246D01*
X263560Y377145D01*
X263392Y376300D01*
X263451Y376007D01*
X259756Y372313D01*
X192500D01*
X191998Y372213D01*
X191572Y371928D01*
X165419Y345775D01*
X165135Y345350D01*
X165035Y344847D01*
Y331032D01*
X164636Y330647D01*
X164447Y330657D01*
X164013Y330900D01*
Y375600D01*
X163913Y376102D01*
X163628Y376528D01*
X155228Y384928D01*
X154802Y385213D01*
X154300Y385313D01*
X119294D01*
X118925Y385681D01*
X119132Y386181D01*
X129780D01*
Y387821D01*
X165213D01*
Y386181D01*
X177024D01*
Y388173D01*
X209972D01*
Y379586D01*
D02*
G37*
G36*
X322693Y386181D02*
X333787D01*
Y378194D01*
X325906Y370313D01*
X262122D01*
X261931Y370775D01*
X265307Y374150D01*
X265600Y374092D01*
X266445Y374260D01*
X267161Y374739D01*
X267640Y375455D01*
X267808Y376300D01*
X267640Y377145D01*
X267572Y377246D01*
X267808Y377687D01*
X280414D01*
X280917Y377787D01*
X281342Y378072D01*
X281928Y378658D01*
X282213Y379083D01*
X282313Y379586D01*
Y386181D01*
X287260D01*
Y387821D01*
X322693D01*
Y386181D01*
D02*
G37*
G36*
X152105Y375614D02*
X151893Y375134D01*
X151362D01*
Y366866D01*
X153002D01*
Y362906D01*
X151362D01*
Y353181D01*
X150862Y353132D01*
X150840Y353245D01*
X150361Y353961D01*
X149645Y354440D01*
X148800Y354608D01*
X148077Y354464D01*
X146638Y355904D01*
Y362906D01*
X144998D01*
Y366866D01*
X146638D01*
Y375134D01*
X143007D01*
X142795Y375614D01*
X143014Y375887D01*
X151886D01*
X152105Y375614D01*
D02*
G37*
G36*
X180608Y354017D02*
X180660Y353755D01*
X181139Y353039D01*
X181855Y352560D01*
X182700Y352392D01*
X183545Y352560D01*
X184261Y353039D01*
X184427Y353287D01*
X206368D01*
X216084Y343572D01*
X216510Y343287D01*
X217012Y343187D01*
X223273D01*
X223439Y342939D01*
X224155Y342460D01*
X225000Y342292D01*
X225845Y342460D01*
X226561Y342939D01*
X227040Y343655D01*
X227119Y344055D01*
X227322Y344154D01*
X227655Y344187D01*
X227687Y344149D01*
Y341313D01*
X184764D01*
X184261Y341213D01*
X183836Y340928D01*
X183813Y340906D01*
X183300Y341008D01*
X182455Y340840D01*
X181739Y340361D01*
X181260Y339645D01*
X181092Y338800D01*
X181260Y337955D01*
X181305Y337888D01*
X181069Y337447D01*
X173964D01*
X173888Y337561D01*
X173172Y338040D01*
X172327Y338208D01*
X171482Y338040D01*
X170766Y337561D01*
X170287Y336845D01*
X170119Y336000D01*
X170287Y335155D01*
X170766Y334439D01*
X171482Y333960D01*
X172327Y333792D01*
X173172Y333960D01*
X173888Y334439D01*
X174144Y334822D01*
X185965D01*
X186468Y334922D01*
X186894Y335207D01*
X187034Y335347D01*
X187496Y335156D01*
Y329685D01*
X194976D01*
Y336900D01*
X198799D01*
X198969Y336400D01*
X198569Y336093D01*
X197969Y335311D01*
X197592Y334402D01*
X197464Y333425D01*
X197592Y332449D01*
X197969Y331539D01*
X198569Y330758D01*
X199350Y330158D01*
X200260Y329781D01*
X201236Y329653D01*
X202213Y329781D01*
X203122Y330158D01*
X203904Y330758D01*
X204387Y331388D01*
X204887Y331218D01*
Y330400D01*
X204987Y329898D01*
X205272Y329472D01*
X206572Y328172D01*
X206998Y327887D01*
X207500Y327787D01*
X233750D01*
X234252Y327887D01*
X234678Y328172D01*
X236428Y329922D01*
X236713Y330348D01*
X236813Y330850D01*
Y336956D01*
X238044Y338187D01*
X243456D01*
X244687Y336956D01*
Y335893D01*
X244187Y335723D01*
X243904Y336093D01*
X243122Y336692D01*
X242213Y337069D01*
X241236Y337198D01*
X240260Y337069D01*
X239350Y336692D01*
X238569Y336093D01*
X237969Y335311D01*
X237592Y334402D01*
X237464Y333425D01*
X237592Y332449D01*
X237969Y331539D01*
X238569Y330758D01*
X239028Y330405D01*
Y324998D01*
X162134D01*
Y325887D01*
X167235D01*
X167737Y325987D01*
X168163Y326272D01*
X169063Y327172D01*
X169347Y327598D01*
X169447Y328100D01*
Y343563D01*
X180066Y354182D01*
X180608Y354017D01*
D02*
G37*
G36*
X143713Y314613D02*
X144264D01*
X144287Y314498D01*
X144572Y314072D01*
X146572Y312072D01*
X146998Y311787D01*
X147500Y311687D01*
X164232D01*
Y308866D01*
X165872D01*
Y306906D01*
X164232D01*
Y295094D01*
X165337D01*
X165489Y294595D01*
X165439Y294561D01*
X164960Y293845D01*
X164792Y293000D01*
X164960Y292155D01*
X165439Y291439D01*
X166155Y290960D01*
X167000Y290792D01*
X167845Y290960D01*
X168561Y291439D01*
X169040Y292155D01*
X169208Y293000D01*
X169040Y293845D01*
X168561Y294561D01*
X168511Y294595D01*
X168663Y295094D01*
X170138D01*
Y306906D01*
X168498D01*
Y308866D01*
X170138D01*
Y317134D01*
X164232D01*
Y314313D01*
X152663D01*
X152287Y314613D01*
Y317987D01*
X175706D01*
X176060Y317634D01*
X175853Y317134D01*
X174862D01*
Y308866D01*
X176502D01*
Y306906D01*
X174862D01*
Y295094D01*
X174583Y294710D01*
X174039Y294346D01*
X173560Y293630D01*
X173392Y292785D01*
X173560Y291940D01*
X174039Y291224D01*
X174755Y290745D01*
X175600Y290577D01*
X176113Y290679D01*
X176292Y290500D01*
X176460Y289655D01*
X176689Y289313D01*
X176422Y288813D01*
X137825D01*
X131813Y294825D01*
Y313059D01*
X132141Y313211D01*
X132313Y313231D01*
X132372Y313172D01*
X132798Y312887D01*
X133300Y312787D01*
X137700D01*
X138202Y312887D01*
X138628Y313172D01*
X138728Y313272D01*
X139013Y313698D01*
X139113Y314200D01*
Y314613D01*
X142287D01*
Y323175D01*
X143713D01*
Y314613D01*
D02*
G37*
G36*
X112655Y313537D02*
X112587Y313437D01*
X112487Y312934D01*
Y303378D01*
X111987Y303111D01*
X111645Y303340D01*
X110800Y303508D01*
X109955Y303340D01*
X109239Y302861D01*
X108934Y302406D01*
X107998D01*
Y304366D01*
X109638D01*
Y312634D01*
X108729D01*
X108537Y313096D01*
X109479Y314037D01*
X112387D01*
X112655Y313537D01*
D02*
G37*
G36*
X239028Y309614D02*
X239196Y308769D01*
X239675Y308053D01*
X241289Y306439D01*
X242006Y305960D01*
X242851Y305792D01*
X339980D01*
X340220Y305479D01*
Y290521D01*
X339733Y289886D01*
X339356Y288976D01*
X339228Y288000D01*
X339356Y287024D01*
X339733Y286114D01*
X340333Y285332D01*
X341114Y284733D01*
X342024Y284356D01*
X343000Y284228D01*
X343976Y284356D01*
X344886Y284733D01*
X345487Y285194D01*
X345987Y284963D01*
Y281740D01*
X339260D01*
Y279220D01*
X308906D01*
Y280768D01*
X297094D01*
Y279128D01*
X218715D01*
X218213Y279028D01*
X217787Y278743D01*
X204784Y265741D01*
X204500Y265315D01*
X204400Y264813D01*
Y252987D01*
X202534Y251121D01*
X202055Y251266D01*
X202040Y251345D01*
X201561Y252061D01*
X201313Y252227D01*
Y254522D01*
X203128Y256337D01*
X203413Y256763D01*
X203513Y257265D01*
Y269589D01*
X203761Y269755D01*
X204240Y270472D01*
X204408Y271316D01*
X204240Y272161D01*
X203761Y272878D01*
X203045Y273356D01*
X202200Y273524D01*
X201355Y273356D01*
X200639Y272878D01*
X200160Y272161D01*
X199992Y271316D01*
X200160Y270472D01*
X200639Y269755D01*
X200887Y269589D01*
Y261708D01*
X200446Y261472D01*
X200345Y261540D01*
X199500Y261708D01*
X199207Y261649D01*
X195690Y265166D01*
Y281320D01*
X195939Y281486D01*
X196417Y282202D01*
X196586Y283047D01*
X196417Y283892D01*
X196398Y283921D01*
X196786Y284240D01*
X197733Y283293D01*
X197675Y283000D01*
X197843Y282155D01*
X198322Y281439D01*
X199038Y280960D01*
X199883Y280792D01*
X200728Y280960D01*
X201444Y281439D01*
X201922Y282155D01*
X202091Y283000D01*
X201922Y283845D01*
X201444Y284561D01*
X200728Y285040D01*
X199883Y285208D01*
X199590Y285150D01*
X199014Y285725D01*
X199205Y286187D01*
X330900D01*
X331402Y286287D01*
X331828Y286572D01*
X337828Y292572D01*
X337942Y292742D01*
X338461Y293089D01*
X338940Y293805D01*
X339108Y294650D01*
X338940Y295495D01*
X338461Y296211D01*
X337745Y296690D01*
X336900Y296858D01*
X336055Y296690D01*
X335339Y296211D01*
X334860Y295495D01*
X334692Y294650D01*
X334860Y293805D01*
X335056Y293512D01*
X330356Y288813D01*
X260822D01*
X260631Y289275D01*
X270707Y299351D01*
X271000Y299292D01*
X271845Y299460D01*
X272561Y299939D01*
X273040Y300655D01*
X273208Y301500D01*
X273040Y302345D01*
X272561Y303061D01*
X271845Y303540D01*
X271000Y303708D01*
X270155Y303540D01*
X269439Y303061D01*
X268960Y302345D01*
X268792Y301500D01*
X268850Y301207D01*
X258456Y290813D01*
X180646D01*
X180540Y291345D01*
X180061Y292061D01*
X179345Y292540D01*
X178500Y292708D01*
X178436Y292695D01*
X177919Y293102D01*
X177913Y293242D01*
X178743Y294072D01*
X179028Y294498D01*
X179128Y295000D01*
Y295094D01*
X180768D01*
Y306906D01*
X179128D01*
Y308866D01*
X180768D01*
Y317134D01*
X179128D01*
Y317735D01*
X179028Y318237D01*
X178743Y318663D01*
X177178Y320228D01*
X176752Y320513D01*
X176250Y320613D01*
X162584D01*
X162134Y320732D01*
Y322372D01*
X239028D01*
Y309614D01*
D02*
G37*
G36*
X339260Y274713D02*
X309344D01*
X308906Y274862D01*
Y276595D01*
X339260D01*
Y274713D01*
D02*
G37*
G36*
X297094Y274862D02*
X296656Y274713D01*
X218122D01*
X217931Y275175D01*
X219259Y276502D01*
X297094D01*
Y274862D01*
D02*
G37*
G36*
X169037Y283959D02*
X168960Y283845D01*
X168792Y283000D01*
X168960Y282155D01*
X169439Y281439D01*
X169687Y281273D01*
Y269500D01*
X169787Y268998D01*
X170072Y268572D01*
X175842Y262802D01*
X175650Y262340D01*
X167016D01*
X156813Y272544D01*
Y281320D01*
X157061Y281486D01*
X157540Y282202D01*
X157708Y283047D01*
X157540Y283892D01*
X157495Y283959D01*
X157731Y284400D01*
X168801D01*
X169037Y283959D01*
D02*
G37*
G36*
X133169Y327225D02*
X132272Y326328D01*
X131987Y325902D01*
X131887Y325400D01*
Y323987D01*
X128713D01*
Y314613D01*
X129187D01*
Y294282D01*
X129287Y293779D01*
X129572Y293353D01*
X135152Y287774D01*
X135006Y287295D01*
X134928Y287280D01*
X134211Y286801D01*
X133733Y286085D01*
X133565Y285240D01*
X133733Y284395D01*
X134211Y283679D01*
X134928Y283200D01*
X135772Y283032D01*
X136617Y283200D01*
X137334Y283679D01*
X137812Y284395D01*
X137813Y284400D01*
X153269D01*
X153505Y283959D01*
X153460Y283892D01*
X153292Y283047D01*
X153460Y282202D01*
X153939Y281486D01*
X154187Y281320D01*
Y272000D01*
X154287Y271498D01*
X154572Y271072D01*
X164629Y261015D01*
X164438Y260553D01*
X158530D01*
X158443Y261053D01*
X159061Y261466D01*
X159540Y262182D01*
X159708Y263027D01*
X159540Y263872D01*
X159061Y264588D01*
X158345Y265066D01*
X157500Y265234D01*
X157214Y265178D01*
X151417Y270975D01*
X151476Y271268D01*
X151307Y272113D01*
X150829Y272829D01*
X150113Y273307D01*
X149268Y273476D01*
X148423Y273307D01*
X147707Y272829D01*
X147228Y272113D01*
X147060Y271268D01*
X147228Y270423D01*
X147707Y269707D01*
X148423Y269228D01*
X149268Y269060D01*
X149561Y269118D01*
X155352Y263327D01*
X155292Y263027D01*
X155460Y262182D01*
X155939Y261466D01*
X156557Y261053D01*
X156470Y260553D01*
X129304D01*
X115113Y274744D01*
Y290595D01*
X120268D01*
Y302406D01*
X118628D01*
Y304366D01*
X120268D01*
Y305987D01*
X124050D01*
X124552Y306087D01*
X124978Y306372D01*
X126428Y307822D01*
X126713Y308248D01*
X126813Y308750D01*
Y314613D01*
X127287D01*
Y323987D01*
X126813D01*
Y326956D01*
X127544Y327687D01*
X132978D01*
X133169Y327225D01*
D02*
G37*
G36*
X192383Y283959D02*
X192338Y283892D01*
X192170Y283047D01*
X192338Y282202D01*
X192817Y281486D01*
X193065Y281320D01*
Y264622D01*
X193165Y264120D01*
X193450Y263694D01*
X197351Y259793D01*
X197292Y259500D01*
X197460Y258655D01*
X197939Y257939D01*
X198655Y257460D01*
X199500Y257292D01*
X199704Y257333D01*
X199950Y256872D01*
X199072Y255994D01*
X198787Y255568D01*
X198779Y255525D01*
X198317Y255334D01*
X198179Y255426D01*
X197335Y255594D01*
X196490Y255426D01*
X195773Y254947D01*
X195607Y254698D01*
X193158D01*
X191929Y255928D01*
X192074Y256406D01*
X192345Y256460D01*
X193061Y256939D01*
X193540Y257655D01*
X193708Y258500D01*
X193540Y259345D01*
X193061Y260061D01*
X192345Y260540D01*
X191500Y260708D01*
X190655Y260540D01*
X189939Y260061D01*
X189773Y259813D01*
X182544D01*
X172313Y270044D01*
Y281273D01*
X172561Y281439D01*
X173040Y282155D01*
X173208Y283000D01*
X173040Y283845D01*
X172963Y283959D01*
X173199Y284400D01*
X192147D01*
X192383Y283959D01*
D02*
G37*
G36*
X144375Y253853D02*
X143939Y253561D01*
X143460Y252845D01*
X143292Y252000D01*
X143460Y251155D01*
X143939Y250439D01*
X144655Y249960D01*
X145500Y249792D01*
X145793Y249851D01*
X146903Y248741D01*
X147328Y248457D01*
X147831Y248357D01*
X157105D01*
X157314Y248398D01*
X157814Y248039D01*
Y243661D01*
X157861Y243426D01*
Y241462D01*
X157361Y241413D01*
X157340Y241517D01*
X157105Y241869D01*
X156753Y242104D01*
X156339Y242186D01*
X150748D01*
X150513Y242139D01*
X133813D01*
Y254353D01*
X144224D01*
X144375Y253853D01*
D02*
G37*
G36*
X189155Y245960D02*
X190000Y245792D01*
X190293Y245850D01*
X191025Y245119D01*
X191450Y244834D01*
X191953Y244735D01*
X200554D01*
X200746Y244273D01*
X197286Y240813D01*
X194227D01*
X194061Y241061D01*
X193345Y241540D01*
X192500Y241708D01*
X191655Y241540D01*
X190939Y241061D01*
X190836Y240907D01*
X190336Y241058D01*
Y241102D01*
X190253Y241517D01*
X190018Y241869D01*
X189667Y242104D01*
X189252Y242186D01*
X189139D01*
X188903Y242627D01*
X188954Y242702D01*
X189122Y243547D01*
X188954Y244392D01*
X188475Y245108D01*
X188227Y245274D01*
Y245979D01*
X188727Y246247D01*
X189155Y245960D01*
D02*
G37*
G36*
X209063Y248224D02*
Y240013D01*
X203355D01*
X202853Y239913D01*
X202427Y239628D01*
X197064Y234265D01*
X190648D01*
X190336Y234646D01*
Y235197D01*
X190253Y235612D01*
X190057Y235906D01*
X190253Y236199D01*
X190336Y236614D01*
Y237165D01*
X190253Y237580D01*
X190206Y237650D01*
X190345Y237953D01*
X190901Y237996D01*
X190939Y237939D01*
X191655Y237460D01*
X192500Y237292D01*
X193345Y237460D01*
X194061Y237939D01*
X194227Y238187D01*
X197829D01*
X198332Y238287D01*
X198758Y238572D01*
X208601Y248415D01*
X209063Y248224D01*
D02*
G37*
G36*
X131326Y255640D02*
X131287Y255582D01*
X131187Y255080D01*
Y240827D01*
Y235970D01*
X130687Y235703D01*
X130594Y235765D01*
X130128Y235858D01*
X129131D01*
Y255775D01*
X129497Y256140D01*
X131059D01*
X131326Y255640D01*
D02*
G37*
D13*
X229000Y340586D02*
Y347685D01*
X224500Y352185D02*
X229000Y347685D01*
X190000Y248000D02*
X191953Y246047D01*
X186914Y243547D02*
Y249567D01*
X181555Y254925D02*
X186914Y249567D01*
X182700Y242400D02*
Y251253D01*
X180815Y253138D02*
X182700Y251253D01*
X182000Y241700D02*
X182700Y242400D01*
X180075Y251350D02*
X180827Y250599D01*
Y246457D02*
Y250599D01*
X190365Y251865D02*
X191110D01*
X192614Y253386D02*
X197335D01*
X189287Y256713D02*
X192614Y253386D01*
X182000Y258500D02*
X191500D01*
X313453Y246415D02*
X327809D01*
X166347Y344847D02*
X192500Y371000D01*
X260300D02*
X265600Y376300D01*
X192500Y371000D02*
X260300D01*
X168135Y344107D02*
X193028Y369000D01*
X326450D02*
X335100Y377650D01*
X193028Y369000D02*
X326450D01*
X117315Y296500D02*
Y307300D01*
Y308500D01*
X166347Y330347D02*
Y344847D01*
X168135Y328100D02*
Y344107D01*
X304476Y436430D02*
Y440340D01*
X287641Y440315D02*
X288443Y441117D01*
X303699D02*
X304476Y440340D01*
X288443Y441117D02*
X303699D01*
X281354Y440315D02*
X287641D01*
X304476Y436430D02*
X304976Y435930D01*
X130963Y441117D02*
X146257D01*
X146996Y436430D02*
Y440378D01*
Y436430D02*
X147706Y435720D01*
X146257Y441117D02*
X146996Y440378D01*
X130160Y440315D02*
X130963Y441117D01*
X123874Y440315D02*
X130160D01*
X247336Y482407D02*
X289536D01*
X309976Y461967D01*
X246750Y482993D02*
X247336Y482407D01*
X246750Y482993D02*
Y500100D01*
X135772Y285240D02*
X136248D01*
X136720Y285713D02*
X197170D01*
X136248Y285240D02*
X136720Y285713D01*
X130500Y294282D02*
Y319300D01*
Y294282D02*
X137282Y287500D01*
X330900D01*
X280768Y411993D02*
X281354Y412579D01*
X247808Y411993D02*
X280768D01*
X281354Y412579D02*
Y440315D01*
X207500Y251703D02*
Y264000D01*
X216900Y273400D02*
X347200D01*
X207500Y264000D02*
X216900Y273400D01*
X201844Y246047D02*
X207500Y251703D01*
X201104Y247835D02*
X205713Y252443D01*
Y264813D01*
X218715Y277815D01*
X142496Y455330D02*
Y460914D01*
X168325Y460800D02*
X168800D01*
X167625Y461500D02*
X168325Y460800D01*
X143082Y461500D02*
X167625D01*
X142496Y460914D02*
X143082Y461500D01*
X259000Y289500D02*
X271000Y301500D01*
X178500Y290500D02*
X178964D01*
X179964Y289500D01*
X259000D01*
X330900Y287500D02*
X336900Y293500D01*
X194378Y264622D02*
Y283047D01*
X197170Y285713D02*
X199883Y283000D01*
X271220Y379000D02*
X280414D01*
X226000D02*
X271220D01*
X279586Y388780D02*
X281000D01*
X278275Y387468D02*
X279586Y388780D01*
X281000D02*
X281354Y389134D01*
X328598D01*
X215500Y386000D02*
X220685D01*
X261236Y440315D02*
X281354D01*
X310400Y246415D02*
X313453D01*
X302000Y255950D02*
Y267185D01*
X205815Y440315D02*
X261236D01*
X231315Y386000D02*
X234362Y389047D01*
X220685Y386000D02*
Y392185D01*
X226000Y379000D02*
Y391500D01*
X229441Y394941D01*
X211871Y379000D02*
X226000D01*
X211285Y379586D02*
X211871Y379000D01*
X211285Y379586D02*
Y389486D01*
X113500Y439076D02*
Y439729D01*
X290300Y206700D02*
Y231300D01*
X291500Y232500D01*
X183750Y201800D02*
X202300D01*
X171118Y389134D02*
X171470Y389486D01*
X217897Y396098D02*
Y397105D01*
X211285Y389486D02*
X217897Y396098D01*
X171470Y389486D02*
X211285D01*
X218552Y397760D02*
X219559D01*
X217897Y397105D02*
X218552Y397760D01*
X168731Y233500D02*
X176500D01*
X161142Y241089D02*
X168731Y233500D01*
X161142Y241089D02*
Y246457D01*
X214000Y201300D02*
Y218721D01*
X201056Y231665D02*
X214000Y218721D01*
X198848Y231665D02*
X201056D01*
X203355Y238700D02*
X214000D01*
X197608Y232953D02*
X203355Y238700D01*
X186457Y232953D02*
X197608D01*
X198167Y230984D02*
X198848Y231665D01*
X186457Y230984D02*
X198167D01*
X199952Y229000D02*
X200269D01*
X203165Y226104D01*
X194000Y221000D02*
X197500D01*
X192500Y239500D02*
X197829D01*
X190673Y217500D02*
X195500D01*
X189000Y219173D02*
X190673Y217500D01*
X185458Y214542D02*
X198418D01*
X186535Y225000D02*
X200500D01*
X203165Y219290D02*
Y226104D01*
X198418Y214542D02*
X203165Y219290D01*
X182000Y218000D02*
X185458Y214542D01*
X191890Y223110D02*
X194000Y221000D01*
X227390Y269061D02*
X267439D01*
X197829Y239500D02*
X227390Y269061D01*
X191953Y246047D02*
X201844D01*
X157500Y263027D02*
Y263036D01*
X149268Y271268D02*
X157500Y263036D01*
X152500Y252335D02*
X152768Y252602D01*
X132500Y240827D02*
X153543D01*
X147079Y234921D02*
X153543D01*
X146000Y236000D02*
X147079Y234921D01*
X132500Y221000D02*
Y240827D01*
X133086Y255665D02*
X174724D01*
X132500Y240827D02*
Y255080D01*
X133086Y255665D01*
X128953Y257453D02*
X175464D01*
X127819Y256319D02*
X128953Y257453D01*
X127819Y195087D02*
Y256319D01*
X128760Y259240D02*
X176204D01*
X113800Y274200D02*
Y312934D01*
Y274200D02*
X128760Y259240D01*
X152500Y201000D02*
X165685D01*
X132500Y221000D02*
X152500Y201000D01*
X143761Y205239D02*
X148000Y201000D01*
X139500Y205815D02*
X140076Y205239D01*
X148000Y186878D02*
Y201000D01*
X140076Y205239D02*
X143761D01*
X113500Y381086D02*
Y439076D01*
Y439729D02*
Y482500D01*
X116000Y485000D01*
X336472Y482843D02*
Y485000D01*
Y482843D02*
X343000Y476315D01*
Y338000D02*
Y476315D01*
X116000Y238150D02*
Y255079D01*
X110181Y232331D02*
X116000Y238150D01*
X110181Y230913D02*
Y232331D01*
X327809Y246415D02*
X336472Y255079D01*
X291500Y232500D02*
X298000D01*
X300500Y230000D02*
X310500D01*
X298000Y232500D02*
X300500Y230000D01*
X176945Y261028D02*
X181260Y256713D01*
X171000Y269500D02*
X182000Y258500D01*
X176204Y259240D02*
X180519Y254925D01*
X175464Y257453D02*
X179779Y253138D01*
X174724Y255665D02*
X179039Y251350D01*
X181260Y256713D02*
X189287D01*
X180519Y254925D02*
X181555D01*
X179779Y253138D02*
X180815D01*
X179039Y251350D02*
X180075D01*
X166472Y261028D02*
X176945D01*
X171000Y269500D02*
Y283000D01*
X336900Y293500D02*
Y294650D01*
X163161Y242839D02*
X166000Y240000D01*
X163161Y242839D02*
Y246405D01*
X163110Y246457D02*
X163161Y246405D01*
X162000Y227547D02*
Y232601D01*
X169008Y246464D02*
X169016Y246457D01*
X169008Y246464D02*
Y252699D01*
X169000Y252707D02*
X169008Y252699D01*
X173000Y246504D02*
Y253000D01*
X172953Y246457D02*
X173000Y246504D01*
X200000Y255065D02*
X202200Y257265D01*
X200000Y250500D02*
Y255065D01*
X195586Y247835D02*
X201104D01*
X194378Y264622D02*
X199500Y259500D01*
X155500Y272000D02*
Y283047D01*
Y272000D02*
X166472Y261028D01*
X165575Y231554D02*
X167969Y229159D01*
X159173Y240483D02*
Y246457D01*
X153543Y238858D02*
X158270D01*
X159173Y240483D02*
X165575Y234081D01*
X163787Y230813D02*
Y233341D01*
Y230713D02*
Y230813D01*
X165575Y231554D02*
Y234081D01*
X158270Y238858D02*
X163787Y233341D01*
X167969Y227531D02*
Y229159D01*
X163787Y230713D02*
X166182Y228318D01*
Y223835D02*
Y228318D01*
X153543Y236890D02*
X157711D01*
X162000Y232601D01*
X153594Y232902D02*
X158414D01*
X159000Y232316D01*
Y225000D02*
Y232316D01*
X153543Y232953D02*
X153594Y232902D01*
X165616Y219142D02*
Y219164D01*
Y219142D02*
X167047Y217711D01*
X169016Y219885D02*
X170596Y221465D01*
X169016Y213543D02*
Y219885D01*
X172900Y221465D02*
X176365Y218000D01*
X170596Y221465D02*
X172900D01*
X170984Y218084D02*
X171700Y218800D01*
X176365Y218000D02*
X182000D01*
X170984Y213543D02*
Y218084D01*
X161193Y216348D02*
Y218846D01*
X166182Y223835D01*
X161193Y216348D02*
X161193Y216348D01*
X161142Y213543D02*
X161193Y213595D01*
Y216348D01*
X166182Y223835D02*
X166182D01*
X166182Y223835D01*
Y223835D02*
X177104D01*
X152768Y252602D02*
X165069D01*
X167047Y250624D01*
Y246457D02*
Y250624D01*
X164033Y250815D02*
X165027Y249821D01*
Y246508D02*
Y249821D01*
Y246508D02*
X165079Y246457D01*
X191110Y251865D02*
X192725Y250250D01*
X194222D01*
X195000Y249472D01*
Y248420D02*
Y249472D01*
X157105Y249669D02*
X158250Y250815D01*
X147831Y249669D02*
X157105D01*
X145500Y252000D02*
X147831Y249669D01*
X158250Y250815D02*
X164033D01*
X195000Y248420D02*
X195586Y247835D01*
X186457Y225079D02*
X186535Y225000D01*
X167000Y293000D02*
Y300815D01*
X167185Y301000D01*
X217012Y344500D02*
X225000D01*
X184764Y340000D02*
X228414D01*
X229000Y340586D01*
X224500Y352185D02*
X239913D01*
X206912Y354600D02*
X217012Y344500D01*
X121100Y393100D02*
X125100Y389100D01*
X123874Y389134D02*
X125100D01*
X171118D01*
X182700Y354600D02*
X206912D01*
X216449Y338213D02*
X221236Y333425D01*
X188043Y338213D02*
X216449D01*
X185965Y336135D02*
X188043Y338213D01*
X183564Y338800D02*
X184764Y340000D01*
X183300Y338800D02*
X183564D01*
X171000Y400646D02*
Y407000D01*
Y400646D02*
X171500Y400146D01*
X171118Y399764D02*
X171500Y400146D01*
X169000Y226500D02*
X176000D01*
X167969Y227531D02*
X169000Y226500D01*
X182000Y229116D02*
Y241700D01*
X179909Y226640D02*
Y242093D01*
X178909Y243652D02*
X178988Y243573D01*
X178858Y246457D02*
X178909Y246405D01*
X182100Y229016D02*
X186457D01*
X178988Y243014D02*
Y243573D01*
Y243014D02*
X179909Y242093D01*
X182000Y229116D02*
X182100Y229016D01*
X178909Y243652D02*
Y246405D01*
X179979Y226979D02*
X179996Y226996D01*
X186405D01*
X177104Y223835D02*
X179909Y226640D01*
X186405Y226996D02*
X186457Y227047D01*
X303000Y254950D02*
X303750Y254200D01*
X303000Y246746D02*
Y254950D01*
X302000Y255950D02*
X303000Y254950D01*
X167047Y213543D02*
Y217711D01*
X172462Y336135D02*
X185965D01*
X172327Y336000D02*
X172462Y336135D01*
X148816Y230984D02*
X153543D01*
X143000Y225168D02*
X148816Y230984D01*
X143000Y223500D02*
Y225168D01*
X149324Y228965D02*
X153492D01*
X146500Y226140D02*
X149324Y228965D01*
X146500Y219500D02*
Y226140D01*
X153492Y228965D02*
X153543Y229016D01*
X108935Y315350D02*
X120500D01*
X106685Y299500D02*
X109000D01*
X106685Y296500D02*
Y308500D01*
X117315Y307300D02*
X124050D01*
X148285Y352400D02*
X148800D01*
X143685D02*
X148285D01*
X150500Y350185D01*
X143685Y357000D02*
X148285Y352400D01*
X154315Y371000D02*
Y375385D01*
Y378750D01*
X281300Y399764D02*
Y405400D01*
X137900Y316400D02*
X140500D01*
X324300Y395900D02*
Y399764D01*
X118575Y399589D02*
X118750Y399764D01*
X117400Y398414D02*
X118575Y399589D01*
X129800Y458900D02*
X132496D01*
X162496Y433800D02*
X171100D01*
X202200Y257265D02*
Y271316D01*
X106685Y308500D02*
Y313100D01*
X108935Y315350D01*
X120500D02*
Y319300D01*
X177815Y295000D02*
Y301000D01*
X175600Y292785D02*
X177815Y295000D01*
X186457Y223110D02*
X191890D01*
X180827Y212400D02*
Y213543D01*
Y212400D02*
X184600Y209200D01*
X143685Y352400D02*
Y357000D01*
X134900Y380200D02*
X152865D01*
X154315Y378750D01*
X120500Y327800D02*
Y338700D01*
Y327800D02*
X122800Y325500D01*
Y314684D02*
Y325500D01*
X121250Y313134D02*
X122800Y314684D01*
X114000Y313134D02*
X121250D01*
X113800Y312934D02*
X114000Y313134D01*
X186457Y219173D02*
X189000D01*
X218715Y277815D02*
X303000D01*
X140500Y316400D02*
Y319300D01*
X137800Y316300D02*
X137900Y316400D01*
X137800Y314200D02*
Y316300D01*
X137700Y314100D02*
X137800Y314200D01*
X133300Y314100D02*
X137700D01*
X133200Y314200D02*
X133300Y314100D01*
X133200Y314200D02*
Y325400D01*
X135000Y327200D01*
X167235D01*
X168135Y328100D01*
X335100Y377650D02*
Y404850D01*
X333750Y406200D02*
X335100Y404850D01*
X312400Y406200D02*
X333750D01*
X305964Y399764D02*
X312400Y406200D01*
X281354Y399764D02*
X305964D01*
X118300Y399864D02*
Y403900D01*
Y399864D02*
X118575Y399589D01*
X123874Y399764D01*
X157496Y449595D02*
Y455330D01*
X347200Y273400D02*
X347300Y273500D01*
Y313700D01*
X343000Y318000D02*
X347300Y313700D01*
X309976Y455330D02*
Y461967D01*
X243750Y503100D02*
X246750Y500100D01*
X152200Y503100D02*
X243750D01*
X146500Y508800D02*
X152200Y503100D01*
X146500Y508800D02*
Y527800D01*
X160266Y527900D01*
X160366Y520189D01*
X309976Y435930D02*
Y447776D01*
X312300Y450100D01*
Y467600D01*
X297000Y482900D02*
X312300Y467600D01*
X297000Y482900D02*
Y526636D01*
X295900Y527736D02*
X297000Y526636D01*
X273836Y527736D02*
X295900D01*
X258000Y511900D02*
X273836Y527736D01*
X249900Y511900D02*
X258000D01*
X299976Y425474D02*
Y435930D01*
Y425474D02*
X301250Y424200D01*
X330000D01*
X331300Y425500D01*
Y462200D01*
X313300Y480200D02*
X331300Y462200D01*
X313300Y480200D02*
Y526250D01*
X310026Y529524D02*
X313300Y526250D01*
X209434Y529524D02*
X310026D01*
X207610Y527700D02*
X209434Y529524D01*
X207610Y520189D02*
Y527700D01*
X152496Y449796D02*
Y455330D01*
X149300Y446600D02*
X152496Y449796D01*
X119300Y446600D02*
X149300D01*
X119200Y446700D02*
X119300Y446600D01*
X119200Y446700D02*
Y464900D01*
X141100Y486800D01*
Y529100D01*
X141800Y529800D01*
X199400D01*
X203250Y525950D01*
Y513650D02*
Y525950D01*
Y513650D02*
X205000Y511900D01*
X225164D01*
X241000Y527736D01*
X254718D01*
X254854Y527600D01*
Y520189D02*
Y527600D01*
X206872Y443900D02*
X302500D01*
X204090Y441117D02*
X206872Y443900D01*
X153750Y441117D02*
X204090D01*
X152496Y439863D02*
X153750Y441117D01*
X152496Y435930D02*
Y439863D01*
X178858Y206692D02*
X183750Y201800D01*
X178858Y206692D02*
Y213543D01*
X174000Y208300D02*
X175190D01*
X176890Y210000D01*
Y213543D01*
X125600Y357000D02*
X128815D01*
X125500Y356900D02*
X125600Y357000D01*
X125500Y338700D02*
Y356900D01*
X118185Y350215D02*
Y357000D01*
Y350215D02*
X120500Y347900D01*
Y338700D02*
Y347900D01*
X106685Y296500D02*
Y299500D01*
X109000D02*
X110800Y301300D01*
X177500Y221142D02*
X186457D01*
X302098Y498302D02*
Y520189D01*
Y498302D02*
X303900Y496500D01*
X209500Y432500D02*
X274500D01*
X204700Y427700D02*
X209500Y432500D01*
X145900Y427700D02*
X204700D01*
X142496Y431104D02*
X145900Y427700D01*
X142496Y431104D02*
Y435930D01*
X130500Y333300D02*
Y338700D01*
Y333300D02*
X133000Y330800D01*
X162600D01*
X162700Y330900D01*
Y375600D01*
X154300Y384000D02*
X162700Y375600D01*
X118750Y384000D02*
X154300D01*
X117400Y385350D02*
X118750Y384000D01*
X117400Y385350D02*
Y398414D01*
X118750Y399764D02*
X123874D01*
X206200Y330400D02*
Y334700D01*
Y330400D02*
X207500Y329100D01*
X233750D01*
X235500Y330850D01*
Y337500D01*
X237500Y339500D01*
X244000D01*
X246000Y337500D01*
Y330400D02*
Y337500D01*
Y330400D02*
X247500Y328900D01*
X284800D01*
X316000Y360100D01*
X165000Y329000D02*
X166347Y330347D01*
X127000Y329000D02*
X165000D01*
X125500Y327500D02*
X127000Y329000D01*
X125500Y319300D02*
Y327500D01*
X128815Y371000D02*
Y376700D01*
X177600Y456700D02*
X186900Y447400D01*
X305914D01*
X307264Y448750D01*
Y460500D01*
X307164Y460600D02*
X307264Y460500D01*
X301250Y460600D02*
X307164D01*
X299976Y459326D02*
X301250Y460600D01*
X299976Y455330D02*
Y459326D01*
X140500Y338700D02*
Y344322D01*
X144078Y347900D01*
X145500Y338700D02*
Y344357D01*
X146743Y345600D01*
Y350422D01*
X146600Y350565D02*
X146743Y350422D01*
X140300Y350565D02*
X146600D01*
X140200Y350665D02*
X140300Y350565D01*
X140200Y350665D02*
Y375000D01*
X142400Y377200D01*
X152500D01*
X154315Y375385D01*
X132496Y455330D02*
Y458900D01*
Y427323D02*
Y435930D01*
X162496Y433800D02*
Y435930D01*
X284300Y431200D02*
X289876D01*
X289976Y431300D01*
Y435930D01*
X319976Y427323D02*
Y435930D01*
X324300Y399764D02*
X328598D01*
X314976Y450274D02*
Y455330D01*
Y450274D02*
X316250Y449000D01*
X325300D01*
X328600Y445700D01*
X289976Y455330D02*
Y472500D01*
X281300Y399764D02*
X281354D01*
X281300Y405400D02*
X288600Y412700D01*
X303750Y254200D02*
X306000D01*
X302000Y267185D02*
X303000D01*
X125500Y308750D02*
Y319300D01*
X124050Y307300D02*
X125500Y308750D01*
X150500Y338700D02*
Y350185D01*
X145500Y315000D02*
Y319300D01*
Y315000D02*
X147500Y313000D01*
X167185D01*
X150500Y319300D02*
X176250D01*
X177815Y317735D01*
Y313000D02*
Y317735D01*
X289976Y455330D02*
X294976D01*
X314976D02*
X319976D01*
X314976Y435930D02*
X319976D01*
X289976D02*
X294976D01*
X132496Y455330D02*
X137496D01*
X157496D02*
X162496D01*
X157496Y435930D02*
X162496D01*
X132496D02*
X137496D01*
X280414Y379000D02*
X281000Y379586D01*
X241236Y463500D02*
Y498780D01*
X281354Y450945D02*
Y462914D01*
X280768Y463500D02*
X281354Y462914D01*
X241236Y463500D02*
X280768D01*
X281354Y450945D02*
X287641D01*
X124000Y462914D02*
X124586Y463500D01*
X124000Y451071D02*
Y462914D01*
X124586Y463500D02*
X241236D01*
X123874Y450945D02*
X124000Y451071D01*
X123874Y450945D02*
X130160D01*
X158000Y323685D02*
X241131D01*
X241236Y323580D01*
X163500Y206000D02*
X171315D01*
X176315Y201000D02*
Y202151D01*
X174650Y203817D02*
X176315Y202151D01*
X173498Y203817D02*
X174650D01*
X171315Y206000D02*
X173498Y203817D01*
X161142Y208358D02*
X163500Y206000D01*
X161142Y208358D02*
Y213543D01*
X114086Y440315D02*
X123874D01*
X114086Y380500D02*
X130000D01*
X113500Y381086D02*
X114086Y380500D01*
X113500Y439729D02*
X114086Y440315D01*
X135500Y338700D02*
Y375000D01*
X130000Y380500D02*
X135500Y375000D01*
X148292Y429500D02*
X195000D01*
X205815Y440315D01*
X147706Y430086D02*
Y435720D01*
Y430086D02*
X148292Y429500D01*
X219559Y405240D02*
X220780D01*
X223228Y402791D01*
Y394728D02*
Y402791D01*
X220685Y392185D02*
X223228Y394728D01*
X244047Y411185D02*
X247000D01*
X247808Y411993D01*
X303093Y277908D02*
X342908D01*
X302669Y246415D02*
X303000Y246746D01*
X152033Y324487D02*
X152836Y323685D01*
X137787Y324487D02*
X152033D01*
X152836Y323685D02*
X158000D01*
X135500Y322200D02*
X137787Y324487D01*
X135500Y319300D02*
Y322200D01*
X287641Y450945D02*
X288443Y450143D01*
X302689D01*
X304976Y452430D01*
Y455330D01*
X130160Y450945D02*
X130963Y450143D01*
X145209D01*
X147496Y452430D01*
Y455330D01*
X261236Y333425D02*
Y360442D01*
X243079Y361028D02*
X260650D01*
X261236Y360442D01*
X242866Y361240D02*
X243079Y361028D01*
X237305Y361240D02*
X242866D01*
X235731Y362815D02*
X237305Y361240D01*
X224500Y362815D02*
X235731D01*
X251236Y333425D02*
Y357398D01*
X281000Y379586D02*
Y388780D01*
X251134Y357500D02*
X251236Y357398D01*
X239913Y352185D02*
X241488Y353760D01*
X242866D01*
X154315Y357000D02*
Y371000D01*
X143685Y357000D02*
Y371000D01*
X128815Y357000D02*
Y371000D01*
X118185Y357000D02*
Y371000D01*
X177815Y301000D02*
Y313000D01*
X167185Y301000D02*
Y313000D01*
X229441Y394941D02*
Y397760D01*
X234362Y389047D02*
Y401500D01*
X230315Y426000D02*
X239862D01*
X244047Y421815D01*
X247000D01*
X230315Y405895D02*
Y426000D01*
X229660Y405240D02*
X230315Y405895D01*
X229441Y405240D02*
X229660D01*
X219559Y425874D02*
X219685Y426000D01*
X219559Y405240D02*
Y425874D01*
X229441Y401500D02*
X234362D01*
X244047Y411185D01*
X135500Y335800D02*
Y338700D01*
Y335800D02*
X137787Y333513D01*
X152033D01*
X152836Y334315D02*
X158000D01*
X152033Y333513D02*
X152836Y334315D01*
X159173Y207512D02*
Y213543D01*
X165685Y201000D02*
Y202151D01*
X164020Y203817D02*
X165685Y202151D01*
X162868Y203817D02*
X164020D01*
X159173Y207512D02*
X162868Y203817D01*
X127819Y195087D02*
X139402D01*
X139500Y195185D01*
X214000Y238700D02*
X214001Y238701D01*
X214000Y201300D02*
X214001Y201299D01*
Y238701D02*
X230685D01*
X214001Y201299D02*
X230685D01*
X100252Y184213D02*
X352220D01*
X100252D02*
Y500748D01*
X135685D01*
Y532244D01*
X316787D01*
Y500748D02*
Y532244D01*
Y500748D02*
X352220D01*
Y184213D02*
Y500748D01*
D14*
X224500Y362815D02*
D03*
Y352185D02*
D03*
X310500Y235685D02*
D03*
Y246315D02*
D03*
Y214685D02*
D03*
Y225315D02*
D03*
X247000Y421815D02*
D03*
Y411185D02*
D03*
X281354Y389134D02*
D03*
X328598D02*
D03*
X123874D02*
D03*
X171118D02*
D03*
X303000Y277815D02*
D03*
Y267185D02*
D03*
X171118Y399764D02*
D03*
X123874D02*
D03*
X328598D02*
D03*
X281354D02*
D03*
D15*
X139500Y205815D02*
D03*
Y195185D02*
D03*
X281354Y440315D02*
D03*
Y450945D02*
D03*
X123874Y440315D02*
D03*
Y450945D02*
D03*
X158000Y323685D02*
D03*
Y334315D02*
D03*
D16*
X160366Y520189D02*
D03*
X150366D02*
D03*
X197610D02*
D03*
X207610D02*
D03*
X254854D02*
D03*
X244854D02*
D03*
X292098D02*
D03*
X302098D02*
D03*
D27*
X165500Y200185D02*
X166000Y200685D01*
X165685Y201000D02*
X166000Y200685D01*
X165500Y195500D02*
Y200185D01*
X328134Y226362D02*
X342815Y211681D01*
X310500Y225315D02*
Y230000D01*
Y235685D01*
X288500Y237500D02*
X289500D01*
X294838D01*
X286315Y235315D02*
X288500Y237500D01*
X296039Y226193D02*
X307547Y214685D01*
X310500D01*
X296039Y226193D02*
Y228031D01*
X242851Y308000D02*
X343000D01*
X241236Y309614D02*
X242851Y308000D01*
X241236Y309614D02*
Y323580D01*
X148000Y186878D02*
X162741D01*
X176315D01*
X228075D01*
X241236Y323580D02*
Y333425D01*
X275685Y242586D02*
X279614Y246516D01*
X286315Y218000D02*
Y235315D01*
X275685Y218000D02*
Y242586D01*
X279614Y246516D02*
X294838D01*
X275685Y216819D02*
Y218000D01*
X118390Y186878D02*
X148000D01*
X302669Y246415D02*
X310400D01*
X294939D02*
X302669D01*
X197500Y507500D02*
X245000D01*
X151981D02*
X197500D01*
X197610Y507610D02*
Y520189D01*
X197500Y507500D02*
X197610Y507610D01*
X245000Y507500D02*
X261500D01*
X244854Y507646D02*
Y520189D01*
Y507646D02*
X245000Y507500D01*
X261500D02*
X290578D01*
X261236Y498780D02*
X261500Y499043D01*
Y507500D01*
X292098Y520189D02*
X292193Y520095D01*
Y509114D02*
Y520095D01*
X290578Y507500D02*
X292193Y509114D01*
X150366D02*
Y520189D01*
Y509114D02*
X151981Y507500D01*
X228075Y186878D02*
X241315Y200118D01*
X176315Y187000D02*
Y201000D01*
X112937Y192331D02*
X118390Y186878D01*
X110181Y195087D02*
Y230913D01*
Y193669D02*
Y195087D01*
Y193669D02*
X111520Y192331D01*
X112937D01*
X241315Y200118D02*
Y201299D01*
Y238701D01*
X274898Y216032D02*
X275685Y216819D01*
X273716Y216032D02*
X274898D01*
X258984Y201299D02*
X273716Y216032D01*
X241315Y201299D02*
X258984D01*
X294838Y246516D02*
X294939Y246415D01*
X342815Y210500D02*
Y211681D01*
X328134Y226362D02*
Y231634D01*
X313453Y246315D02*
X328134Y231634D01*
X310500Y246315D02*
X313453D01*
X295586Y228484D02*
X296039Y228031D01*
X294838Y228484D02*
X295586D01*
X317638Y210500D02*
X332185D01*
X313453Y214685D02*
X317638Y210500D01*
X310500Y214685D02*
X313453D01*
X342500Y200000D02*
X342658Y200158D01*
Y210343D01*
X342815Y210500D01*
X332343Y200158D02*
X332500Y200000D01*
X332343Y200158D02*
Y210343D01*
X332185Y210500D02*
X332343Y210343D01*
D28*
X261236Y333425D02*
D03*
X251236D02*
D03*
X241236D02*
D03*
X231236D02*
D03*
X221236D02*
D03*
X211236D02*
D03*
X201236D02*
D03*
X332579Y200079D02*
D03*
X343000Y308000D02*
D03*
Y318000D02*
D03*
Y328000D02*
D03*
Y288000D02*
D03*
X201236Y498780D02*
D03*
X211236D02*
D03*
X221236D02*
D03*
X231236D02*
D03*
X241236D02*
D03*
X251236D02*
D03*
X261236D02*
D03*
D29*
X191236Y333425D02*
D03*
X342579Y200079D02*
D03*
X191236Y498780D02*
D03*
D30*
X343000Y338000D02*
D03*
Y278000D02*
D03*
D31*
X116000Y255079D02*
D03*
Y485000D02*
D03*
X336472Y255079D02*
D03*
Y485000D02*
D03*
D32*
X190000Y248000D02*
D03*
X186914Y243547D02*
D03*
X190365Y251865D02*
D03*
X191500Y258500D02*
D03*
X135772Y285240D02*
D03*
X194378Y283047D02*
D03*
X215500Y386000D02*
D03*
X290300Y206700D02*
D03*
X202300Y201800D02*
D03*
X165500Y195500D02*
D03*
X176500Y233500D02*
D03*
X199952Y229000D02*
D03*
X197500Y221000D02*
D03*
X192500Y239500D02*
D03*
X195500Y217500D02*
D03*
X200500Y225000D02*
D03*
X267439Y269061D02*
D03*
X157500Y263027D02*
D03*
X152500Y252335D02*
D03*
X146000Y236000D02*
D03*
X149268Y271268D02*
D03*
X289500Y237500D02*
D03*
X171000Y283000D02*
D03*
X166000Y240000D02*
D03*
X162000Y227547D02*
D03*
X169000Y252707D02*
D03*
X173000Y253000D02*
D03*
X197335Y253386D02*
D03*
X200000Y250500D02*
D03*
X199500Y259500D02*
D03*
X178500Y290500D02*
D03*
X155500Y283047D02*
D03*
X199883Y283000D02*
D03*
X271000Y301500D02*
D03*
X159000Y225000D02*
D03*
X165616Y219164D02*
D03*
X171700Y218800D02*
D03*
X167000Y293000D02*
D03*
X225000Y344500D02*
D03*
X145500Y252000D02*
D03*
X171000Y407000D02*
D03*
X176000Y226500D02*
D03*
X172327Y336000D02*
D03*
X143000Y223500D02*
D03*
X146500Y219500D02*
D03*
X202200Y271316D02*
D03*
X175600Y292785D02*
D03*
X184600Y209200D02*
D03*
X148800Y352400D02*
D03*
X134900Y380200D02*
D03*
X182700Y354600D02*
D03*
X336900Y294650D02*
D03*
X118300Y403900D02*
D03*
X157496Y449595D02*
D03*
X249900Y511900D02*
D03*
X302500Y443900D02*
D03*
X183300Y338800D02*
D03*
X121100Y393100D02*
D03*
X174000Y208300D02*
D03*
X110800Y301300D02*
D03*
X177500Y221142D02*
D03*
X303900Y496500D02*
D03*
X274500Y432500D02*
D03*
X168800Y460800D02*
D03*
X206200Y334700D02*
D03*
X316000Y360100D02*
D03*
X265600Y376300D02*
D03*
X128815Y376700D02*
D03*
X177600Y456700D02*
D03*
X144078Y347900D02*
D03*
X129800Y458900D02*
D03*
X132496Y427323D02*
D03*
X171100Y433800D02*
D03*
X284300Y431200D02*
D03*
X319976Y427323D02*
D03*
X324300Y395900D02*
D03*
X328600Y445700D02*
D03*
X289976Y472500D02*
D03*
X288600Y412700D02*
D03*
X306000Y254200D02*
D03*
X261236Y440308D02*
D03*
D33*
X342815Y210500D02*
D03*
X332185D02*
D03*
X231315Y386000D02*
D03*
X220685D02*
D03*
X176315Y201000D02*
D03*
X165685D02*
D03*
X275685Y218000D02*
D03*
X286315D02*
D03*
X106685Y308500D02*
D03*
X117315D02*
D03*
X241315Y238701D02*
D03*
X230685D02*
D03*
X241315Y201299D02*
D03*
X230685D02*
D03*
X128815Y371000D02*
D03*
X118185D02*
D03*
X154315D02*
D03*
X143685D02*
D03*
X167185Y313000D02*
D03*
X177815D02*
D03*
D34*
X268500Y237500D02*
D03*
D35*
X294838Y228484D02*
D03*
Y237500D02*
D03*
Y246516D02*
D03*
D36*
X214000Y201300D02*
D03*
Y238700D02*
D03*
D37*
X169016Y246457D02*
D03*
X170984D02*
D03*
X174921D02*
D03*
X176890D02*
D03*
X180827Y213543D02*
D03*
X178858D02*
D03*
X176890D02*
D03*
X174921D02*
D03*
X172953D02*
D03*
X170984D02*
D03*
X169016D02*
D03*
X167047D02*
D03*
X165079D02*
D03*
X163110D02*
D03*
X161142D02*
D03*
X159173D02*
D03*
Y246457D02*
D03*
X161142D02*
D03*
X163110D02*
D03*
X165079D02*
D03*
X167047D02*
D03*
X172953D02*
D03*
X178858D02*
D03*
X180827D02*
D03*
D38*
X186457Y240827D02*
D03*
Y238858D02*
D03*
Y236890D02*
D03*
Y234921D02*
D03*
Y232953D02*
D03*
Y230984D02*
D03*
Y229016D02*
D03*
Y227047D02*
D03*
Y225079D02*
D03*
Y223110D02*
D03*
Y221142D02*
D03*
Y219173D02*
D03*
X153543D02*
D03*
Y221142D02*
D03*
Y223110D02*
D03*
Y225079D02*
D03*
Y227047D02*
D03*
Y229016D02*
D03*
Y230984D02*
D03*
Y232953D02*
D03*
Y234921D02*
D03*
Y236890D02*
D03*
Y238858D02*
D03*
Y240827D02*
D03*
D39*
X219559Y405240D02*
D03*
Y397760D02*
D03*
X229441D02*
D03*
Y401500D02*
D03*
Y405240D02*
D03*
D40*
X219685Y426000D02*
D03*
X230315D02*
D03*
X167185Y301000D02*
D03*
X177815D02*
D03*
X117315Y296500D02*
D03*
X106685D02*
D03*
X154315Y357000D02*
D03*
X143685D02*
D03*
X128815D02*
D03*
X118185D02*
D03*
D41*
X242866Y353760D02*
D03*
Y361240D02*
D03*
X251134Y357500D02*
D03*
D42*
X110181Y195087D02*
D03*
X127819D02*
D03*
X110181Y230913D02*
D03*
X127819D02*
D03*
D43*
X150500Y338700D02*
D03*
X145500D02*
D03*
X140500D02*
D03*
X135500D02*
D03*
X130500D02*
D03*
X125500D02*
D03*
X120500D02*
D03*
Y319300D02*
D03*
X125500D02*
D03*
X130500D02*
D03*
X135500D02*
D03*
X140500D02*
D03*
X145500D02*
D03*
X150500D02*
D03*
X132496Y435930D02*
D03*
X137496D02*
D03*
X142496D02*
D03*
X147496D02*
D03*
X152496D02*
D03*
X157496D02*
D03*
X162496D02*
D03*
Y455330D02*
D03*
X157496D02*
D03*
X152496D02*
D03*
X147496D02*
D03*
X142496D02*
D03*
X137496D02*
D03*
X132496D02*
D03*
X289976D02*
D03*
X294976D02*
D03*
X299976D02*
D03*
X304976D02*
D03*
X309976D02*
D03*
X314976D02*
D03*
X319976D02*
D03*
Y435930D02*
D03*
X314976D02*
D03*
X309976D02*
D03*
X304976D02*
D03*
X299976D02*
D03*
X294976D02*
D03*
X289976D02*
D03*
D44*
X303000Y277815D02*
X303093Y277908D01*
X342908D02*
X343000Y278000D01*
Y288000D02*
Y308000D01*
M02*
