G04*
G04 #@! TF.GenerationSoftware,Altium Limited,Altium Designer,20.1.8 (145)*
G04*
G04 Layer_Color=128*
%FSLAX25Y25*%
%MOIN*%
G70*
G04*
G04 #@! TF.SameCoordinates,8B47BC37-8199-49A1-8C2A-9A070CC082B9*
G04*
G04*
G04 #@! TF.FilePolarity,Positive*
G04*
G01*
G75*
%ADD14R,0.10236X0.04331*%
%ADD15R,0.06693X0.04331*%
%ADD16R,0.05000X0.12520*%
%ADD33R,0.04331X0.06693*%
G04:AMPARAMS|DCode=34|XSize=127.56mil|YSize=51.58mil|CornerRadius=3.87mil|HoleSize=0mil|Usage=FLASHONLY|Rotation=270.000|XOffset=0mil|YOffset=0mil|HoleType=Round|Shape=RoundedRectangle|*
%AMROUNDEDRECTD34*
21,1,0.12756,0.04384,0,0,270.0*
21,1,0.11982,0.05158,0,0,270.0*
1,1,0.00774,-0.02192,-0.05991*
1,1,0.00774,-0.02192,0.05991*
1,1,0.00774,0.02192,0.05991*
1,1,0.00774,0.02192,-0.05991*
%
%ADD34ROUNDEDRECTD34*%
G04:AMPARAMS|DCode=35|XSize=36.61mil|YSize=51.58mil|CornerRadius=2.75mil|HoleSize=0mil|Usage=FLASHONLY|Rotation=270.000|XOffset=0mil|YOffset=0mil|HoleType=Round|Shape=RoundedRectangle|*
%AMROUNDEDRECTD35*
21,1,0.03661,0.04608,0,0,270.0*
21,1,0.03112,0.05158,0,0,270.0*
1,1,0.00549,-0.02304,-0.01556*
1,1,0.00549,-0.02304,0.01556*
1,1,0.00549,0.02304,0.01556*
1,1,0.00549,0.02304,-0.01556*
%
%ADD35ROUNDEDRECTD35*%
%ADD36R,0.08300X0.22000*%
G04:AMPARAMS|DCode=37|XSize=11.02mil|YSize=61.42mil|CornerRadius=2.76mil|HoleSize=0mil|Usage=FLASHONLY|Rotation=180.000|XOffset=0mil|YOffset=0mil|HoleType=Round|Shape=RoundedRectangle|*
%AMROUNDEDRECTD37*
21,1,0.01102,0.05591,0,0,180.0*
21,1,0.00551,0.06142,0,0,180.0*
1,1,0.00551,-0.00276,0.02795*
1,1,0.00551,0.00276,0.02795*
1,1,0.00551,0.00276,-0.02795*
1,1,0.00551,-0.00276,-0.02795*
%
%ADD37ROUNDEDRECTD37*%
G04:AMPARAMS|DCode=38|XSize=11.02mil|YSize=61.42mil|CornerRadius=2.76mil|HoleSize=0mil|Usage=FLASHONLY|Rotation=90.000|XOffset=0mil|YOffset=0mil|HoleType=Round|Shape=RoundedRectangle|*
%AMROUNDEDRECTD38*
21,1,0.01102,0.05591,0,0,90.0*
21,1,0.00551,0.06142,0,0,90.0*
1,1,0.00551,0.02795,0.00276*
1,1,0.00551,0.02795,-0.00276*
1,1,0.00551,-0.02795,-0.00276*
1,1,0.00551,-0.02795,0.00276*
%
%ADD38ROUNDEDRECTD38*%
G04:AMPARAMS|DCode=39|XSize=47.64mil|YSize=23.23mil|CornerRadius=5.81mil|HoleSize=0mil|Usage=FLASHONLY|Rotation=180.000|XOffset=0mil|YOffset=0mil|HoleType=Round|Shape=RoundedRectangle|*
%AMROUNDEDRECTD39*
21,1,0.04764,0.01161,0,0,180.0*
21,1,0.03602,0.02323,0,0,180.0*
1,1,0.01161,-0.01801,0.00581*
1,1,0.01161,0.01801,0.00581*
1,1,0.01161,0.01801,-0.00581*
1,1,0.01161,-0.01801,-0.00581*
%
%ADD39ROUNDEDRECTD39*%
%ADD40R,0.04331X0.10236*%
%ADD41R,0.05118X0.02362*%
G04:AMPARAMS|DCode=42|XSize=82.68mil|YSize=54.33mil|CornerRadius=4.08mil|HoleSize=0mil|Usage=FLASHONLY|Rotation=270.000|XOffset=0mil|YOffset=0mil|HoleType=Round|Shape=RoundedRectangle|*
%AMROUNDEDRECTD42*
21,1,0.08268,0.04618,0,0,270.0*
21,1,0.07453,0.05433,0,0,270.0*
1,1,0.00815,-0.02309,-0.03726*
1,1,0.00815,-0.02309,0.03726*
1,1,0.00815,0.02309,0.03726*
1,1,0.00815,0.02309,-0.03726*
%
%ADD42ROUNDEDRECTD42*%
%ADD43R,0.02000X0.07800*%
D14*
X224500Y362815D02*
D03*
Y352185D02*
D03*
X310500Y235685D02*
D03*
Y246315D02*
D03*
Y214685D02*
D03*
Y225315D02*
D03*
X247000Y421815D02*
D03*
Y411185D02*
D03*
X281354Y389134D02*
D03*
X328598D02*
D03*
X123874D02*
D03*
X171118D02*
D03*
X303000Y277815D02*
D03*
Y267185D02*
D03*
X171118Y399764D02*
D03*
X123874D02*
D03*
X328598D02*
D03*
X281354D02*
D03*
D15*
X139500Y205815D02*
D03*
Y195185D02*
D03*
X281354Y440315D02*
D03*
Y450945D02*
D03*
X123874Y440315D02*
D03*
Y450945D02*
D03*
X158000Y323685D02*
D03*
Y334315D02*
D03*
D16*
X160366Y520189D02*
D03*
X150366D02*
D03*
X197610D02*
D03*
X207610D02*
D03*
X254854D02*
D03*
X244854D02*
D03*
X292098D02*
D03*
X302098D02*
D03*
X160366D02*
D03*
X150366D02*
D03*
X197610D02*
D03*
X207610D02*
D03*
X254854D02*
D03*
X244854D02*
D03*
X292098D02*
D03*
X302098D02*
D03*
D33*
X342815Y210500D02*
D03*
X332185D02*
D03*
X231315Y386000D02*
D03*
X220685D02*
D03*
X176315Y201000D02*
D03*
X165685D02*
D03*
X275685Y218000D02*
D03*
X286315D02*
D03*
X106685Y308500D02*
D03*
X117315D02*
D03*
X241315Y238701D02*
D03*
X230685D02*
D03*
X241315Y201299D02*
D03*
X230685D02*
D03*
X128815Y371000D02*
D03*
X118185D02*
D03*
X154315D02*
D03*
X143685D02*
D03*
X167185Y313000D02*
D03*
X177815D02*
D03*
D34*
X268500Y237500D02*
D03*
D35*
X294838Y228484D02*
D03*
Y237500D02*
D03*
Y246516D02*
D03*
D36*
X214000Y201300D02*
D03*
Y238700D02*
D03*
D37*
X169016Y246457D02*
D03*
X170984D02*
D03*
X174921D02*
D03*
X176890D02*
D03*
X180827Y213543D02*
D03*
X178858D02*
D03*
X176890D02*
D03*
X174921D02*
D03*
X172953D02*
D03*
X170984D02*
D03*
X169016D02*
D03*
X167047D02*
D03*
X165079D02*
D03*
X163110D02*
D03*
X161142D02*
D03*
X159173D02*
D03*
Y246457D02*
D03*
X161142D02*
D03*
X163110D02*
D03*
X165079D02*
D03*
X167047D02*
D03*
X172953D02*
D03*
X178858D02*
D03*
X180827D02*
D03*
D38*
X186457Y240827D02*
D03*
Y238858D02*
D03*
Y236890D02*
D03*
Y234921D02*
D03*
Y232953D02*
D03*
Y230984D02*
D03*
Y229016D02*
D03*
Y227047D02*
D03*
Y225079D02*
D03*
Y223110D02*
D03*
Y221142D02*
D03*
Y219173D02*
D03*
X153543D02*
D03*
Y221142D02*
D03*
Y223110D02*
D03*
Y225079D02*
D03*
Y227047D02*
D03*
Y229016D02*
D03*
Y230984D02*
D03*
Y232953D02*
D03*
Y234921D02*
D03*
Y236890D02*
D03*
Y238858D02*
D03*
Y240827D02*
D03*
D39*
X219559Y405240D02*
D03*
Y397760D02*
D03*
X229441D02*
D03*
Y401500D02*
D03*
Y405240D02*
D03*
D40*
X219685Y426000D02*
D03*
X230315D02*
D03*
X167185Y301000D02*
D03*
X177815D02*
D03*
X117315Y296500D02*
D03*
X106685D02*
D03*
X154315Y357000D02*
D03*
X143685D02*
D03*
X128815D02*
D03*
X118185D02*
D03*
D41*
X242866Y353760D02*
D03*
Y361240D02*
D03*
X251134Y357500D02*
D03*
D42*
X110181Y195087D02*
D03*
X127819D02*
D03*
X110181Y230913D02*
D03*
X127819D02*
D03*
D43*
X150500Y338700D02*
D03*
X145500D02*
D03*
X140500D02*
D03*
X135500D02*
D03*
X130500D02*
D03*
X125500D02*
D03*
X120500D02*
D03*
Y319300D02*
D03*
X125500D02*
D03*
X130500D02*
D03*
X135500D02*
D03*
X140500D02*
D03*
X145500D02*
D03*
X150500D02*
D03*
X132496Y435930D02*
D03*
X137496D02*
D03*
X142496D02*
D03*
X147496D02*
D03*
X152496D02*
D03*
X157496D02*
D03*
X162496D02*
D03*
Y455330D02*
D03*
X157496D02*
D03*
X152496D02*
D03*
X147496D02*
D03*
X142496D02*
D03*
X137496D02*
D03*
X132496D02*
D03*
X289976D02*
D03*
X294976D02*
D03*
X299976D02*
D03*
X304976D02*
D03*
X309976D02*
D03*
X314976D02*
D03*
X319976D02*
D03*
Y435930D02*
D03*
X314976D02*
D03*
X309976D02*
D03*
X304976D02*
D03*
X299976D02*
D03*
X294976D02*
D03*
X289976D02*
D03*
M02*
