G04*
G04 #@! TF.GenerationSoftware,Altium Limited,Altium Designer,20.1.8 (145)*
G04*
G04 Layer_Color=32768*
%FSLAX25Y25*%
%MOIN*%
G70*
G04*
G04 #@! TF.SameCoordinates,8B47BC37-8199-49A1-8C2A-9A070CC082B9*
G04*
G04*
G04 #@! TF.FilePolarity,Positive*
G04*
G01*
G75*
%ADD59C,0.00394*%
%ADD60C,0.00197*%
D59*
X345374Y206760D02*
Y214240D01*
X329626Y206760D02*
Y214240D01*
X345374D01*
X329626Y206760D02*
X345374D01*
X335532Y210500D02*
X339469D01*
X337500Y208532D02*
Y212469D01*
X121905Y422008D02*
X125842D01*
X123874Y420039D02*
Y423976D01*
X129386Y414134D02*
Y429882D01*
X118362Y414134D02*
Y429882D01*
X129386D01*
X118362Y414134D02*
X129386D01*
X169150Y422008D02*
X173087D01*
X171118Y420039D02*
Y423976D01*
X176630Y414134D02*
Y429882D01*
X165606Y414134D02*
Y429882D01*
X176630D01*
X165606Y414134D02*
X176630D01*
X326630Y422008D02*
X330567D01*
X328598Y420039D02*
Y423976D01*
X334110Y414134D02*
Y429882D01*
X323087Y414134D02*
Y429882D01*
X334110D01*
X323087Y414134D02*
X334110D01*
X279386Y422008D02*
X283323D01*
X281354Y420039D02*
Y423976D01*
X286866Y414134D02*
Y429882D01*
X275842Y414134D02*
Y429882D01*
X286866D01*
X275842Y414134D02*
X286866D01*
X252220Y302323D02*
X259701D01*
X252220Y318071D02*
X259701D01*
X252220Y302323D02*
Y318071D01*
X259701Y302323D02*
Y318071D01*
X255961Y308229D02*
Y312166D01*
X253992Y310197D02*
X257929D01*
X226000Y384031D02*
Y387969D01*
X224032Y386000D02*
X227969D01*
X218126Y389740D02*
X233874D01*
X218126Y382260D02*
X233874D01*
Y389740D01*
X218126Y382260D02*
Y389740D01*
X218988Y365374D02*
X230012D01*
X218988Y349626D02*
X230012D01*
X218988D02*
Y365374D01*
X230012Y349626D02*
Y365374D01*
X224500Y355532D02*
Y359469D01*
X222531Y357500D02*
X226468D01*
X135760Y208374D02*
X143240D01*
X135760Y192626D02*
X143240D01*
X135760D02*
Y208374D01*
X143240Y192626D02*
Y208374D01*
X139500Y198531D02*
Y202468D01*
X137531Y200500D02*
X141468D01*
X178874Y197260D02*
Y204740D01*
X163126Y197260D02*
Y204740D01*
X178874D01*
X163126Y197260D02*
X178874D01*
X169032Y201000D02*
X172969D01*
X171000Y199031D02*
Y202969D01*
X308531Y241000D02*
X312468D01*
X310500Y239032D02*
Y242969D01*
X316012Y233126D02*
Y248874D01*
X304988Y233126D02*
Y248874D01*
Y233126D02*
X316012D01*
X304988Y248874D02*
X316012D01*
X273126Y214260D02*
Y221740D01*
X288874Y214260D02*
Y221740D01*
X273126Y214260D02*
X288874D01*
X273126Y221740D02*
X288874D01*
X279032Y218000D02*
X282969D01*
X281000Y216031D02*
Y219969D01*
X308531Y220000D02*
X312468D01*
X310500Y218032D02*
Y221969D01*
X316012Y212126D02*
Y227874D01*
X304988Y212126D02*
Y227874D01*
Y212126D02*
X316012D01*
X304988Y227874D02*
X316012D01*
X245032Y416500D02*
X248969D01*
X247000Y414532D02*
Y418469D01*
X241488Y408626D02*
Y424374D01*
X252512Y408626D02*
Y424374D01*
X241488D02*
X252512D01*
X241488Y408626D02*
X252512D01*
X225000Y424032D02*
Y427969D01*
X223032Y426000D02*
X226969D01*
X217126Y420488D02*
X232874D01*
X217126Y431512D02*
X232874D01*
X217126Y420488D02*
Y431512D01*
X232874Y420488D02*
Y431512D01*
X172500Y299032D02*
Y302969D01*
X170532Y301000D02*
X174469D01*
X164626Y295488D02*
X180374D01*
X164626Y306512D02*
X180374D01*
X164626Y295488D02*
Y306512D01*
X180374Y295488D02*
Y306512D01*
X104126Y304760D02*
Y312240D01*
X119874Y304760D02*
Y312240D01*
X104126Y304760D02*
X119874D01*
X104126Y312240D02*
X119874D01*
X110032Y308500D02*
X113969D01*
X112000Y306531D02*
Y310469D01*
Y294531D02*
Y298468D01*
X110032Y296500D02*
X113969D01*
X104126Y302012D02*
X119874D01*
X104126Y290988D02*
X119874D01*
Y302012D01*
X104126Y290988D02*
Y302012D01*
X149000Y355031D02*
Y358968D01*
X147031Y357000D02*
X150968D01*
X141126Y362512D02*
X156874D01*
X141126Y351488D02*
X156874D01*
Y362512D01*
X141126Y351488D02*
Y362512D01*
X123500Y355031D02*
Y358968D01*
X121532Y357000D02*
X125469D01*
X115626Y362512D02*
X131374D01*
X115626Y351488D02*
X131374D01*
Y362512D01*
X115626Y351488D02*
Y362512D01*
X277614Y437756D02*
X285094D01*
X277614Y453504D02*
X285094D01*
Y437756D02*
Y453504D01*
X277614Y437756D02*
Y453504D01*
X281354Y443662D02*
Y447599D01*
X279386Y445630D02*
X283323D01*
X120134Y437756D02*
X127614D01*
X120134Y453504D02*
X127614D01*
Y437756D02*
Y453504D01*
X120134Y437756D02*
Y453504D01*
X123874Y443662D02*
Y447599D01*
X121906Y445630D02*
X125843D01*
X311276Y262953D02*
X318756D01*
X311276Y278701D02*
X318756D01*
X311276Y262953D02*
Y278701D01*
X318756Y262953D02*
Y278701D01*
X315016Y268859D02*
Y272796D01*
X313047Y270827D02*
X316984D01*
X243874Y234961D02*
Y242441D01*
X228126Y234961D02*
Y242441D01*
X243874D01*
X228126Y234961D02*
X243874D01*
X234032Y238701D02*
X237969D01*
X236000Y236732D02*
Y240669D01*
X243874Y197559D02*
Y205039D01*
X228126Y197559D02*
Y205039D01*
X243874D01*
X228126Y197559D02*
X243874D01*
X234032Y201299D02*
X237969D01*
X236000Y199331D02*
Y203268D01*
X301032Y272500D02*
X304969D01*
X303000Y270531D02*
Y274468D01*
X297488Y264626D02*
Y280374D01*
X308512Y264626D02*
Y280374D01*
X297488D02*
X308512D01*
X297488Y264626D02*
X308512D01*
X252220Y262953D02*
X259701D01*
X252220Y278701D02*
X259701D01*
X252220Y262953D02*
Y278701D01*
X259701Y262953D02*
Y278701D01*
X255961Y268858D02*
Y272795D01*
X253992Y270827D02*
X257929D01*
X194937D02*
X198874D01*
X196906Y268859D02*
Y272796D01*
X200646Y262953D02*
Y278701D01*
X193165Y262953D02*
Y278701D01*
X200646D01*
X193165Y262953D02*
X200646D01*
X118362Y437756D02*
X129386D01*
X118362Y453504D02*
X129386D01*
X118362Y437756D02*
Y453504D01*
X129386Y437756D02*
Y453504D01*
X123874Y443662D02*
Y447599D01*
X121905Y445630D02*
X125842D01*
X165606Y437756D02*
X176630D01*
X165606Y453504D02*
X176630D01*
X165606Y437756D02*
Y453504D01*
X176630Y437756D02*
Y453504D01*
X171118Y443662D02*
Y447599D01*
X169150Y445630D02*
X173087D01*
X165606Y402323D02*
X176630D01*
X165606Y386575D02*
X176630D01*
X165606D02*
Y402323D01*
X176630Y386575D02*
Y402323D01*
X171118Y392480D02*
Y396417D01*
X169150Y394449D02*
X173087D01*
X118362Y386575D02*
X129386D01*
X118362Y402323D02*
X129386D01*
Y386575D02*
Y402323D01*
X118362Y386575D02*
Y402323D01*
X123874Y392480D02*
Y396417D01*
X121905Y394449D02*
X125842D01*
X323087Y386575D02*
X334110D01*
X323087Y402323D02*
X334110D01*
Y386575D02*
Y402323D01*
X323087Y386575D02*
Y402323D01*
X328598Y392480D02*
Y396417D01*
X326630Y394449D02*
X330567D01*
X275842Y386575D02*
X286866D01*
X275842Y402323D02*
X286866D01*
Y386575D02*
Y402323D01*
X275842Y386575D02*
Y402323D01*
X281354Y392480D02*
Y396417D01*
X279386Y394449D02*
X283323D01*
X323087Y437756D02*
X334110D01*
X323087Y453504D02*
X334110D01*
X323087Y437756D02*
Y453504D01*
X334110Y437756D02*
Y453504D01*
X328598Y443662D02*
Y447599D01*
X326630Y445630D02*
X330567D01*
X275842Y437756D02*
X286866D01*
X275842Y453504D02*
X286866D01*
X275842Y437756D02*
Y453504D01*
X286866Y437756D02*
Y453504D01*
X281354Y443662D02*
Y447599D01*
X279386Y445630D02*
X283323D01*
X253992Y239331D02*
X257929D01*
X255961Y237362D02*
Y241299D01*
X259701Y231457D02*
Y247205D01*
X252220Y231457D02*
Y247205D01*
X259701D01*
X252220Y231457D02*
X259701D01*
X123500Y369031D02*
Y372969D01*
X121531Y371000D02*
X125468D01*
X115626Y374740D02*
X131374D01*
X115626Y367260D02*
X131374D01*
Y374740D01*
X115626Y367260D02*
Y374740D01*
X149000Y369031D02*
Y372969D01*
X147031Y371000D02*
X150968D01*
X141126Y374740D02*
X156874D01*
X141126Y367260D02*
X156874D01*
Y374740D01*
X141126Y367260D02*
Y374740D01*
X172500Y311032D02*
Y314969D01*
X170532Y313000D02*
X174469D01*
X164626Y309260D02*
X180374D01*
X164626Y316740D02*
X180374D01*
X164626Y309260D02*
Y316740D01*
X180374Y309260D02*
Y316740D01*
X156031Y329000D02*
X159969D01*
X158000Y327032D02*
Y330969D01*
X161740Y321126D02*
Y336874D01*
X154260Y321126D02*
Y336874D01*
Y321126D02*
X161740D01*
X154260Y336874D02*
X161740D01*
D60*
X273362Y244862D02*
Y251713D01*
X264937Y244862D02*
X273362D01*
X264937Y230138D02*
Y244862D01*
Y230138D02*
X273362D01*
Y223287D02*
Y230138D01*
Y223287D02*
X289976D01*
Y225650D01*
X298401D01*
Y249350D01*
X289976D02*
X298401D01*
X289976D02*
Y251713D01*
X273362D02*
X289976D01*
X185157Y242362D02*
X190512D01*
X185157D02*
Y245157D01*
X182362D02*
X185157D01*
X182362D02*
Y250512D01*
X157638D02*
X182362D01*
X157638Y245157D02*
Y250512D01*
X154842Y245157D02*
X157638D01*
X154842Y242362D02*
Y245157D01*
X149488Y242362D02*
X154842D01*
X149488Y217638D02*
Y242362D01*
Y217638D02*
X154842D01*
Y214843D02*
Y217638D01*
Y214843D02*
X157638D01*
Y209488D02*
Y214843D01*
Y209488D02*
X182362D01*
Y214843D01*
X185157D01*
Y217638D01*
X190512D01*
Y242362D01*
X232807Y394807D02*
Y408193D01*
X216193Y394807D02*
X232807D01*
X216193D02*
Y408193D01*
X232807D01*
X106205Y189772D02*
Y236228D01*
X131795D01*
Y189772D02*
Y236228D01*
X106205Y189772D02*
X131795D01*
X262063Y283622D02*
X308520D01*
X262063Y258032D02*
Y283622D01*
Y258032D02*
X308520D01*
Y283622D01*
X203008Y322992D02*
X249465D01*
X203008Y297402D02*
Y322992D01*
Y297402D02*
X249465D01*
Y322992D01*
X143953Y283622D02*
X190410D01*
X143953Y258032D02*
Y283622D01*
Y258032D02*
X190410D01*
Y283622D01*
X203008D02*
X249465D01*
X203008Y258032D02*
Y283622D01*
Y258032D02*
X249465D01*
Y283622D01*
X203008Y252126D02*
X249465D01*
X203008Y226536D02*
Y252126D01*
Y226536D02*
X249465D01*
Y252126D01*
M02*
