G04*
G04 #@! TF.GenerationSoftware,Altium Limited,Altium Designer,20.1.8 (145)*
G04*
G04 Layer_Color=16711935*
%FSLAX25Y25*%
%MOIN*%
G70*
G04*
G04 #@! TF.SameCoordinates,8B47BC37-8199-49A1-8C2A-9A070CC082B9*
G04*
G04*
G04 #@! TF.FilePolarity,Negative*
G04*
G01*
G75*
%ADD18R,0.11036X0.05131*%
%ADD19R,0.07493X0.05131*%
%ADD20R,0.05800X0.13320*%
%ADD22C,0.06706*%
%ADD23R,0.06706X0.06706*%
%ADD24R,0.06706X0.06706*%
%ADD25C,0.20485*%
%ADD26C,0.03556*%
%ADD45R,0.05402X0.12921*%
%ADD46R,0.05131X0.07493*%
G04:AMPARAMS|DCode=47|XSize=135.56mil|YSize=59.58mil|CornerRadius=7.87mil|HoleSize=0mil|Usage=FLASHONLY|Rotation=270.000|XOffset=0mil|YOffset=0mil|HoleType=Round|Shape=RoundedRectangle|*
%AMROUNDEDRECTD47*
21,1,0.13556,0.04384,0,0,270.0*
21,1,0.11982,0.05958,0,0,270.0*
1,1,0.01574,-0.02192,-0.05991*
1,1,0.01574,-0.02192,0.05991*
1,1,0.01574,0.02192,0.05991*
1,1,0.01574,0.02192,-0.05991*
%
%ADD47ROUNDEDRECTD47*%
G04:AMPARAMS|DCode=48|XSize=44.61mil|YSize=59.58mil|CornerRadius=6.75mil|HoleSize=0mil|Usage=FLASHONLY|Rotation=270.000|XOffset=0mil|YOffset=0mil|HoleType=Round|Shape=RoundedRectangle|*
%AMROUNDEDRECTD48*
21,1,0.04461,0.04608,0,0,270.0*
21,1,0.03112,0.05958,0,0,270.0*
1,1,0.01349,-0.02304,-0.01556*
1,1,0.01349,-0.02304,0.01556*
1,1,0.01349,0.02304,0.01556*
1,1,0.01349,0.02304,-0.01556*
%
%ADD48ROUNDEDRECTD48*%
%ADD49R,0.09100X0.22800*%
G04:AMPARAMS|DCode=50|XSize=19.02mil|YSize=69.42mil|CornerRadius=6.76mil|HoleSize=0mil|Usage=FLASHONLY|Rotation=180.000|XOffset=0mil|YOffset=0mil|HoleType=Round|Shape=RoundedRectangle|*
%AMROUNDEDRECTD50*
21,1,0.01902,0.05591,0,0,180.0*
21,1,0.00551,0.06942,0,0,180.0*
1,1,0.01351,-0.00276,0.02795*
1,1,0.01351,0.00276,0.02795*
1,1,0.01351,0.00276,-0.02795*
1,1,0.01351,-0.00276,-0.02795*
%
%ADD50ROUNDEDRECTD50*%
G04:AMPARAMS|DCode=51|XSize=19.02mil|YSize=69.42mil|CornerRadius=6.76mil|HoleSize=0mil|Usage=FLASHONLY|Rotation=90.000|XOffset=0mil|YOffset=0mil|HoleType=Round|Shape=RoundedRectangle|*
%AMROUNDEDRECTD51*
21,1,0.01902,0.05591,0,0,90.0*
21,1,0.00551,0.06942,0,0,90.0*
1,1,0.01351,0.02795,0.00276*
1,1,0.01351,0.02795,-0.00276*
1,1,0.01351,-0.02795,-0.00276*
1,1,0.01351,-0.02795,0.00276*
%
%ADD51ROUNDEDRECTD51*%
G04:AMPARAMS|DCode=52|XSize=55.64mil|YSize=31.23mil|CornerRadius=9.81mil|HoleSize=0mil|Usage=FLASHONLY|Rotation=180.000|XOffset=0mil|YOffset=0mil|HoleType=Round|Shape=RoundedRectangle|*
%AMROUNDEDRECTD52*
21,1,0.05564,0.01161,0,0,180.0*
21,1,0.03602,0.03123,0,0,180.0*
1,1,0.01961,-0.01801,0.00581*
1,1,0.01961,0.01801,0.00581*
1,1,0.01961,0.01801,-0.00581*
1,1,0.01961,-0.01801,-0.00581*
%
%ADD52ROUNDEDRECTD52*%
%ADD53R,0.05131X0.11036*%
%ADD54R,0.05918X0.03162*%
G04:AMPARAMS|DCode=55|XSize=90.68mil|YSize=62.33mil|CornerRadius=8.07mil|HoleSize=0mil|Usage=FLASHONLY|Rotation=270.000|XOffset=0mil|YOffset=0mil|HoleType=Round|Shape=RoundedRectangle|*
%AMROUNDEDRECTD55*
21,1,0.09068,0.04618,0,0,270.0*
21,1,0.07453,0.06233,0,0,270.0*
1,1,0.01615,-0.02309,-0.03726*
1,1,0.01615,-0.02309,0.03726*
1,1,0.01615,0.02309,0.03726*
1,1,0.01615,0.02309,-0.03726*
%
%ADD55ROUNDEDRECTD55*%
%ADD56R,0.02800X0.08600*%
D18*
X224500Y362815D02*
D03*
Y352185D02*
D03*
X310500Y235685D02*
D03*
Y246315D02*
D03*
Y214685D02*
D03*
Y225315D02*
D03*
X247000Y421815D02*
D03*
Y411185D02*
D03*
X281354Y389134D02*
D03*
X328598D02*
D03*
X123874D02*
D03*
X171118D02*
D03*
X303000Y277815D02*
D03*
Y267185D02*
D03*
X171118Y399764D02*
D03*
X123874D02*
D03*
X328598D02*
D03*
X281354D02*
D03*
D19*
X139500Y205815D02*
D03*
Y195185D02*
D03*
X281354Y440315D02*
D03*
Y450945D02*
D03*
X123874Y440315D02*
D03*
Y450945D02*
D03*
X158000Y323685D02*
D03*
Y334315D02*
D03*
D20*
X160366Y520189D02*
D03*
X150366D02*
D03*
X197610D02*
D03*
X207610D02*
D03*
X254854D02*
D03*
X244854D02*
D03*
X292098D02*
D03*
X302098D02*
D03*
D22*
X261236Y333425D02*
D03*
X251236D02*
D03*
X241236D02*
D03*
X231236D02*
D03*
X221236D02*
D03*
X211236D02*
D03*
X201236D02*
D03*
X332579Y200079D02*
D03*
X343000Y308000D02*
D03*
Y318000D02*
D03*
Y328000D02*
D03*
Y288000D02*
D03*
X201236Y498780D02*
D03*
X211236D02*
D03*
X221236D02*
D03*
X231236D02*
D03*
X241236D02*
D03*
X251236D02*
D03*
X261236D02*
D03*
D23*
X191236Y333425D02*
D03*
X342579Y200079D02*
D03*
X191236Y498780D02*
D03*
D24*
X343000Y338000D02*
D03*
Y278000D02*
D03*
D25*
X116000Y255079D02*
D03*
Y485000D02*
D03*
X336472Y255079D02*
D03*
Y485000D02*
D03*
D26*
X190000Y248000D02*
D03*
X186914Y243547D02*
D03*
X190365Y251865D02*
D03*
X191500Y258500D02*
D03*
X135772Y285240D02*
D03*
X194378Y283047D02*
D03*
X215500Y386000D02*
D03*
X290300Y206700D02*
D03*
X202300Y201800D02*
D03*
X165500Y195500D02*
D03*
X176500Y233500D02*
D03*
X199952Y229000D02*
D03*
X197500Y221000D02*
D03*
X192500Y239500D02*
D03*
X195500Y217500D02*
D03*
X200500Y225000D02*
D03*
X267439Y269061D02*
D03*
X157500Y263027D02*
D03*
X152500Y252335D02*
D03*
X146000Y236000D02*
D03*
X149268Y271268D02*
D03*
X289500Y237500D02*
D03*
X171000Y283000D02*
D03*
X166000Y240000D02*
D03*
X162000Y227547D02*
D03*
X169000Y252707D02*
D03*
X173000Y253000D02*
D03*
X197335Y253386D02*
D03*
X200000Y250500D02*
D03*
X199500Y259500D02*
D03*
X178500Y290500D02*
D03*
X155500Y283047D02*
D03*
X199883Y283000D02*
D03*
X271000Y301500D02*
D03*
X159000Y225000D02*
D03*
X165616Y219164D02*
D03*
X171700Y218800D02*
D03*
X167000Y293000D02*
D03*
X225000Y344500D02*
D03*
X145500Y252000D02*
D03*
X171000Y407000D02*
D03*
X176000Y226500D02*
D03*
X172327Y336000D02*
D03*
X143000Y223500D02*
D03*
X146500Y219500D02*
D03*
X202200Y271316D02*
D03*
X175600Y292785D02*
D03*
X184600Y209200D02*
D03*
X148800Y352400D02*
D03*
X134900Y380200D02*
D03*
X182700Y354600D02*
D03*
X336900Y294650D02*
D03*
X118300Y403900D02*
D03*
X157496Y449595D02*
D03*
X249900Y511900D02*
D03*
X302500Y443900D02*
D03*
X183300Y338800D02*
D03*
X121100Y393100D02*
D03*
X174000Y208300D02*
D03*
X110800Y301300D02*
D03*
X177500Y221142D02*
D03*
X303900Y496500D02*
D03*
X274500Y432500D02*
D03*
X168800Y460800D02*
D03*
X206200Y334700D02*
D03*
X316000Y360100D02*
D03*
X265600Y376300D02*
D03*
X128815Y376700D02*
D03*
X177600Y456700D02*
D03*
X144078Y347900D02*
D03*
X129800Y458900D02*
D03*
X132496Y427323D02*
D03*
X171100Y433800D02*
D03*
X284300Y431200D02*
D03*
X319976Y427323D02*
D03*
X324300Y395900D02*
D03*
X328600Y445700D02*
D03*
X289976Y472500D02*
D03*
X288600Y412700D02*
D03*
X306000Y254200D02*
D03*
X261236Y440308D02*
D03*
D45*
X160366Y520189D02*
D03*
X150366D02*
D03*
X197610D02*
D03*
X207610D02*
D03*
X254854D02*
D03*
X244854D02*
D03*
X292098D02*
D03*
X302098D02*
D03*
D46*
X342815Y210500D02*
D03*
X332185D02*
D03*
X231315Y386000D02*
D03*
X220685D02*
D03*
X176315Y201000D02*
D03*
X165685D02*
D03*
X275685Y218000D02*
D03*
X286315D02*
D03*
X106685Y308500D02*
D03*
X117315D02*
D03*
X241315Y238701D02*
D03*
X230685D02*
D03*
X241315Y201299D02*
D03*
X230685D02*
D03*
X128815Y371000D02*
D03*
X118185D02*
D03*
X154315D02*
D03*
X143685D02*
D03*
X167185Y313000D02*
D03*
X177815D02*
D03*
D47*
X268500Y237500D02*
D03*
D48*
X294838Y228484D02*
D03*
Y237500D02*
D03*
Y246516D02*
D03*
D49*
X214000Y201300D02*
D03*
Y238700D02*
D03*
D50*
X169016Y246457D02*
D03*
X170984D02*
D03*
X174921D02*
D03*
X176890D02*
D03*
X180827Y213543D02*
D03*
X178858D02*
D03*
X176890D02*
D03*
X174921D02*
D03*
X172953D02*
D03*
X170984D02*
D03*
X169016D02*
D03*
X167047D02*
D03*
X165079D02*
D03*
X163110D02*
D03*
X161142D02*
D03*
X159173D02*
D03*
Y246457D02*
D03*
X161142D02*
D03*
X163110D02*
D03*
X165079D02*
D03*
X167047D02*
D03*
X172953D02*
D03*
X178858D02*
D03*
X180827D02*
D03*
D51*
X186457Y240827D02*
D03*
Y238858D02*
D03*
Y236890D02*
D03*
Y234921D02*
D03*
Y232953D02*
D03*
Y230984D02*
D03*
Y229016D02*
D03*
Y227047D02*
D03*
Y225079D02*
D03*
Y223110D02*
D03*
Y221142D02*
D03*
Y219173D02*
D03*
X153543D02*
D03*
Y221142D02*
D03*
Y223110D02*
D03*
Y225079D02*
D03*
Y227047D02*
D03*
Y229016D02*
D03*
Y230984D02*
D03*
Y232953D02*
D03*
Y234921D02*
D03*
Y236890D02*
D03*
Y238858D02*
D03*
Y240827D02*
D03*
D52*
X219559Y405240D02*
D03*
Y397760D02*
D03*
X229441D02*
D03*
Y401500D02*
D03*
Y405240D02*
D03*
D53*
X219685Y426000D02*
D03*
X230315D02*
D03*
X167185Y301000D02*
D03*
X177815D02*
D03*
X117315Y296500D02*
D03*
X106685D02*
D03*
X154315Y357000D02*
D03*
X143685D02*
D03*
X128815D02*
D03*
X118185D02*
D03*
D54*
X242866Y353760D02*
D03*
Y361240D02*
D03*
X251134Y357500D02*
D03*
D55*
X110181Y195087D02*
D03*
X127819D02*
D03*
X110181Y230913D02*
D03*
X127819D02*
D03*
D56*
X150500Y338700D02*
D03*
X145500D02*
D03*
X140500D02*
D03*
X135500D02*
D03*
X130500D02*
D03*
X125500D02*
D03*
X120500D02*
D03*
Y319300D02*
D03*
X125500D02*
D03*
X130500D02*
D03*
X135500D02*
D03*
X140500D02*
D03*
X145500D02*
D03*
X150500D02*
D03*
X132496Y435930D02*
D03*
X137496D02*
D03*
X142496D02*
D03*
X147496D02*
D03*
X152496D02*
D03*
X157496D02*
D03*
X162496D02*
D03*
Y455330D02*
D03*
X157496D02*
D03*
X152496D02*
D03*
X147496D02*
D03*
X142496D02*
D03*
X137496D02*
D03*
X132496D02*
D03*
X289976D02*
D03*
X294976D02*
D03*
X299976D02*
D03*
X304976D02*
D03*
X309976D02*
D03*
X314976D02*
D03*
X319976D02*
D03*
Y435930D02*
D03*
X314976D02*
D03*
X309976D02*
D03*
X304976D02*
D03*
X299976D02*
D03*
X294976D02*
D03*
X289976D02*
D03*
M02*
