G04*
G04 #@! TF.GenerationSoftware,Altium Limited,Altium Designer,20.1.8 (145)*
G04*
G04 Layer_Color=8388736*
%FSLAX25Y25*%
%MOIN*%
G70*
G04*
G04 #@! TF.SameCoordinates,8B47BC37-8199-49A1-8C2A-9A070CC082B9*
G04*
G04*
G04 #@! TF.FilePolarity,Negative*
G04*
G01*
G75*
%ADD18R,0.11036X0.05131*%
%ADD19R,0.07493X0.05131*%
%ADD20R,0.05800X0.13320*%
G04:AMPARAMS|DCode=21|XSize=90.68mil|YSize=62.33mil|CornerRadius=8.07mil|HoleSize=0mil|Usage=FLASHONLY|Rotation=0.000|XOffset=0mil|YOffset=0mil|HoleType=Round|Shape=RoundedRectangle|*
%AMROUNDEDRECTD21*
21,1,0.09068,0.04618,0,0,0.0*
21,1,0.07453,0.06233,0,0,0.0*
1,1,0.01615,0.03726,-0.02309*
1,1,0.01615,-0.03726,-0.02309*
1,1,0.01615,-0.03726,0.02309*
1,1,0.01615,0.03726,0.02309*
%
%ADD21ROUNDEDRECTD21*%
%ADD22C,0.06706*%
%ADD23R,0.06706X0.06706*%
%ADD24R,0.06706X0.06706*%
%ADD25C,0.20485*%
%ADD26C,0.03556*%
D18*
X123874Y427323D02*
D03*
Y416693D02*
D03*
X171118Y427323D02*
D03*
Y416693D02*
D03*
X328598Y427323D02*
D03*
Y416693D02*
D03*
X281354Y427323D02*
D03*
Y416693D02*
D03*
X123874Y440315D02*
D03*
Y450945D02*
D03*
X171118Y440315D02*
D03*
Y450945D02*
D03*
X328598Y440315D02*
D03*
Y450945D02*
D03*
X281354Y440315D02*
D03*
Y450945D02*
D03*
D19*
X255961Y304882D02*
D03*
Y315512D02*
D03*
X315016Y265512D02*
D03*
Y276142D02*
D03*
X255961Y265512D02*
D03*
Y276142D02*
D03*
X196906Y276142D02*
D03*
Y265512D02*
D03*
X255961Y244646D02*
D03*
Y234016D02*
D03*
D20*
X150366Y520189D02*
D03*
X160366D02*
D03*
X207610D02*
D03*
X197610D02*
D03*
X244854D02*
D03*
X254854D02*
D03*
X302098D02*
D03*
X292098D02*
D03*
D21*
X303205Y279646D02*
D03*
Y262008D02*
D03*
X267378Y279646D02*
D03*
Y262008D02*
D03*
X244150Y319016D02*
D03*
Y301378D02*
D03*
X208323Y319016D02*
D03*
Y301378D02*
D03*
X185095Y279646D02*
D03*
Y262008D02*
D03*
X149268Y279646D02*
D03*
Y262008D02*
D03*
X244150Y279646D02*
D03*
Y262008D02*
D03*
X208323Y279646D02*
D03*
Y262008D02*
D03*
X244150Y248150D02*
D03*
Y230512D02*
D03*
X208323Y248150D02*
D03*
Y230512D02*
D03*
D22*
X261236Y333425D02*
D03*
X251236D02*
D03*
X241236D02*
D03*
X231236D02*
D03*
X221236D02*
D03*
X211236D02*
D03*
X201236D02*
D03*
X332579Y200079D02*
D03*
X343000Y308000D02*
D03*
Y318000D02*
D03*
Y328000D02*
D03*
Y288000D02*
D03*
X201236Y498780D02*
D03*
X211236D02*
D03*
X221236D02*
D03*
X231236D02*
D03*
X241236D02*
D03*
X251236D02*
D03*
X261236D02*
D03*
D23*
X191236Y333425D02*
D03*
X342579Y200079D02*
D03*
X191236Y498780D02*
D03*
D24*
X343000Y338000D02*
D03*
Y278000D02*
D03*
D25*
X116000Y255079D02*
D03*
Y485000D02*
D03*
X336472Y255079D02*
D03*
Y485000D02*
D03*
D26*
X190000Y248000D02*
D03*
X186914Y243547D02*
D03*
X190365Y251865D02*
D03*
X191500Y258500D02*
D03*
X135772Y285240D02*
D03*
X194378Y283047D02*
D03*
X215500Y386000D02*
D03*
X290300Y206700D02*
D03*
X202300Y201800D02*
D03*
X165500Y195500D02*
D03*
X176500Y233500D02*
D03*
X199952Y229000D02*
D03*
X197500Y221000D02*
D03*
X192500Y239500D02*
D03*
X195500Y217500D02*
D03*
X200500Y225000D02*
D03*
X267439Y269061D02*
D03*
X157500Y263027D02*
D03*
X152500Y252335D02*
D03*
X146000Y236000D02*
D03*
X149268Y271268D02*
D03*
X289500Y237500D02*
D03*
X171000Y283000D02*
D03*
X166000Y240000D02*
D03*
X162000Y227547D02*
D03*
X169000Y252707D02*
D03*
X173000Y253000D02*
D03*
X197335Y253386D02*
D03*
X200000Y250500D02*
D03*
X199500Y259500D02*
D03*
X178500Y290500D02*
D03*
X155500Y283047D02*
D03*
X199883Y283000D02*
D03*
X271000Y301500D02*
D03*
X159000Y225000D02*
D03*
X165616Y219164D02*
D03*
X171700Y218800D02*
D03*
X167000Y293000D02*
D03*
X225000Y344500D02*
D03*
X145500Y252000D02*
D03*
X171000Y407000D02*
D03*
X176000Y226500D02*
D03*
X172327Y336000D02*
D03*
X143000Y223500D02*
D03*
X146500Y219500D02*
D03*
X202200Y271316D02*
D03*
X175600Y292785D02*
D03*
X184600Y209200D02*
D03*
X148800Y352400D02*
D03*
X134900Y380200D02*
D03*
X182700Y354600D02*
D03*
X336900Y294650D02*
D03*
X118300Y403900D02*
D03*
X157496Y449595D02*
D03*
X249900Y511900D02*
D03*
X302500Y443900D02*
D03*
X183300Y338800D02*
D03*
X121100Y393100D02*
D03*
X174000Y208300D02*
D03*
X110800Y301300D02*
D03*
X177500Y221142D02*
D03*
X303900Y496500D02*
D03*
X274500Y432500D02*
D03*
X168800Y460800D02*
D03*
X206200Y334700D02*
D03*
X316000Y360100D02*
D03*
X265600Y376300D02*
D03*
X128815Y376700D02*
D03*
X177600Y456700D02*
D03*
X144078Y347900D02*
D03*
X129800Y458900D02*
D03*
X132496Y427323D02*
D03*
X171100Y433800D02*
D03*
X284300Y431200D02*
D03*
X319976Y427323D02*
D03*
X324300Y395900D02*
D03*
X328600Y445700D02*
D03*
X289976Y472500D02*
D03*
X288600Y412700D02*
D03*
X306000Y254200D02*
D03*
X261236Y440308D02*
D03*
M02*
