G04*
G04 #@! TF.GenerationSoftware,Altium Limited,Altium Designer,20.1.8 (145)*
G04*
G04 Layer_Color=16711935*
%FSLAX25Y25*%
%MOIN*%
G70*
G04*
G04 #@! TF.SameCoordinates,EC9590D4-A93B-4016-A152-F587195DA6AB*
G04*
G04*
G04 #@! TF.FilePolarity,Positive*
G04*
G01*
G75*
%ADD10C,0.00787*%
%ADD12C,0.00500*%
%ADD60C,0.00000*%
%ADD61C,0.00394*%
%ADD62C,0.00197*%
D10*
X226213Y229614D02*
X225622Y230205D01*
X225031Y229614D01*
X225622Y229024D01*
X226213Y229614D01*
D12*
X187827Y232173D02*
X216173D01*
X187827Y203827D02*
Y232173D01*
Y203827D02*
X216173D01*
Y232173D01*
X346311Y201689D02*
Y225311D01*
X322689Y201689D02*
X346311D01*
X322689D02*
Y225311D01*
X346311D01*
X117677Y193772D02*
X132323D01*
X117677D02*
Y220228D01*
X132323D01*
Y193772D02*
Y220228D01*
X273480Y282638D02*
X297102D01*
X273480Y259016D02*
Y282638D01*
Y259016D02*
X297102D01*
Y282638D01*
X214425Y322008D02*
X238047D01*
X214425Y298386D02*
Y322008D01*
Y298386D02*
X238047D01*
Y322008D01*
X155370Y282638D02*
X178992D01*
X155370Y259016D02*
Y282638D01*
Y259016D02*
X178992D01*
Y282638D01*
X214425D02*
X238047D01*
X214425Y259016D02*
Y282638D01*
Y259016D02*
X238047D01*
Y282638D01*
X214425Y251142D02*
X238047D01*
X214425Y227520D02*
Y251142D01*
Y227520D02*
X238047D01*
Y251142D01*
D60*
X152700Y330200D02*
X151851Y329849D01*
X151500Y329000D01*
X151851Y328151D01*
X152700Y327800D01*
X130296Y444430D02*
X131145Y444781D01*
X131496Y445630D01*
X131145Y446478D01*
X130296Y446830D01*
X287776Y444430D02*
X288625Y444781D01*
X288976Y445630D01*
X288625Y446478D01*
X287776Y446830D01*
X118300Y321100D02*
X152700D01*
Y327800D01*
Y330200D01*
Y336900D01*
X118300D02*
X152700D01*
X118300Y321100D02*
Y336900D01*
X151400D02*
Y341200D01*
X149600D02*
X151400D01*
X149600Y336900D02*
Y341200D01*
Y336900D02*
X151400D01*
X146400D02*
Y341200D01*
X144600D02*
X146400D01*
X144600Y336900D02*
Y341200D01*
Y336900D02*
X146400D01*
X141400D02*
Y341200D01*
X139600D02*
X141400D01*
X139600Y336900D02*
Y341200D01*
Y336900D02*
X141400D01*
X136400D02*
Y341200D01*
X134600D02*
X136400D01*
X134600Y336900D02*
Y341200D01*
Y336900D02*
X136400D01*
X131400D02*
Y341200D01*
X129600D02*
X131400D01*
X129600Y336900D02*
Y341200D01*
Y336900D02*
X131400D01*
X126400D02*
Y341200D01*
X124600D02*
X126400D01*
X124600Y336900D02*
Y341200D01*
Y336900D02*
X126400D01*
X121400D02*
Y341200D01*
X119600D02*
X121400D01*
X119600Y336900D02*
Y341200D01*
Y336900D02*
X121400D01*
X119600Y316800D02*
Y321100D01*
Y316800D02*
X121400D01*
Y321100D01*
X119600D02*
X121400D01*
X124600Y316800D02*
Y321100D01*
Y316800D02*
X126400D01*
Y321100D01*
X124600D02*
X126400D01*
X129600Y316800D02*
Y321100D01*
Y316800D02*
X131400D01*
Y321100D01*
X129600D02*
X131400D01*
X134600Y316800D02*
Y321100D01*
Y316800D02*
X136400D01*
Y321100D01*
X134600D02*
X136400D01*
X139600Y316800D02*
Y321100D01*
Y316800D02*
X141400D01*
Y321100D01*
X139600D02*
X141400D01*
X144600Y316800D02*
Y321100D01*
Y316800D02*
X146400D01*
Y321100D01*
X144600D02*
X146400D01*
X149600Y316800D02*
Y321100D01*
Y316800D02*
X151400D01*
Y321100D01*
X149600D02*
X151400D01*
X130296Y453530D02*
X164696D01*
X130296Y446830D02*
Y453530D01*
Y444430D02*
Y446830D01*
Y437730D02*
Y444430D01*
Y437730D02*
X164696D01*
Y453530D01*
X131596Y433430D02*
Y437730D01*
Y433430D02*
X133396D01*
Y437730D01*
X131596D02*
X133396D01*
X136596Y433430D02*
Y437730D01*
Y433430D02*
X138396D01*
Y437730D01*
X136596D02*
X138396D01*
X141596Y433430D02*
Y437730D01*
Y433430D02*
X143396D01*
Y437730D01*
X141596D02*
X143396D01*
X146596Y433430D02*
Y437730D01*
Y433430D02*
X148396D01*
Y437730D01*
X146596D02*
X148396D01*
X151596Y433430D02*
Y437730D01*
Y433430D02*
X153396D01*
Y437730D01*
X151596D02*
X153396D01*
X156596Y433430D02*
Y437730D01*
Y433430D02*
X158396D01*
Y437730D01*
X156596D02*
X158396D01*
X161596Y433430D02*
Y437730D01*
Y433430D02*
X163396D01*
Y437730D01*
X161596D02*
X163396D01*
Y453530D02*
Y457830D01*
X161596D02*
X163396D01*
X161596Y453530D02*
Y457830D01*
Y453530D02*
X163396D01*
X158396D02*
Y457830D01*
X156596D02*
X158396D01*
X156596Y453530D02*
Y457830D01*
Y453530D02*
X158396D01*
X153396D02*
Y457830D01*
X151596D02*
X153396D01*
X151596Y453530D02*
Y457830D01*
Y453530D02*
X153396D01*
X148396D02*
Y457830D01*
X146596D02*
X148396D01*
X146596Y453530D02*
Y457830D01*
Y453530D02*
X148396D01*
X143396D02*
Y457830D01*
X141596D02*
X143396D01*
X141596Y453530D02*
Y457830D01*
Y453530D02*
X143396D01*
X138396D02*
Y457830D01*
X136596D02*
X138396D01*
X136596Y453530D02*
Y457830D01*
Y453530D02*
X138396D01*
X133396D02*
Y457830D01*
X131596D02*
X133396D01*
X131596Y453530D02*
Y457830D01*
Y453530D02*
X133396D01*
X289076D02*
X290876D01*
X289076D02*
Y457830D01*
X290876D01*
Y453530D02*
Y457830D01*
X294076Y453530D02*
X295876D01*
X294076D02*
Y457830D01*
X295876D01*
Y453530D02*
Y457830D01*
X299076Y453530D02*
X300876D01*
X299076D02*
Y457830D01*
X300876D01*
Y453530D02*
Y457830D01*
X304076Y453530D02*
X305876D01*
X304076D02*
Y457830D01*
X305876D01*
Y453530D02*
Y457830D01*
X309076Y453530D02*
X310876D01*
X309076D02*
Y457830D01*
X310876D01*
Y453530D02*
Y457830D01*
X314076Y453530D02*
X315876D01*
X314076D02*
Y457830D01*
X315876D01*
Y453530D02*
Y457830D01*
X319076Y453530D02*
X320876D01*
X319076D02*
Y457830D01*
X320876D01*
Y453530D02*
Y457830D01*
X319076Y437730D02*
X320876D01*
Y433430D02*
Y437730D01*
X319076Y433430D02*
X320876D01*
X319076D02*
Y437730D01*
X314076D02*
X315876D01*
Y433430D02*
Y437730D01*
X314076Y433430D02*
X315876D01*
X314076D02*
Y437730D01*
X309076D02*
X310876D01*
Y433430D02*
Y437730D01*
X309076Y433430D02*
X310876D01*
X309076D02*
Y437730D01*
X304076D02*
X305876D01*
Y433430D02*
Y437730D01*
X304076Y433430D02*
X305876D01*
X304076D02*
Y437730D01*
X299076D02*
X300876D01*
Y433430D02*
Y437730D01*
X299076Y433430D02*
X300876D01*
X299076D02*
Y437730D01*
X294076D02*
X295876D01*
Y433430D02*
Y437730D01*
X294076Y433430D02*
X295876D01*
X294076D02*
Y437730D01*
X289076D02*
X290876D01*
Y433430D02*
Y437730D01*
X289076Y433430D02*
X290876D01*
X289076D02*
Y437730D01*
X322176D02*
Y453530D01*
X287776Y437730D02*
X322176D01*
X287776D02*
Y444430D01*
Y446830D01*
Y453530D01*
X322176D01*
D61*
X259405Y397697D02*
X272594D01*
X259405Y387303D02*
X272594D01*
X259405D02*
Y397697D01*
X272594Y387303D02*
Y397697D01*
X260252Y368441D02*
Y373559D01*
Y368441D02*
X271748D01*
Y373559D01*
X260252D02*
X271748D01*
X260252Y369819D02*
X263992Y373559D01*
X165906Y295803D02*
X179095D01*
X165906Y306197D02*
X179095D01*
X165906Y295803D02*
Y306197D01*
X179095Y295803D02*
Y306197D01*
X105307Y304957D02*
Y312043D01*
X118693Y304957D02*
Y312043D01*
X105307Y304957D02*
X118693D01*
X105307Y312043D02*
X118693D01*
X105406Y301697D02*
X118595D01*
X105406Y291303D02*
X118595D01*
Y301697D01*
X105406Y291303D02*
Y301697D01*
X142405Y362197D02*
X155594D01*
X142405Y351803D02*
X155594D01*
Y362197D01*
X142405Y351803D02*
Y362197D01*
X116405Y351803D02*
X129594D01*
X116405Y362197D02*
X129594D01*
X116405Y351803D02*
Y362197D01*
X129594Y351803D02*
Y362197D01*
X277811Y438937D02*
X284898D01*
X277811Y452323D02*
X284898D01*
Y438937D02*
Y452323D01*
X277811Y438937D02*
Y452323D01*
X120331Y438937D02*
X127417D01*
X120331Y452323D02*
X127417D01*
Y438937D02*
Y452323D01*
X120331Y438937D02*
Y452323D01*
X311472Y264134D02*
X318559D01*
X311472Y277520D02*
X318559D01*
X311472Y264134D02*
Y277520D01*
X318559Y264134D02*
Y277520D01*
X280693Y220457D02*
Y227543D01*
X267307Y220457D02*
Y227543D01*
X280693D01*
X267307Y220457D02*
X280693D01*
Y205457D02*
Y212543D01*
X267307Y205457D02*
Y212543D01*
X280693D01*
X267307Y205457D02*
X280693D01*
X239055Y357630D02*
Y361370D01*
X245945Y357630D02*
Y361370D01*
X239055D02*
X245945D01*
X239055Y357630D02*
X245945D01*
X225697Y261406D02*
Y274594D01*
X215303Y261406D02*
Y274594D01*
Y261406D02*
X225697D01*
X215303Y274594D02*
X225697D01*
X252417Y264134D02*
X259504D01*
X252417Y277520D02*
X259504D01*
X252417Y264134D02*
Y277520D01*
X259504Y264134D02*
Y277520D01*
X202697Y389905D02*
Y403094D01*
X192303Y389905D02*
Y403094D01*
Y389905D02*
X202697D01*
X192303Y403094D02*
X202697D01*
X192303Y389906D02*
X202697D01*
X192303Y403094D02*
X202697D01*
X192303Y389906D02*
Y403094D01*
X202697Y389906D02*
Y403094D01*
X195870Y413055D02*
Y419945D01*
X192130Y413055D02*
Y419945D01*
X195870D01*
X192130Y413055D02*
X195870D01*
X192130D02*
Y419945D01*
X195870Y413055D02*
Y419945D01*
X192130D02*
X195870D01*
X192130Y413055D02*
X195870D01*
X199043Y367807D02*
Y381193D01*
X191957Y367807D02*
Y381193D01*
X199043D01*
X191957Y367807D02*
X199043D01*
X191957Y367807D02*
Y381193D01*
X199043Y367807D02*
Y381193D01*
X191957D02*
X199043D01*
X191957Y367807D02*
X199043D01*
X193807Y354457D02*
X207193D01*
X193807Y361543D02*
X207193D01*
Y354457D02*
Y361543D01*
X193807Y354457D02*
Y361543D01*
X239055Y361370D02*
X245945D01*
X239055Y357630D02*
X245945D01*
Y361370D01*
X239055Y357630D02*
Y361370D01*
X195307Y196457D02*
X208693D01*
X195307Y203543D02*
X208693D01*
Y196457D02*
Y203543D01*
X195307Y196457D02*
Y203543D01*
X200449Y264134D02*
Y277520D01*
X193362Y264134D02*
Y277520D01*
X200449D01*
X193362Y264134D02*
X200449D01*
X165921Y415413D02*
X176315D01*
X165921Y428602D02*
X176315D01*
X165921Y415413D02*
Y428602D01*
X176315Y415413D02*
Y428602D01*
X118677Y415413D02*
X129071D01*
X118677Y428602D02*
X129071D01*
X118677Y415413D02*
Y428602D01*
X129071Y415413D02*
Y428602D01*
X118677Y439036D02*
X129071D01*
X118677Y452224D02*
X129071D01*
X118677Y439036D02*
Y452224D01*
X129071Y439036D02*
Y452224D01*
X165921Y439036D02*
X176315D01*
X165921Y452224D02*
X176315D01*
X165921Y439036D02*
Y452224D01*
X176315Y439036D02*
Y452224D01*
X165921Y401043D02*
X176315D01*
X165921Y387854D02*
X176315D01*
X165921D02*
Y401043D01*
X176315Y387854D02*
Y401043D01*
X118677Y387854D02*
X129071D01*
X118677Y401043D02*
X129071D01*
Y387854D02*
Y401043D01*
X118677Y387854D02*
Y401043D01*
X323402Y387854D02*
X333795D01*
X323402Y401043D02*
X333795D01*
Y387854D02*
Y401043D01*
X323402Y387854D02*
Y401043D01*
X276157Y387854D02*
X286551D01*
X276157Y401043D02*
X286551D01*
Y387854D02*
Y401043D01*
X276157Y387854D02*
Y401043D01*
X215906Y350803D02*
Y361197D01*
X229094Y350803D02*
Y361197D01*
X215906D02*
X229094D01*
X215906Y350803D02*
X229094D01*
Y361197D01*
X215906Y350803D02*
Y361197D01*
X229094D01*
X215906Y350803D02*
X229094D01*
X276157Y415413D02*
X286551D01*
X276157Y428602D02*
X286551D01*
X276157Y415413D02*
Y428602D01*
X286551Y415413D02*
Y428602D01*
X323402Y415413D02*
X333795D01*
X323402Y428602D02*
X333795D01*
X323402Y415413D02*
Y428602D01*
X333795Y415413D02*
Y428602D01*
X323402Y439036D02*
X333795D01*
X323402Y452224D02*
X333795D01*
X323402Y439036D02*
Y452224D01*
X333795Y439036D02*
Y452224D01*
X276157Y439036D02*
X286551D01*
X276157Y452224D02*
X286551D01*
X276157Y439036D02*
Y452224D01*
X286551Y439036D02*
Y452224D01*
X259504Y232638D02*
Y246024D01*
X252417Y232638D02*
Y246024D01*
X259504D01*
X252417Y232638D02*
X259504D01*
Y303504D02*
Y316890D01*
X252417Y303504D02*
Y316890D01*
X259504D01*
X252417Y303504D02*
X259504D01*
X308957Y222307D02*
Y235693D01*
X316043Y222307D02*
Y235693D01*
X308957D02*
X316043D01*
X308957Y222307D02*
X316043D01*
X193807Y361543D02*
X207193D01*
X193807Y354457D02*
X207193D01*
Y361543D01*
X193807Y354457D02*
Y361543D01*
X116807Y374543D02*
X130193D01*
X116807Y367457D02*
X130193D01*
Y374543D01*
X116807Y367457D02*
Y374543D01*
X142807Y375043D02*
X156193D01*
X142807Y367957D02*
X156193D01*
Y375043D01*
X142807Y367957D02*
Y375043D01*
X165807Y309457D02*
X179193D01*
X165807Y316543D02*
X179193D01*
X165807Y309457D02*
Y316543D01*
X179193Y309457D02*
Y316543D01*
X161543Y322307D02*
Y335693D01*
X154457Y322307D02*
Y335693D01*
Y322307D02*
X161543D01*
X154457Y335693D02*
X161543D01*
X122307Y233543D02*
X135693D01*
X122307Y226457D02*
X135693D01*
X122307D02*
Y233543D01*
X135693Y226457D02*
Y233543D01*
X299307Y197457D02*
X312693D01*
X299307Y204543D02*
X312693D01*
X299307Y197457D02*
Y204543D01*
X312693Y197457D02*
Y204543D01*
D62*
X259032Y363323D02*
Y378677D01*
Y363323D02*
X272969D01*
Y378677D01*
X259032D02*
X272969D01*
M02*
