G04*
G04 #@! TF.GenerationSoftware,Altium Limited,Altium Designer,20.1.8 (145)*
G04*
G04 Layer_Color=16711935*
%FSLAX25Y25*%
%MOIN*%
G70*
G04*
G04 #@! TF.SameCoordinates,EC9590D4-A93B-4016-A152-F587195DA6AB*
G04*
G04*
G04 #@! TF.FilePolarity,Negative*
G04*
G01*
G75*
%ADD24R,0.05800X0.13320*%
%ADD25R,0.05131X0.11036*%
%ADD26R,0.07493X0.05131*%
%ADD27R,0.03950X0.04343*%
%ADD30R,0.11036X0.05131*%
%ADD31R,0.04343X0.03950*%
%ADD32R,0.05131X0.07493*%
%ADD34R,0.06706X0.06706*%
%ADD35C,0.06706*%
%ADD36R,0.06706X0.06706*%
%ADD37C,0.20485*%
%ADD38C,0.03556*%
%ADD52R,0.05402X0.12921*%
%ADD53R,0.03162X0.05918*%
G04:AMPARAMS|DCode=54|XSize=19.02mil|YSize=69.42mil|CornerRadius=6.76mil|HoleSize=0mil|Usage=FLASHONLY|Rotation=90.000|XOffset=0mil|YOffset=0mil|HoleType=Round|Shape=RoundedRectangle|*
%AMROUNDEDRECTD54*
21,1,0.01902,0.05591,0,0,90.0*
21,1,0.00551,0.06942,0,0,90.0*
1,1,0.01351,0.02795,0.00276*
1,1,0.01351,0.02795,-0.00276*
1,1,0.01351,-0.02795,-0.00276*
1,1,0.01351,-0.02795,0.00276*
%
%ADD54ROUNDEDRECTD54*%
G04:AMPARAMS|DCode=55|XSize=19.02mil|YSize=69.42mil|CornerRadius=6.76mil|HoleSize=0mil|Usage=FLASHONLY|Rotation=180.000|XOffset=0mil|YOffset=0mil|HoleType=Round|Shape=RoundedRectangle|*
%AMROUNDEDRECTD55*
21,1,0.01902,0.05591,0,0,180.0*
21,1,0.00551,0.06942,0,0,180.0*
1,1,0.01351,-0.00276,0.02795*
1,1,0.01351,0.00276,0.02795*
1,1,0.01351,0.00276,-0.02795*
1,1,0.01351,-0.00276,-0.02795*
%
%ADD55ROUNDEDRECTD55*%
G04:AMPARAMS|DCode=56|XSize=90.68mil|YSize=62.33mil|CornerRadius=8.07mil|HoleSize=0mil|Usage=FLASHONLY|Rotation=90.000|XOffset=0mil|YOffset=0mil|HoleType=Round|Shape=RoundedRectangle|*
%AMROUNDEDRECTD56*
21,1,0.09068,0.04618,0,0,90.0*
21,1,0.07453,0.06233,0,0,90.0*
1,1,0.01615,0.02309,0.03726*
1,1,0.01615,0.02309,-0.03726*
1,1,0.01615,-0.02309,-0.03726*
1,1,0.01615,-0.02309,0.03726*
%
%ADD56ROUNDEDRECTD56*%
%ADD57R,0.02800X0.08600*%
%ADD58R,0.09100X0.22800*%
D24*
X160366Y520189D02*
D03*
X150366D02*
D03*
X197610D02*
D03*
X207610D02*
D03*
X254854D02*
D03*
X244854D02*
D03*
X292098D02*
D03*
X302098D02*
D03*
D25*
X167185Y301000D02*
D03*
X177815D02*
D03*
X117315Y296500D02*
D03*
X106685D02*
D03*
X154315Y357000D02*
D03*
X143685D02*
D03*
X117685D02*
D03*
X128315D02*
D03*
X227815Y356000D02*
D03*
X217185D02*
D03*
D26*
X281354Y440315D02*
D03*
Y450945D02*
D03*
X123874Y440315D02*
D03*
Y450945D02*
D03*
X195500Y379815D02*
D03*
Y369185D02*
D03*
X312500Y234315D02*
D03*
Y223685D02*
D03*
X158000Y323685D02*
D03*
Y334315D02*
D03*
D27*
X245256Y359500D02*
D03*
X239744D02*
D03*
D30*
X220500Y262685D02*
D03*
Y273315D02*
D03*
X197500Y391185D02*
D03*
Y401815D02*
D03*
X171118Y399764D02*
D03*
Y389134D02*
D03*
X123874D02*
D03*
Y399764D02*
D03*
X328598Y389134D02*
D03*
Y399764D02*
D03*
X281354Y389134D02*
D03*
Y399764D02*
D03*
D31*
X194000Y419256D02*
D03*
Y413744D02*
D03*
D32*
X106685Y308500D02*
D03*
X117315D02*
D03*
X279315Y224000D02*
D03*
X268685D02*
D03*
X279315Y209000D02*
D03*
X268685D02*
D03*
X205815Y358000D02*
D03*
X195185D02*
D03*
X128815Y371000D02*
D03*
X118185D02*
D03*
X154815Y371500D02*
D03*
X144185D02*
D03*
X167185Y313000D02*
D03*
X177815D02*
D03*
X300685Y201000D02*
D03*
X311315D02*
D03*
D34*
X191236Y498780D02*
D03*
Y333425D02*
D03*
X311000Y190500D02*
D03*
D35*
X201236Y498780D02*
D03*
X211236D02*
D03*
X221236D02*
D03*
X231236D02*
D03*
X241236D02*
D03*
X251236D02*
D03*
X261236D02*
D03*
X325000Y305000D02*
D03*
Y315000D02*
D03*
Y325000D02*
D03*
Y282500D02*
D03*
X201236Y333425D02*
D03*
X211236D02*
D03*
X221236D02*
D03*
X231236D02*
D03*
X241236D02*
D03*
X251236D02*
D03*
X261236D02*
D03*
X301000Y190500D02*
D03*
D36*
X325000Y295000D02*
D03*
Y272500D02*
D03*
D37*
X116000Y255079D02*
D03*
Y485000D02*
D03*
X336472Y255079D02*
D03*
Y485000D02*
D03*
D38*
X260500Y341835D02*
D03*
Y382000D02*
D03*
X266260Y376134D02*
D03*
X195185Y343128D02*
D03*
X225500Y346929D02*
D03*
X217185Y346665D02*
D03*
X130700Y236800D02*
D03*
X251222Y385748D02*
D03*
X235500Y373000D02*
D03*
X229000Y277500D02*
D03*
X194500Y223500D02*
D03*
X198785Y253400D02*
D03*
X155000Y380500D02*
D03*
X320000Y399500D02*
D03*
X187164Y445764D02*
D03*
X125000Y272000D02*
D03*
X137165Y264500D02*
D03*
X132453Y278980D02*
D03*
X217500Y452500D02*
D03*
X217400Y267100D02*
D03*
X206500Y253500D02*
D03*
X219500Y279000D02*
D03*
X177000Y292453D02*
D03*
X243000Y271500D02*
D03*
X236500Y275500D02*
D03*
X227000Y213000D02*
D03*
X187500Y201750D02*
D03*
X193000Y193500D02*
D03*
X206000Y219500D02*
D03*
X145375Y449475D02*
D03*
X212827Y225000D02*
D03*
X244500Y225000D02*
D03*
X302098Y477998D02*
D03*
X255500Y507957D02*
D03*
X157750Y201750D02*
D03*
X212500Y215250D02*
D03*
X204000Y212500D02*
D03*
X141000Y291900D02*
D03*
X195100Y215200D02*
D03*
X218100Y318900D02*
D03*
X215800Y335000D02*
D03*
X174125Y333425D02*
D03*
X245000Y267835D02*
D03*
X164700Y336351D02*
D03*
X145600Y430400D02*
D03*
X300550Y323800D02*
D03*
X130500Y346000D02*
D03*
X119400Y410300D02*
D03*
X281500Y457400D02*
D03*
X205815Y372500D02*
D03*
X195500Y442000D02*
D03*
X221007Y238866D02*
D03*
X164700Y341315D02*
D03*
X174500Y337900D02*
D03*
X279500Y422900D02*
D03*
X172900Y301000D02*
D03*
X279700Y310000D02*
D03*
X145500Y345900D02*
D03*
X217051Y187000D02*
D03*
X116300Y339700D02*
D03*
X179500Y427485D02*
D03*
X210085Y324000D02*
D03*
X226300D02*
D03*
X191000Y220750D02*
D03*
X192400Y239700D02*
D03*
X210300Y511700D02*
D03*
X269500Y502500D02*
D03*
X254600Y260300D02*
D03*
X264950Y301150D02*
D03*
X274800Y405400D02*
D03*
X289976Y449500D02*
D03*
X314976Y448900D02*
D03*
X319976Y427323D02*
D03*
X289976Y428573D02*
D03*
X128755Y455300D02*
D03*
X168200Y455100D02*
D03*
X177400Y405900D02*
D03*
X158746Y427323D02*
D03*
X132496D02*
D03*
X212500Y272400D02*
D03*
X235500Y353700D02*
D03*
X197600Y281200D02*
D03*
X199600Y229200D02*
D03*
X182400Y256000D02*
D03*
X181500Y268000D02*
D03*
X250500Y262000D02*
D03*
X192222Y246022D02*
D03*
X187500Y233600D02*
D03*
X319000Y309000D02*
D03*
X271000Y450945D02*
D03*
X194000Y427100D02*
D03*
X216076Y529524D02*
D03*
X281800Y516400D02*
D03*
D52*
X160366Y520189D02*
D03*
X150366D02*
D03*
X197610D02*
D03*
X207610D02*
D03*
X254854D02*
D03*
X244854D02*
D03*
X292098D02*
D03*
X302098D02*
D03*
D53*
X262260Y375134D02*
D03*
X269740D02*
D03*
X266000Y366866D02*
D03*
D54*
X218457Y228827D02*
D03*
Y226858D02*
D03*
Y224890D02*
D03*
Y222921D02*
D03*
Y220953D02*
D03*
Y218984D02*
D03*
Y217016D02*
D03*
Y215047D02*
D03*
Y213079D02*
D03*
Y211110D02*
D03*
Y209142D02*
D03*
Y207173D02*
D03*
X185543D02*
D03*
Y209142D02*
D03*
Y211110D02*
D03*
Y213079D02*
D03*
Y215047D02*
D03*
Y217016D02*
D03*
Y218984D02*
D03*
Y220953D02*
D03*
Y222921D02*
D03*
Y224890D02*
D03*
Y226858D02*
D03*
Y228827D02*
D03*
D55*
X212827Y201543D02*
D03*
X210858D02*
D03*
X208890D02*
D03*
X206921D02*
D03*
X204953D02*
D03*
X202984D02*
D03*
X201016D02*
D03*
X199047D02*
D03*
X197079D02*
D03*
X195110D02*
D03*
X193142D02*
D03*
X191173D02*
D03*
Y234457D02*
D03*
X193142D02*
D03*
X195110D02*
D03*
X197079D02*
D03*
X199047D02*
D03*
X201016D02*
D03*
X202984D02*
D03*
X204953D02*
D03*
X206921D02*
D03*
X208890D02*
D03*
X210858D02*
D03*
X212827D02*
D03*
D56*
X343319Y231413D02*
D03*
X325681D02*
D03*
X343319Y195587D02*
D03*
X325681D02*
D03*
D57*
X150500Y338700D02*
D03*
X145500D02*
D03*
X140500D02*
D03*
X135500D02*
D03*
X130500D02*
D03*
X125500D02*
D03*
X120500D02*
D03*
Y319300D02*
D03*
X125500D02*
D03*
X130500D02*
D03*
X135500D02*
D03*
X140500D02*
D03*
X145500D02*
D03*
X150500D02*
D03*
X132496Y435930D02*
D03*
X137496D02*
D03*
X142496D02*
D03*
X147496D02*
D03*
X152496D02*
D03*
X157496D02*
D03*
X162496D02*
D03*
Y455330D02*
D03*
X157496D02*
D03*
X152496D02*
D03*
X147496D02*
D03*
X142496D02*
D03*
X137496D02*
D03*
X132496D02*
D03*
X289976D02*
D03*
X294976D02*
D03*
X299976D02*
D03*
X304976D02*
D03*
X309976D02*
D03*
X314976D02*
D03*
X319976D02*
D03*
Y435930D02*
D03*
X314976D02*
D03*
X309976D02*
D03*
X304976D02*
D03*
X299976D02*
D03*
X294976D02*
D03*
X289976D02*
D03*
D58*
X252500Y238700D02*
D03*
Y201300D02*
D03*
M02*
