G04*
G04 #@! TF.GenerationSoftware,Altium Limited,Altium Designer,20.1.8 (145)*
G04*
G04 Layer_Color=65535*
%FSLAX25Y25*%
%MOIN*%
G70*
G04*
G04 #@! TF.SameCoordinates,EC9590D4-A93B-4016-A152-F587195DA6AB*
G04*
G04*
G04 #@! TF.FilePolarity,Positive*
G04*
G01*
G75*
%ADD10C,0.00787*%
%ADD11C,0.00787*%
%ADD12C,0.00500*%
%ADD13C,0.01000*%
D10*
X142610Y197984D02*
X141823D01*
X142610D01*
X309902Y261972D02*
X309114D01*
X309902D01*
X250847Y301343D02*
X250059D01*
X250847D01*
X191791Y261972D02*
X191004D01*
X191791D01*
X250847D02*
X250059D01*
X250847D01*
Y230476D02*
X250059D01*
X250847D01*
X264425Y397224D02*
X267575D01*
X264425Y387776D02*
X267575D01*
X266236Y493780D02*
Y503780D01*
X186236Y493780D02*
X266236D01*
X186236D02*
Y503780D01*
X266236D01*
X312063Y269252D02*
Y272402D01*
X317969Y269252D02*
Y272402D01*
X236988Y358122D02*
Y360878D01*
X335000Y290000D02*
Y330000D01*
X330000D02*
X335000D01*
X330000Y290000D02*
X335000D01*
Y293333D02*
X348333D01*
X350000Y295000D01*
X348333Y296667D02*
X350000Y295000D01*
X335000Y296667D02*
X348333D01*
X335000Y303333D02*
X348333D01*
X350000Y305000D01*
X348333Y306667D02*
X350000Y305000D01*
X335000Y306667D02*
X348333D01*
X335000Y313333D02*
X348333D01*
X350000Y315000D01*
X348333Y316667D02*
X350000Y315000D01*
X335000Y316667D02*
X348333D01*
X335000Y323333D02*
X348333D01*
X350000Y325000D01*
X348333Y326667D02*
X350000Y325000D01*
X335000Y326667D02*
X348333D01*
X330000Y290000D02*
Y330000D01*
X335000Y267500D02*
Y287500D01*
X330000D02*
X335000D01*
X330000Y267500D02*
X335000D01*
X330000D02*
Y287500D01*
X335000Y270833D02*
X348333D01*
X350000Y272500D01*
X348333Y274167D02*
X350000Y272500D01*
X335000Y274167D02*
X348333D01*
X335000Y280833D02*
X348333D01*
X350000Y282500D01*
X348333Y284167D02*
X350000Y282500D01*
X335000Y284167D02*
X348333D01*
X253008Y269252D02*
Y272402D01*
X258913Y269252D02*
Y272402D01*
X266236Y328425D02*
Y338425D01*
X186236Y328425D02*
X266236D01*
X186236D02*
Y338425D01*
X266236D01*
X296000Y200500D02*
X316000D01*
X296000Y195500D02*
Y200500D01*
X316000Y195500D02*
Y200500D01*
X296000Y195500D02*
X316000D01*
X312667Y200500D02*
Y213833D01*
X311000Y215500D02*
X312667Y213833D01*
X309333D02*
X311000Y215500D01*
X309333Y200500D02*
Y213833D01*
X302667Y200500D02*
Y213833D01*
X301000Y215500D02*
X302667Y213833D01*
X299333D02*
X301000Y215500D01*
X299333Y200500D02*
Y213833D01*
X192776Y394925D02*
Y398075D01*
X202224Y394925D02*
Y398075D01*
X192622Y410988D02*
X195378D01*
X198453Y372925D02*
Y376075D01*
X192547Y372925D02*
Y376075D01*
X198925Y355047D02*
X202075D01*
X198925Y360953D02*
X202075D01*
X200425Y197047D02*
X203575D01*
X200425Y202953D02*
X203575D01*
X199858Y269252D02*
Y272402D01*
X193953Y269252D02*
Y272402D01*
X166394Y420433D02*
Y423583D01*
X175843Y420433D02*
Y423583D01*
X119150Y420433D02*
Y423583D01*
X128598Y420433D02*
Y423583D01*
X119150Y444055D02*
Y447205D01*
X128598Y444055D02*
Y447205D01*
X166394Y444055D02*
Y447205D01*
X175843Y444055D02*
Y447205D01*
X220925Y360724D02*
X224075D01*
X220925Y351276D02*
X224075D01*
X276630Y420433D02*
Y423583D01*
X286079Y420433D02*
Y423583D01*
X323874Y420433D02*
Y423583D01*
X333323Y420433D02*
Y423583D01*
X323874Y444055D02*
Y447205D01*
X333323Y444055D02*
Y447205D01*
X276630Y444055D02*
Y447205D01*
X286079Y444055D02*
Y447205D01*
X258913Y237756D02*
Y240906D01*
X253008Y237756D02*
Y240906D01*
X258913Y308622D02*
Y311772D01*
X253008Y308622D02*
Y311772D01*
X127425Y232953D02*
X130575D01*
X127425Y227047D02*
X130575D01*
D11*
X143594Y512153D02*
Y528153D01*
X167138Y512153D02*
Y528153D01*
X143594Y512153D02*
X167138D01*
X143594Y528154D02*
X167138D01*
X190838D02*
X214382D01*
X190838Y512153D02*
X214382D01*
Y528153D01*
X190838Y512153D02*
Y528153D01*
X238082Y512153D02*
Y528153D01*
X261626Y512153D02*
Y528153D01*
X238082Y512153D02*
X261626D01*
X238082Y528154D02*
X261626D01*
X285326D02*
X308870D01*
X285326Y512153D02*
X308870D01*
Y528153D01*
X285326Y512153D02*
Y528153D01*
D12*
X117677Y193772D02*
X132323D01*
X117677Y220228D02*
X132323D01*
Y193772D02*
Y194795D01*
Y219244D02*
Y220228D01*
X117677Y214362D02*
Y220228D01*
Y193772D02*
Y200071D01*
X297102Y259016D02*
Y282638D01*
X273480Y259016D02*
X297102D01*
X273480D02*
Y282638D01*
X297102D01*
X238047Y298386D02*
Y322008D01*
X214425Y298386D02*
X238047D01*
X214425D02*
Y322008D01*
X238047D01*
X178992Y259016D02*
Y282638D01*
X155370Y259016D02*
X178992D01*
X155370D02*
Y282638D01*
X178992D01*
X238047Y259016D02*
Y282638D01*
X214425Y259016D02*
X238047D01*
X214425D02*
Y282638D01*
X238047D01*
Y227520D02*
Y251142D01*
X214425Y227520D02*
X238047D01*
X214425D02*
Y251142D01*
X238047D01*
D13*
X258900Y401200D02*
Y407198D01*
X261899D01*
X262899Y406198D01*
Y404199D01*
X261899Y403199D01*
X258900D01*
X260899D02*
X262899Y401200D01*
X268897D02*
X264898D01*
X268897Y405199D01*
Y406198D01*
X267897Y407198D01*
X265898D01*
X264898Y406198D01*
X270896Y401200D02*
X272896D01*
X271896D01*
Y407198D01*
X270896Y406198D01*
X176999Y515002D02*
X171001D01*
Y518001D01*
X172001Y519000D01*
X174000D01*
X175000Y518001D01*
Y515002D01*
X171001Y521000D02*
Y524998D01*
X172001D01*
X175999Y521000D01*
X176999D01*
X282499Y512502D02*
X276501D01*
Y515501D01*
X277501Y516501D01*
X279500D01*
X280500Y515501D01*
Y512502D01*
X282499Y518501D02*
Y520500D01*
Y519500D01*
X276501D01*
X277501Y518501D01*
Y523499D02*
X276501Y524499D01*
Y526498D01*
X277501Y527498D01*
X281499D01*
X282499Y526498D01*
Y524499D01*
X281499Y523499D01*
X277501D01*
X235499Y514502D02*
X229501D01*
Y517501D01*
X230501Y518500D01*
X232500D01*
X233500Y517501D01*
Y514502D01*
X234499Y520500D02*
X235499Y521499D01*
Y523499D01*
X234499Y524498D01*
X230501D01*
X229501Y523499D01*
Y521499D01*
X230501Y520500D01*
X231500D01*
X232500Y521499D01*
Y524498D01*
X223499Y514502D02*
X217501D01*
Y517501D01*
X218501Y518500D01*
X220500D01*
X221500Y517501D01*
Y514502D01*
X218501Y520500D02*
X217501Y521499D01*
Y523499D01*
X218501Y524498D01*
X219500D01*
X220500Y523499D01*
X221500Y524498D01*
X222499D01*
X223499Y523499D01*
Y521499D01*
X222499Y520500D01*
X221500D01*
X220500Y521499D01*
X219500Y520500D01*
X218501D01*
X220500Y521499D02*
Y523499D01*
X181999Y494002D02*
X176001D01*
Y497001D01*
X177001Y498000D01*
X179000D01*
X180000Y497001D01*
Y494002D01*
X176001Y503998D02*
X177001Y501999D01*
X179000Y500000D01*
X180999D01*
X181999Y500999D01*
Y502999D01*
X180999Y503998D01*
X180000D01*
X179000Y502999D01*
Y500000D01*
X256999Y286898D02*
X255999Y287898D01*
X254000D01*
X253000Y286898D01*
Y282900D01*
X254000Y281900D01*
X255999D01*
X256999Y282900D01*
X262997Y281900D02*
X258998D01*
X262997Y285899D01*
Y286898D01*
X261997Y287898D01*
X259998D01*
X258998Y286898D01*
X268995Y281900D02*
X264996D01*
X268995Y285899D01*
Y286898D01*
X267995Y287898D01*
X265996D01*
X264996Y286898D01*
X186800Y341800D02*
Y347798D01*
X189799D01*
X190799Y346798D01*
Y344799D01*
X189799Y343799D01*
X186800D01*
X195797Y341800D02*
Y347798D01*
X192798Y344799D01*
X196797D01*
X109200Y230298D02*
Y225300D01*
X110200Y224300D01*
X112199D01*
X113199Y225300D01*
Y230298D01*
X115198Y224300D02*
X117197D01*
X116198D01*
Y230298D01*
X115198Y229298D01*
X281293Y272826D02*
X280293Y273826D01*
X278294D01*
X277294Y272826D01*
Y271827D01*
X278294Y270827D01*
X280293D01*
X281293Y269827D01*
Y268828D01*
X280293Y267828D01*
X278294D01*
X277294Y268828D01*
X283292Y273826D02*
Y267828D01*
X285291Y269827D01*
X287291Y267828D01*
Y273826D01*
X293289D02*
X289290D01*
Y270827D01*
X291289Y271827D01*
X292289D01*
X293289Y270827D01*
Y268828D01*
X292289Y267828D01*
X290290D01*
X289290Y268828D01*
X163182Y272826D02*
X162183Y273826D01*
X160183D01*
X159184Y272826D01*
Y271827D01*
X160183Y270827D01*
X162183D01*
X163182Y269827D01*
Y268828D01*
X162183Y267828D01*
X160183D01*
X159184Y268828D01*
X165182Y273826D02*
Y267828D01*
X167181Y269827D01*
X169181Y267828D01*
Y273826D01*
X174179Y267828D02*
Y273826D01*
X171180Y270827D01*
X175179D01*
X222237Y241330D02*
X221238Y242330D01*
X219238D01*
X218239Y241330D01*
Y240331D01*
X219238Y239331D01*
X221238D01*
X222237Y238331D01*
Y237331D01*
X221238Y236332D01*
X219238D01*
X218239Y237331D01*
X224237Y242330D02*
Y236332D01*
X226236Y238331D01*
X228236Y236332D01*
Y242330D01*
X230235Y241330D02*
X231235Y242330D01*
X233234D01*
X234234Y241330D01*
Y240331D01*
X233234Y239331D01*
X232234D01*
X233234D01*
X234234Y238331D01*
Y237331D01*
X233234Y236332D01*
X231235D01*
X230235Y237331D01*
X222237Y272826D02*
X221238Y273826D01*
X219238D01*
X218239Y272826D01*
Y271827D01*
X219238Y270827D01*
X221238D01*
X222237Y269827D01*
Y268828D01*
X221238Y267828D01*
X219238D01*
X218239Y268828D01*
X224237Y273826D02*
Y267828D01*
X226236Y269827D01*
X228236Y267828D01*
Y273826D01*
X234234Y267828D02*
X230235D01*
X234234Y271827D01*
Y272826D01*
X233234Y273826D01*
X231235D01*
X230235Y272826D01*
X223237Y312196D02*
X222237Y313196D01*
X220238D01*
X219238Y312196D01*
Y311197D01*
X220238Y310197D01*
X222237D01*
X223237Y309197D01*
Y308198D01*
X222237Y307198D01*
X220238D01*
X219238Y308198D01*
X225237Y313196D02*
Y307198D01*
X227236Y309197D01*
X229235Y307198D01*
Y313196D01*
X231235Y307198D02*
X233234D01*
X232234D01*
Y313196D01*
X231235Y312196D01*
X215400Y364700D02*
Y370698D01*
X218399D01*
X219399Y369698D01*
Y367699D01*
X218399Y366699D01*
X215400D01*
X217399D02*
X219399Y364700D01*
X221398D02*
X223397D01*
X222398D01*
Y370698D01*
X221398Y369698D01*
X230395Y370698D02*
X228396Y369698D01*
X226396Y367699D01*
Y365700D01*
X227396Y364700D01*
X229396D01*
X230395Y365700D01*
Y366699D01*
X229396Y367699D01*
X226396D01*
X207001Y402998D02*
X212999D01*
Y399998D01*
X211999Y398999D01*
X210000D01*
X209000Y399998D01*
Y402998D01*
Y400998D02*
X207001Y398999D01*
Y397000D02*
Y395000D01*
Y396000D01*
X212999D01*
X211999Y397000D01*
X212999Y388002D02*
Y392001D01*
X210000D01*
X211000Y390002D01*
Y389002D01*
X210000Y388002D01*
X208001D01*
X207001Y389002D01*
Y391001D01*
X208001Y392001D01*
X119200Y433100D02*
Y439098D01*
X122199D01*
X123199Y438098D01*
Y436099D01*
X122199Y435099D01*
X119200D01*
X121199D02*
X123199Y433100D01*
X125198Y438098D02*
X126198Y439098D01*
X128197D01*
X129197Y438098D01*
Y437099D01*
X128197Y436099D01*
X129197Y435099D01*
Y434100D01*
X128197Y433100D01*
X126198D01*
X125198Y434100D01*
Y435099D01*
X126198Y436099D01*
X125198Y437099D01*
Y438098D01*
X126198Y436099D02*
X128197D01*
X166400Y433100D02*
Y439098D01*
X169399D01*
X170399Y438098D01*
Y436099D01*
X169399Y435099D01*
X166400D01*
X168399D02*
X170399Y433100D01*
X172398Y439098D02*
X176397D01*
Y438098D01*
X172398Y434100D01*
Y433100D01*
X166400Y456700D02*
Y462698D01*
X169399D01*
X170399Y461698D01*
Y459699D01*
X169399Y458699D01*
X166400D01*
X168399D02*
X170399Y456700D01*
X176397Y462698D02*
X174397Y461698D01*
X172398Y459699D01*
Y457700D01*
X173398Y456700D01*
X175397D01*
X176397Y457700D01*
Y458699D01*
X175397Y459699D01*
X172398D01*
X119860Y456729D02*
Y462727D01*
X122859D01*
X123859Y461728D01*
Y459728D01*
X122859Y458729D01*
X119860D01*
X121859D02*
X123859Y456729D01*
X129857Y462727D02*
X125858D01*
Y459728D01*
X127857Y460728D01*
X128857D01*
X129857Y459728D01*
Y457729D01*
X128857Y456729D01*
X126858D01*
X125858Y457729D01*
X276600Y433100D02*
Y439098D01*
X279599D01*
X280599Y438098D01*
Y436099D01*
X279599Y435099D01*
X276600D01*
X278599D02*
X280599Y433100D01*
X285597D02*
Y439098D01*
X282598Y436099D01*
X286597D01*
X323900Y433100D02*
Y439098D01*
X326899D01*
X327899Y438098D01*
Y436099D01*
X326899Y435099D01*
X323900D01*
X325899D02*
X327899Y433100D01*
X329898Y438098D02*
X330898Y439098D01*
X332897D01*
X333897Y438098D01*
Y437099D01*
X332897Y436099D01*
X331897D01*
X332897D01*
X333897Y435099D01*
Y434100D01*
X332897Y433100D01*
X330898D01*
X329898Y434100D01*
X323900Y456700D02*
Y462698D01*
X326899D01*
X327899Y461698D01*
Y459699D01*
X326899Y458699D01*
X323900D01*
X325899D02*
X327899Y456700D01*
X333897D02*
X329898D01*
X333897Y460699D01*
Y461698D01*
X332897Y462698D01*
X330898D01*
X329898Y461698D01*
X276600Y456700D02*
Y462698D01*
X279599D01*
X280599Y461698D01*
Y459699D01*
X279599Y458699D01*
X276600D01*
X278599D02*
X280599Y456700D01*
X282598D02*
X284597D01*
X283598D01*
Y462698D01*
X282598Y461698D01*
X322600Y290900D02*
Y296898D01*
X325599D01*
X326599Y295898D01*
Y293899D01*
X325599Y292899D01*
X322600D01*
X328598Y295898D02*
X329598Y296898D01*
X331597D01*
X332597Y295898D01*
Y294899D01*
X331597Y293899D01*
X330597D01*
X331597D01*
X332597Y292899D01*
Y291900D01*
X331597Y290900D01*
X329598D01*
X328598Y291900D01*
X322650Y333350D02*
Y339348D01*
X325649D01*
X326649Y338348D01*
Y336349D01*
X325649Y335349D01*
X322650D01*
X332647Y333350D02*
X328648D01*
X332647Y337349D01*
Y338348D01*
X331647Y339348D01*
X329648D01*
X328648Y338348D01*
X296600Y218900D02*
Y224898D01*
X299599D01*
X300599Y223898D01*
Y221899D01*
X299599Y220899D01*
X296600D01*
X302598Y218900D02*
X304597D01*
X303598D01*
Y224898D01*
X302598Y223898D01*
X259499Y362998D02*
X253501D01*
Y359000D01*
Y354001D02*
X259499D01*
X256500Y357000D01*
Y353002D01*
X203999Y420998D02*
X198001D01*
Y417000D01*
X202999Y415000D02*
X203999Y414001D01*
Y412001D01*
X202999Y411002D01*
X202000D01*
X201000Y412001D01*
Y413001D01*
Y412001D01*
X200000Y411002D01*
X199001D01*
X198001Y412001D01*
Y414001D01*
X199001Y415000D01*
X310501Y286999D02*
X309501Y287999D01*
X307502D01*
X306502Y286999D01*
Y283001D01*
X307502Y282001D01*
X309501D01*
X310501Y283001D01*
X316499Y282001D02*
X312500D01*
X316499Y286000D01*
Y286999D01*
X315499Y287999D01*
X313500D01*
X312500Y286999D01*
X318498Y282001D02*
X320498D01*
X319498D01*
Y287999D01*
X318498Y286999D01*
X192501Y289499D02*
X191502Y290499D01*
X189502D01*
X188503Y289499D01*
Y285501D01*
X189502Y284501D01*
X191502D01*
X192501Y285501D01*
X198499Y284501D02*
X194501D01*
X198499Y288500D01*
Y289499D01*
X197500Y290499D01*
X195500D01*
X194501Y289499D01*
X200499D02*
X201498Y290499D01*
X203498D01*
X204497Y289499D01*
Y285501D01*
X203498Y284501D01*
X201498D01*
X200499Y285501D01*
Y289499D01*
X256999Y255398D02*
X255999Y256398D01*
X254000D01*
X253000Y255398D01*
Y251400D01*
X254000Y250400D01*
X255999D01*
X256999Y251400D01*
X258998Y250400D02*
X260997D01*
X259998D01*
Y256398D01*
X258998Y255398D01*
X263996Y251400D02*
X264996Y250400D01*
X266996D01*
X267995Y251400D01*
Y255398D01*
X266996Y256398D01*
X264996D01*
X263996Y255398D01*
Y254399D01*
X264996Y253399D01*
X267995D01*
X256999Y326298D02*
X255999Y327298D01*
X254000D01*
X253000Y326298D01*
Y322300D01*
X254000Y321300D01*
X255999D01*
X256999Y322300D01*
X258998Y321300D02*
X260997D01*
X259998D01*
Y327298D01*
X258998Y326298D01*
X263996D02*
X264996Y327298D01*
X266996D01*
X267995Y326298D01*
Y325299D01*
X266996Y324299D01*
X267995Y323299D01*
Y322300D01*
X266996Y321300D01*
X264996D01*
X263996Y322300D01*
Y323299D01*
X264996Y324299D01*
X263996Y325299D01*
Y326298D01*
X264996Y324299D02*
X266996D01*
X187999Y361499D02*
X188999Y362498D01*
Y364498D01*
X187999Y365498D01*
X184001D01*
X183001Y364498D01*
Y362498D01*
X184001Y361499D01*
X183001Y359500D02*
Y357500D01*
Y358500D01*
X188999D01*
X187999Y359500D01*
X188999Y350502D02*
X187999Y352502D01*
X186000Y354501D01*
X184001D01*
X183001Y353501D01*
Y351502D01*
X184001Y350502D01*
X185000D01*
X186000Y351502D01*
Y354501D01*
X203501Y371501D02*
X202501Y370501D01*
Y368502D01*
X203501Y367502D01*
X207499D01*
X208499Y368502D01*
Y370501D01*
X207499Y371501D01*
X208499Y373500D02*
Y375500D01*
Y374500D01*
X202501D01*
X203501Y373500D01*
X202501Y382498D02*
Y378499D01*
X205500D01*
X204500Y380498D01*
Y381498D01*
X205500Y382498D01*
X207499D01*
X208499Y381498D01*
Y379499D01*
X207499Y378499D01*
X203429Y188957D02*
X204429Y187958D01*
X206428D01*
X207428Y188957D01*
Y192956D01*
X206428Y193956D01*
X204429D01*
X203429Y192956D01*
X197431Y187958D02*
X199430Y188957D01*
X201430Y190957D01*
Y192956D01*
X200430Y193956D01*
X198431D01*
X197431Y192956D01*
Y191956D01*
X198431Y190957D01*
X201430D01*
X145098Y233101D02*
X146098Y234101D01*
Y236100D01*
X145098Y237100D01*
X141100D01*
X140100Y236100D01*
Y234101D01*
X141100Y233101D01*
X140100Y227103D02*
Y231102D01*
X144099Y227103D01*
X145098D01*
X146098Y228103D01*
Y230102D01*
X145098Y231102D01*
M02*
