M48
;Layer_Color=9474304
;FILE_FORMAT=2:5
INCH,LZ
;TYPE=PLATED
T1F00S00C0.01000
T2F00S00C0.03543
T3F00S00C0.09055
%
T01
X0319Y0309
X02797Y031
X026495Y030115
X02546Y02603
X02505Y0262
X0245Y0267835
X0243Y02715
X02365Y02755
X0229Y02775
X02195Y0279
X02125Y02724
X02174Y02671
X02065Y02535
X0198785Y02534
X0192222Y0246022
X01924Y02397
X01875Y02336
X0191Y022075
X01945Y02235
X01951Y02152
X0204Y02125
X0206Y02195
X02125Y021525
X0212827Y0225
X01996Y02292
X0221007Y0238866
X0227Y0213
X02445Y0225
X0217051Y0187
X0193Y01935
X01875Y020175
X015775Y020175
X01824Y0256
X01815Y0268
X0177Y0292453
X01729Y0301
X01976Y02812
X0141Y02919
X0132453Y027898
X0125Y0272
X0137165Y02645
X01307Y02368
X01305Y0346
X01455Y03459
X01163Y03397
X01194Y04103
X0132496Y0427323
X01456Y04304
X0145375Y0449475
X0128755Y04553
X0155Y03805
X01774Y04059
X01795Y0427485
X0194Y04271
X01955Y0442
X0187164Y0445764
X01682Y04551
X0158746Y0427323
X02175Y04525
X0271Y0450945
X02815Y04574
X0289976Y04495
Y0428573
X02795Y04229
X02748Y04054
X02605Y0382
X026626Y0376134
X0251222Y0385748
X02355Y0373
Y03537
X02255Y0346929
X0217185Y0346665
X02158Y0335
X0210085Y0324
X02181Y03189
X02263Y0324
X0195185Y0343128
X01745Y03379
X0174125Y0333425
X01647Y0336351
Y0341315
X0205815Y03725
X02605Y0341835
X030055Y03238
X032Y03995
X0319976Y0427323
X0314976Y04489
X0302098Y0477998
X02695Y05025
X02555Y0507957
X02818Y05164
X02103Y05117
X0216076Y0529524
T02
X0325Y02725
Y02825
Y0295
Y0305
X0311Y01905
X0301
X0261236Y0333425
X0251236
X0241236
X0231236
X0221236
X0211236
X0201236
X0191236
X0325Y0325
Y0315
X0261236Y049878
X0251236
X0241236
X0231236
X0221236
X0211236
X0201236
X0191236
T03
X0336472Y0255079
X0116
X0336472Y0485
X0116
M30
