G04*
G04 #@! TF.GenerationSoftware,Altium Limited,Altium Designer,20.1.8 (145)*
G04*
G04 Layer_Color=32896*
%FSLAX25Y25*%
%MOIN*%
G70*
G04*
G04 #@! TF.SameCoordinates,EC9590D4-A93B-4016-A152-F587195DA6AB*
G04*
G04*
G04 #@! TF.FilePolarity,Positive*
G04*
G01*
G75*
%ADD10C,0.00787*%
%ADD11C,0.00787*%
%ADD12C,0.00500*%
%ADD13C,0.01000*%
%ADD59C,0.00600*%
D10*
X226213Y229614D02*
X225622Y230205D01*
X225031Y229614D01*
X225622Y229024D01*
X226213Y229614D01*
X326039Y237717D02*
X325252D01*
X326039D01*
X260252Y370803D02*
Y371197D01*
Y370803D02*
X271748D01*
Y371197D01*
X260252D02*
X271748D01*
X260094Y372575D02*
Y377693D01*
X170925Y296276D02*
X174075D01*
X170925Y305724D02*
X174075D01*
X110425Y305547D02*
X113575D01*
X110425Y311453D02*
X113575D01*
X110425Y301224D02*
X113575D01*
X110425Y291776D02*
X113575D01*
X147425Y361724D02*
X150575D01*
X147425Y352276D02*
X150575D01*
X121425D02*
X124575D01*
X121425Y361724D02*
X124575D01*
X284307Y444055D02*
Y447205D01*
X278401Y444055D02*
Y447205D01*
X126827Y444055D02*
Y447205D01*
X120921Y444055D02*
Y447205D01*
X272425Y226953D02*
X275575D01*
X272425Y221047D02*
X275575D01*
X272425Y211953D02*
X275575D01*
X272425Y206047D02*
X275575D01*
X225224Y266425D02*
Y269575D01*
X215776Y266425D02*
Y269575D01*
X202224Y394925D02*
Y398075D01*
X192776Y394925D02*
Y398075D01*
X192622Y410988D02*
X195378D01*
X192547Y372925D02*
Y376075D01*
X198453Y372925D02*
Y376075D01*
X236988Y358122D02*
Y360878D01*
X166394Y392874D02*
Y396024D01*
X175843Y392874D02*
Y396024D01*
X128598Y392874D02*
Y396024D01*
X119150Y392874D02*
Y396024D01*
X333323Y392874D02*
Y396024D01*
X323874Y392874D02*
Y396024D01*
X286079Y392874D02*
Y396024D01*
X276630Y392874D02*
Y396024D01*
X220925Y360724D02*
X224075D01*
X220925Y351276D02*
X224075D01*
X309547Y227425D02*
Y230575D01*
X315453Y227425D02*
Y230575D01*
X198925Y360953D02*
X202075D01*
X198925Y355047D02*
X202075D01*
X121925Y373953D02*
X125075D01*
X121925Y368047D02*
X125075D01*
X147925Y374453D02*
X151075D01*
X147925Y368547D02*
X151075D01*
X170925Y310047D02*
X174075D01*
X170925Y315953D02*
X174075D01*
X160953Y327425D02*
Y330575D01*
X155047Y327425D02*
Y330575D01*
X304425Y198047D02*
X307575D01*
X304425Y203953D02*
X307575D01*
D11*
X143594Y512153D02*
X167138D01*
Y528153D01*
X143594Y528154D02*
X167138D01*
X143594Y512153D02*
Y528153D01*
X190838Y512153D02*
Y528153D01*
Y528154D02*
X214382D01*
Y512153D02*
Y528153D01*
X190838Y512153D02*
X214382D01*
X238082D02*
X261626D01*
Y528153D01*
X238082Y528154D02*
X261626D01*
X238082Y512153D02*
Y528153D01*
X285326Y512153D02*
Y528153D01*
Y528154D02*
X308870D01*
Y512153D02*
Y528153D01*
X285326Y512153D02*
X308870D01*
D12*
X214638Y232173D02*
X216173D01*
Y230638D02*
Y232173D01*
Y203827D02*
Y205362D01*
X214638Y203827D02*
X216173D01*
X187827D02*
X189362D01*
X187827D02*
Y205362D01*
Y230638D02*
Y232173D01*
X189362D01*
X322689Y225311D02*
X346311D01*
X322689Y201689D02*
Y225311D01*
Y201689D02*
X346311D01*
Y225311D01*
X242500Y245000D02*
X262500D01*
Y195000D02*
Y245000D01*
X242500Y195000D02*
X262500D01*
X242500D02*
Y245000D01*
D13*
X112497Y392500D02*
X106499D01*
Y395499D01*
X107499Y396499D01*
X108499D01*
X109498D01*
X110498Y395499D01*
Y392500D01*
Y398498D02*
X107499D01*
X106499Y399498D01*
Y402497D01*
X105500D01*
X104500Y401497D01*
Y400497D01*
X106499Y402497D02*
X110498D01*
X112497Y410494D02*
X106499D01*
X109498D01*
Y414493D01*
X112497D01*
X106499D01*
X110498Y417492D02*
Y419491D01*
X109498Y420491D01*
X106499D01*
Y417492D01*
X107499Y416492D01*
X108499Y417492D01*
Y420491D01*
X110498Y422490D02*
X106499D01*
X108499D01*
X109498Y423490D01*
X110498Y424490D01*
Y425489D01*
Y429488D02*
Y431487D01*
X109498Y432487D01*
X106499D01*
Y429488D01*
X107499Y428488D01*
X108499Y429488D01*
Y432487D01*
X106499Y434486D02*
X112497D01*
X108499D02*
X110498Y437486D01*
X108499Y434486D02*
X106499Y437486D01*
Y440485D02*
Y442484D01*
Y441484D01*
X110498D01*
Y440485D01*
Y445483D02*
X106499Y447482D01*
X110498Y449482D01*
X106499Y451481D02*
Y453480D01*
Y452481D01*
X110498D01*
Y451481D01*
X280001Y371500D02*
X283999D01*
X284999Y370500D01*
Y368501D01*
X283999Y367501D01*
X280001D01*
X279001Y368501D01*
Y370500D01*
X281000Y369501D02*
X279001Y371500D01*
Y370500D02*
X280001Y371500D01*
X279001Y373499D02*
Y375499D01*
Y374499D01*
X284999D01*
X283999Y373499D01*
X255499Y216001D02*
X249501Y220000D01*
X255499D02*
X249501Y216001D01*
Y221999D02*
Y223999D01*
Y222999D01*
X255499D01*
X254499Y221999D01*
X206998Y220999D02*
Y216001D01*
X205999Y215001D01*
X203999D01*
X203000Y216001D01*
Y220999D01*
X197002D02*
X201000D01*
Y218000D01*
X199001Y219000D01*
X198001D01*
X197002Y218000D01*
Y216001D01*
X198001Y215001D01*
X200001D01*
X201000Y216001D01*
X140498Y331999D02*
Y327001D01*
X139499Y326001D01*
X137499D01*
X136500Y327001D01*
Y331999D01*
X131501Y326001D02*
Y331999D01*
X134500Y329000D01*
X130502D01*
X152494Y447999D02*
Y443001D01*
X151495Y442001D01*
X149495D01*
X148496Y443001D01*
Y447999D01*
X146496Y446999D02*
X145497Y447999D01*
X143497D01*
X142498Y446999D01*
Y446000D01*
X143497Y445000D01*
X144497D01*
X143497D01*
X142498Y444000D01*
Y443001D01*
X143497Y442001D01*
X145497D01*
X146496Y443001D01*
X310698Y448499D02*
Y443501D01*
X309699Y442501D01*
X307699D01*
X306700Y443501D01*
Y448499D01*
X300702Y442501D02*
X304700D01*
X300702Y446500D01*
Y447499D01*
X301701Y448499D01*
X303701D01*
X304700Y447499D01*
X338499Y215499D02*
X339498Y216499D01*
X341498D01*
X342497Y215499D01*
Y214500D01*
X341498Y213500D01*
X339498D01*
X338499Y212500D01*
Y211501D01*
X339498Y210501D01*
X341498D01*
X342497Y211501D01*
X336499Y216499D02*
Y210501D01*
X334500Y212500D01*
X332501Y210501D01*
Y216499D01*
X326503D02*
X328502Y215499D01*
X330501Y213500D01*
Y211501D01*
X329502Y210501D01*
X327502D01*
X326503Y211501D01*
Y212500D01*
X327502Y213500D01*
X330501D01*
X231800Y279100D02*
Y285098D01*
X228801D01*
X227801Y284098D01*
Y282099D01*
X228801Y281099D01*
X231800D01*
X229801D02*
X227801Y279100D01*
X221803D02*
X225802D01*
X221803Y283099D01*
Y284098D01*
X222803Y285098D01*
X224802D01*
X225802Y284098D01*
X215805Y279100D02*
X219804D01*
X215805Y283099D01*
Y284098D01*
X216805Y285098D01*
X218804D01*
X219804Y284098D01*
X182418Y405549D02*
Y411547D01*
X179419D01*
X178419Y410547D01*
Y408548D01*
X179419Y407548D01*
X182418D01*
X180419D02*
X178419Y405549D01*
X172421D02*
X176420D01*
X172421Y409548D01*
Y410547D01*
X173421Y411547D01*
X175420D01*
X176420Y410547D01*
X170422D02*
X169422Y411547D01*
X167423D01*
X166423Y410547D01*
Y406549D01*
X167423Y405549D01*
X169422D01*
X170422Y406549D01*
Y410547D01*
X134200Y405500D02*
Y411498D01*
X131201D01*
X130201Y410498D01*
Y408499D01*
X131201Y407499D01*
X134200D01*
X132201D02*
X130201Y405500D01*
X128202D02*
X126203D01*
X127202D01*
Y411498D01*
X128202Y410498D01*
X123204Y406500D02*
X122204Y405500D01*
X120204D01*
X119205Y406500D01*
Y410498D01*
X120204Y411498D01*
X122204D01*
X123204Y410498D01*
Y409499D01*
X122204Y408499D01*
X119205D01*
X338900Y405500D02*
Y411498D01*
X335901D01*
X334901Y410498D01*
Y408499D01*
X335901Y407499D01*
X338900D01*
X336901D02*
X334901Y405500D01*
X332902D02*
X330903D01*
X331902D01*
Y411498D01*
X332902Y410498D01*
X327904D02*
X326904Y411498D01*
X324904D01*
X323905Y410498D01*
Y409499D01*
X324904Y408499D01*
X323905Y407499D01*
Y406500D01*
X324904Y405500D01*
X326904D01*
X327904Y406500D01*
Y407499D01*
X326904Y408499D01*
X327904Y409499D01*
Y410498D01*
X326904Y408499D02*
X324904D01*
X291600Y405500D02*
Y411498D01*
X288601D01*
X287601Y410498D01*
Y408499D01*
X288601Y407499D01*
X291600D01*
X289601D02*
X287601Y405500D01*
X285602D02*
X283603D01*
X284602D01*
Y411498D01*
X285602Y410498D01*
X280604Y411498D02*
X276605D01*
Y410498D01*
X280604Y406500D01*
Y405500D01*
X207001Y388502D02*
X212999D01*
Y391501D01*
X211999Y392501D01*
X210000D01*
X209000Y391501D01*
Y388502D01*
Y390502D02*
X207001Y392501D01*
Y394500D02*
Y396500D01*
Y395500D01*
X212999D01*
X211999Y394500D01*
X207001Y402498D02*
X212999D01*
X210000Y399499D01*
Y403498D01*
X230498Y364501D02*
Y370499D01*
X227499D01*
X226499Y369499D01*
Y367500D01*
X227499Y366500D01*
X230498D01*
X228498D02*
X226499Y364501D01*
X224500D02*
X222500D01*
X223500D01*
Y370499D01*
X224500Y369499D01*
X219501D02*
X218501Y370499D01*
X216502D01*
X215502Y369499D01*
Y368500D01*
X216502Y367500D01*
X217502D01*
X216502D01*
X215502Y366500D01*
Y365501D01*
X216502Y364501D01*
X218501D01*
X219501Y365501D01*
X110499Y364498D02*
X104501D01*
Y361498D01*
X105501Y360499D01*
X107500D01*
X108500Y361498D01*
Y364498D01*
Y362498D02*
X110499Y360499D01*
Y358500D02*
Y356500D01*
Y357500D01*
X104501D01*
X105501Y358500D01*
X110499Y349502D02*
Y353501D01*
X106500Y349502D01*
X105501D01*
X104501Y350502D01*
Y352502D01*
X105501Y353501D01*
X165499Y362998D02*
X159501D01*
Y359999D01*
X160501Y358999D01*
X162500D01*
X163500Y359999D01*
Y362998D01*
Y360999D02*
X165499Y358999D01*
Y357000D02*
Y355000D01*
Y356000D01*
X159501D01*
X160501Y357000D01*
X165499Y352002D02*
Y350002D01*
Y351002D01*
X159501D01*
X160501Y352002D01*
X180498Y287001D02*
Y292999D01*
X177498D01*
X176499Y291999D01*
Y290000D01*
X177498Y289000D01*
X180498D01*
X178498D02*
X176499Y287001D01*
X174499D02*
X172500D01*
X173500D01*
Y292999D01*
X174499Y291999D01*
X169501D02*
X168501Y292999D01*
X166502D01*
X165502Y291999D01*
Y288001D01*
X166502Y287001D01*
X168501D01*
X169501Y288001D01*
Y291999D01*
X117498Y283001D02*
Y288999D01*
X114499D01*
X113500Y287999D01*
Y286000D01*
X114499Y285000D01*
X117498D01*
X115499D02*
X113500Y283001D01*
X111500Y284001D02*
X110501Y283001D01*
X108501D01*
X107502Y284001D01*
Y287999D01*
X108501Y288999D01*
X110501D01*
X111500Y287999D01*
Y287000D01*
X110501Y286000D01*
X107502D01*
X198501Y420998D02*
X204499D01*
Y417000D01*
Y411002D02*
Y415000D01*
X200500Y411002D01*
X199501D01*
X198501Y412001D01*
Y414001D01*
X199501Y415000D01*
X253501Y362999D02*
X259499D01*
Y359000D01*
Y357001D02*
Y355001D01*
Y356001D01*
X253501D01*
X254501Y357001D01*
X320601Y245098D02*
X321601Y246098D01*
X323600D01*
X324600Y245098D01*
Y241100D01*
X323600Y240100D01*
X321601D01*
X320601Y241100D01*
X318602Y240100D02*
X316603D01*
X317602D01*
Y246098D01*
X318602Y245098D01*
X313604Y246098D02*
X309605D01*
Y245098D01*
X313604Y241100D01*
Y240100D01*
X187999Y371001D02*
X188999Y370002D01*
Y368002D01*
X187999Y367002D01*
X184001D01*
X183001Y368002D01*
Y370002D01*
X184001Y371001D01*
X183001Y373001D02*
Y375000D01*
Y374000D01*
X188999D01*
X187999Y373001D01*
X183001Y380998D02*
X188999D01*
X186000Y377999D01*
Y381998D01*
X184001Y361499D02*
X183001Y362498D01*
Y364498D01*
X184001Y365498D01*
X187999D01*
X188999Y364498D01*
Y362498D01*
X187999Y361499D01*
X188999Y359500D02*
Y357500D01*
Y358500D01*
X183001D01*
X184001Y359500D01*
Y354501D02*
X183001Y353502D01*
Y351502D01*
X184001Y350502D01*
X185000D01*
X186000Y351502D01*
Y352502D01*
Y351502D01*
X187000Y350502D01*
X187999D01*
X188999Y351502D01*
Y353502D01*
X187999Y354501D01*
X127401Y382898D02*
X128401Y383898D01*
X130400D01*
X131400Y382898D01*
Y378900D01*
X130400Y377900D01*
X128401D01*
X127401Y378900D01*
X125402Y377900D02*
X123403D01*
X124402D01*
Y383898D01*
X125402Y382898D01*
X116405Y377900D02*
X120404D01*
X116405Y381899D01*
Y382898D01*
X117404Y383898D01*
X119404D01*
X120404Y382898D01*
X151401Y383398D02*
X152401Y384398D01*
X154400D01*
X155400Y383398D01*
Y379400D01*
X154400Y378400D01*
X152401D01*
X151401Y379400D01*
X149402Y378400D02*
X147403D01*
X148402D01*
Y384398D01*
X149402Y383398D01*
X144404Y378400D02*
X142404D01*
X143404D01*
Y384398D01*
X144404Y383398D01*
X176401Y324898D02*
X177401Y325898D01*
X179400D01*
X180400Y324898D01*
Y320900D01*
X179400Y319900D01*
X177401D01*
X176401Y320900D01*
X174402Y319900D02*
X172403D01*
X173402D01*
Y325898D01*
X174402Y324898D01*
X169404D02*
X168404Y325898D01*
X166404D01*
X165405Y324898D01*
Y320900D01*
X166404Y319900D01*
X168404D01*
X169404Y320900D01*
Y324898D01*
X113500Y318999D02*
X114499Y319999D01*
X116499D01*
X117498Y318999D01*
Y315001D01*
X116499Y314001D01*
X114499D01*
X113500Y315001D01*
X111500D02*
X110501Y314001D01*
X108501D01*
X107502Y315001D01*
Y318999D01*
X108501Y319999D01*
X110501D01*
X111500Y318999D01*
Y318000D01*
X110501Y317000D01*
X107502D01*
X275000Y235499D02*
X275999Y236499D01*
X277999D01*
X278998Y235499D01*
Y231501D01*
X277999Y230501D01*
X275999D01*
X275000Y231501D01*
X273000Y235499D02*
X272001Y236499D01*
X270001D01*
X269002Y235499D01*
Y234500D01*
X270001Y233500D01*
X269002Y232500D01*
Y231501D01*
X270001Y230501D01*
X272001D01*
X273000Y231501D01*
Y232500D01*
X272001Y233500D01*
X273000Y234500D01*
Y235499D01*
X272001Y233500D02*
X270001D01*
X275500Y200999D02*
X276499Y201999D01*
X278499D01*
X279498Y200999D01*
Y197001D01*
X278499Y196001D01*
X276499D01*
X275500Y197001D01*
X273500Y201999D02*
X269502D01*
Y200999D01*
X273500Y197001D01*
Y196001D01*
X161101Y345098D02*
X162101Y346098D01*
X164100D01*
X165100Y345098D01*
Y341100D01*
X164100Y340100D01*
X162101D01*
X161101Y341100D01*
X155103Y346098D02*
X159102D01*
Y343099D01*
X157103Y344099D01*
X156103D01*
X155103Y343099D01*
Y341100D01*
X156103Y340100D01*
X158102D01*
X159102Y341100D01*
X124500Y459999D02*
X125499Y460999D01*
X127499D01*
X128498Y459999D01*
Y456001D01*
X127499Y455001D01*
X125499D01*
X124500Y456001D01*
X119501Y455001D02*
Y460999D01*
X122500Y458000D01*
X118502D01*
X282000Y459999D02*
X282999Y460999D01*
X284999D01*
X285998Y459999D01*
Y456001D01*
X284999Y455001D01*
X282999D01*
X282000Y456001D01*
X280000Y459999D02*
X279001Y460999D01*
X277001D01*
X276002Y459999D01*
Y459000D01*
X277001Y458000D01*
X278001D01*
X277001D01*
X276002Y457000D01*
Y456001D01*
X277001Y455001D01*
X279001D01*
X280000Y456001D01*
X302901Y212898D02*
X303901Y213898D01*
X305900D01*
X306900Y212898D01*
Y208900D01*
X305900Y207900D01*
X303901D01*
X302901Y208900D01*
X300902Y207900D02*
X298903D01*
X299902D01*
Y213898D01*
X300902Y212898D01*
D59*
X152700Y330200D02*
X151851Y329849D01*
X151500Y329000D01*
X151851Y328151D01*
X152700Y327800D01*
X130296Y444430D02*
X131145Y444781D01*
X131496Y445630D01*
X131145Y446478D01*
X130296Y446830D01*
X287776Y444430D02*
X288625Y444781D01*
X288976Y445630D01*
X288625Y446478D01*
X287776Y446830D01*
X152700Y323700D02*
Y327800D01*
Y330200D01*
Y334300D01*
X118300Y323700D02*
Y334300D01*
X130296Y446830D02*
Y450930D01*
Y444430D02*
Y446830D01*
Y440330D02*
Y444430D01*
X164696Y440330D02*
Y450930D01*
X322176Y440330D02*
Y450930D01*
X287776Y440330D02*
Y444430D01*
Y446830D01*
Y450930D01*
M02*
