G04*
G04 #@! TF.GenerationSoftware,Altium Limited,Altium Designer,20.1.8 (145)*
G04*
G04 Layer_Color=8421504*
%FSLAX25Y25*%
%MOIN*%
G70*
G04*
G04 #@! TF.SameCoordinates,EC9590D4-A93B-4016-A152-F587195DA6AB*
G04*
G04*
G04 #@! TF.FilePolarity,Positive*
G04*
G01*
G75*
%ADD14R,0.05000X0.12520*%
%ADD15R,0.04331X0.10236*%
%ADD16R,0.06693X0.04331*%
%ADD17R,0.03150X0.03543*%
G04:AMPARAMS|DCode=18|XSize=36.61mil|YSize=51.58mil|CornerRadius=2.75mil|HoleSize=0mil|Usage=FLASHONLY|Rotation=90.000|XOffset=0mil|YOffset=0mil|HoleType=Round|Shape=RoundedRectangle|*
%AMROUNDEDRECTD18*
21,1,0.03661,0.04608,0,0,90.0*
21,1,0.03112,0.05158,0,0,90.0*
1,1,0.00549,0.02304,0.01556*
1,1,0.00549,0.02304,-0.01556*
1,1,0.00549,-0.02304,-0.01556*
1,1,0.00549,-0.02304,0.01556*
%
%ADD18ROUNDEDRECTD18*%
G04:AMPARAMS|DCode=19|XSize=127.56mil|YSize=51.58mil|CornerRadius=3.87mil|HoleSize=0mil|Usage=FLASHONLY|Rotation=90.000|XOffset=0mil|YOffset=0mil|HoleType=Round|Shape=RoundedRectangle|*
%AMROUNDEDRECTD19*
21,1,0.12756,0.04384,0,0,90.0*
21,1,0.11982,0.05158,0,0,90.0*
1,1,0.00774,0.02192,0.05991*
1,1,0.00774,0.02192,-0.05991*
1,1,0.00774,-0.02192,-0.05991*
1,1,0.00774,-0.02192,0.05991*
%
%ADD19ROUNDEDRECTD19*%
%ADD20R,0.10236X0.04331*%
%ADD21R,0.03543X0.03150*%
%ADD22R,0.04331X0.06693*%
G04:AMPARAMS|DCode=23|XSize=82.68mil|YSize=54.33mil|CornerRadius=4.08mil|HoleSize=0mil|Usage=FLASHONLY|Rotation=0.000|XOffset=0mil|YOffset=0mil|HoleType=Round|Shape=RoundedRectangle|*
%AMROUNDEDRECTD23*
21,1,0.08268,0.04618,0,0,0.0*
21,1,0.07453,0.05433,0,0,0.0*
1,1,0.00815,0.03726,-0.02309*
1,1,0.00815,-0.03726,-0.02309*
1,1,0.00815,-0.03726,0.02309*
1,1,0.00815,0.03726,0.02309*
%
%ADD23ROUNDEDRECTD23*%
D14*
X150366Y520189D02*
D03*
X160366D02*
D03*
X207610D02*
D03*
X197610D02*
D03*
X244854D02*
D03*
X254854D02*
D03*
X302098D02*
D03*
X292098D02*
D03*
D15*
X260685Y392500D02*
D03*
X271315D02*
D03*
X217185Y356000D02*
D03*
X227815D02*
D03*
D16*
X315016Y265512D02*
D03*
Y276142D02*
D03*
X255961Y265512D02*
D03*
Y276142D02*
D03*
X195500Y379815D02*
D03*
Y369185D02*
D03*
X196906Y276142D02*
D03*
Y265512D02*
D03*
X255961Y244646D02*
D03*
Y234016D02*
D03*
Y315512D02*
D03*
Y304882D02*
D03*
D17*
X239744Y359500D02*
D03*
X245256D02*
D03*
D18*
X138169Y197984D02*
D03*
Y207000D02*
D03*
Y216016D02*
D03*
D19*
X111831Y207000D02*
D03*
D20*
X197500Y391185D02*
D03*
Y401815D02*
D03*
X171118Y416693D02*
D03*
Y427323D02*
D03*
X123874Y416693D02*
D03*
Y427323D02*
D03*
Y440315D02*
D03*
Y450945D02*
D03*
X171118Y440315D02*
D03*
Y450945D02*
D03*
X281354Y416693D02*
D03*
Y427323D02*
D03*
X328598Y416693D02*
D03*
Y427323D02*
D03*
Y440315D02*
D03*
Y450945D02*
D03*
X281354Y440315D02*
D03*
Y450945D02*
D03*
D21*
X194000Y419256D02*
D03*
Y413744D02*
D03*
D22*
X205815Y358000D02*
D03*
X195185D02*
D03*
X207315Y200000D02*
D03*
X196685D02*
D03*
X123685Y230000D02*
D03*
X134315D02*
D03*
D23*
X303205Y279646D02*
D03*
Y262008D02*
D03*
X267378Y279646D02*
D03*
Y262008D02*
D03*
X244150Y319016D02*
D03*
Y301378D02*
D03*
X208323Y319016D02*
D03*
Y301378D02*
D03*
X185095Y279646D02*
D03*
Y262008D02*
D03*
X149268Y279646D02*
D03*
Y262008D02*
D03*
X244150Y279646D02*
D03*
Y262008D02*
D03*
X208323Y279646D02*
D03*
Y262008D02*
D03*
X244150Y248150D02*
D03*
Y230512D02*
D03*
X208323Y248150D02*
D03*
Y230512D02*
D03*
M02*
