G04*
G04 #@! TF.GenerationSoftware,Altium Limited,Altium Designer,20.1.8 (145)*
G04*
G04 Layer_Physical_Order=1*
G04 Layer_Color=255*
%FSLAX25Y25*%
%MOIN*%
G70*
G04*
G04 #@! TF.SameCoordinates,EC9590D4-A93B-4016-A152-F587195DA6AB*
G04*
G04*
G04 #@! TF.FilePolarity,Positive*
G04*
G01*
G75*
%ADD13C,0.01000*%
%ADD14R,0.05000X0.12520*%
%ADD15R,0.04331X0.10236*%
%ADD16R,0.06693X0.04331*%
%ADD17R,0.03150X0.03543*%
G04:AMPARAMS|DCode=18|XSize=36.61mil|YSize=51.58mil|CornerRadius=2.75mil|HoleSize=0mil|Usage=FLASHONLY|Rotation=90.000|XOffset=0mil|YOffset=0mil|HoleType=Round|Shape=RoundedRectangle|*
%AMROUNDEDRECTD18*
21,1,0.03661,0.04608,0,0,90.0*
21,1,0.03112,0.05158,0,0,90.0*
1,1,0.00549,0.02304,0.01556*
1,1,0.00549,0.02304,-0.01556*
1,1,0.00549,-0.02304,-0.01556*
1,1,0.00549,-0.02304,0.01556*
%
%ADD18ROUNDEDRECTD18*%
G04:AMPARAMS|DCode=19|XSize=127.56mil|YSize=51.58mil|CornerRadius=3.87mil|HoleSize=0mil|Usage=FLASHONLY|Rotation=90.000|XOffset=0mil|YOffset=0mil|HoleType=Round|Shape=RoundedRectangle|*
%AMROUNDEDRECTD19*
21,1,0.12756,0.04384,0,0,90.0*
21,1,0.11982,0.05158,0,0,90.0*
1,1,0.00774,0.02192,0.05991*
1,1,0.00774,0.02192,-0.05991*
1,1,0.00774,-0.02192,-0.05991*
1,1,0.00774,-0.02192,0.05991*
%
%ADD19ROUNDEDRECTD19*%
%ADD20R,0.10236X0.04331*%
%ADD21R,0.03543X0.03150*%
%ADD22R,0.04331X0.06693*%
G04:AMPARAMS|DCode=23|XSize=82.68mil|YSize=54.33mil|CornerRadius=4.08mil|HoleSize=0mil|Usage=FLASHONLY|Rotation=0.000|XOffset=0mil|YOffset=0mil|HoleType=Round|Shape=RoundedRectangle|*
%AMROUNDEDRECTD23*
21,1,0.08268,0.04618,0,0,0.0*
21,1,0.07453,0.05433,0,0,0.0*
1,1,0.00815,0.03726,-0.02309*
1,1,0.00815,-0.03726,-0.02309*
1,1,0.00815,-0.03726,0.02309*
1,1,0.00815,0.03726,0.02309*
%
%ADD23ROUNDEDRECTD23*%
%ADD39C,0.02756*%
%ADD40R,0.05906X0.05906*%
%ADD41C,0.05906*%
%ADD42R,0.05906X0.05906*%
%ADD43C,0.19685*%
%ADD44C,0.02756*%
D13*
X255000Y331473D02*
X255356Y332420D01*
X255476Y333425D01*
X255356Y334430D01*
X255000Y335378D01*
X195185Y358000D02*
Y369185D01*
X133815Y230000D02*
Y240034D01*
X260500Y341835D02*
Y382000D01*
Y392500D01*
X195185Y343128D02*
Y358000D01*
X255000Y335378D02*
Y434945D01*
Y330250D02*
Y331473D01*
Y434945D02*
X271000Y450945D01*
X253750Y329000D02*
X255000Y330250D01*
X217185Y346665D02*
Y356000D01*
X210085Y319016D02*
Y324000D01*
X207107Y317800D02*
X208323Y319016D01*
X133815Y240034D02*
X136165Y242385D01*
X274800Y311000D02*
Y405400D01*
X264950Y301150D02*
X274800Y311000D01*
Y405400D02*
Y438415D01*
X245661Y329000D02*
X253750D01*
X241236Y333425D02*
X245661Y329000D01*
X235500Y373000D02*
X238500D01*
X245256Y359500D02*
Y366244D01*
X238500Y373000D02*
X245256Y366244D01*
X225500Y331297D02*
Y346929D01*
X100252Y184213D02*
X352220D01*
X135685Y532244D02*
X316787D01*
Y500748D02*
X352220D01*
X100252D02*
X135685D01*
X352220Y184213D02*
Y500748D01*
X135685D02*
Y532244D01*
X316787Y500748D02*
Y532244D01*
X100252Y184213D02*
Y500748D01*
X193831Y223500D02*
X194500D01*
X182500Y234831D02*
X193831Y223500D01*
X182500Y234831D02*
Y251000D01*
X194565Y226535D02*
X200704D01*
X187500Y233600D02*
X194565Y226535D01*
X202800Y228631D02*
Y236250D01*
X200704Y226535D02*
X202800Y228631D01*
X132000Y416693D02*
X155000Y393693D01*
Y380500D02*
Y393693D01*
X320000Y399500D02*
Y414193D01*
X322500Y416693D01*
X305307Y399500D02*
X320000D01*
X300550Y394743D02*
X305307Y399500D01*
X300550Y323800D02*
Y394743D01*
X125000Y325400D02*
X145500Y345900D01*
X125000Y272000D02*
Y325400D01*
X129787Y238188D02*
Y293187D01*
Y238188D02*
X130700Y237275D01*
Y236800D02*
Y237275D01*
X132453Y278980D02*
Y291753D01*
X174125Y333425D01*
X137000Y264665D02*
Y281043D01*
Y264665D02*
X137165Y264500D01*
X137000Y281043D02*
X173757Y317800D01*
X216996Y453004D02*
Y505004D01*
Y453004D02*
X217500Y452500D01*
X221236Y333425D02*
Y498780D01*
X210300Y511700D02*
X216996Y505004D01*
X129787Y293187D02*
X174500Y337900D01*
X217400Y267100D02*
X222553Y272253D01*
X187665Y256165D02*
X221751D01*
X182500Y251000D02*
X187665Y256165D01*
X234000Y268414D02*
Y273000D01*
X221751Y256165D02*
X234000Y268414D01*
X184400Y258000D02*
X221058D01*
X181500Y268000D02*
X184327Y270827D01*
X203227D02*
X206900Y274500D01*
X184327Y270827D02*
X203227D01*
X219500Y279000D02*
Y283492D01*
X208323Y294669D02*
Y301378D01*
Y294669D02*
X219500Y283492D01*
X213800Y273700D02*
Y283500D01*
X197980Y299320D02*
X213800Y283500D01*
X210547Y301418D02*
X210824Y300870D01*
X210178Y300673D02*
X210824Y300870D01*
X209473Y301378D02*
X210178Y300673D01*
X208323Y301378D02*
X209473D01*
X177000Y225617D02*
Y292453D01*
X213534Y242117D02*
X242917Y271500D01*
X243000D01*
X234000Y273000D02*
X236500Y275500D01*
X240396Y274165D02*
X245835D01*
X236000Y269769D02*
X240396Y274165D01*
X236000Y267110D02*
Y269769D01*
X245835Y274165D02*
X249000Y271000D01*
X231500Y274823D02*
X236323Y279646D01*
X244150D01*
X231500Y268442D02*
Y274823D01*
X222538Y262008D02*
X229000Y268470D01*
Y277500D01*
X244150Y262008D02*
X245000Y262858D01*
X249000Y271000D02*
X259000D01*
X262900Y274900D01*
X208667Y242117D02*
X213534D01*
X193000Y193500D02*
X196685D01*
X265961Y262008D02*
X267378D01*
X264043Y507957D02*
X269500Y502500D01*
X255500Y507957D02*
X264043D01*
X156750Y201750D02*
X157750D01*
X202163Y210663D02*
X204000Y212500D01*
X182610Y210663D02*
X202163D01*
X166000Y227272D02*
X182610Y210663D01*
X208323Y225734D02*
Y225823D01*
X164700Y341315D02*
Y411300D01*
Y336351D02*
Y341315D01*
X279500Y416693D02*
Y422900D01*
X168200Y450945D02*
Y455100D01*
X206900Y274500D02*
Y279646D01*
X250500Y249900D02*
Y262000D01*
Y246250D02*
Y249900D01*
X204957Y251516D02*
X206775Y253335D01*
X204150Y250710D02*
X204957Y251516D01*
X204150Y248150D02*
Y250710D01*
Y248150D02*
X208323D01*
X194350D02*
X204150D01*
X281800Y516400D02*
X292098D01*
X141000Y291900D02*
X171900Y322800D01*
X190611D01*
X201236Y333425D01*
X187417Y215200D02*
X195100D01*
X177000Y225617D02*
X187417Y215200D01*
X218100Y318900D02*
Y329600D01*
X215800Y331900D02*
X218100Y329600D01*
X215800Y331900D02*
Y335000D01*
X229361Y230512D02*
X244150D01*
X221007Y238866D02*
X229361Y230512D01*
X208323Y262008D02*
X222538D01*
X145600Y430400D02*
X164700Y411300D01*
X123874Y416693D02*
X132000D01*
X191000Y220750D02*
X194508D01*
X197765Y217492D01*
Y214046D02*
Y217492D01*
X196204Y212485D02*
X197765Y214046D01*
X184115Y212485D02*
X196204D01*
X174200Y222400D02*
X184115Y212485D01*
X174200Y222400D02*
Y260500D01*
X155054Y279646D02*
X174200Y260500D01*
X149268Y279646D02*
X155054D01*
X119400Y357100D02*
X130500Y346000D01*
X119400Y357100D02*
Y410300D01*
X205815Y358000D02*
Y372500D01*
X143750Y445764D02*
X187164D01*
X142058Y447456D02*
X143750Y445764D01*
X142058Y447456D02*
Y484358D01*
X150366Y492666D01*
Y520189D01*
X197610Y514300D02*
Y520189D01*
X195500Y512190D02*
X197610Y514300D01*
X195500Y442000D02*
Y512190D01*
X201236Y333425D02*
Y345468D01*
X209268Y353500D01*
Y373832D01*
X206800Y376300D02*
X209268Y373832D01*
X190900Y376300D02*
X206800D01*
X185200Y382000D02*
X190900Y376300D01*
X185200Y382000D02*
Y424800D01*
X201236Y440836D01*
Y498780D01*
X231236Y333425D02*
Y347500D01*
X229142Y349594D02*
X231236Y347500D01*
X224400Y349594D02*
X229142D01*
X224300Y349694D02*
X224400Y349594D01*
X224300Y349694D02*
Y491843D01*
X231236Y498780D01*
X211236D02*
X213700Y496316D01*
Y337100D02*
Y496316D01*
Y337100D02*
X215800Y335000D01*
X182700Y341961D02*
X191236Y333425D01*
X182700Y341961D02*
Y425000D01*
X191236Y433536D01*
Y498780D01*
X136165Y242385D02*
Y256224D01*
X141949Y262008D01*
X149268D01*
X244150Y230512D02*
X247653Y234016D01*
X255961D01*
X303205Y262008D02*
X307300D01*
X310804Y265512D01*
X315016D01*
X204304Y262008D02*
X208323D01*
X200800Y265512D02*
X204304Y262008D01*
X196906Y265512D02*
X200800D01*
X192704D02*
X196906D01*
X189200Y262008D02*
X192704Y265512D01*
X185095Y262008D02*
X189200D01*
X195185Y369185D02*
X195500D01*
X279500Y416693D02*
X281354D01*
X157400Y285500D02*
X172900Y301000D01*
X145700Y285500D02*
X157400D01*
X143800Y283600D02*
X145700Y285500D01*
X143800Y276250D02*
Y283600D01*
Y276250D02*
X166000Y254050D01*
Y227272D02*
Y254050D01*
X279700Y310000D02*
X295100Y325400D01*
Y438750D01*
X296665Y440315D01*
X328598D01*
X118500Y187000D02*
X217051D01*
X104800Y200700D02*
X118500Y187000D01*
X104800Y200700D02*
Y328200D01*
X116300Y339700D01*
X179500Y427485D02*
Y438750D01*
X177935Y440315D02*
X179500Y438750D01*
X171118Y440315D02*
X177935D01*
X208323Y319016D02*
X210085D01*
X226300Y324000D02*
X231284Y319016D01*
X244150D01*
X248300D01*
X251804Y315512D01*
X255961D01*
X173757Y317800D02*
X207107D01*
X180946Y279646D02*
X185095D01*
X178818Y277518D02*
X180946Y279646D01*
X178818Y232932D02*
Y277518D01*
Y232932D02*
X191000Y220750D01*
X185095Y279646D02*
X189200D01*
X192704Y276142D01*
X196906D01*
X192400Y239700D02*
X196604Y243904D01*
X212794D01*
X236000Y267110D01*
X262900Y274900D02*
Y279546D01*
X263000Y279646D01*
X267378D01*
X303205D01*
X307300D01*
X310804Y276142D01*
X315016D01*
X194000Y405315D02*
X197500Y401815D01*
X194000Y405315D02*
Y413744D01*
X227815Y356000D02*
X231315Y359500D01*
X239744D01*
X254600Y260300D02*
X275900Y239000D01*
Y223100D02*
Y239000D01*
Y223100D02*
X306586Y192414D01*
Y186300D02*
Y192414D01*
Y186300D02*
X306686Y186200D01*
X315200D01*
X325000Y196000D01*
Y272500D01*
X276700Y440315D02*
X281354D01*
X274800Y438415D02*
X276700Y440315D01*
X281354Y450945D02*
X288531D01*
X289976Y449500D01*
X314976Y448900D02*
X317021Y450945D01*
X328598D01*
X322500Y416693D02*
X328598D01*
X319976Y427323D02*
X328598D01*
X281354D02*
X288726D01*
X289976Y428573D01*
X118750Y440315D02*
X123874D01*
X117400Y438965D02*
X118750Y440315D01*
X117400Y412300D02*
Y438965D01*
Y412300D02*
X119400Y410300D01*
X123874Y450945D02*
X124400D01*
X128755Y455300D01*
X168200Y450945D02*
X171118D01*
X177400Y405900D02*
Y416593D01*
X177300Y416693D02*
X177400Y416593D01*
X171118Y416693D02*
X177300D01*
X158746Y427323D02*
X171118D01*
X123874D02*
X132496D01*
X212500Y272400D02*
X213800Y273700D01*
X197980Y299320D02*
Y303652D01*
X206828Y312500D01*
X215765D01*
X220765Y317500D01*
Y326563D01*
X225500Y331297D01*
X222553Y272253D02*
Y325822D01*
X223396Y326665D01*
X230473D01*
X235500Y331693D01*
Y353700D01*
X197500Y391185D02*
X204118D01*
X211055Y384248D01*
Y341725D02*
Y384248D01*
X206996Y337665D02*
X211055Y341725D01*
X206996Y330939D02*
Y337665D01*
Y330939D02*
X214112Y323823D01*
Y316362D02*
Y323823D01*
X212750Y315000D02*
X214112Y316362D01*
X205714Y315000D02*
X212750D01*
X196100Y305386D02*
X205714Y315000D01*
X196100Y282700D02*
Y305386D01*
Y282700D02*
X197600Y281200D01*
X191250Y253400D02*
X198785D01*
X189500Y251650D02*
X191250Y253400D01*
X189500Y238750D02*
Y251650D01*
Y238750D02*
X199050Y229200D01*
X199600D01*
X221058Y258000D02*
X231500Y268442D01*
X182400Y256000D02*
X184400Y258000D01*
X206900Y279646D02*
X208323D01*
X244150D02*
X248300D01*
X251804Y276142D01*
X255961D01*
X252104Y244646D02*
X255961D01*
X250500Y246250D02*
X252104Y244646D01*
X244150Y248150D02*
X248750D01*
X250500Y249900D01*
X192222Y246022D02*
X194350Y248150D01*
X202800Y236250D02*
X208667Y242117D01*
X319000Y309000D02*
X325000Y315000D01*
X182500Y190500D02*
X301000D01*
X156984Y216016D02*
X182500Y190500D01*
X138169Y216016D02*
X156984D01*
X194000Y419256D02*
Y427100D01*
X191063Y419256D02*
X194000D01*
X190185Y418378D02*
X191063Y419256D01*
X190185Y381250D02*
Y418378D01*
Y381250D02*
X191620Y379815D01*
X195500D01*
X216076Y529524D02*
X242831D01*
X244854Y527500D01*
Y520189D02*
Y527500D01*
X292098Y516400D02*
Y520189D01*
D14*
X150366D02*
D03*
X160366D02*
D03*
X207610D02*
D03*
X197610D02*
D03*
X244854D02*
D03*
X254854D02*
D03*
X302098D02*
D03*
X292098D02*
D03*
D15*
X260685Y392500D02*
D03*
X271315D02*
D03*
X217185Y356000D02*
D03*
X227815D02*
D03*
D16*
X315016Y265512D02*
D03*
Y276142D02*
D03*
X255961Y265512D02*
D03*
Y276142D02*
D03*
X195500Y379815D02*
D03*
Y369185D02*
D03*
X196906Y276142D02*
D03*
Y265512D02*
D03*
X255961Y244646D02*
D03*
Y234016D02*
D03*
Y315512D02*
D03*
Y304882D02*
D03*
D17*
X239744Y359500D02*
D03*
X245256D02*
D03*
D18*
X138169Y197984D02*
D03*
Y207000D02*
D03*
Y216016D02*
D03*
D19*
X111831Y207000D02*
D03*
D20*
X197500Y391185D02*
D03*
Y401815D02*
D03*
X171118Y416693D02*
D03*
Y427323D02*
D03*
X123874Y416693D02*
D03*
Y427323D02*
D03*
Y440315D02*
D03*
Y450945D02*
D03*
X171118Y440315D02*
D03*
Y450945D02*
D03*
X281354Y416693D02*
D03*
Y427323D02*
D03*
X328598Y416693D02*
D03*
Y427323D02*
D03*
Y440315D02*
D03*
Y450945D02*
D03*
X281354Y440315D02*
D03*
Y450945D02*
D03*
D21*
X194000Y419256D02*
D03*
Y413744D02*
D03*
D22*
X205815Y358000D02*
D03*
X195185D02*
D03*
X207315Y200000D02*
D03*
X196685D02*
D03*
X123685Y230000D02*
D03*
X134315D02*
D03*
D23*
X303205Y279646D02*
D03*
Y262008D02*
D03*
X267378Y279646D02*
D03*
Y262008D02*
D03*
X244150Y319016D02*
D03*
Y301378D02*
D03*
X208323Y319016D02*
D03*
Y301378D02*
D03*
X185095Y279646D02*
D03*
Y262008D02*
D03*
X149268Y279646D02*
D03*
Y262008D02*
D03*
X244150Y279646D02*
D03*
Y262008D02*
D03*
X208323Y279646D02*
D03*
Y262008D02*
D03*
X244150Y248150D02*
D03*
Y230512D02*
D03*
X208323Y248150D02*
D03*
Y230512D02*
D03*
D39*
X251236Y333425D02*
Y498780D01*
X133815Y223315D02*
Y230000D01*
X182000Y198000D02*
X196685D01*
X266260Y376134D02*
Y384492D01*
X271315Y389547D02*
Y392500D01*
X266260Y384492D02*
X271315Y389547D01*
X266260Y336140D02*
Y376134D01*
X261236Y333425D02*
X261839Y334028D01*
X264147D01*
X266260Y336140D01*
X134315Y230000D02*
X150000D01*
X133815D02*
X134315D01*
X229000Y277500D02*
X244000Y292500D01*
X244150Y301378D02*
X245567D01*
X248423Y304234D01*
X255313D01*
X244000Y301229D02*
X244150Y301378D01*
X244000Y292500D02*
Y301229D01*
Y292500D02*
X246383Y294883D01*
X255961Y304882D02*
X261886D01*
X263500Y306496D01*
Y330309D01*
X261236Y332573D02*
Y333425D01*
Y332573D02*
X263500Y330309D01*
X246383Y294883D02*
X324883D01*
X325000Y295000D01*
X227000Y213000D02*
Y217886D01*
Y205579D02*
Y213000D01*
X214921Y193500D02*
X227000Y205579D01*
X206000Y219500D02*
X225386D01*
X227000Y217886D01*
X245000Y262858D02*
Y267835D01*
X221007Y238866D02*
X244150Y262008D01*
X245000Y267835D02*
X249165D01*
X132500Y222000D02*
X133815Y223315D01*
X132500Y200051D02*
Y222000D01*
X137716Y198437D02*
X138169Y197984D01*
X134114Y198437D02*
X137716D01*
X132500Y200051D02*
X134114Y198437D01*
X123000Y193614D02*
Y229815D01*
X123185Y230000D01*
X123000Y193614D02*
X124614Y192000D01*
X150000Y230000D02*
X182000Y198000D01*
X187500Y201750D02*
X192445Y206695D01*
X196685Y198000D02*
Y200000D01*
Y193500D02*
Y198000D01*
Y193500D02*
X214921D01*
X255961Y265512D02*
X262457D01*
X251488D02*
X255961D01*
X206000Y219500D02*
Y223500D01*
X208323Y225823D01*
X249165Y267835D02*
X251488Y265512D01*
X262457D02*
X265961Y262008D01*
X208323Y230512D02*
X216676Y238866D01*
X221007D01*
X145375Y449475D02*
X160366Y464466D01*
X124614Y192000D02*
X148000D01*
X192445Y206695D02*
X207195D01*
X212500Y212000D01*
Y215250D01*
X207195Y200120D02*
Y206695D01*
Y200120D02*
X207315Y200000D01*
X212827Y225000D02*
X244500D01*
X212827Y225000D02*
X212827Y225000D01*
X325000Y282500D02*
X336000Y293500D01*
Y314000D01*
X325000Y325000D02*
X336000Y314000D01*
X325000Y325000D02*
X343500Y343500D01*
Y454000D01*
X241236Y498780D02*
X253957Y511500D01*
X254854D01*
X302098D02*
Y520189D01*
Y495402D02*
Y511500D01*
X254854D02*
X302098D01*
X151500Y207000D02*
X156750Y201750D01*
X302098Y477998D02*
Y495402D01*
X267378Y262008D02*
X303205D01*
X281500Y457400D02*
X302098Y477998D01*
X224116Y515900D02*
X241236Y498780D01*
X302098Y495402D02*
X343500Y454000D01*
X211203Y515900D02*
X224116D01*
X207610Y519492D02*
X211203Y515900D01*
X207610Y519492D02*
Y520189D01*
X254854Y511500D02*
Y520189D01*
X160366Y464466D02*
Y520189D01*
X208323Y225823D02*
Y230512D01*
X303205Y204795D02*
Y262008D01*
Y204795D02*
X311000Y197000D01*
Y190500D02*
Y197000D01*
X148000Y192000D02*
X157750Y201750D01*
X138169Y207000D02*
X151500D01*
X207610Y520189D02*
Y528614D01*
X207024Y529200D02*
X207610Y528614D01*
X161086Y529200D02*
X207024D01*
X160366Y528480D02*
X161086Y529200D01*
X160366Y520189D02*
Y528480D01*
D40*
X191236Y498780D02*
D03*
Y333425D02*
D03*
X311000Y190500D02*
D03*
D41*
X201236Y498780D02*
D03*
X211236D02*
D03*
X221236D02*
D03*
X231236D02*
D03*
X241236D02*
D03*
X251236D02*
D03*
X261236D02*
D03*
X325000Y305000D02*
D03*
Y315000D02*
D03*
Y325000D02*
D03*
Y282500D02*
D03*
X201236Y333425D02*
D03*
X211236D02*
D03*
X221236D02*
D03*
X231236D02*
D03*
X241236D02*
D03*
X251236D02*
D03*
X261236D02*
D03*
X301000Y190500D02*
D03*
D42*
X325000Y295000D02*
D03*
Y272500D02*
D03*
D43*
X116000Y255079D02*
D03*
Y485000D02*
D03*
X336472Y255079D02*
D03*
Y485000D02*
D03*
D44*
X260500Y341835D02*
D03*
Y382000D02*
D03*
X266260Y376134D02*
D03*
X195185Y343128D02*
D03*
X225500Y346929D02*
D03*
X217185Y346665D02*
D03*
X130700Y236800D02*
D03*
X251222Y385748D02*
D03*
X235500Y373000D02*
D03*
X229000Y277500D02*
D03*
X194500Y223500D02*
D03*
X198785Y253400D02*
D03*
X155000Y380500D02*
D03*
X320000Y399500D02*
D03*
X187164Y445764D02*
D03*
X125000Y272000D02*
D03*
X137165Y264500D02*
D03*
X132453Y278980D02*
D03*
X217500Y452500D02*
D03*
X217400Y267100D02*
D03*
X206500Y253500D02*
D03*
X219500Y279000D02*
D03*
X177000Y292453D02*
D03*
X243000Y271500D02*
D03*
X236500Y275500D02*
D03*
X227000Y213000D02*
D03*
X187500Y201750D02*
D03*
X193000Y193500D02*
D03*
X206000Y219500D02*
D03*
X145375Y449475D02*
D03*
X212827Y225000D02*
D03*
X244500Y225000D02*
D03*
X302098Y477998D02*
D03*
X255500Y507957D02*
D03*
X157750Y201750D02*
D03*
X212500Y215250D02*
D03*
X204000Y212500D02*
D03*
X141000Y291900D02*
D03*
X195100Y215200D02*
D03*
X218100Y318900D02*
D03*
X215800Y335000D02*
D03*
X174125Y333425D02*
D03*
X245000Y267835D02*
D03*
X164700Y336351D02*
D03*
X145600Y430400D02*
D03*
X300550Y323800D02*
D03*
X130500Y346000D02*
D03*
X119400Y410300D02*
D03*
X281500Y457400D02*
D03*
X205815Y372500D02*
D03*
X195500Y442000D02*
D03*
X221007Y238866D02*
D03*
X164700Y341315D02*
D03*
X174500Y337900D02*
D03*
X279500Y422900D02*
D03*
X172900Y301000D02*
D03*
X279700Y310000D02*
D03*
X145500Y345900D02*
D03*
X217051Y187000D02*
D03*
X116300Y339700D02*
D03*
X179500Y427485D02*
D03*
X210085Y324000D02*
D03*
X226300D02*
D03*
X191000Y220750D02*
D03*
X192400Y239700D02*
D03*
X210300Y511700D02*
D03*
X269500Y502500D02*
D03*
X254600Y260300D02*
D03*
X264950Y301150D02*
D03*
X274800Y405400D02*
D03*
X289976Y449500D02*
D03*
X314976Y448900D02*
D03*
X319976Y427323D02*
D03*
X289976Y428573D02*
D03*
X128755Y455300D02*
D03*
X168200Y455100D02*
D03*
X177400Y405900D02*
D03*
X158746Y427323D02*
D03*
X132496D02*
D03*
X212500Y272400D02*
D03*
X235500Y353700D02*
D03*
X197600Y281200D02*
D03*
X199600Y229200D02*
D03*
X182400Y256000D02*
D03*
X181500Y268000D02*
D03*
X250500Y262000D02*
D03*
X192222Y246022D02*
D03*
X187500Y233600D02*
D03*
X319000Y309000D02*
D03*
X271000Y450945D02*
D03*
X194000Y427100D02*
D03*
X216076Y529524D02*
D03*
X281800Y516400D02*
D03*
M02*
