G04*
G04 #@! TF.GenerationSoftware,Altium Limited,Altium Designer,20.1.8 (145)*
G04*
G04 Layer_Physical_Order=2*
G04 Layer_Color=16711680*
%FSLAX25Y25*%
%MOIN*%
G70*
G04*
G04 #@! TF.SameCoordinates,2B40AF7D-86F1-4858-AC96-1B89F3EF06F7*
G04*
G04*
G04 #@! TF.FilePolarity,Positive*
G04*
G01*
G75*
%ADD13C,0.01000*%
%ADD14R,0.10236X0.04331*%
%ADD15R,0.06693X0.04331*%
%ADD16R,0.05000X0.12520*%
%ADD28C,0.01102*%
%ADD29C,0.02362*%
%ADD30C,0.01181*%
%ADD31C,0.01968*%
%ADD32C,0.19685*%
%ADD33C,0.05906*%
%ADD34R,0.05906X0.05906*%
%ADD35R,0.05906X0.05906*%
%ADD36C,0.01968*%
%ADD37C,0.02362*%
G04:AMPARAMS|DCode=38|XSize=82.68mil|YSize=54.33mil|CornerRadius=4.08mil|HoleSize=0mil|Usage=FLASHONLY|Rotation=270.000|XOffset=0mil|YOffset=0mil|HoleType=Round|Shape=RoundedRectangle|*
%AMROUNDEDRECTD38*
21,1,0.08268,0.04618,0,0,270.0*
21,1,0.07453,0.05433,0,0,270.0*
1,1,0.00815,-0.02309,-0.03726*
1,1,0.00815,-0.02309,0.03726*
1,1,0.00815,0.02309,0.03726*
1,1,0.00815,0.02309,-0.03726*
%
%ADD38ROUNDEDRECTD38*%
%ADD39R,0.04331X0.10236*%
%ADD40R,0.18819X0.12402*%
%ADD41R,0.02000X0.07800*%
%ADD42R,0.12992X0.09449*%
G04:AMPARAMS|DCode=43|XSize=51.18mil|YSize=23.23mil|CornerRadius=5.81mil|HoleSize=0mil|Usage=FLASHONLY|Rotation=180.000|XOffset=0mil|YOffset=0mil|HoleType=Round|Shape=RoundedRectangle|*
%AMROUNDEDRECTD43*
21,1,0.05118,0.01161,0,0,180.0*
21,1,0.03957,0.02323,0,0,180.0*
1,1,0.01161,-0.01978,0.00581*
1,1,0.01161,0.01978,0.00581*
1,1,0.01161,0.01978,-0.00581*
1,1,0.01161,-0.01978,-0.00581*
%
%ADD43ROUNDEDRECTD43*%
%ADD44R,0.08300X0.22000*%
G04:AMPARAMS|DCode=45|XSize=127.56mil|YSize=51.58mil|CornerRadius=3.87mil|HoleSize=0mil|Usage=FLASHONLY|Rotation=270.000|XOffset=0mil|YOffset=0mil|HoleType=Round|Shape=RoundedRectangle|*
%AMROUNDEDRECTD45*
21,1,0.12756,0.04384,0,0,270.0*
21,1,0.11982,0.05158,0,0,270.0*
1,1,0.00774,-0.02192,-0.05991*
1,1,0.00774,-0.02192,0.05991*
1,1,0.00774,0.02192,0.05991*
1,1,0.00774,0.02192,-0.05991*
%
%ADD45ROUNDEDRECTD45*%
G04:AMPARAMS|DCode=46|XSize=36.61mil|YSize=51.58mil|CornerRadius=2.75mil|HoleSize=0mil|Usage=FLASHONLY|Rotation=270.000|XOffset=0mil|YOffset=0mil|HoleType=Round|Shape=RoundedRectangle|*
%AMROUNDEDRECTD46*
21,1,0.03661,0.04608,0,0,270.0*
21,1,0.03112,0.05158,0,0,270.0*
1,1,0.00549,-0.02304,-0.01556*
1,1,0.00549,-0.02304,0.01556*
1,1,0.00549,0.02304,0.01556*
1,1,0.00549,0.02304,-0.01556*
%
%ADD46ROUNDEDRECTD46*%
G04:AMPARAMS|DCode=47|XSize=11.02mil|YSize=61.42mil|CornerRadius=2.76mil|HoleSize=0mil|Usage=FLASHONLY|Rotation=180.000|XOffset=0mil|YOffset=0mil|HoleType=Round|Shape=RoundedRectangle|*
%AMROUNDEDRECTD47*
21,1,0.01102,0.05591,0,0,180.0*
21,1,0.00551,0.06142,0,0,180.0*
1,1,0.00551,-0.00276,0.02795*
1,1,0.00551,0.00276,0.02795*
1,1,0.00551,0.00276,-0.02795*
1,1,0.00551,-0.00276,-0.02795*
%
%ADD47ROUNDEDRECTD47*%
G04:AMPARAMS|DCode=48|XSize=11.02mil|YSize=61.42mil|CornerRadius=2.76mil|HoleSize=0mil|Usage=FLASHONLY|Rotation=90.000|XOffset=0mil|YOffset=0mil|HoleType=Round|Shape=RoundedRectangle|*
%AMROUNDEDRECTD48*
21,1,0.01102,0.05591,0,0,90.0*
21,1,0.00551,0.06142,0,0,90.0*
1,1,0.00551,0.02795,0.00276*
1,1,0.00551,0.02795,-0.00276*
1,1,0.00551,-0.02795,-0.00276*
1,1,0.00551,-0.02795,0.00276*
%
%ADD48ROUNDEDRECTD48*%
%ADD49R,0.04331X0.06693*%
%ADD50R,0.03347X0.02362*%
G04:AMPARAMS|DCode=51|XSize=47.64mil|YSize=23.23mil|CornerRadius=5.81mil|HoleSize=0mil|Usage=FLASHONLY|Rotation=270.000|XOffset=0mil|YOffset=0mil|HoleType=Round|Shape=RoundedRectangle|*
%AMROUNDEDRECTD51*
21,1,0.04764,0.01161,0,0,270.0*
21,1,0.03602,0.02323,0,0,270.0*
1,1,0.01161,-0.00581,-0.01801*
1,1,0.01161,-0.00581,0.01801*
1,1,0.01161,0.00581,0.01801*
1,1,0.01161,0.00581,-0.01801*
%
%ADD51ROUNDEDRECTD51*%
%ADD52C,0.02000*%
%ADD53C,0.03543*%
%ADD54C,0.05906*%
G36*
X315876Y500748D02*
X315946Y500399D01*
X316143Y500104D01*
X316439Y499906D01*
X316787Y499837D01*
X351309D01*
Y185124D01*
X101163D01*
Y281964D01*
X101663Y282231D01*
X101707Y282202D01*
X102244Y282095D01*
X102659Y282178D01*
X103159Y281899D01*
Y191929D01*
X103229Y191580D01*
X103426Y191285D01*
X108356Y186356D01*
X108651Y186158D01*
X109000Y186089D01*
X130500D01*
X130849Y186158D01*
X131144Y186356D01*
X137144Y192356D01*
X137342Y192651D01*
X137411Y193000D01*
Y206623D01*
X138984Y208195D01*
X141081D01*
X141151Y208063D01*
X141296Y207695D01*
X141203Y207228D01*
X141310Y206691D01*
X141614Y206235D01*
X141697Y206180D01*
Y201204D01*
X141766Y200855D01*
X141964Y200559D01*
X151348Y191175D01*
X151644Y190977D01*
X151993Y190908D01*
X175166D01*
X175595Y190500D01*
X175702Y189962D01*
X176006Y189506D01*
X176462Y189202D01*
X177000Y189095D01*
X177538Y189202D01*
X177994Y189506D01*
X178048Y189589D01*
X264204D01*
X266937Y186856D01*
X267232Y186658D01*
X267581Y186589D01*
X326893D01*
X327241Y186658D01*
X327537Y186856D01*
X338126Y197445D01*
X338204Y197441D01*
X338626Y197284D01*
Y196126D01*
X342079D01*
Y200079D01*
Y204031D01*
X338911D01*
X338626Y204032D01*
X338411Y204443D01*
Y214000D01*
X338342Y214349D01*
X338144Y214644D01*
X321644Y231144D01*
X321349Y231342D01*
X321000Y231411D01*
X311411D01*
Y233126D01*
X316012D01*
Y238244D01*
X304988D01*
Y233126D01*
X309589D01*
Y230500D01*
Y227874D01*
X304988D01*
Y222756D01*
X316012D01*
Y227874D01*
X311411D01*
Y229589D01*
X320623D01*
X336589Y213623D01*
Y198485D01*
X326515Y188411D01*
X268106D01*
X267940Y188626D01*
X268185Y189126D01*
X278012D01*
Y190317D01*
X289593D01*
X289677Y190261D01*
X290057Y190186D01*
X294014D01*
X294394Y190261D01*
X294534Y190355D01*
X324260D01*
X324797Y190462D01*
X325253Y190766D01*
X331422Y196936D01*
X331705Y196818D01*
X332579Y196704D01*
X333452Y196818D01*
X334266Y197156D01*
X334965Y197692D01*
X335502Y198391D01*
X335839Y199205D01*
X335954Y200079D01*
X335839Y200952D01*
X335502Y201766D01*
X334965Y202466D01*
X334266Y203002D01*
X333984Y203119D01*
Y206760D01*
X334744D01*
Y214240D01*
X329626D01*
Y206760D01*
X331174D01*
Y203119D01*
X330891Y203002D01*
X330192Y202466D01*
X329656Y201766D01*
X329318Y200952D01*
X329204Y200079D01*
X329318Y199205D01*
X329436Y198923D01*
X323678Y193165D01*
X294534D01*
X294394Y193258D01*
X294014Y193334D01*
X290057D01*
X289677Y193258D01*
X289481Y193127D01*
X278012D01*
Y194244D01*
X266988D01*
Y190035D01*
X266526Y189843D01*
X265225Y191144D01*
X264930Y191342D01*
X264581Y191411D01*
X260585D01*
X260394Y191873D01*
X268277Y199756D01*
X276723D01*
X277883Y198596D01*
X278179Y198398D01*
X278528Y198329D01*
X289129D01*
X289139Y198279D01*
X289355Y197957D01*
X289677Y197742D01*
X290057Y197666D01*
X294014D01*
X294394Y197742D01*
X294716Y197957D01*
X294932Y198279D01*
X295007Y198660D01*
Y199821D01*
X294932Y200201D01*
X294716Y200523D01*
X294394Y200739D01*
X294014Y200814D01*
X290057D01*
X289677Y200739D01*
X289355Y200523D01*
X289139Y200201D01*
X289129Y200151D01*
X278905D01*
X278012Y201045D01*
Y204874D01*
X266988D01*
Y201452D01*
X266911Y201403D01*
X266411Y201680D01*
Y208290D01*
X266665Y208685D01*
X266911Y208685D01*
X268036D01*
X268115Y208606D01*
X268267Y207840D01*
X268746Y207124D01*
X269462Y206645D01*
X270307Y206477D01*
X273988D01*
Y206126D01*
X285012D01*
Y206477D01*
X286631D01*
X287476Y206645D01*
X288192Y207124D01*
X289345Y208277D01*
X289824Y208993D01*
X289992Y209838D01*
Y235292D01*
X292385D01*
X292534Y235262D01*
X297143D01*
X297403Y235314D01*
X297624Y235462D01*
X297772Y235683D01*
X297824Y235944D01*
Y239056D01*
X297772Y239317D01*
X297624Y239538D01*
X297403Y239686D01*
X297143Y239738D01*
X292534D01*
X292385Y239708D01*
X271488D01*
Y243491D01*
X271427Y243796D01*
X271255Y244054D01*
X270996Y244226D01*
X270692Y244287D01*
X266308D01*
X266003Y244226D01*
X265745Y244054D01*
X265573Y243796D01*
X265512Y243491D01*
Y231509D01*
X265573Y231204D01*
X265745Y230946D01*
X266003Y230774D01*
X266308Y230713D01*
X270692D01*
X270996Y230774D01*
X271255Y230946D01*
X271427Y231204D01*
X271488Y231509D01*
Y235292D01*
X285576D01*
Y210893D01*
X285012D01*
Y211244D01*
X273988D01*
Y210893D01*
X270799D01*
Y211835D01*
X268887D01*
X268732Y211865D01*
X268577Y211835D01*
X266665Y211835D01*
X266411Y212229D01*
Y213638D01*
X268203Y215430D01*
X268401Y215726D01*
X268470Y216075D01*
Y216165D01*
X270799D01*
Y217328D01*
X271381Y217910D01*
X273988D01*
Y216756D01*
X285012D01*
Y221874D01*
X273988D01*
Y220720D01*
X270799D01*
X270262Y220613D01*
X269806Y220308D01*
X268812Y219315D01*
X266665D01*
Y217147D01*
X266648Y217059D01*
Y216452D01*
X264856Y214660D01*
X264658Y214365D01*
X264589Y214016D01*
Y201377D01*
X257410Y194199D01*
X229538D01*
X229347Y194660D01*
X236644Y201958D01*
X236842Y202254D01*
X236911Y202602D01*
Y204952D01*
X236994Y205007D01*
X237298Y205462D01*
X237405Y206000D01*
X237298Y206538D01*
X236994Y206993D01*
X236538Y207298D01*
X236000Y207405D01*
X235462Y207298D01*
X234963Y207566D01*
Y216676D01*
X240358Y222071D01*
X249894D01*
Y216559D01*
X238995D01*
Y211441D01*
X242901D01*
Y208493D01*
X243024Y207878D01*
X243372Y207358D01*
X243390Y207346D01*
X243401Y207328D01*
X243922Y206980D01*
X244537Y206858D01*
X245151Y206980D01*
X245672Y207328D01*
X246020Y207849D01*
X246142Y208463D01*
X246113Y208612D01*
Y211441D01*
X250019D01*
Y212394D01*
X251296D01*
X251296Y212394D01*
X251296Y212394D01*
X260268D01*
X260423Y212425D01*
X262335D01*
Y215575D01*
X260423D01*
X260268Y215606D01*
X259106D01*
Y221626D01*
X261240D01*
Y226744D01*
X253760D01*
Y221626D01*
X255894D01*
Y215606D01*
X253106D01*
Y231170D01*
X253154Y231650D01*
X253606Y231650D01*
X257000D01*
Y234815D01*
Y237980D01*
X253606D01*
X253154Y237980D01*
X253106Y238460D01*
Y244835D01*
X256165Y247894D01*
X272116D01*
X272116Y247894D01*
X272731Y248017D01*
X273252Y248365D01*
X274635Y249748D01*
X274635Y249748D01*
X274983Y250269D01*
X275106Y250884D01*
X275106Y250884D01*
Y286925D01*
X274983Y287540D01*
X274635Y288061D01*
X274635Y288061D01*
X273786Y288910D01*
X273635Y289135D01*
X273114Y289483D01*
X272500Y289606D01*
X270138D01*
X270138Y289606D01*
X269523Y289483D01*
X269002Y289135D01*
X266241Y286374D01*
X257488D01*
Y283846D01*
X242965D01*
X242807Y283814D01*
X240986D01*
X240606Y283739D01*
X240284Y283523D01*
X240070Y283204D01*
X238805D01*
X238436Y283130D01*
X238124Y282921D01*
X235402Y280200D01*
X234940Y280391D01*
Y288616D01*
X234940Y288616D01*
X234818Y289231D01*
X234470Y289752D01*
X234470Y289752D01*
X233558Y290664D01*
X233765Y291164D01*
X251443D01*
X251452Y291158D01*
X251800Y291089D01*
X325952D01*
X326007Y291007D01*
X326462Y290702D01*
X327000Y290595D01*
X327467Y290688D01*
X327835Y290543D01*
X327967Y290473D01*
Y283708D01*
X327962Y283707D01*
X327507Y283403D01*
X327202Y282947D01*
X327095Y282410D01*
X327202Y281872D01*
X327507Y281416D01*
X327962Y281112D01*
X328500Y281005D01*
X329038Y281112D01*
X329089Y281146D01*
X329589Y280878D01*
Y271377D01*
X316123Y257911D01*
X279548D01*
X279493Y257993D01*
X279038Y258298D01*
X278500Y258405D01*
X277962Y258298D01*
X277507Y257993D01*
X277202Y257538D01*
X277095Y257000D01*
X277202Y256462D01*
X277507Y256007D01*
X277962Y255702D01*
X278500Y255595D01*
X279038Y255702D01*
X279493Y256007D01*
X279548Y256089D01*
X316500D01*
X316849Y256158D01*
X317144Y256356D01*
X331144Y270356D01*
X331342Y270651D01*
X331411Y271000D01*
Y301452D01*
X331493Y301507D01*
X331798Y301962D01*
X331905Y302500D01*
X331798Y303038D01*
X331493Y303493D01*
X331038Y303798D01*
X330500Y303905D01*
X329962Y303798D01*
X329507Y303493D01*
X329202Y303038D01*
X329095Y302500D01*
X329202Y301962D01*
X329507Y301507D01*
X329589Y301452D01*
Y295563D01*
X329089Y295356D01*
X323800Y300644D01*
X323504Y300842D01*
X323156Y300911D01*
X277463D01*
X277411Y300963D01*
Y346626D01*
X283512D01*
Y348274D01*
X287009D01*
X287357Y348343D01*
X287653Y348541D01*
X288239Y349127D01*
X288278Y349185D01*
X290835D01*
Y352335D01*
X286701D01*
Y350167D01*
X286701Y350166D01*
X286631Y350096D01*
X283512D01*
Y351744D01*
X272890D01*
X272740Y351744D01*
X272533Y352244D01*
X273877Y353589D01*
X295165D01*
Y352925D01*
X299299D01*
Y356075D01*
X295165D01*
Y355411D01*
X273500D01*
X273151Y355342D01*
X272856Y355144D01*
X267856Y350144D01*
X267658Y349849D01*
X267589Y349500D01*
Y329963D01*
X267537Y329911D01*
X263971D01*
X263801Y330411D01*
X264055Y330606D01*
X264689Y331432D01*
X265087Y332393D01*
X265157Y332925D01*
X257315D01*
X257385Y332393D01*
X257784Y331432D01*
X258417Y330606D01*
X258671Y330411D01*
X258501Y329911D01*
X256039D01*
X254175Y331775D01*
X254497Y332552D01*
X254611Y333425D01*
X254497Y334299D01*
X254159Y335113D01*
X253623Y335812D01*
X252924Y336348D01*
X252842Y336382D01*
Y491885D01*
X252924Y491919D01*
X253623Y492456D01*
X254159Y493155D01*
X254497Y493969D01*
X254611Y494842D01*
X254497Y495716D01*
X254159Y496530D01*
X253623Y497229D01*
X252924Y497766D01*
X252110Y498103D01*
X251236Y498218D01*
X250363Y498103D01*
X249549Y497766D01*
X248850Y497229D01*
X248313Y496530D01*
X247976Y495716D01*
X247861Y494842D01*
X247976Y493969D01*
X248313Y493155D01*
X248850Y492456D01*
X249549Y491919D01*
X249630Y491885D01*
Y336382D01*
X249549Y336348D01*
X248850Y335812D01*
X248313Y335113D01*
X247976Y334299D01*
X247861Y333425D01*
X247976Y332552D01*
X248313Y331737D01*
X248850Y331038D01*
X249549Y330502D01*
X250363Y330165D01*
X251236Y330050D01*
X252110Y330165D01*
X252886Y330486D01*
X255017Y328356D01*
X255313Y328158D01*
X255661Y328089D01*
X267914D01*
X268263Y328158D01*
X268559Y328356D01*
X269144Y328941D01*
X269342Y329237D01*
X269411Y329586D01*
Y349123D01*
X271988Y351699D01*
X272488Y351492D01*
X272488Y351348D01*
Y346626D01*
X275589D01*
Y300586D01*
X275658Y300237D01*
X275856Y299941D01*
X276442Y299356D01*
X276737Y299158D01*
X277086Y299089D01*
X322778D01*
X325604Y296264D01*
X325560Y296120D01*
X325402Y295758D01*
X325007Y295493D01*
X324702Y295038D01*
X324595Y294500D01*
X324522Y294411D01*
X198874D01*
X198682Y294873D01*
X198932Y295123D01*
X199129Y295418D01*
X199199Y295767D01*
Y320099D01*
X209586Y330486D01*
X210363Y330165D01*
X211236Y330050D01*
X212110Y330165D01*
X212924Y330502D01*
X213623Y331038D01*
X214159Y331737D01*
X214496Y332552D01*
X214612Y333425D01*
X214496Y334299D01*
X214159Y335113D01*
X213623Y335812D01*
X212924Y336348D01*
X212110Y336685D01*
X211236Y336801D01*
X211048Y336776D01*
X210578Y337246D01*
Y491022D01*
X211048Y491492D01*
X211236Y491467D01*
X212110Y491582D01*
X212924Y491919D01*
X213623Y492456D01*
X214159Y493155D01*
X214496Y493969D01*
X214612Y494842D01*
X214496Y495716D01*
X214159Y496530D01*
X213623Y497229D01*
X212924Y497766D01*
X212110Y498103D01*
X211236Y498218D01*
X210363Y498103D01*
X209548Y497766D01*
X208850Y497229D01*
X208313Y496530D01*
X207976Y495716D01*
X207861Y494842D01*
X207976Y493969D01*
X208271Y493257D01*
X207837Y492823D01*
X207489Y492302D01*
X207367Y491687D01*
X207367Y491687D01*
Y336581D01*
X207367Y336581D01*
X207489Y335966D01*
X207837Y335445D01*
X208271Y335011D01*
X207976Y334299D01*
X207861Y333425D01*
X207976Y332552D01*
X208297Y331775D01*
X197643Y321121D01*
X197446Y320825D01*
X197376Y320476D01*
Y306620D01*
X196876Y306412D01*
X192147Y311141D01*
Y330079D01*
X194583D01*
Y336772D01*
X192842D01*
Y491496D01*
X194583D01*
Y498189D01*
X187890D01*
Y491496D01*
X189630D01*
Y336772D01*
X187890D01*
Y330079D01*
X190325D01*
Y310764D01*
X190394Y310415D01*
X190592Y310120D01*
X195589Y305123D01*
Y297251D01*
X195537Y297199D01*
X194039D01*
X193887Y297699D01*
X194135Y297865D01*
X194483Y298386D01*
X194606Y299000D01*
X194483Y299614D01*
X194135Y300135D01*
X194135Y300135D01*
X170606Y323665D01*
Y334000D01*
X170483Y334614D01*
X170135Y335135D01*
X164606Y340665D01*
Y379616D01*
X164606Y379616D01*
X164483Y380231D01*
X164135Y380752D01*
X164135Y380752D01*
X162752Y382135D01*
X162231Y382483D01*
X161616Y382606D01*
X161616Y382606D01*
X110049D01*
X109606Y383049D01*
Y385000D01*
X109483Y385614D01*
X109135Y386135D01*
X108615Y386483D01*
X108556Y386495D01*
X108392Y387037D01*
X109475Y388120D01*
X118362D01*
Y386575D01*
X129386D01*
Y388223D01*
X165606D01*
Y386575D01*
X176630D01*
Y388223D01*
X182585D01*
X182640Y388140D01*
X183096Y387836D01*
X183634Y387729D01*
X184171Y387836D01*
X184627Y388140D01*
X184932Y388596D01*
X185039Y389134D01*
X184932Y389671D01*
X184627Y390127D01*
X184171Y390432D01*
X183634Y390539D01*
X183096Y390432D01*
X182640Y390127D01*
X182585Y390045D01*
X176630D01*
Y391693D01*
X165606D01*
Y390045D01*
X129386D01*
Y391693D01*
X118362D01*
Y389943D01*
X111332D01*
X111244Y390156D01*
X111175Y390443D01*
X111342Y390693D01*
X111411Y391041D01*
Y412411D01*
X111463Y412463D01*
X122826D01*
X122880Y412381D01*
X123336Y412076D01*
X123874Y411969D01*
X124412Y412076D01*
X124867Y412381D01*
X125172Y412836D01*
X125279Y413374D01*
X125172Y413912D01*
X124867Y414367D01*
X124412Y414672D01*
X123874Y414779D01*
X123336Y414672D01*
X122880Y414367D01*
X122826Y414285D01*
X111086D01*
X110737Y414216D01*
X110442Y414018D01*
X110106Y413683D01*
X109606Y413890D01*
Y449394D01*
X120134D01*
Y448386D01*
X127614D01*
Y448781D01*
X128449D01*
X130865Y446365D01*
X130865Y446365D01*
X131386Y446017D01*
X132000Y445894D01*
X146112D01*
X146112Y445894D01*
X146727Y446017D01*
X147248Y446365D01*
X148631Y447748D01*
X148631Y447748D01*
X148979Y448269D01*
X149102Y448884D01*
X149102Y448884D01*
Y455330D01*
X148979Y455944D01*
X148890Y456079D01*
Y459624D01*
X146102D01*
Y456079D01*
X146013Y455944D01*
X145890Y455330D01*
Y449549D01*
X145447Y449106D01*
X132665D01*
X131234Y450536D01*
X131442Y451036D01*
X133890D01*
Y454419D01*
X136102D01*
Y451036D01*
X138890D01*
Y459624D01*
X136102D01*
Y456241D01*
X133890D01*
Y459624D01*
X131102D01*
Y456241D01*
X124351D01*
X124277Y456226D01*
X123874Y456307D01*
X123336Y456200D01*
X122880Y455895D01*
X122576Y455439D01*
X122469Y454902D01*
X122576Y454364D01*
X122816Y454004D01*
X122704Y453658D01*
X122595Y453504D01*
X120134D01*
Y452606D01*
X112530D01*
X112338Y453068D01*
X141135Y481865D01*
X141135Y481865D01*
X141483Y482385D01*
X141606Y483000D01*
Y528451D01*
X142049Y528894D01*
X168162D01*
Y520189D01*
X168284Y519574D01*
X168632Y519054D01*
X169153Y518706D01*
X169768Y518583D01*
X170382Y518706D01*
X170903Y519054D01*
X171251Y519574D01*
X171373Y520189D01*
Y528894D01*
X215406D01*
Y520189D01*
X215528Y519574D01*
X215876Y519054D01*
X216397Y518706D01*
X217012Y518583D01*
X217626Y518706D01*
X218147Y519054D01*
X218495Y519574D01*
X218618Y520189D01*
Y528894D01*
X246546D01*
X246807Y528394D01*
X246717Y527941D01*
X246824Y527403D01*
X246865Y527343D01*
X246597Y526843D01*
X241961D01*
Y513535D01*
X243177D01*
Y510000D01*
X243299Y509385D01*
X243647Y508865D01*
X244168Y508517D01*
X244782Y508394D01*
X245397Y508517D01*
X245918Y508865D01*
X246266Y509385D01*
X246388Y510000D01*
Y513535D01*
X247748D01*
Y526229D01*
X247949Y526394D01*
X248248Y526463D01*
X249407Y525305D01*
X249702Y525107D01*
X250051Y525038D01*
X251961D01*
Y513535D01*
X257748D01*
Y526843D01*
X252942D01*
X252854Y526860D01*
X250428D01*
X249497Y527791D01*
X249527Y527941D01*
X249437Y528394D01*
X249698Y528894D01*
X262650D01*
Y520189D01*
X262773Y519574D01*
X263121Y519054D01*
X263642Y518706D01*
X264256Y518583D01*
X264871Y518706D01*
X265391Y519054D01*
X265739Y519574D01*
X265862Y520189D01*
Y528894D01*
X307938D01*
X308382Y528451D01*
Y521795D01*
X307957D01*
X307342Y521672D01*
X306821Y521324D01*
X306473Y520803D01*
X306351Y520189D01*
X306473Y519574D01*
X306821Y519054D01*
X307342Y518706D01*
X307957Y518583D01*
X308394D01*
Y468106D01*
X283000D01*
X282385Y467983D01*
X281865Y467635D01*
X281865Y467635D01*
X276365Y462135D01*
X276017Y461615D01*
X275894Y461000D01*
X275894Y461000D01*
Y453618D01*
X275894Y453618D01*
X276017Y453004D01*
X276365Y452483D01*
X277614Y451233D01*
Y448386D01*
X285094D01*
Y448781D01*
X285929D01*
X288345Y446365D01*
X288345Y446365D01*
X288866Y446017D01*
X289480Y445894D01*
X303593D01*
X303593Y445894D01*
X304207Y446017D01*
X304728Y446365D01*
X306112Y447748D01*
X306112Y447748D01*
X306460Y448269D01*
X306582Y448884D01*
X306582Y448884D01*
Y455330D01*
X306460Y455944D01*
X306370Y456079D01*
Y459624D01*
X303583D01*
Y456079D01*
X303493Y455944D01*
X303371Y455330D01*
Y449549D01*
X302928Y449106D01*
X290145D01*
X288715Y450536D01*
X288922Y451036D01*
X291370D01*
Y454419D01*
X293583D01*
Y451036D01*
X296370D01*
Y459624D01*
X293583D01*
Y456241D01*
X291370D01*
Y459624D01*
X288583D01*
Y456241D01*
X281832D01*
X281757Y456226D01*
X281354Y456307D01*
X280817Y456200D01*
X280361Y455895D01*
X280056Y455439D01*
X279949Y454902D01*
X280056Y454364D01*
X280087Y454318D01*
X279885Y453724D01*
X279839Y453708D01*
X279654Y453735D01*
X279106Y454283D01*
Y460335D01*
X283665Y464894D01*
X339335D01*
X342894Y461335D01*
Y390665D01*
X338335Y386106D01*
X334185D01*
X334110Y386575D01*
X334110D01*
Y391693D01*
X323087D01*
Y390045D01*
X286866D01*
Y391693D01*
X275842D01*
Y390045D01*
X273374D01*
X272338Y391081D01*
X272042Y391279D01*
X271693Y391348D01*
X267875D01*
X267527Y391279D01*
X267231Y391081D01*
X266899Y390750D01*
X266761Y390777D01*
X266224Y390670D01*
X265768Y390366D01*
X265463Y389910D01*
X265356Y389372D01*
X265463Y388835D01*
X265768Y388379D01*
X266164Y388115D01*
X266321Y387752D01*
X266365Y387609D01*
X264356Y385599D01*
X264158Y385304D01*
X264089Y384955D01*
Y369500D01*
X264158Y369151D01*
X264356Y368856D01*
X265671Y367541D01*
X265966Y367343D01*
X266315Y367274D01*
X268488D01*
Y365626D01*
X278223D01*
X280021Y363828D01*
X280317Y363631D01*
X280665Y363561D01*
X286150D01*
X288790Y360921D01*
X288741Y360656D01*
X288606Y360421D01*
X286094D01*
Y358740D01*
X288768D01*
X291441D01*
Y360421D01*
X291872Y360589D01*
X308934D01*
X309283Y360658D01*
X309578Y360856D01*
X313219Y364496D01*
X313417Y364792D01*
X313486Y365141D01*
Y365627D01*
X313488Y366126D01*
X313986Y366126D01*
X318089D01*
Y365048D01*
X318007Y364993D01*
X317702Y364538D01*
X317595Y364000D01*
X317702Y363462D01*
X318007Y363007D01*
X318462Y362702D01*
X319000Y362595D01*
X319538Y362702D01*
X319993Y363007D01*
X320298Y363462D01*
X320405Y364000D01*
X320298Y364538D01*
X319993Y364993D01*
X319911Y365048D01*
Y366126D01*
X324512D01*
Y371244D01*
X313986D01*
X313488Y371244D01*
X313486Y371743D01*
Y375465D01*
X314777Y376756D01*
X324512D01*
Y381874D01*
X313488D01*
Y378045D01*
X311930Y376487D01*
X311733Y376191D01*
X311664Y375842D01*
Y365518D01*
X308557Y362411D01*
X307302D01*
X307253Y362911D01*
X307783Y363017D01*
X308304Y363365D01*
X310005Y365067D01*
X310353Y365587D01*
X310476Y366202D01*
X310476Y366202D01*
Y380205D01*
X313165Y382894D01*
X339000D01*
X339000Y382894D01*
X339615Y383017D01*
X340135Y383365D01*
X345635Y388865D01*
X345635Y388865D01*
X345983Y389386D01*
X346106Y390000D01*
Y462000D01*
X345983Y462614D01*
X345635Y463135D01*
X341135Y467635D01*
X340615Y467983D01*
X340000Y468106D01*
X340000Y468106D01*
X311606D01*
Y520176D01*
X311606Y520176D01*
X311593Y520241D01*
Y529116D01*
X311593Y529116D01*
X311471Y529731D01*
X311122Y530252D01*
X311122Y530252D01*
X309739Y531635D01*
X309218Y531983D01*
X308603Y532106D01*
X308603Y532106D01*
X141384D01*
X141384Y532106D01*
X140769Y531983D01*
X140248Y531635D01*
X140248Y531635D01*
X138865Y530252D01*
X138517Y529731D01*
X138394Y529116D01*
X138394Y529116D01*
Y483665D01*
X106865Y452135D01*
X106517Y451615D01*
X106394Y451000D01*
X106394Y451000D01*
Y392530D01*
X106517Y391916D01*
X106865Y391395D01*
X107242Y391143D01*
X107383Y390577D01*
X101663Y384857D01*
X101365Y384921D01*
X101163Y385046D01*
Y499837D01*
X135685D01*
X136034Y499906D01*
X136329Y500104D01*
X136527Y500399D01*
X136596Y500748D01*
Y534482D01*
X315876D01*
Y500748D01*
D02*
G37*
G36*
X323087Y386575D02*
X323087D01*
X323012Y386106D01*
X312500D01*
X312500Y386106D01*
X311886Y385983D01*
X311365Y385635D01*
X311365Y385635D01*
X307735Y382006D01*
X307539Y381713D01*
X307014Y381604D01*
X306651Y381856D01*
Y388223D01*
X323087D01*
Y386575D01*
D02*
G37*
G36*
X304829Y381670D02*
X304779Y381660D01*
X304457Y381445D01*
X304242Y381122D01*
X304166Y380742D01*
Y377140D01*
X304242Y376760D01*
X304457Y376437D01*
X304779Y376222D01*
X304829Y376212D01*
Y371788D01*
X304779Y371778D01*
X304457Y371563D01*
X304242Y371240D01*
X304166Y370860D01*
Y367258D01*
X304242Y366878D01*
X304423Y366606D01*
X304365Y366374D01*
X304230Y366106D01*
X299770D01*
X299635Y366374D01*
X299577Y366606D01*
X299758Y366878D01*
X299834Y367258D01*
Y370860D01*
X299758Y371240D01*
X299543Y371563D01*
X299221Y371778D01*
X298840Y371854D01*
X297679D01*
X297299Y371778D01*
X296977Y371563D01*
X296761Y371240D01*
X296686Y370860D01*
Y369970D01*
X289240D01*
Y370744D01*
X281760D01*
Y365626D01*
X281360Y365384D01*
X281043D01*
X279512Y366915D01*
Y370744D01*
X268488D01*
Y369096D01*
X266692D01*
X265911Y369877D01*
Y384578D01*
X267709Y386375D01*
X267852Y386332D01*
X268215Y386174D01*
X268469Y385793D01*
Y380390D01*
X268488Y380293D01*
Y376256D01*
X279512D01*
Y377812D01*
X281760D01*
Y376256D01*
X289240D01*
Y377812D01*
X291837D01*
X295858Y373790D01*
X296183Y373573D01*
X296567Y373497D01*
X301164D01*
X301548Y373573D01*
X301873Y373790D01*
X302565Y374482D01*
X302783Y374808D01*
X302859Y375192D01*
Y376202D01*
X302961Y376222D01*
X303283Y376437D01*
X303499Y376760D01*
X303574Y377140D01*
Y380742D01*
X303499Y381122D01*
X303283Y381445D01*
X302961Y381660D01*
X302581Y381736D01*
X301419D01*
X301039Y381660D01*
X300717Y381445D01*
X300501Y381122D01*
X300426Y380742D01*
Y377140D01*
X300501Y376760D01*
X300717Y376437D01*
X300852Y376347D01*
Y375608D01*
X300748Y375503D01*
X296983D01*
X292962Y379525D01*
X292636Y379742D01*
X292252Y379819D01*
X289240D01*
Y381374D01*
X281760D01*
Y379819D01*
X279512D01*
Y381374D01*
X270476D01*
Y385793D01*
X270730Y386174D01*
X271093Y386332D01*
X271236Y386375D01*
X271756Y385856D01*
X272051Y385658D01*
X272400Y385589D01*
X274123D01*
X275856Y383856D01*
X276151Y383658D01*
X276500Y383589D01*
X297297D01*
X297349Y383537D01*
Y381670D01*
X297299Y381660D01*
X296977Y381445D01*
X296761Y381122D01*
X296686Y380742D01*
Y377140D01*
X296761Y376760D01*
X296977Y376437D01*
X297299Y376222D01*
X297679Y376146D01*
X298840D01*
X299221Y376222D01*
X299543Y376437D01*
X299758Y376760D01*
X299834Y377140D01*
Y380742D01*
X299758Y381122D01*
X299543Y381445D01*
X299221Y381660D01*
X299171Y381670D01*
Y383914D01*
X299102Y384263D01*
X298904Y384559D01*
X298318Y385144D01*
X298023Y385342D01*
X297674Y385411D01*
X276877D01*
X276214Y386075D01*
X276421Y386575D01*
X286866D01*
Y388223D01*
X304829D01*
Y381670D01*
D02*
G37*
G36*
X106394Y384333D02*
Y382384D01*
X106394Y382384D01*
X106517Y381769D01*
X106865Y381248D01*
X108248Y379865D01*
X108248Y379865D01*
X108769Y379517D01*
X109384Y379394D01*
X109384Y379394D01*
X134399D01*
X134606Y378894D01*
X133356Y377644D01*
X133158Y377349D01*
X133089Y377000D01*
Y349377D01*
X129856Y346144D01*
X129658Y345849D01*
X129589Y345500D01*
Y342994D01*
X129106D01*
Y334406D01*
X131894D01*
Y342994D01*
X131411D01*
Y345123D01*
X134644Y348356D01*
X134842Y348651D01*
X134911Y349000D01*
Y376623D01*
X135801Y377513D01*
X136466D01*
X136673Y377013D01*
X136356Y376695D01*
X136158Y376399D01*
X136089Y376051D01*
Y350000D01*
X136158Y349651D01*
X136356Y349356D01*
X137356Y348356D01*
X137651Y348158D01*
X138000Y348089D01*
X144537D01*
X144589Y348037D01*
Y347002D01*
X144089Y346851D01*
X143993Y346993D01*
X143538Y347298D01*
X143000Y347405D01*
X142462Y347298D01*
X142007Y346993D01*
X141702Y346538D01*
X141595Y346000D01*
X141702Y345462D01*
X142007Y345007D01*
X142089Y344952D01*
Y343413D01*
X141894Y342994D01*
X141589Y342994D01*
X139106D01*
Y340519D01*
X138606Y340252D01*
X138538Y340298D01*
X138000Y340405D01*
X137462Y340298D01*
X137394Y340252D01*
X136894Y340519D01*
Y342994D01*
X134106D01*
Y338838D01*
X134079Y338700D01*
Y333668D01*
X134071Y333630D01*
X134178Y333092D01*
X134483Y332636D01*
X134939Y332332D01*
X135360Y332248D01*
X135502Y331866D01*
X135510Y331747D01*
X135356Y331644D01*
X132387Y328676D01*
X132190Y328380D01*
X132120Y328031D01*
Y324000D01*
X131894Y323594D01*
X131620Y323594D01*
X129106D01*
Y315006D01*
X129589D01*
Y314048D01*
X129507Y313993D01*
X129202Y313538D01*
X129095Y313000D01*
X129202Y312462D01*
X129507Y312007D01*
X129962Y311702D01*
X130500Y311595D01*
X131038Y311702D01*
X131493Y312007D01*
X131798Y312462D01*
X131905Y313000D01*
X131798Y313538D01*
X131493Y313993D01*
X131411Y314048D01*
Y314653D01*
X131640Y314882D01*
X131911Y314943D01*
X132119Y314761D01*
X132226Y314644D01*
X132387Y314404D01*
X133322Y313468D01*
X133618Y313271D01*
X133967Y313201D01*
X138213D01*
X138561Y313271D01*
X138857Y313468D01*
X140395Y315006D01*
X141894D01*
Y323594D01*
X139367D01*
X139160Y324094D01*
X140591Y325524D01*
X152461D01*
X154697Y323288D01*
X154697Y320441D01*
X154292Y320211D01*
X151894D01*
Y323594D01*
X149106D01*
Y315006D01*
X151894D01*
Y318389D01*
X165852D01*
X165904Y318337D01*
Y312740D01*
X164256D01*
Y305260D01*
X165904D01*
Y302512D01*
X164256D01*
Y291488D01*
X164497D01*
X164689Y291026D01*
X164125Y290463D01*
X163962Y290495D01*
X163425Y290388D01*
X162969Y290084D01*
X162664Y289628D01*
X162557Y289090D01*
X162664Y288553D01*
X162969Y288097D01*
X163425Y287792D01*
X163962Y287686D01*
X164500Y287792D01*
X164956Y288097D01*
X165261Y288553D01*
X165367Y289090D01*
X165361Y289122D01*
X167459Y291220D01*
X167639Y291488D01*
X168965D01*
X169172Y290988D01*
X133373Y255189D01*
X132911Y255381D01*
Y262126D01*
X137512D01*
Y267244D01*
X126488D01*
Y262126D01*
X131089D01*
Y254877D01*
X126122Y249910D01*
X125691Y250141D01*
X126344Y251718D01*
X126742Y253377D01*
X126837Y254579D01*
X116500D01*
Y244242D01*
X117701Y244337D01*
X119361Y244735D01*
X120938Y245388D01*
X122393Y246280D01*
X123690Y247388D01*
X124089Y247855D01*
X124589Y247670D01*
Y244457D01*
X123010D01*
X122697Y244394D01*
X122432Y244217D01*
X122255Y243952D01*
X122193Y243640D01*
Y236187D01*
X122255Y235874D01*
X122432Y235609D01*
X122697Y235432D01*
X123010Y235370D01*
X124467D01*
Y224508D01*
X123967Y224240D01*
X123774Y224369D01*
X123500Y224424D01*
Y222500D01*
Y220576D01*
X123774Y220631D01*
X123967Y220760D01*
X124467Y220492D01*
Y212797D01*
X124408Y212500D01*
Y208630D01*
X123010D01*
X122697Y208568D01*
X122432Y208391D01*
X122255Y208126D01*
X122193Y207813D01*
Y200832D01*
X121171Y199810D01*
X120973Y199514D01*
X120904Y199165D01*
Y195740D01*
X119256D01*
Y188260D01*
X118900Y187911D01*
X114350D01*
Y191500D01*
X111185D01*
X108020D01*
Y189922D01*
X107558Y189731D01*
X104982Y192307D01*
Y198609D01*
X105368Y198926D01*
X105372Y198925D01*
X107181D01*
Y204087D01*
Y209248D01*
X105372D01*
X105368Y209247D01*
X104982Y209564D01*
Y234436D01*
X105368Y234753D01*
X105372Y234752D01*
X107181D01*
Y239913D01*
Y245075D01*
X105372D01*
X105368Y245074D01*
X104982Y245391D01*
Y252385D01*
X105482Y252444D01*
X105656Y251718D01*
X106309Y250141D01*
X107201Y248686D01*
X108309Y247388D01*
X109607Y246280D01*
X111062Y245388D01*
X112639Y244735D01*
X114299Y244337D01*
X115500Y244242D01*
Y255079D01*
Y265915D01*
X114299Y265821D01*
X112639Y265423D01*
X111062Y264769D01*
X109607Y263878D01*
X108309Y262769D01*
X107201Y261472D01*
X106309Y260016D01*
X105656Y258440D01*
X105482Y257714D01*
X104982Y257773D01*
Y281922D01*
X105460Y282200D01*
X105482Y282198D01*
X106000Y282095D01*
X106538Y282202D01*
X106993Y282507D01*
X107048Y282589D01*
X116729D01*
X117078Y282658D01*
X117374Y282856D01*
X117959Y283441D01*
X118157Y283737D01*
X118226Y284086D01*
Y290988D01*
X119874D01*
Y302012D01*
X118226D01*
Y304760D01*
X119874D01*
Y307589D01*
X124914D01*
X125263Y307658D01*
X125558Y307856D01*
X126144Y308441D01*
X126342Y308737D01*
X126411Y309086D01*
Y315006D01*
X126894D01*
Y323594D01*
X124106D01*
Y315006D01*
X124589D01*
Y309463D01*
X124537Y309411D01*
X119874D01*
Y312240D01*
X114756D01*
Y304760D01*
X116404D01*
Y302012D01*
X114756D01*
Y290988D01*
X116404D01*
Y284463D01*
X116352Y284411D01*
X107048D01*
X106993Y284493D01*
X106538Y284798D01*
X106000Y284905D01*
X105462Y284798D01*
X105423Y284771D01*
X104964Y284627D01*
X104766Y284922D01*
X104537Y285151D01*
Y290988D01*
X107211D01*
Y290048D01*
X107129Y289993D01*
X106824Y289538D01*
X106717Y289000D01*
X106824Y288462D01*
X107129Y288007D01*
X107584Y287702D01*
X108122Y287595D01*
X108660Y287702D01*
X109116Y288007D01*
X109420Y288462D01*
X109527Y289000D01*
X109420Y289538D01*
X109116Y289993D01*
X109033Y290048D01*
Y290988D01*
X109244D01*
Y302012D01*
X107596D01*
Y304760D01*
X109244D01*
Y312240D01*
X107596D01*
Y318337D01*
X107648Y318389D01*
X119106D01*
Y315006D01*
X121894D01*
Y323594D01*
X119106D01*
Y320211D01*
X107271D01*
X106922Y320142D01*
X106626Y319944D01*
X106041Y319358D01*
X105843Y319063D01*
X105774Y318714D01*
Y312240D01*
X104537D01*
Y383183D01*
X105894Y384540D01*
X106394Y384333D01*
D02*
G37*
G36*
X153404Y375673D02*
Y374740D01*
X151756D01*
Y367260D01*
X153404D01*
Y362512D01*
X151756D01*
Y351488D01*
X156874D01*
Y362512D01*
X155226D01*
Y367260D01*
X156874D01*
Y371983D01*
X157395D01*
X157743Y372053D01*
X158039Y372250D01*
X159903Y374114D01*
X160000Y374095D01*
X160538Y374202D01*
X160894Y374440D01*
X161249Y374323D01*
X161394Y374219D01*
Y340000D01*
X161394Y340000D01*
X161517Y339386D01*
X161865Y338865D01*
X167394Y333335D01*
Y324606D01*
X162177D01*
Y325559D01*
X156968D01*
X154261Y328265D01*
X153740Y328613D01*
X153126Y328736D01*
X153126Y328736D01*
X139926D01*
X139925Y328736D01*
X139311Y328613D01*
X138790Y328265D01*
X134443Y323918D01*
X134135Y323986D01*
X133943Y324109D01*
Y327654D01*
X136377Y330089D01*
X142414D01*
X142763Y330158D01*
X143059Y330356D01*
X143644Y330942D01*
X143842Y331237D01*
X143911Y331586D01*
Y333987D01*
X144106Y334406D01*
X146894D01*
Y342994D01*
X146411D01*
Y348414D01*
X146342Y348763D01*
X146144Y349059D01*
X145559Y349644D01*
X145263Y349842D01*
X144914Y349911D01*
X138377D01*
X137911Y350377D01*
Y375673D01*
X137963Y375725D01*
X153352D01*
X153404Y375673D01*
D02*
G37*
G36*
X191865Y297865D02*
X191865Y297865D01*
X192113Y297699D01*
X192052Y297354D01*
X191961Y297199D01*
X175760D01*
X175411Y297129D01*
X175115Y296932D01*
X169874Y291690D01*
X169374Y291898D01*
Y302512D01*
X167726D01*
Y305260D01*
X169374D01*
Y312740D01*
X167726D01*
Y318714D01*
X167657Y319063D01*
X167459Y319358D01*
X166874Y319944D01*
X166578Y320142D01*
X166229Y320211D01*
X162582D01*
X162177Y320441D01*
X162177Y320711D01*
Y321394D01*
X168335D01*
X191865Y297865D01*
D02*
G37*
G36*
X191549Y290664D02*
X191517Y290615D01*
X191394Y290000D01*
X191517Y289386D01*
X191865Y288865D01*
X192385Y288517D01*
X193000Y288394D01*
X225726D01*
X225847Y288217D01*
X225948Y287894D01*
X225702Y287527D01*
X225595Y286989D01*
X225702Y286451D01*
X226007Y285996D01*
X226089Y285941D01*
Y278513D01*
X225728Y278272D01*
X225424Y277816D01*
X225317Y277278D01*
X225424Y276741D01*
X225728Y276285D01*
X226124Y276021D01*
X226282Y275658D01*
X226325Y275515D01*
X220222Y269411D01*
X164728D01*
X164380Y269342D01*
X164084Y269144D01*
X160356Y265416D01*
X160158Y265120D01*
X160089Y264772D01*
Y260259D01*
X160006Y260204D01*
X159702Y259748D01*
X159595Y259210D01*
X159702Y258672D01*
X159842Y258463D01*
X159574Y257963D01*
X154000D01*
X153631Y257890D01*
X153319Y257681D01*
X151911Y256274D01*
X151757Y256290D01*
X151411Y256443D01*
Y264181D01*
X162882Y275651D01*
X163270Y275332D01*
X163202Y275230D01*
X163095Y274693D01*
X163202Y274155D01*
X163506Y273699D01*
X163962Y273395D01*
X164500Y273288D01*
X165038Y273395D01*
X165494Y273699D01*
X165513Y273728D01*
X166054Y273818D01*
X166509Y273514D01*
X167047Y273407D01*
X167585Y273514D01*
X168041Y273818D01*
X168345Y274274D01*
X168452Y274812D01*
X168345Y275349D01*
X168041Y275805D01*
X168093Y276304D01*
X169341Y277553D01*
X169802Y277306D01*
X169800Y277295D01*
X169907Y276758D01*
X170211Y276302D01*
X170667Y275997D01*
X171205Y275890D01*
X171742Y275997D01*
X172198Y276302D01*
X172253Y276384D01*
X173795D01*
X174144Y276453D01*
X174440Y276651D01*
X186404Y288615D01*
X186501Y288596D01*
X187039Y288703D01*
X187494Y289007D01*
X187799Y289463D01*
X187906Y290001D01*
X187799Y290539D01*
X187715Y290664D01*
X187983Y291164D01*
X191282D01*
X191549Y290664D01*
D02*
G37*
G36*
X271894Y286260D02*
Y257102D01*
X271394Y257053D01*
X271298Y257538D01*
X270993Y257993D01*
X270538Y258298D01*
X270000Y258405D01*
X269462Y258298D01*
X269007Y257993D01*
X268702Y257538D01*
X268512Y257244D01*
X268173Y257244D01*
X259759D01*
X259608Y257395D01*
X259087Y257743D01*
X258472Y257866D01*
X258472Y257866D01*
X247980D01*
X247932Y257910D01*
X247730Y258366D01*
X247816Y258494D01*
X247885Y258842D01*
Y262166D01*
X248877D01*
X249035Y262135D01*
X258472D01*
X258472Y262135D01*
X259087Y262257D01*
X259608Y262605D01*
X259759Y262756D01*
X268512D01*
Y267874D01*
X264606D01*
Y270626D01*
X268512D01*
Y275744D01*
X259759D01*
X259608Y275895D01*
X259087Y276243D01*
X258472Y276365D01*
X258472Y276365D01*
X242965D01*
X242807Y276334D01*
X240986D01*
X240606Y276258D01*
X240284Y276043D01*
X240068Y275721D01*
X239993Y275341D01*
Y274179D01*
X240068Y273799D01*
X240284Y273477D01*
X240606Y273261D01*
X240986Y273186D01*
X242807D01*
X242965Y273154D01*
X257488D01*
Y270626D01*
X261394D01*
Y267874D01*
X257488D01*
Y265346D01*
X249035D01*
X248877Y265314D01*
X247057D01*
X246677Y265239D01*
X246355Y265023D01*
X246139Y264701D01*
X246064Y264321D01*
Y263159D01*
X246115Y262901D01*
Y262756D01*
X246063Y262493D01*
Y259220D01*
X241788Y254945D01*
X241590Y254650D01*
X241521Y254301D01*
Y232810D01*
X230856Y222144D01*
X230658Y221849D01*
X230589Y221500D01*
Y207048D01*
X230507Y206993D01*
X230202Y206538D01*
X230095Y206000D01*
X230202Y205462D01*
X230507Y205007D01*
X230962Y204702D01*
X231500Y204595D01*
X232038Y204702D01*
X232493Y205007D01*
X232537Y205071D01*
X233037Y204920D01*
Y203045D01*
X231455Y201463D01*
X229681D01*
X229544Y201906D01*
X229544Y201963D01*
Y224694D01*
X225911D01*
Y228729D01*
X225842Y229078D01*
X225644Y229374D01*
X225059Y229959D01*
X224763Y230157D01*
X224414Y230226D01*
X206740D01*
Y231874D01*
X199260D01*
Y230226D01*
X195777D01*
X194375Y231628D01*
X194175Y231762D01*
X194102Y232160D01*
X194114Y232329D01*
X196058Y234274D01*
X199260D01*
Y232626D01*
X206740D01*
Y234089D01*
X223914D01*
X224263Y234158D01*
X224558Y234356D01*
X225144Y234942D01*
X225342Y235237D01*
X225411Y235586D01*
Y239306D01*
X229544D01*
Y260860D01*
X230044Y261109D01*
X230089Y261075D01*
Y253500D01*
X230142Y253234D01*
X230095Y253000D01*
X230202Y252462D01*
X230507Y252007D01*
X230962Y251702D01*
X231500Y251595D01*
X232038Y251702D01*
X232493Y252007D01*
X232798Y252462D01*
X232905Y253000D01*
X232798Y253538D01*
X232493Y253993D01*
X232038Y254298D01*
X231911Y254323D01*
Y259549D01*
X232411Y259756D01*
X233468Y258699D01*
X233468Y258699D01*
X233989Y258351D01*
X234603Y258229D01*
X234603Y258229D01*
X240799D01*
X240799Y258229D01*
X241414Y258351D01*
X241525Y258426D01*
X242943D01*
X243323Y258501D01*
X243645Y258717D01*
X243861Y259039D01*
X243936Y259419D01*
Y260581D01*
X243861Y260961D01*
X243645Y261283D01*
X243323Y261499D01*
X242943Y261574D01*
X241123D01*
X240965Y261606D01*
X240806Y261574D01*
X238986D01*
X238606Y261499D01*
X238519Y261440D01*
X235268D01*
X234940Y261768D01*
Y263454D01*
X235440Y263606D01*
X235507Y263507D01*
X235962Y263202D01*
X236500Y263095D01*
X237038Y263202D01*
X237493Y263507D01*
X237798Y263962D01*
X237905Y264500D01*
X237798Y265038D01*
X237493Y265493D01*
X237463Y265513D01*
Y274817D01*
X237406Y275105D01*
X237434Y275251D01*
X237692Y275633D01*
X238038Y275702D01*
X238493Y276007D01*
X238798Y276462D01*
X238905Y277000D01*
X238886Y277097D01*
X239377Y277589D01*
X248129D01*
X248139Y277539D01*
X248355Y277217D01*
X248677Y277001D01*
X249057Y276926D01*
X253014D01*
X253394Y277001D01*
X253716Y277217D01*
X253932Y277539D01*
X254007Y277919D01*
Y279081D01*
X253932Y279461D01*
X253716Y279783D01*
X253394Y279999D01*
X253014Y280074D01*
X249057D01*
X248677Y279999D01*
X248355Y279783D01*
X248139Y279461D01*
X248129Y279411D01*
X239000D01*
X238651Y279342D01*
X238356Y279144D01*
X237597Y278386D01*
X237500Y278405D01*
X237034Y278312D01*
X236972Y278338D01*
X236852Y278925D01*
X239204Y281277D01*
X240070D01*
X240284Y280957D01*
X240606Y280742D01*
X240986Y280666D01*
X242807D01*
X242965Y280634D01*
X258472D01*
X258472Y280634D01*
X259087Y280757D01*
X259608Y281105D01*
X259759Y281256D01*
X268512D01*
Y284103D01*
X270803Y286394D01*
X271760D01*
X271894Y286260D01*
D02*
G37*
G36*
X182876Y288372D02*
X183059Y287847D01*
X173418Y278206D01*
X172253D01*
X172198Y278289D01*
X171742Y278593D01*
X171205Y278700D01*
X171194Y278698D01*
X170948Y279159D01*
X179001Y287213D01*
X181124D01*
X181473Y287282D01*
X181768Y287480D01*
X182683Y288394D01*
X182876Y288372D01*
D02*
G37*
G36*
X231729Y282977D02*
Y263181D01*
X231229Y262974D01*
X230965Y263238D01*
X230669Y263436D01*
X230321Y263505D01*
X219586D01*
X219237Y263436D01*
X218941Y263238D01*
X218411Y262708D01*
X218183Y262744D01*
X217911Y262887D01*
Y263452D01*
X217993Y263507D01*
X218298Y263962D01*
X218405Y264500D01*
X218298Y265038D01*
X217993Y265493D01*
X217538Y265798D01*
X217000Y265905D01*
X216462Y265798D01*
X216007Y265493D01*
X215702Y265038D01*
X215595Y264500D01*
X215702Y263962D01*
X216007Y263507D01*
X216089Y263452D01*
Y260048D01*
X216007Y259993D01*
X215702Y259538D01*
X215595Y259000D01*
X215702Y258462D01*
X216007Y258007D01*
X216462Y257702D01*
X217000Y257595D01*
X217124Y257620D01*
X217370Y257159D01*
X216123Y255911D01*
X192548D01*
X192493Y255993D01*
X192038Y256298D01*
X191500Y256405D01*
X190962Y256298D01*
X190506Y255993D01*
X190202Y255538D01*
X190095Y255000D01*
X190202Y254462D01*
X190506Y254007D01*
X190962Y253702D01*
X191500Y253595D01*
X192038Y253702D01*
X192493Y254007D01*
X192548Y254089D01*
X216500D01*
X216849Y254158D01*
X217144Y254356D01*
X219644Y256856D01*
X219842Y257151D01*
X219911Y257500D01*
Y261191D01*
X219956Y261235D01*
X220456Y261026D01*
Y239306D01*
X223589D01*
Y235963D01*
X223537Y235911D01*
X206740D01*
Y237744D01*
X199260D01*
Y236096D01*
X195681D01*
X195332Y236027D01*
X195037Y235829D01*
X193071Y233864D01*
X190118D01*
X189869Y234364D01*
X189882Y234384D01*
X189934Y234646D01*
Y235197D01*
X189882Y235458D01*
X189734Y235679D01*
Y236132D01*
X189803Y236235D01*
X189882Y236353D01*
X189934Y236614D01*
Y237165D01*
X189882Y237426D01*
X189734Y237648D01*
Y238100D01*
X189803Y238203D01*
X189882Y238321D01*
X189934Y238583D01*
Y239134D01*
X189882Y239395D01*
X189734Y239616D01*
Y240069D01*
X189803Y240172D01*
X189882Y240290D01*
X189934Y240551D01*
Y241102D01*
X189882Y241364D01*
X189734Y241585D01*
X189513Y241733D01*
X189252Y241785D01*
X183661D01*
X183400Y241733D01*
X183179Y241585D01*
X183031Y241364D01*
X182979Y241102D01*
Y240551D01*
X183031Y240290D01*
X183179Y240069D01*
Y239616D01*
X183110Y239513D01*
X183031Y239395D01*
X182979Y239134D01*
Y238583D01*
X183031Y238321D01*
X183179Y238100D01*
Y237648D01*
X183110Y237545D01*
X183031Y237426D01*
X182979Y237165D01*
Y236614D01*
X183031Y236353D01*
X183179Y236132D01*
Y235679D01*
X183110Y235576D01*
X183031Y235458D01*
X182979Y235197D01*
Y234646D01*
X183031Y234384D01*
X183179Y234163D01*
Y233711D01*
X183110Y233608D01*
X183031Y233489D01*
X182979Y233228D01*
Y232677D01*
X183031Y232416D01*
X183179Y232195D01*
Y231742D01*
X183110Y231639D01*
X183031Y231521D01*
X182979Y231260D01*
Y230709D01*
X183031Y230448D01*
X183055Y230411D01*
X182819Y229911D01*
X182586D01*
X182237Y229842D01*
X181941Y229644D01*
X181356Y229059D01*
X181158Y228763D01*
X181089Y228414D01*
Y218471D01*
X181037Y218419D01*
X164869D01*
X162809Y220480D01*
X162513Y220678D01*
X162164Y220747D01*
X159836D01*
X159487Y220678D01*
X159192Y220480D01*
X157511Y218800D01*
X157307Y218841D01*
X157021Y219017D01*
Y219449D01*
X156969Y219710D01*
X156821Y219931D01*
Y220384D01*
X156890Y220487D01*
X156969Y220605D01*
X157021Y220866D01*
Y221417D01*
X156969Y221678D01*
X156821Y221900D01*
Y222352D01*
X156890Y222455D01*
X156969Y222573D01*
X157021Y222835D01*
Y223386D01*
X156969Y223647D01*
X156821Y223868D01*
Y224321D01*
X156890Y224424D01*
X156969Y224542D01*
X157021Y224803D01*
Y225354D01*
X156969Y225616D01*
X156821Y225837D01*
Y226289D01*
X156890Y226392D01*
X156969Y226511D01*
X157021Y226772D01*
Y227323D01*
X156969Y227584D01*
X156821Y227805D01*
Y228258D01*
X156969Y228479D01*
X157021Y228740D01*
Y229291D01*
X156969Y229553D01*
X156821Y229774D01*
Y230226D01*
X156969Y230448D01*
X157021Y230709D01*
Y231260D01*
X156969Y231521D01*
X156955Y231542D01*
X157205Y232042D01*
X179404D01*
X179459Y231959D01*
X179915Y231655D01*
X180453Y231548D01*
X180991Y231655D01*
X181446Y231959D01*
X181751Y232415D01*
X181858Y232953D01*
X181751Y233490D01*
X181446Y233946D01*
X180991Y234251D01*
X180453Y234358D01*
X179915Y234251D01*
X179459Y233946D01*
X179404Y233864D01*
X158373D01*
X158264Y234025D01*
X158180Y234364D01*
X160039Y236223D01*
X160237Y236518D01*
X160306Y236867D01*
Y239700D01*
X160237Y240049D01*
X160039Y240344D01*
X155411Y244972D01*
Y245452D01*
X155493Y245507D01*
X155798Y245962D01*
X155905Y246500D01*
X155798Y247038D01*
X155493Y247493D01*
X155038Y247798D01*
X154500Y247905D01*
X153962Y247798D01*
X153507Y247493D01*
X153202Y247038D01*
X153095Y246500D01*
X153202Y245962D01*
X153507Y245507D01*
X153589Y245452D01*
Y244595D01*
X153658Y244246D01*
X153856Y243950D01*
X155559Y242247D01*
X155368Y241785D01*
X153570D01*
X153543Y241790D01*
X149387D01*
X148259Y242919D01*
Y243701D01*
X148240Y243794D01*
Y247874D01*
X145463D01*
Y250683D01*
X145492Y250702D01*
X145797Y251158D01*
X145904Y251696D01*
X145797Y252233D01*
X145492Y252689D01*
X145036Y252994D01*
X144499Y253100D01*
X143961Y252994D01*
X143505Y252689D01*
X143201Y252233D01*
X143094Y251696D01*
X143201Y251158D01*
X143505Y250702D01*
X143537Y250681D01*
Y247874D01*
X140760D01*
Y242756D01*
X146332D01*
Y242520D01*
X146405Y242151D01*
X146614Y241839D01*
X148307Y240146D01*
X148619Y239937D01*
X148988Y239863D01*
X149146D01*
X149493Y239363D01*
X149492Y239358D01*
X153543D01*
Y238358D01*
X149492D01*
X149546Y238085D01*
X149568Y238050D01*
X149585Y237803D01*
X149228Y237437D01*
X148846Y237595D01*
Y237850D01*
X145000D01*
Y234685D01*
X144000D01*
Y237850D01*
X140154D01*
Y237850D01*
X139696Y237953D01*
Y251993D01*
X139931Y252456D01*
X140469Y252563D01*
X140924Y252868D01*
X141229Y253323D01*
X141336Y253861D01*
X141229Y254399D01*
X140924Y254854D01*
X140529Y255119D01*
X140371Y255481D01*
X140327Y255625D01*
X149089Y264386D01*
X149589Y264179D01*
Y250086D01*
X149658Y249737D01*
X149856Y249442D01*
X150442Y248856D01*
X150737Y248658D01*
X151086Y248589D01*
X158215D01*
Y243661D01*
X158267Y243400D01*
X158415Y243179D01*
X158636Y243031D01*
X158898Y242979D01*
X159449D01*
X159710Y243031D01*
X159931Y243179D01*
X160383D01*
X160605Y243031D01*
X160866Y242979D01*
X161417D01*
X161678Y243031D01*
X161900Y243179D01*
X162352D01*
X162574Y243031D01*
X162835Y242979D01*
X163386D01*
X163647Y243031D01*
X163868Y243179D01*
X164321D01*
X164542Y243031D01*
X164803Y242979D01*
X165354D01*
X165615Y243031D01*
X165837Y243179D01*
X166289D01*
X166510Y243031D01*
X166772Y242979D01*
X167323D01*
X167584Y243031D01*
X167805Y243179D01*
X168257D01*
X168479Y243031D01*
X168740Y242979D01*
X169291D01*
X169552Y243031D01*
X169774Y243179D01*
X170226D01*
X170329Y243110D01*
X170448Y243031D01*
X170709Y242979D01*
X171260D01*
X171521Y243031D01*
X171742Y243179D01*
X172195D01*
X172298Y243110D01*
X172416Y243031D01*
X172677Y242979D01*
X173228D01*
X173489Y243031D01*
X173711Y243179D01*
X174163D01*
X174266Y243110D01*
X174384Y243031D01*
X174646Y242979D01*
X175197D01*
X175458Y243031D01*
X175679Y243179D01*
X176131D01*
X176235Y243110D01*
X176353Y243031D01*
X176431Y243015D01*
X176849Y242555D01*
X176835Y242483D01*
X176989Y241709D01*
X177428Y241053D01*
X178084Y240614D01*
X178358Y240560D01*
Y242483D01*
X179358D01*
Y240560D01*
X179632Y240614D01*
X180289Y241053D01*
X180727Y241709D01*
X180881Y242483D01*
X180867Y242555D01*
X181285Y243015D01*
X181363Y243031D01*
X181585Y243179D01*
X181733Y243400D01*
X181785Y243661D01*
Y246429D01*
X181790Y246457D01*
Y251932D01*
X183118Y253260D01*
X186874D01*
Y260740D01*
X185278D01*
Y263291D01*
X185205Y263660D01*
X184996Y263972D01*
X182358Y266610D01*
X182046Y266819D01*
X181677Y266893D01*
X165388D01*
X165140Y267392D01*
X165290Y267589D01*
X220599D01*
X220948Y267658D01*
X221243Y267856D01*
X230644Y277257D01*
X230842Y277552D01*
X230911Y277901D01*
Y282668D01*
X230993Y282723D01*
X231229Y283075D01*
X231729Y282977D01*
D02*
G37*
G36*
X183352Y262892D02*
Y260740D01*
X181756D01*
Y254622D01*
X180145Y253012D01*
X179937Y252699D01*
X179863Y252330D01*
Y250854D01*
X179363Y250507D01*
X179358Y250508D01*
Y246457D01*
X178358D01*
Y250508D01*
X178085Y250453D01*
X177663Y250171D01*
X177476Y249892D01*
X177426Y249882D01*
X177165Y249934D01*
X176614D01*
X176353Y249882D01*
X176131Y249734D01*
X175679D01*
X175576Y249803D01*
X175458Y249882D01*
X175197Y249934D01*
X174646D01*
X174504Y249906D01*
X174115Y250189D01*
X174062Y250249D01*
X174020Y250570D01*
X174251Y250915D01*
X174357Y251453D01*
X174251Y251990D01*
X174142Y252153D01*
X174409Y252654D01*
X176850D01*
Y256500D01*
X173685D01*
Y257000D01*
X173185D01*
Y261347D01*
X170520D01*
X170520Y261347D01*
Y261347D01*
X170044Y261299D01*
X170020Y261302D01*
X169500Y261405D01*
X169411Y261387D01*
X168911Y261798D01*
Y262952D01*
X168993Y263007D01*
X169298Y263462D01*
X169405Y264000D01*
X169312Y264466D01*
X169474Y264866D01*
X169527Y264966D01*
X181278D01*
X183352Y262892D01*
D02*
G37*
G36*
X160071Y255537D02*
X160006Y255493D01*
X159702Y255038D01*
X159595Y254500D01*
X159702Y253962D01*
X160006Y253507D01*
X160105Y253441D01*
Y250220D01*
X159959Y250095D01*
X159605Y249903D01*
X159518Y249921D01*
X159294Y250144D01*
X158998Y250342D01*
X158650Y250411D01*
X153945D01*
X153689Y250911D01*
X153854Y251158D01*
X153961Y251696D01*
X153854Y252234D01*
X153550Y252690D01*
X153519Y252710D01*
Y255157D01*
X154399Y256037D01*
X159920D01*
X160071Y255537D01*
D02*
G37*
G36*
X249747Y254154D02*
X249507Y253993D01*
X249202Y253538D01*
X249095Y253000D01*
X249202Y252462D01*
X249507Y252007D01*
X249962Y251702D01*
X250500Y251595D01*
X250597Y251614D01*
X251230Y250982D01*
X251525Y250784D01*
X251874Y250715D01*
X253737D01*
X253944Y250215D01*
X250365Y246635D01*
X250017Y246114D01*
X249894Y245500D01*
X249894Y245500D01*
Y227189D01*
X246113D01*
Y252425D01*
X248342Y254654D01*
X249595D01*
X249747Y254154D01*
D02*
G37*
G36*
X224089Y228352D02*
Y224694D01*
X220456D01*
Y201963D01*
X220456Y201906D01*
X220319Y201463D01*
X202230D01*
X202148Y201545D01*
Y206260D01*
X203744D01*
Y211832D01*
X205328D01*
X205697Y211905D01*
X206010Y212114D01*
X208181Y214286D01*
X208248Y214385D01*
X210075Y216212D01*
X210537Y216021D01*
Y213740D01*
X209256D01*
Y206260D01*
X214374D01*
Y209997D01*
X216022D01*
X216462Y209702D01*
X217000Y209595D01*
X217538Y209702D01*
X217993Y210007D01*
X218298Y210462D01*
X218405Y211000D01*
X218298Y211538D01*
X217993Y211993D01*
X217538Y212298D01*
X217000Y212405D01*
X216462Y212298D01*
X216022Y212003D01*
X214374D01*
Y213740D01*
X212463D01*
Y223854D01*
X212390Y224223D01*
X212181Y224535D01*
X211536Y225181D01*
X211223Y225390D01*
X210854Y225463D01*
X198177D01*
X195912Y227728D01*
X195931Y228317D01*
X195996Y228404D01*
X199260D01*
Y226756D01*
X206740D01*
Y228404D01*
X224037D01*
X224089Y228352D01*
D02*
G37*
G36*
X203500Y215520D02*
X206037D01*
X206228Y215058D01*
X204929Y213759D01*
X202799D01*
X202706Y213740D01*
X198626D01*
Y206260D01*
X200222D01*
Y201146D01*
X200295Y200777D01*
X200504Y200465D01*
X201150Y199819D01*
X201462Y199610D01*
X201831Y199537D01*
X230992D01*
X231184Y199075D01*
X227701Y195592D01*
X197272D01*
X197148Y195777D01*
X197051Y196092D01*
X197298Y196462D01*
X197405Y197000D01*
X197298Y197538D01*
X196994Y197994D01*
X196538Y198298D01*
X196289Y198347D01*
Y216398D01*
X196572Y216549D01*
X196789Y216618D01*
X197000Y216576D01*
Y218500D01*
X198000D01*
Y216576D01*
X198153Y216607D01*
X198653Y216329D01*
Y215520D01*
X202500D01*
Y218685D01*
X203500D01*
Y215520D01*
D02*
G37*
G36*
X147266Y226270D02*
X147293Y226174D01*
X147202Y226038D01*
X147095Y225500D01*
X147202Y224962D01*
X147506Y224507D01*
X147962Y224202D01*
X148500Y224095D01*
X149038Y224202D01*
X149494Y224507D01*
X149587Y224646D01*
X150118Y224542D01*
X150265Y224321D01*
Y223868D01*
X150197Y223765D01*
X150118Y223647D01*
X150066Y223386D01*
Y222835D01*
X150118Y222573D01*
X150265Y222352D01*
Y221900D01*
X150197Y221797D01*
X150118Y221678D01*
X150066Y221417D01*
Y220866D01*
X150118Y220605D01*
X150131Y220584D01*
X149882Y220084D01*
X146673D01*
X146325Y220015D01*
X146029Y219817D01*
X145356Y219144D01*
X145158Y218849D01*
X145089Y218500D01*
Y215449D01*
X144973Y215371D01*
X144668Y214916D01*
X144561Y214378D01*
X144654Y213911D01*
X144561Y213675D01*
X144287Y213602D01*
X144013Y213675D01*
X143920Y213911D01*
X144013Y214378D01*
X143906Y214916D01*
X143601Y215371D01*
X143519Y215426D01*
Y223231D01*
X146704Y226415D01*
X147266Y226270D01*
D02*
G37*
G36*
X150748Y218215D02*
X156339D01*
X156436Y218235D01*
X156797Y217920D01*
X156840Y217844D01*
X156817Y217728D01*
Y214963D01*
X155265Y213411D01*
X147494D01*
X147423Y213544D01*
X147278Y213911D01*
X147371Y214378D01*
X147264Y214916D01*
X146960Y215371D01*
X146911Y215404D01*
Y218123D01*
X147051Y218262D01*
X150513D01*
X150748Y218215D01*
D02*
G37*
G36*
X132301Y252859D02*
Y216787D01*
X132371Y216439D01*
X132568Y216143D01*
X133114Y215597D01*
X133095Y215500D01*
X133202Y214962D01*
X133507Y214507D01*
X133962Y214202D01*
X134500Y214095D01*
X135038Y214202D01*
X135494Y214507D01*
X135798Y214962D01*
X135905Y215500D01*
X135798Y216038D01*
X135494Y216493D01*
X135038Y216798D01*
X134500Y216905D01*
X134124Y217255D01*
Y218934D01*
X134586Y219126D01*
X135114Y218597D01*
X135095Y218500D01*
X135202Y217962D01*
X135506Y217507D01*
X135962Y217202D01*
X136500Y217095D01*
X137038Y217202D01*
X137494Y217507D01*
X137798Y217962D01*
X137905Y218500D01*
X137798Y219038D01*
X137494Y219493D01*
X137038Y219798D01*
X136500Y219905D01*
X136403Y219886D01*
X135518Y220771D01*
Y229540D01*
X135979Y229732D01*
X139356Y226356D01*
X139651Y226158D01*
X140000Y226089D01*
X143147D01*
X143338Y225627D01*
X141964Y224252D01*
X141766Y223957D01*
X141697Y223608D01*
Y215426D01*
X141614Y215371D01*
X141310Y214916D01*
X141203Y214378D01*
X141296Y213911D01*
X141151Y213544D01*
X141081Y213411D01*
X126289D01*
Y235370D01*
X127628D01*
X127940Y235432D01*
X128206Y235609D01*
X128383Y235874D01*
X128445Y236187D01*
Y243640D01*
X128383Y243952D01*
X128206Y244217D01*
X127940Y244394D01*
X127628Y244457D01*
X126411D01*
Y247623D01*
X131840Y253051D01*
X132301Y252859D01*
D02*
G37*
G36*
X190089Y207160D02*
Y197835D01*
X190006Y197780D01*
X189702Y197324D01*
X189697Y197299D01*
X189154Y197134D01*
X183386Y202903D01*
X183405Y203000D01*
X183298Y203538D01*
X182993Y203994D01*
X182538Y204298D01*
X182000Y204405D01*
X181462Y204298D01*
X181007Y203994D01*
X180702Y203538D01*
X180595Y203000D01*
X180702Y202462D01*
X181007Y202007D01*
X181462Y201702D01*
X182000Y201595D01*
X182097Y201614D01*
X189051Y194660D01*
X188859Y194199D01*
X179217D01*
X178999Y194416D01*
X178741Y194589D01*
X178697Y194645D01*
X178590Y195146D01*
X179522Y196078D01*
X179720Y196373D01*
X179789Y196722D01*
Y209852D01*
X180289Y210118D01*
X180290Y210118D01*
X180551Y210066D01*
X181102D01*
X181363Y210118D01*
X181585Y210266D01*
X181733Y210487D01*
X181785Y210748D01*
Y212632D01*
X184617D01*
X190089Y207160D01*
D02*
G37*
G36*
X175919Y210101D02*
X176089Y209984D01*
Y198548D01*
X176006Y198494D01*
X175702Y198038D01*
X175595Y197500D01*
X175702Y196962D01*
X175960Y196577D01*
X175880Y196295D01*
X175750Y196077D01*
X175068D01*
X174719Y196007D01*
X174423Y195810D01*
X174131Y195518D01*
X173199D01*
X173149Y196018D01*
X173627Y196113D01*
X174083Y196417D01*
X174387Y196873D01*
X174494Y197411D01*
X174387Y197948D01*
X174083Y198404D01*
X173864Y198550D01*
Y209882D01*
X174364Y210132D01*
X174384Y210118D01*
X174646Y210066D01*
X175197D01*
X175458Y210118D01*
X175589Y210205D01*
X175919Y210101D01*
D02*
G37*
G36*
X161642Y209492D02*
X161915Y209546D01*
X162216Y209748D01*
X162420Y209734D01*
X162764Y209316D01*
X162777Y209202D01*
X162485Y208846D01*
X162150D01*
Y205000D01*
X165315D01*
Y204500D01*
X165815D01*
Y200123D01*
X165994Y199692D01*
X163213Y196911D01*
X154102D01*
X150253Y200760D01*
Y209043D01*
X150184Y209392D01*
X149986Y209687D01*
X148585Y211089D01*
X148621Y211317D01*
X148764Y211589D01*
X155642D01*
X155991Y211658D01*
X156287Y211856D01*
X157710Y213279D01*
X158210Y213071D01*
Y208340D01*
X158128Y208259D01*
X156299D01*
X156206Y208240D01*
X152126D01*
Y200760D01*
X153497D01*
X153907Y200260D01*
X153890Y200171D01*
X153997Y199634D01*
X154301Y199178D01*
X154757Y198873D01*
X155295Y198766D01*
X155832Y198873D01*
X156288Y199178D01*
X156593Y199634D01*
X156700Y200171D01*
X156682Y200260D01*
X157092Y200760D01*
X157244D01*
Y206332D01*
X158527D01*
X158896Y206405D01*
X159209Y206614D01*
X159854Y207260D01*
X160063Y207572D01*
X160137Y207941D01*
Y209146D01*
X160637Y209493D01*
X160642Y209492D01*
Y213543D01*
X161642D01*
Y209492D01*
D02*
G37*
G36*
X238995Y227000D02*
Y223433D01*
X233319Y217757D01*
X233110Y217444D01*
X233037Y217075D01*
Y207570D01*
X232537Y207320D01*
X232411Y207413D01*
Y221123D01*
X238508Y227219D01*
X238995Y227000D01*
D02*
G37*
G36*
X183411Y218265D02*
X183661Y218215D01*
X189252D01*
X189487Y218262D01*
X190247D01*
X192589Y215920D01*
Y198282D01*
X192346Y198126D01*
X191911Y198357D01*
Y207538D01*
X191842Y207886D01*
X191644Y208182D01*
X185639Y214188D01*
X185343Y214385D01*
X184994Y214455D01*
X181785D01*
Y216339D01*
X181733Y216600D01*
X181760Y216666D01*
X181763Y216666D01*
X182059Y216864D01*
X182644Y217449D01*
X182842Y217745D01*
X182894Y218009D01*
X183143Y218176D01*
X183400Y218267D01*
X183411Y218265D01*
D02*
G37*
G36*
X172041Y202520D02*
Y198322D01*
X171792Y197948D01*
X171685Y197411D01*
X171792Y196873D01*
X172096Y196417D01*
X172552Y196113D01*
X173030Y196018D01*
X172980Y195518D01*
X165050D01*
X164859Y195979D01*
X171522Y202643D01*
X171541Y202672D01*
X172041Y202520D01*
D02*
G37*
G36*
X130948Y211089D02*
X130924Y211053D01*
X130817Y210516D01*
X130924Y209978D01*
X131229Y209522D01*
X131685Y209218D01*
X132222Y209111D01*
X132760Y209218D01*
X133216Y209522D01*
X133260Y209589D01*
X137147D01*
X137338Y209127D01*
X135856Y207644D01*
X135658Y207349D01*
X135589Y207000D01*
Y193377D01*
X130123Y187911D01*
X124730D01*
X124374Y188260D01*
Y195740D01*
X122726D01*
Y198788D01*
X123482Y199543D01*
X127628D01*
X127940Y199606D01*
X128206Y199783D01*
X128383Y200048D01*
X128445Y200360D01*
Y207813D01*
X128383Y208126D01*
X128206Y208391D01*
X127940Y208568D01*
X127628Y208630D01*
X126230D01*
Y211589D01*
X130681D01*
X130948Y211089D01*
D02*
G37*
%LPC*%
G36*
X163260Y526843D02*
X157473D01*
Y521100D01*
X156086D01*
X155737Y521031D01*
X155441Y520833D01*
X153897Y519288D01*
X153760Y519084D01*
X153315Y519145D01*
X153260Y519167D01*
Y526843D01*
X147473D01*
Y513535D01*
X148700D01*
Y510000D01*
X148822Y509385D01*
X149170Y508865D01*
X149691Y508517D01*
X150305Y508394D01*
X150920Y508517D01*
X151441Y508865D01*
X151789Y509385D01*
X151911Y510000D01*
Y513535D01*
X153130D01*
X153260Y513535D01*
X153630Y513221D01*
Y466607D01*
X151852Y464828D01*
X151654Y464533D01*
X151585Y464184D01*
Y459624D01*
X151102D01*
Y451036D01*
X153890D01*
Y459624D01*
X153407D01*
Y463807D01*
X155185Y465585D01*
X155383Y465880D01*
X155452Y466229D01*
Y518267D01*
X156463Y519278D01*
X157473D01*
Y513535D01*
X163260D01*
Y526843D01*
D02*
G37*
G36*
X304992D02*
X299205D01*
Y513535D01*
X301187D01*
Y511232D01*
X300687Y511080D01*
X300644Y511144D01*
X297911Y513877D01*
Y517452D01*
X297993Y517507D01*
X298298Y517962D01*
X298405Y518500D01*
X298298Y519038D01*
X297993Y519493D01*
X297538Y519798D01*
X297000Y519905D01*
X296462Y519798D01*
X296007Y519493D01*
X295702Y519038D01*
X295595Y518500D01*
X295702Y517962D01*
X296007Y517507D01*
X296089Y517452D01*
Y513500D01*
X296158Y513151D01*
X296356Y512856D01*
X299089Y510123D01*
Y494377D01*
X269356Y464644D01*
X269158Y464349D01*
X269089Y464000D01*
Y429086D01*
X269158Y428737D01*
X269356Y428441D01*
X269941Y427856D01*
X270237Y427658D01*
X270586Y427589D01*
X305446D01*
X305795Y427658D01*
X306091Y427856D01*
X309871Y431636D01*
X311370D01*
Y440224D01*
X308583D01*
Y432925D01*
X305069Y429411D01*
X298325D01*
X298182Y429683D01*
X298146Y429911D01*
X299871Y431636D01*
X301370D01*
Y440224D01*
X298583D01*
Y432925D01*
X297069Y431411D01*
X296777D01*
X296370Y431636D01*
X296370Y431911D01*
Y440224D01*
X293583D01*
Y436841D01*
X291370D01*
Y440224D01*
X290382D01*
X290119Y440724D01*
X290278Y440962D01*
X290385Y441500D01*
X290278Y442038D01*
X289974Y442493D01*
X289518Y442798D01*
X288980Y442905D01*
X288442Y442798D01*
X288002Y442503D01*
X285094D01*
Y442874D01*
X277614D01*
Y437756D01*
X285094D01*
Y440496D01*
X288002D01*
X288442Y440202D01*
X288583Y440174D01*
Y436841D01*
X281956D01*
X281607Y436772D01*
X281595Y436763D01*
X281379Y436806D01*
X280841Y436700D01*
X280385Y436395D01*
X280081Y435939D01*
X279974Y435402D01*
X280081Y434864D01*
X280385Y434408D01*
X280841Y434104D01*
X281379Y433997D01*
X281916Y434104D01*
X282372Y434408D01*
X282677Y434864D01*
X282708Y435019D01*
X288583D01*
X288583Y431636D01*
X288176Y431411D01*
X273463D01*
X273411Y431463D01*
Y463288D01*
X302743Y492619D01*
X302940Y492915D01*
X303010Y493264D01*
Y513535D01*
X304992D01*
Y526843D01*
D02*
G37*
G36*
X210504D02*
X204716D01*
Y521100D01*
X203586D01*
X203237Y521031D01*
X202941Y520833D01*
X202356Y520248D01*
X202158Y519952D01*
X202089Y519603D01*
Y507377D01*
X201623Y506911D01*
X186500D01*
X186384Y506888D01*
X186138Y507349D01*
X193644Y514856D01*
X193842Y515151D01*
X193911Y515500D01*
Y519141D01*
X193993Y519196D01*
X194217Y519529D01*
X194717Y519387D01*
Y513535D01*
X195938D01*
Y510000D01*
X196060Y509385D01*
X196408Y508865D01*
X196929Y508517D01*
X197544Y508394D01*
X198158Y508517D01*
X198679Y508865D01*
X199027Y509385D01*
X199150Y510000D01*
Y513535D01*
X200504D01*
Y526843D01*
X194717D01*
Y520991D01*
X194217Y520849D01*
X193993Y521182D01*
X193538Y521487D01*
X193000Y521594D01*
X192462Y521487D01*
X192007Y521182D01*
X191702Y520727D01*
X191595Y520189D01*
X191702Y519651D01*
X192007Y519196D01*
X192089Y519141D01*
Y515877D01*
X181356Y505144D01*
X181158Y504849D01*
X181089Y504500D01*
Y431463D01*
X181037Y431411D01*
X164296D01*
X163890Y431636D01*
X163890Y431911D01*
Y435019D01*
X169814D01*
X169844Y434864D01*
X170149Y434408D01*
X170605Y434104D01*
X171142Y433997D01*
X171680Y434104D01*
X172136Y434408D01*
X172441Y434864D01*
X172547Y435402D01*
X172441Y435939D01*
X172136Y436395D01*
X171680Y436700D01*
X171142Y436806D01*
X170926Y436763D01*
X170914Y436772D01*
X170565Y436841D01*
X163890D01*
Y440224D01*
X161102D01*
Y436841D01*
X158890D01*
Y440224D01*
X156102D01*
Y431911D01*
X156102Y431636D01*
X155695Y431411D01*
X154297D01*
X153890Y431636D01*
Y440224D01*
X151102D01*
Y431636D01*
X151585D01*
Y431086D01*
X151654Y430737D01*
X151852Y430442D01*
X152169Y430124D01*
X151962Y429624D01*
X147191D01*
X143890Y432925D01*
Y440224D01*
X141102D01*
Y431636D01*
X142601D01*
X146169Y428068D01*
X146465Y427871D01*
X146813Y427801D01*
X183127D01*
X183475Y427871D01*
X183771Y428068D01*
X184644Y428941D01*
X184842Y429237D01*
X184911Y429586D01*
Y503123D01*
X186877Y505089D01*
X202000D01*
X202349Y505158D01*
X202644Y505356D01*
X203644Y506356D01*
X203842Y506651D01*
X203911Y507000D01*
Y519226D01*
X203963Y519278D01*
X204716D01*
Y513535D01*
X210504D01*
Y526843D01*
D02*
G37*
G36*
X294992D02*
X289205D01*
Y513535D01*
X290493D01*
Y510000D01*
X290615Y509385D01*
X290963Y508865D01*
X291484Y508517D01*
X292098Y508394D01*
X292713Y508517D01*
X293234Y508865D01*
X293582Y509385D01*
X293704Y510000D01*
Y513535D01*
X294992D01*
Y526843D01*
D02*
G37*
G36*
X261736Y498764D02*
Y495342D01*
X265157D01*
X265087Y495874D01*
X264689Y496836D01*
X264055Y497662D01*
X263230Y498295D01*
X262268Y498694D01*
X261736Y498764D01*
D02*
G37*
G36*
X260736D02*
X260204Y498694D01*
X259243Y498295D01*
X258417Y497662D01*
X257784Y496836D01*
X257385Y495874D01*
X257315Y495342D01*
X260736D01*
Y498764D01*
D02*
G37*
G36*
X221236Y498218D02*
X220363Y498103D01*
X219549Y497766D01*
X218849Y497229D01*
X218313Y496530D01*
X217976Y495716D01*
X217861Y494842D01*
X217976Y493969D01*
X218010Y493887D01*
X212837Y488714D01*
X212489Y488193D01*
X212367Y487579D01*
X212367Y487579D01*
Y340689D01*
X212367Y340689D01*
X212489Y340074D01*
X212837Y339554D01*
X218010Y334381D01*
X217976Y334299D01*
X217861Y333425D01*
X217976Y332552D01*
X218313Y331737D01*
X218849Y331038D01*
X219549Y330502D01*
X220363Y330165D01*
X221236Y330050D01*
X222110Y330165D01*
X222924Y330502D01*
X223623Y331038D01*
X224159Y331737D01*
X224497Y332552D01*
X224611Y333425D01*
X224497Y334299D01*
X224159Y335113D01*
X223623Y335812D01*
X222924Y336348D01*
X222110Y336685D01*
X221236Y336801D01*
X220363Y336685D01*
X220281Y336651D01*
X215578Y341354D01*
Y486914D01*
X220281Y491616D01*
X220363Y491582D01*
X221236Y491467D01*
X222110Y491582D01*
X222924Y491919D01*
X223623Y492456D01*
X224159Y493155D01*
X224497Y493969D01*
X224611Y494842D01*
X224497Y495716D01*
X224159Y496530D01*
X223623Y497229D01*
X222924Y497766D01*
X222110Y498103D01*
X221236Y498218D01*
D02*
G37*
G36*
X265157Y494343D02*
X261736D01*
Y490921D01*
X262268Y490991D01*
X263230Y491390D01*
X264055Y492023D01*
X264689Y492849D01*
X265087Y493811D01*
X265157Y494343D01*
D02*
G37*
G36*
X260736D02*
X257315D01*
X257385Y493811D01*
X257784Y492849D01*
X258417Y492023D01*
X259243Y491390D01*
X260204Y490991D01*
X260736Y490921D01*
Y494343D01*
D02*
G37*
G36*
X336972Y495837D02*
Y485500D01*
X347309D01*
X347215Y486701D01*
X346816Y488361D01*
X346163Y489938D01*
X345271Y491393D01*
X344163Y492691D01*
X342865Y493799D01*
X341410Y494691D01*
X339833Y495344D01*
X338174Y495742D01*
X336972Y495837D01*
D02*
G37*
G36*
X335972D02*
X334771Y495742D01*
X333112Y495344D01*
X331535Y494691D01*
X330080Y493799D01*
X328782Y492691D01*
X327674Y491393D01*
X326782Y489938D01*
X326129Y488361D01*
X325730Y486701D01*
X325636Y485500D01*
X335972D01*
Y495837D01*
D02*
G37*
G36*
X116500D02*
Y485500D01*
X126837D01*
X126742Y486701D01*
X126344Y488361D01*
X125691Y489938D01*
X124799Y491393D01*
X123690Y492691D01*
X122393Y493799D01*
X120938Y494691D01*
X119361Y495344D01*
X117701Y495742D01*
X116500Y495837D01*
D02*
G37*
G36*
X115500D02*
X114299Y495742D01*
X112639Y495344D01*
X111062Y494691D01*
X109607Y493799D01*
X108309Y492691D01*
X107201Y491393D01*
X106309Y489938D01*
X105656Y488361D01*
X105258Y486701D01*
X105163Y485500D01*
X115500D01*
Y495837D01*
D02*
G37*
G36*
X226000Y484201D02*
X216090D01*
Y477500D01*
X226000D01*
Y484201D01*
D02*
G37*
G36*
X347309Y484500D02*
X336972D01*
Y474163D01*
X338174Y474258D01*
X339833Y474656D01*
X341410Y475309D01*
X342865Y476201D01*
X344163Y477310D01*
X345271Y478607D01*
X346163Y480062D01*
X346816Y481639D01*
X347215Y483299D01*
X347309Y484500D01*
D02*
G37*
G36*
X335972D02*
X325636D01*
X325730Y483299D01*
X326129Y481639D01*
X326782Y480062D01*
X327674Y478607D01*
X328782Y477310D01*
X330080Y476201D01*
X331535Y475309D01*
X333112Y474656D01*
X334771Y474258D01*
X335972Y474163D01*
Y484500D01*
D02*
G37*
G36*
X126837D02*
X116500D01*
Y474163D01*
X117701Y474258D01*
X119361Y474656D01*
X120938Y475309D01*
X122393Y476201D01*
X123690Y477310D01*
X124799Y478607D01*
X125691Y480062D01*
X126344Y481639D01*
X126742Y483299D01*
X126837Y484500D01*
D02*
G37*
G36*
X115500D02*
X105163D01*
X105258Y483299D01*
X105656Y481639D01*
X106309Y480062D01*
X107201Y478607D01*
X108309Y477310D01*
X109607Y476201D01*
X111062Y475309D01*
X112639Y474656D01*
X114299Y474258D01*
X115500Y474163D01*
Y484500D01*
D02*
G37*
G36*
X226000Y476500D02*
X216090D01*
Y469799D01*
X226000D01*
Y476500D01*
D02*
G37*
G36*
X321370Y459624D02*
X318583D01*
Y456241D01*
X316370D01*
Y459624D01*
X313583D01*
Y451036D01*
X316370D01*
Y454419D01*
X318583D01*
Y451036D01*
X321370D01*
Y454419D01*
X327304D01*
X327312Y454376D01*
X327617Y453920D01*
X328073Y453615D01*
X328610Y453508D01*
X329148Y453615D01*
X329604Y453920D01*
X329908Y454376D01*
X330015Y454913D01*
X329908Y455451D01*
X329604Y455907D01*
X329148Y456211D01*
X328610Y456318D01*
X328184Y456234D01*
X328145Y456241D01*
X321370D01*
Y459624D01*
D02*
G37*
G36*
X163890D02*
X161102D01*
Y456241D01*
X158890D01*
Y459624D01*
X156102D01*
Y451036D01*
X158890D01*
Y454419D01*
X161102D01*
Y451036D01*
X163890D01*
Y454419D01*
X169823D01*
X169832Y454376D01*
X170136Y453920D01*
X170592Y453615D01*
X171130Y453508D01*
X171668Y453615D01*
X172123Y453920D01*
X172428Y454376D01*
X172535Y454913D01*
X172428Y455451D01*
X172123Y455907D01*
X171668Y456211D01*
X171130Y456318D01*
X170703Y456234D01*
X170664Y456241D01*
X163890D01*
Y459624D01*
D02*
G37*
G36*
X310078Y462827D02*
X309540Y462720D01*
X309085Y462416D01*
X308780Y461960D01*
X308673Y461422D01*
X308780Y460884D01*
X309077Y460440D01*
Y459624D01*
X308583D01*
Y451036D01*
X311370D01*
Y459624D01*
X310899D01*
Y460314D01*
X311071Y460429D01*
X311376Y460884D01*
X311483Y461422D01*
X311376Y461960D01*
X311071Y462416D01*
X310616Y462720D01*
X310078Y462827D01*
D02*
G37*
G36*
X300000Y462905D02*
X299462Y462798D01*
X299007Y462494D01*
X298702Y462038D01*
X298595Y461500D01*
X298702Y460962D01*
X299007Y460506D01*
X299077Y460460D01*
Y459624D01*
X298583D01*
Y451036D01*
X301370D01*
Y459624D01*
X300899D01*
Y460444D01*
X300993Y460506D01*
X301298Y460962D01*
X301405Y461500D01*
X301298Y462038D01*
X300993Y462494D01*
X300538Y462798D01*
X300000Y462905D01*
D02*
G37*
G36*
X145311Y521594D02*
X144773Y521487D01*
X144318Y521182D01*
X144013Y520727D01*
X143906Y520189D01*
X144013Y519651D01*
X144318Y519196D01*
X144400Y519141D01*
Y467188D01*
X141852Y464640D01*
X141654Y464345D01*
X141585Y463996D01*
Y459624D01*
X141102D01*
Y451036D01*
X143890D01*
Y459624D01*
X143407D01*
Y463619D01*
X145955Y466167D01*
X146153Y466462D01*
X146222Y466811D01*
Y519141D01*
X146304Y519196D01*
X146609Y519651D01*
X146716Y520189D01*
X146609Y520727D01*
X146304Y521182D01*
X145849Y521487D01*
X145311Y521594D01*
D02*
G37*
G36*
X131500Y442905D02*
X130962Y442798D01*
X130522Y442503D01*
X127614D01*
Y442874D01*
X120134D01*
Y437756D01*
X127614D01*
Y440496D01*
X130522D01*
X130962Y440202D01*
X131102Y440174D01*
Y436841D01*
X124476D01*
X124127Y436772D01*
X124115Y436763D01*
X123898Y436806D01*
X123361Y436700D01*
X122905Y436395D01*
X122600Y435939D01*
X122493Y435402D01*
X122600Y434864D01*
X122905Y434408D01*
X123361Y434104D01*
X123898Y433997D01*
X124436Y434104D01*
X124892Y434408D01*
X125196Y434864D01*
X125227Y435019D01*
X131102D01*
Y431636D01*
X133890D01*
Y435019D01*
X136102D01*
Y431636D01*
X138890D01*
Y440224D01*
X136102D01*
Y436841D01*
X133890D01*
Y440224D01*
X132902D01*
X132639Y440724D01*
X132798Y440962D01*
X132905Y441500D01*
X132798Y442038D01*
X132493Y442493D01*
X132038Y442798D01*
X131500Y442905D01*
D02*
G37*
G36*
X321370Y440224D02*
X318583D01*
Y436841D01*
X316370D01*
Y440224D01*
X313583D01*
Y431636D01*
X316370D01*
Y435019D01*
X318583D01*
Y431636D01*
X321370D01*
Y435019D01*
X327294D01*
X327325Y434864D01*
X327629Y434408D01*
X328085Y434104D01*
X328623Y433997D01*
X329161Y434104D01*
X329616Y434408D01*
X329921Y434864D01*
X330028Y435402D01*
X329921Y435939D01*
X329616Y436395D01*
X329161Y436700D01*
X328623Y436806D01*
X328407Y436763D01*
X328394Y436772D01*
X328046Y436841D01*
X321370D01*
Y440224D01*
D02*
G37*
G36*
X305000Y442421D02*
X304456Y442313D01*
X303995Y442005D01*
X303972Y441981D01*
X303664Y441520D01*
X303555Y440976D01*
Y435930D01*
X303583Y435793D01*
Y431636D01*
X306370D01*
Y435793D01*
X306397Y435930D01*
Y440881D01*
X306421Y441000D01*
X306313Y441544D01*
X306005Y442005D01*
X305544Y442313D01*
X305000Y442421D01*
D02*
G37*
G36*
X147520Y442405D02*
X146982Y442298D01*
X146976Y442294D01*
X146952Y442289D01*
X146491Y441981D01*
X146183Y441520D01*
X146075Y440976D01*
Y435930D01*
X146102Y435794D01*
Y431636D01*
X148890D01*
Y435792D01*
X148917Y435930D01*
Y440962D01*
X148925Y441000D01*
X148818Y441538D01*
X148513Y441994D01*
X148057Y442298D01*
X147520Y442405D01*
D02*
G37*
G36*
X286866Y402323D02*
X275842D01*
Y400675D01*
X274870D01*
X274798Y401038D01*
X274493Y401493D01*
X274038Y401798D01*
X273500Y401905D01*
X272962Y401798D01*
X272507Y401493D01*
X272202Y401038D01*
X272095Y400500D01*
X272202Y399962D01*
X272507Y399507D01*
X272962Y399202D01*
X273500Y399095D01*
X273638Y399123D01*
X273641Y399119D01*
X273937Y398922D01*
X274285Y398853D01*
X275842D01*
Y397205D01*
X286866D01*
Y402323D01*
D02*
G37*
G36*
X129386D02*
X118362D01*
Y400675D01*
X117390D01*
X117318Y401038D01*
X117013Y401493D01*
X116557Y401798D01*
X116020Y401905D01*
X115482Y401798D01*
X115026Y401493D01*
X114722Y401038D01*
X114615Y400500D01*
X114722Y399962D01*
X115026Y399507D01*
X115482Y399202D01*
X116020Y399095D01*
X116158Y399123D01*
X116161Y399119D01*
X116456Y398922D01*
X116805Y398853D01*
X118362D01*
Y397205D01*
X129386D01*
Y402323D01*
D02*
G37*
G36*
X328623Y413307D02*
X328085Y413200D01*
X327629Y412895D01*
X327325Y412439D01*
X327218Y411902D01*
X327325Y411364D01*
X327629Y410908D01*
X327687Y410870D01*
Y402323D01*
X323087D01*
Y397205D01*
X334110D01*
Y402323D01*
X329510D01*
Y410837D01*
X329616Y410908D01*
X329921Y411364D01*
X330028Y411902D01*
X329921Y412439D01*
X329616Y412895D01*
X329161Y413200D01*
X328623Y413307D01*
D02*
G37*
G36*
X171118Y413331D02*
X170580Y413224D01*
X170125Y412920D01*
X169820Y412464D01*
X169713Y411926D01*
X169820Y411388D01*
X170125Y410933D01*
X170183Y410894D01*
Y402323D01*
X165606D01*
Y397205D01*
X176630D01*
Y402323D01*
X172005D01*
Y410861D01*
X172112Y410933D01*
X172416Y411388D01*
X172523Y411926D01*
X172416Y412464D01*
X172112Y412920D01*
X171656Y413224D01*
X171118Y413331D01*
D02*
G37*
G36*
X180890Y380799D02*
X167110D01*
Y370563D01*
X180890D01*
Y374276D01*
X185587D01*
X185704Y374198D01*
X186319Y374076D01*
X186933Y374198D01*
X187454Y374546D01*
X187802Y375067D01*
X187925Y375681D01*
X187802Y376296D01*
X187454Y376817D01*
X186933Y377165D01*
X186319Y377287D01*
X185704Y377165D01*
X185587Y377086D01*
X180890D01*
Y380799D01*
D02*
G37*
G36*
X284118Y362980D02*
X278500D01*
Y360315D01*
X284118D01*
Y362980D01*
D02*
G37*
G36*
X277500D02*
X271882D01*
Y360315D01*
X277500D01*
Y362980D01*
D02*
G37*
G36*
X284118Y359315D02*
X278500D01*
Y356650D01*
X284118D01*
Y359315D01*
D02*
G37*
G36*
X277500D02*
X271882D01*
Y356650D01*
X277500D01*
Y359315D01*
D02*
G37*
G36*
X291441Y357740D02*
X289268D01*
Y356059D01*
X291441D01*
Y357740D01*
D02*
G37*
G36*
X288268D02*
X286094D01*
Y356059D01*
X288268D01*
Y357740D01*
D02*
G37*
G36*
X226500Y377287D02*
X225886Y377165D01*
X225365Y376817D01*
X225017Y376296D01*
X224894Y375681D01*
X225017Y375067D01*
X225095Y374949D01*
Y361390D01*
X216697D01*
Y348201D01*
X236303D01*
Y361390D01*
X227905D01*
Y374949D01*
X227983Y375067D01*
X228106Y375681D01*
X227983Y376296D01*
X227635Y376817D01*
X227115Y377165D01*
X226500Y377287D01*
D02*
G37*
G36*
X346953Y341953D02*
X343500D01*
Y338500D01*
X346953D01*
Y341953D01*
D02*
G37*
G36*
X342500D02*
X339047D01*
Y338500D01*
X342500D01*
Y341953D01*
D02*
G37*
G36*
X241236Y498218D02*
X240363Y498103D01*
X239548Y497766D01*
X238849Y497229D01*
X238313Y496530D01*
X237976Y495716D01*
X237861Y494842D01*
X237976Y493969D01*
X238313Y493155D01*
X238849Y492456D01*
X239548Y491919D01*
X240363Y491582D01*
X241236Y491467D01*
X241424Y491492D01*
X241894Y491022D01*
Y337246D01*
X241424Y336776D01*
X241236Y336801D01*
X240363Y336685D01*
X239548Y336348D01*
X238849Y335812D01*
X238313Y335113D01*
X237976Y334299D01*
X237861Y333425D01*
X237976Y332552D01*
X238313Y331737D01*
X238849Y331038D01*
X239548Y330502D01*
X240363Y330165D01*
X241236Y330050D01*
X242110Y330165D01*
X242924Y330502D01*
X243623Y331038D01*
X244159Y331737D01*
X244496Y332552D01*
X244612Y333425D01*
X244496Y334299D01*
X244201Y335011D01*
X244635Y335445D01*
X244635Y335445D01*
X244983Y335966D01*
X245106Y336581D01*
X245106Y336581D01*
Y491687D01*
X245106Y491687D01*
X244983Y492302D01*
X244635Y492823D01*
X244635Y492823D01*
X244201Y493256D01*
X244496Y493969D01*
X244612Y494842D01*
X244496Y495716D01*
X244159Y496530D01*
X243623Y497229D01*
X242924Y497766D01*
X242110Y498103D01*
X241236Y498218D01*
D02*
G37*
G36*
X231236D02*
X230363Y498103D01*
X229549Y497766D01*
X228850Y497229D01*
X228313Y496530D01*
X227976Y495716D01*
X227861Y494842D01*
X227976Y493969D01*
X228313Y493155D01*
X228850Y492456D01*
X229549Y491919D01*
X230363Y491582D01*
X231236Y491467D01*
X232110Y491582D01*
X232192Y491616D01*
X236894Y486914D01*
Y484201D01*
X227000D01*
Y477000D01*
Y469799D01*
X236894D01*
Y341354D01*
X232192Y336651D01*
X232110Y336685D01*
X231236Y336801D01*
X230363Y336685D01*
X229549Y336348D01*
X228850Y335812D01*
X228313Y335113D01*
X227976Y334299D01*
X227861Y333425D01*
X227976Y332552D01*
X228313Y331737D01*
X228850Y331038D01*
X229549Y330502D01*
X230363Y330165D01*
X231236Y330050D01*
X232110Y330165D01*
X232924Y330502D01*
X233623Y331038D01*
X234159Y331737D01*
X234496Y332552D01*
X234612Y333425D01*
X234496Y334299D01*
X234463Y334381D01*
X239635Y339554D01*
X239635Y339554D01*
X239983Y340074D01*
X240106Y340689D01*
Y487579D01*
X239983Y488193D01*
X239635Y488714D01*
X239635Y488714D01*
X234463Y493887D01*
X234496Y493969D01*
X234612Y494842D01*
X234496Y495716D01*
X234159Y496530D01*
X233623Y497229D01*
X232924Y497766D01*
X232110Y498103D01*
X231236Y498218D01*
D02*
G37*
G36*
X346953Y337500D02*
X343500D01*
Y334047D01*
X346953D01*
Y337500D01*
D02*
G37*
G36*
X342500D02*
X339047D01*
Y334047D01*
X342500D01*
Y337500D01*
D02*
G37*
G36*
X261736Y337346D02*
Y333925D01*
X265157D01*
X265087Y334457D01*
X264689Y335419D01*
X264055Y336244D01*
X263230Y336878D01*
X262268Y337276D01*
X261736Y337346D01*
D02*
G37*
G36*
X260736D02*
X260204Y337276D01*
X259243Y336878D01*
X258417Y336244D01*
X257784Y335419D01*
X257385Y334457D01*
X257315Y333925D01*
X260736D01*
Y337346D01*
D02*
G37*
G36*
X180890Y353437D02*
X167110D01*
Y343201D01*
X172394D01*
Y335000D01*
X172517Y334385D01*
X172865Y333865D01*
X173386Y333517D01*
X174000Y333394D01*
X174615Y333517D01*
X175135Y333865D01*
X175483Y334385D01*
X175606Y335000D01*
Y343201D01*
X180890D01*
Y353437D01*
D02*
G37*
G36*
X201236Y498218D02*
X200363Y498103D01*
X199548Y497766D01*
X198849Y497229D01*
X198313Y496530D01*
X197976Y495716D01*
X197861Y494842D01*
X197976Y493969D01*
X198313Y493155D01*
X198849Y492456D01*
X199548Y491919D01*
X199630Y491885D01*
Y336382D01*
X199548Y336348D01*
X198849Y335812D01*
X198313Y335113D01*
X197976Y334299D01*
X197861Y333425D01*
X197976Y332552D01*
X198313Y331737D01*
X198849Y331038D01*
X199548Y330502D01*
X200363Y330165D01*
X201236Y330050D01*
X202110Y330165D01*
X202924Y330502D01*
X203623Y331038D01*
X204159Y331737D01*
X204497Y332552D01*
X204611Y333425D01*
X204497Y334299D01*
X204159Y335113D01*
X203623Y335812D01*
X202924Y336348D01*
X202842Y336382D01*
Y491885D01*
X202924Y491919D01*
X203623Y492456D01*
X204159Y493155D01*
X204497Y493969D01*
X204611Y494842D01*
X204497Y495716D01*
X204159Y496530D01*
X203623Y497229D01*
X202924Y497766D01*
X202110Y498103D01*
X201236Y498218D01*
D02*
G37*
G36*
X343000Y331375D02*
X342126Y331260D01*
X341312Y330923D01*
X340613Y330387D01*
X340077Y329688D01*
X339740Y328874D01*
X339625Y328000D01*
X339740Y327126D01*
X340061Y326350D01*
X336856Y323144D01*
X336658Y322849D01*
X336589Y322500D01*
Y293048D01*
X336507Y292993D01*
X336202Y292538D01*
X336095Y292000D01*
X336202Y291462D01*
X336507Y291007D01*
X336962Y290702D01*
X337500Y290595D01*
X338038Y290702D01*
X338493Y291007D01*
X338798Y291462D01*
X338905Y292000D01*
X338798Y292538D01*
X338493Y292993D01*
X338411Y293048D01*
Y322123D01*
X341350Y325061D01*
X342126Y324740D01*
X343000Y324625D01*
X343874Y324740D01*
X344688Y325077D01*
X345387Y325613D01*
X345923Y326312D01*
X346260Y327126D01*
X346375Y328000D01*
X346260Y328874D01*
X345923Y329688D01*
X345387Y330387D01*
X344688Y330923D01*
X343874Y331260D01*
X343000Y331375D01*
D02*
G37*
G36*
Y321375D02*
X342126Y321260D01*
X341312Y320923D01*
X340613Y320387D01*
X340077Y319688D01*
X339740Y318874D01*
X339625Y318000D01*
X339740Y317126D01*
X340077Y316312D01*
X340613Y315613D01*
X341312Y315077D01*
X342126Y314740D01*
X343000Y314625D01*
X343874Y314740D01*
X344688Y315077D01*
X345387Y315613D01*
X345923Y316312D01*
X346260Y317126D01*
X346375Y318000D01*
X346260Y318874D01*
X345923Y319688D01*
X345387Y320387D01*
X344688Y320923D01*
X343874Y321260D01*
X343000Y321375D01*
D02*
G37*
G36*
Y311375D02*
X342126Y311260D01*
X341312Y310923D01*
X340613Y310387D01*
X340077Y309688D01*
X339740Y308874D01*
X339625Y308000D01*
Y288000D01*
X339740Y287126D01*
X340077Y286312D01*
X340613Y285613D01*
X341312Y285077D01*
X342126Y284740D01*
X343000Y284625D01*
X343874Y284740D01*
X344688Y285077D01*
X345387Y285613D01*
X345923Y286312D01*
X346260Y287126D01*
X346375Y288000D01*
Y308000D01*
X346260Y308874D01*
X345923Y309688D01*
X345387Y310387D01*
X344688Y310923D01*
X343874Y311260D01*
X343000Y311375D01*
D02*
G37*
G36*
X346346Y281347D02*
X339653D01*
Y274654D01*
X342089D01*
Y273000D01*
X342158Y272651D01*
X342356Y272356D01*
X347089Y267623D01*
Y259088D01*
X346589Y258988D01*
X346163Y260016D01*
X345271Y261472D01*
X344163Y262769D01*
X342865Y263878D01*
X341410Y264769D01*
X339833Y265423D01*
X338174Y265821D01*
X336972Y265915D01*
Y255079D01*
X336472D01*
Y254579D01*
X325636D01*
X325730Y253377D01*
X326129Y251718D01*
X326782Y250141D01*
X327674Y248686D01*
X328782Y247388D01*
X330080Y246280D01*
X331159Y245618D01*
X331018Y245118D01*
X330520D01*
Y239500D01*
X333685D01*
X336850D01*
Y244233D01*
X338174Y244337D01*
X339833Y244735D01*
X341410Y245388D01*
X342865Y246280D01*
X344163Y247388D01*
X345271Y248686D01*
X346163Y250141D01*
X346589Y251169D01*
X347089Y251070D01*
Y244923D01*
X346874Y244512D01*
X341756D01*
Y233488D01*
X346874D01*
Y237589D01*
X347414D01*
X347763Y237658D01*
X348059Y237856D01*
X348644Y238441D01*
X348842Y238737D01*
X348911Y239086D01*
Y268000D01*
X348842Y268349D01*
X348644Y268644D01*
X343911Y273377D01*
Y274654D01*
X346346D01*
Y281347D01*
D02*
G37*
G36*
X335972Y265915D02*
X334771Y265821D01*
X333112Y265423D01*
X331535Y264769D01*
X330080Y263878D01*
X328782Y262769D01*
X327674Y261472D01*
X326782Y260016D01*
X326129Y258440D01*
X325730Y256780D01*
X325636Y255579D01*
X335972D01*
Y265915D01*
D02*
G37*
G36*
X297143Y249372D02*
X295338D01*
Y247016D01*
X298442D01*
Y248072D01*
X298343Y248569D01*
X298061Y248991D01*
X297640Y249273D01*
X297143Y249372D01*
D02*
G37*
G36*
X294338D02*
X292534D01*
X292037Y249273D01*
X291615Y248991D01*
X291334Y248569D01*
X291235Y248072D01*
Y247016D01*
X294338D01*
Y249372D01*
D02*
G37*
G36*
X316618Y249480D02*
X311000D01*
Y246815D01*
X316618D01*
Y249480D01*
D02*
G37*
G36*
X310000D02*
X304382D01*
Y246815D01*
X310000D01*
Y249480D01*
D02*
G37*
G36*
X298442Y246016D02*
X295338D01*
Y243660D01*
X297143D01*
X297640Y243759D01*
X298061Y244041D01*
X298343Y244462D01*
X298442Y244960D01*
Y246016D01*
D02*
G37*
G36*
X294338D02*
X291235D01*
Y244960D01*
X291334Y244462D01*
X291615Y244041D01*
X292037Y243759D01*
X292534Y243660D01*
X294338D01*
Y246016D01*
D02*
G37*
G36*
X316618Y245815D02*
X311000D01*
Y243150D01*
X316618D01*
Y245815D01*
D02*
G37*
G36*
X310000D02*
X304382D01*
Y243150D01*
X310000D01*
Y245815D01*
D02*
G37*
G36*
X258000Y237980D02*
Y235315D01*
X261846D01*
Y237980D01*
X258000D01*
D02*
G37*
G36*
X336850Y238500D02*
X334185D01*
Y232882D01*
X336850D01*
Y238500D01*
D02*
G37*
G36*
X333185D02*
X330520D01*
Y232882D01*
X333185D01*
Y238500D01*
D02*
G37*
G36*
X261846Y234315D02*
X258000D01*
Y231650D01*
X261846D01*
Y234315D01*
D02*
G37*
G36*
X343315Y217791D02*
Y216368D01*
X344739D01*
X344684Y216642D01*
X344246Y217298D01*
X343589Y217737D01*
X343315Y217791D01*
D02*
G37*
G36*
X342315D02*
X342041Y217737D01*
X341384Y217298D01*
X340946Y216642D01*
X340891Y216368D01*
X342315D01*
Y217791D01*
D02*
G37*
G36*
X301500Y244597D02*
X300962Y244490D01*
X300507Y244186D01*
X300202Y243730D01*
X300095Y243192D01*
X300202Y242654D01*
X300507Y242199D01*
X300589Y242144D01*
Y223000D01*
X300658Y222651D01*
X300856Y222356D01*
X303856Y219356D01*
X304151Y219158D01*
X304500Y219089D01*
X317037D01*
X317089Y219037D01*
Y211963D01*
X317037Y211911D01*
X316423D01*
X316012Y212126D01*
X316012Y212411D01*
Y217244D01*
X304988D01*
Y216291D01*
X296444D01*
Y226247D01*
X297143D01*
X297403Y226299D01*
X297624Y226446D01*
X297772Y226667D01*
X297824Y226928D01*
Y230040D01*
X297772Y230301D01*
X297624Y230522D01*
X297403Y230670D01*
X297143Y230722D01*
X292534D01*
X292273Y230670D01*
X292052Y230522D01*
X291905Y230301D01*
X291853Y230040D01*
Y226928D01*
X291905Y226667D01*
X292052Y226446D01*
X292273Y226299D01*
X292534Y226247D01*
X293233D01*
Y214948D01*
X293233Y214948D01*
X293233Y214948D01*
Y213162D01*
X293233Y213162D01*
X293355Y212547D01*
X293703Y212026D01*
X299894Y205835D01*
Y198549D01*
X298451Y197106D01*
X283965D01*
X283806Y197074D01*
X281986D01*
X281606Y196999D01*
X281284Y196783D01*
X281068Y196461D01*
X280993Y196081D01*
Y194919D01*
X281068Y194539D01*
X281284Y194217D01*
X281606Y194001D01*
X281986Y193926D01*
X283806D01*
X283965Y193894D01*
X299116D01*
X299116Y193894D01*
X299731Y194017D01*
X300252Y194365D01*
X302635Y196748D01*
X302635Y196748D01*
X302983Y197269D01*
X303106Y197884D01*
Y206500D01*
X303106Y206500D01*
X302983Y207115D01*
X302635Y207635D01*
X302635Y207635D01*
X297653Y212617D01*
X297845Y213079D01*
X304635D01*
X304988Y212726D01*
X304988Y212126D01*
X304577Y211911D01*
X303402D01*
X303346Y211994D01*
X302890Y212299D01*
X302353Y212406D01*
X301815Y212299D01*
X301359Y211994D01*
X301055Y211539D01*
X300948Y211001D01*
X301055Y210463D01*
X301359Y210008D01*
X301815Y209703D01*
X302353Y209596D01*
X302890Y209703D01*
X303346Y210008D01*
X303400Y210089D01*
X317414D01*
X317763Y210158D01*
X318058Y210356D01*
X318644Y210942D01*
X318842Y211237D01*
X318911Y211586D01*
Y219414D01*
X318842Y219763D01*
X318644Y220058D01*
X318058Y220644D01*
X317763Y220842D01*
X317414Y220911D01*
X304877D01*
X302411Y223377D01*
Y242144D01*
X302493Y242199D01*
X302798Y242654D01*
X302905Y243192D01*
X302798Y243730D01*
X302493Y244186D01*
X302038Y244490D01*
X301500Y244597D01*
D02*
G37*
G36*
X344739Y215368D02*
X340891D01*
X340896Y215347D01*
X340555Y214846D01*
X339650D01*
Y211000D01*
X342815D01*
X345980D01*
Y214846D01*
X345075D01*
X344734Y215347D01*
X344739Y215368D01*
D02*
G37*
G36*
X345980Y210000D02*
X343315D01*
Y206153D01*
X345980D01*
Y210000D01*
D02*
G37*
G36*
X342315D02*
X339650D01*
Y206153D01*
X342315D01*
Y210000D01*
D02*
G37*
G36*
X343079Y204031D02*
Y200579D01*
X346532D01*
Y204031D01*
X343079D01*
D02*
G37*
G36*
X346532Y199579D02*
X343079D01*
Y196126D01*
X346532D01*
Y199579D01*
D02*
G37*
G36*
X131374Y374740D02*
X126256D01*
Y367260D01*
X127904D01*
Y362512D01*
X126256D01*
Y351488D01*
X127904D01*
Y349467D01*
X124856Y346419D01*
X124658Y346123D01*
X124589Y345774D01*
Y342994D01*
X124106D01*
Y341897D01*
X123606Y341630D01*
X123538Y341676D01*
X123000Y341783D01*
X122462Y341676D01*
X122394Y341630D01*
X121894Y341897D01*
Y342994D01*
X121411D01*
Y351732D01*
X121342Y352081D01*
X121144Y352377D01*
X120744Y352777D01*
Y362512D01*
X119096D01*
Y367260D01*
X120744D01*
Y374740D01*
X115626D01*
Y368415D01*
X114068Y366857D01*
X113871Y366561D01*
X113801Y366213D01*
Y365896D01*
X113719Y365841D01*
X113415Y365385D01*
X113308Y364847D01*
X113415Y364309D01*
X113719Y363854D01*
X114175Y363549D01*
X114713Y363442D01*
X115250Y363549D01*
X115706Y363854D01*
X116011Y364309D01*
X116118Y364847D01*
X116011Y365385D01*
X115706Y365841D01*
X115699Y365911D01*
X116774Y366985D01*
X117274Y366778D01*
Y362512D01*
X115626D01*
Y351488D01*
X119455D01*
X119589Y351355D01*
Y342994D01*
X119106D01*
Y334406D01*
X121894D01*
Y338859D01*
X122394Y339126D01*
X122462Y339080D01*
X123000Y338973D01*
X123538Y339080D01*
X123606Y339126D01*
X124106Y338859D01*
Y334406D01*
X126894D01*
Y342994D01*
X126411D01*
Y345397D01*
X129459Y348445D01*
X129657Y348741D01*
X129726Y349089D01*
Y351488D01*
X131374D01*
Y362512D01*
X129726D01*
Y367260D01*
X131374D01*
Y374740D01*
D02*
G37*
G36*
X146894Y323594D02*
X144106D01*
Y315006D01*
X144589D01*
Y309586D01*
X144658Y309237D01*
X144856Y308942D01*
X145441Y308356D01*
X145737Y308158D01*
X146086Y308089D01*
X153626D01*
Y305260D01*
X155274D01*
Y302512D01*
X153626D01*
Y291488D01*
X158744D01*
Y302512D01*
X157096D01*
Y305260D01*
X158744D01*
Y312740D01*
X157033D01*
Y314385D01*
X157206Y314500D01*
X157511Y314956D01*
X157618Y315493D01*
X157511Y316031D01*
X157206Y316487D01*
X156750Y316791D01*
X156213Y316898D01*
X155675Y316791D01*
X155219Y316487D01*
X154915Y316031D01*
X154808Y315493D01*
X154915Y314956D01*
X155211Y314512D01*
Y312740D01*
X153626D01*
Y309911D01*
X146463D01*
X146411Y309963D01*
Y315006D01*
X146894D01*
Y323594D01*
D02*
G37*
G36*
X137512Y277874D02*
X126488D01*
Y272756D01*
X131036D01*
Y271014D01*
X131006Y270994D01*
X130701Y270538D01*
X130595Y270001D01*
X130701Y269463D01*
X131006Y269007D01*
X131462Y268703D01*
X131999Y268596D01*
X132537Y268703D01*
X132993Y269007D01*
X133297Y269463D01*
X133404Y270001D01*
X133297Y270538D01*
X132993Y270994D01*
X132963Y271014D01*
Y272756D01*
X137512D01*
Y277874D01*
D02*
G37*
G36*
X116500Y265915D02*
Y255579D01*
X126837D01*
X126742Y256780D01*
X126344Y258440D01*
X125691Y260016D01*
X124799Y261472D01*
X123690Y262769D01*
X122393Y263878D01*
X120938Y264769D01*
X119361Y265423D01*
X117701Y265821D01*
X116500Y265915D01*
D02*
G37*
G36*
X109990Y245075D02*
X108181D01*
Y240413D01*
X111425D01*
Y243640D01*
X111316Y244189D01*
X111005Y244654D01*
X110539Y244966D01*
X109990Y245075D01*
D02*
G37*
G36*
X111425Y239413D02*
X108181D01*
Y234752D01*
X109990D01*
X110539Y234861D01*
X111005Y235172D01*
X111316Y235638D01*
X111425Y236187D01*
Y239413D01*
D02*
G37*
G36*
X122500Y224424D02*
X122226Y224369D01*
X121569Y223931D01*
X121131Y223274D01*
X121076Y223000D01*
X122500D01*
Y224424D01*
D02*
G37*
G36*
Y222000D02*
X121076D01*
X121131Y221726D01*
X121569Y221069D01*
X122226Y220631D01*
X122500Y220576D01*
Y222000D01*
D02*
G37*
G36*
X109990Y209248D02*
X108181D01*
Y204587D01*
X111425D01*
Y207813D01*
X111316Y208362D01*
X111005Y208828D01*
X110539Y209139D01*
X109990Y209248D01*
D02*
G37*
G36*
X111425Y203587D02*
X108181D01*
Y198925D01*
X109990D01*
X110539Y199034D01*
X111005Y199346D01*
X111316Y199811D01*
X111425Y200360D01*
Y203587D01*
D02*
G37*
G36*
X114350Y196346D02*
X111685D01*
Y192500D01*
X114350D01*
Y196346D01*
D02*
G37*
G36*
X110685D02*
X108020D01*
Y192500D01*
X110685D01*
Y196346D01*
D02*
G37*
G36*
X146244Y374740D02*
X141126D01*
Y372506D01*
X140626Y372239D01*
X140538Y372298D01*
X140000Y372405D01*
X139462Y372298D01*
X139006Y371993D01*
X138702Y371538D01*
X138595Y371000D01*
X138702Y370462D01*
X139006Y370007D01*
X139462Y369702D01*
X140000Y369595D01*
X140538Y369702D01*
X140626Y369761D01*
X141126Y369494D01*
Y367260D01*
X142774D01*
Y362512D01*
X141126D01*
Y351488D01*
X144955D01*
X149589Y346855D01*
Y342994D01*
X149106D01*
Y334406D01*
X151894D01*
Y342994D01*
X151411D01*
Y347232D01*
X151342Y347581D01*
X151144Y347877D01*
X146244Y352777D01*
Y362512D01*
X144596D01*
Y367260D01*
X146244D01*
Y374740D01*
D02*
G37*
G36*
X162177Y336189D02*
X154697D01*
Y333449D01*
X151789D01*
X151349Y333743D01*
X150811Y333850D01*
X150273Y333743D01*
X149818Y333438D01*
X149513Y332983D01*
X149406Y332445D01*
X149513Y331907D01*
X149818Y331452D01*
X150273Y331147D01*
X150811Y331040D01*
X151349Y331147D01*
X151789Y331441D01*
X154697D01*
Y331071D01*
X162177D01*
Y336189D01*
D02*
G37*
G36*
X217000Y283905D02*
X216462Y283798D01*
X216007Y283493D01*
X215702Y283038D01*
X215595Y282500D01*
X215702Y281962D01*
X216007Y281507D01*
X216089Y281452D01*
Y278548D01*
X216007Y278493D01*
X215702Y278038D01*
X215595Y277500D01*
X215702Y276962D01*
X216007Y276507D01*
X216462Y276202D01*
X217000Y276095D01*
X217538Y276202D01*
X217993Y276507D01*
X218298Y276962D01*
X218405Y277500D01*
X218298Y278038D01*
X217993Y278493D01*
X217911Y278548D01*
Y281452D01*
X217993Y281507D01*
X218298Y281962D01*
X218405Y282500D01*
X218298Y283038D01*
X217993Y283493D01*
X217538Y283798D01*
X217000Y283905D01*
D02*
G37*
G36*
X207346Y248980D02*
X203500D01*
Y246315D01*
X207346D01*
Y248980D01*
D02*
G37*
G36*
X202500D02*
X198653D01*
Y246315D01*
X202500D01*
Y248980D01*
D02*
G37*
G36*
X196500Y247424D02*
Y246000D01*
X197924D01*
X197869Y246274D01*
X197431Y246931D01*
X196774Y247369D01*
X196500Y247424D01*
D02*
G37*
G36*
X197924Y245000D02*
X196500D01*
Y243576D01*
X196774Y243631D01*
X197431Y244069D01*
X197869Y244726D01*
X197924Y245000D01*
D02*
G37*
G36*
X193500Y250905D02*
X192962Y250798D01*
X192507Y250493D01*
X192202Y250038D01*
X192095Y249500D01*
X192202Y248962D01*
X192479Y248548D01*
Y242027D01*
X192396Y241972D01*
X192092Y241517D01*
X191985Y240979D01*
X192092Y240441D01*
X192396Y239985D01*
X192852Y239681D01*
X193390Y239574D01*
X193927Y239681D01*
X194383Y239985D01*
X194688Y240441D01*
X194795Y240979D01*
X194688Y241517D01*
X194383Y241972D01*
X194301Y242027D01*
Y243647D01*
X194801Y243915D01*
X195226Y243631D01*
X195500Y243576D01*
Y245500D01*
Y247424D01*
X195226Y247369D01*
X194801Y247085D01*
X194301Y247353D01*
Y248378D01*
X194493Y248507D01*
X194798Y248962D01*
X194905Y249500D01*
X194798Y250038D01*
X194493Y250493D01*
X194038Y250798D01*
X193500Y250905D01*
D02*
G37*
G36*
X207346Y245315D02*
X203500D01*
Y242650D01*
X207346D01*
Y245315D01*
D02*
G37*
G36*
X202500D02*
X198653D01*
Y242650D01*
X202500D01*
Y245315D01*
D02*
G37*
G36*
X176850Y261347D02*
X174185D01*
Y257500D01*
X176850D01*
Y261347D01*
D02*
G37*
G36*
X164815Y204000D02*
X162150D01*
Y200153D01*
X164815D01*
Y204000D01*
D02*
G37*
%LPD*%
D13*
X164200Y209224D02*
Y209299D01*
X164000Y209500D02*
X164200Y209299D01*
X164000Y209500D02*
X165027Y210527D01*
X165027Y213492D02*
X165027Y213492D01*
Y210527D02*
Y213492D01*
X167047Y209547D02*
Y213543D01*
X164492Y217508D02*
X181414D01*
X162164Y219836D02*
X164492Y217508D01*
X181414D02*
X182000Y218094D01*
Y228414D01*
X159836Y219836D02*
X162164D01*
X182000Y228414D02*
X182586Y229000D01*
X186441D01*
X157728Y217728D02*
X159836Y219836D01*
X157728Y214586D02*
Y217728D01*
X169016Y207484D02*
Y213543D01*
Y207484D02*
X170878Y205622D01*
X172953Y197547D02*
Y213543D01*
X177000Y197500D02*
Y213433D01*
X301500Y223000D02*
Y243192D01*
Y223000D02*
X304500Y220000D01*
X317414D01*
X270000Y253138D02*
Y257000D01*
X230321Y262594D02*
X231000Y261914D01*
Y253500D02*
Y261914D01*
X219586Y262594D02*
X230321D01*
X231000Y253500D02*
X231500Y253000D01*
X191500Y255000D02*
X216500D01*
X219000Y257500D01*
Y262008D01*
X219586Y262594D01*
X217000Y259000D02*
Y264500D01*
X230000Y277901D02*
Y283716D01*
X227000Y277557D02*
Y286989D01*
X226722Y277278D02*
X227000Y277557D01*
X178017Y292075D02*
X251726D01*
X176914Y293500D02*
X325000D01*
X326000Y294500D01*
X251726Y292075D02*
X251800Y292000D01*
X327000D01*
X217000Y277500D02*
Y282500D01*
X193390Y240979D02*
Y249390D01*
X193500Y249500D01*
X161000Y254500D02*
X161016Y254484D01*
Y246583D02*
Y254484D01*
X163000Y246567D02*
Y252500D01*
X161000Y259210D02*
Y264772D01*
X164728Y268500D02*
X220599D01*
X161000Y264772D02*
X164728Y268500D01*
X168000Y261156D02*
Y264000D01*
X167106Y260262D02*
X168000Y261156D01*
X167106Y251923D02*
Y260262D01*
Y251923D02*
X167622Y251407D01*
Y249787D02*
Y251407D01*
X167571Y249736D02*
X167622Y249787D01*
X167571Y246980D02*
Y249736D01*
X167047Y246457D02*
X167571Y246980D01*
X220599Y268500D02*
X230000Y277901D01*
X167047Y274812D02*
Y276547D01*
X178624Y288124D02*
X181124D01*
X167047Y276547D02*
X178624Y288124D01*
X171205Y277295D02*
X173795D01*
X164500Y274693D02*
Y276500D01*
X179495Y289995D02*
X179502Y290002D01*
X164500Y276500D02*
X177995Y289995D01*
X179495D01*
X181124Y288124D02*
X183000Y290000D01*
X173795Y277295D02*
X186500Y290000D01*
X136000Y252586D02*
X176914Y293500D01*
X136000Y231000D02*
Y252586D01*
X133213Y253740D02*
X175760Y296287D01*
X133213Y216787D02*
Y253740D01*
Y216787D02*
X134500Y215500D01*
X134606Y253163D02*
X176337Y294894D01*
X134606Y220394D02*
Y253163D01*
Y220394D02*
X136500Y218500D01*
X176337Y294894D02*
X197414D01*
X175760Y296287D02*
X195914D01*
X277086Y300000D02*
X323156D01*
X328878Y294278D01*
Y282787D02*
Y294278D01*
X328500Y282410D02*
X328878Y282787D01*
X172953Y197547D02*
X173090Y197411D01*
X175068Y195165D02*
X177321D01*
X174509Y194606D02*
X175068Y195165D01*
X175645Y193772D02*
X178355D01*
X175086Y193213D02*
X175645Y193772D01*
X176222Y192378D02*
X177778D01*
X175663Y191819D02*
X176222Y192378D01*
X177321Y195165D02*
X178878Y196722D01*
X178839Y193287D02*
X257787D01*
X178355Y193772D02*
X178839Y193287D01*
X152570Y193213D02*
X175086D01*
X178262Y191894D02*
X259126D01*
X177778Y192378D02*
X178262Y191894D01*
X151993Y191819D02*
X175663D01*
X178878Y196722D02*
Y213524D01*
X186457Y219173D02*
X190624D01*
X193500Y216298D01*
Y197000D02*
Y216298D01*
X190319Y194681D02*
X228079D01*
X177000Y190500D02*
X264581D01*
X267581Y187500D01*
X326893D01*
X337500Y198107D01*
X259126Y191894D02*
X269547Y202315D01*
X257787Y193287D02*
X265500Y201000D01*
X182000Y203000D02*
X190319Y194681D01*
X228079D02*
X236000Y202602D01*
X180827Y213543D02*
X184994D01*
X191000Y207538D01*
Y196786D02*
Y207538D01*
X142608Y201204D02*
X151993Y191819D01*
X145622Y200161D02*
X152570Y193213D01*
X153147Y194606D02*
X174509D01*
X147500Y200254D02*
X153147Y194606D01*
X195378Y196988D02*
Y218680D01*
X192917Y221142D02*
X195378Y218680D01*
X186457Y221142D02*
X192917D01*
X196000Y196366D02*
Y197000D01*
X195378Y196988D02*
X196000Y196366D01*
X170878Y203287D02*
Y205622D01*
X163591Y196000D02*
X170878Y203287D01*
X153725Y196000D02*
X163591D01*
X178858Y213543D02*
X178878Y213524D01*
X236000Y202602D02*
Y206000D01*
X231500Y206000D02*
Y221500D01*
X154500Y244595D02*
X159395Y239700D01*
Y236867D02*
Y239700D01*
X157449Y234921D02*
X159395Y236867D01*
X154500Y244595D02*
Y246500D01*
X153543Y234921D02*
X157449D01*
X144000Y227000D02*
X149500Y232500D01*
X136000Y231000D02*
X140000Y227000D01*
X144000D01*
X141000Y229500D02*
Y230000D01*
X149500Y232500D02*
Y236253D01*
X138785Y232215D02*
X141000Y230000D01*
X148500Y225500D02*
Y227000D01*
X149992Y228492D01*
X125378Y212559D02*
Y239854D01*
X125319Y239913D02*
X125378Y239854D01*
X125319Y212500D02*
X125378Y212559D01*
X107681Y204087D02*
Y223000D01*
Y239913D01*
X146000Y214412D02*
Y218500D01*
X145966Y214378D02*
X146000Y214412D01*
X125319Y202669D02*
Y212500D01*
X155642D01*
X132222Y210516D02*
X132238Y210500D01*
X147885D01*
X155642Y212500D02*
X157728Y214586D01*
X142608Y214378D02*
Y223608D01*
X147885Y210500D02*
X149342Y209043D01*
X145622Y200161D02*
Y207228D01*
X136500Y207000D02*
X138606Y209106D01*
X147500Y200254D02*
Y208521D01*
X146914Y209106D02*
X147500Y208521D01*
X142608Y201204D02*
Y207228D01*
X138606Y209106D02*
X146914D01*
X149342Y200383D02*
Y209043D01*
X136500Y193000D02*
Y207000D01*
X108550Y390456D02*
X109914D01*
X102232Y384137D02*
X108550Y390456D01*
X102232Y283512D02*
Y384137D01*
X109097Y389032D02*
X123772D01*
X103626Y383560D02*
X109097Y389032D01*
X103626Y284774D02*
Y383560D01*
Y284774D02*
X104122Y284278D01*
X104071Y282671D02*
X104122Y282722D01*
X104071Y191929D02*
Y282671D01*
Y191929D02*
X109000Y187000D01*
X102232Y283512D02*
X102244Y283500D01*
X104122Y282722D02*
Y284278D01*
X106000Y283500D02*
X116729D01*
X117315Y284086D01*
Y308500D01*
X108122Y289000D02*
Y295063D01*
X106685Y296500D02*
X108122Y295063D01*
X149992Y228492D02*
X150465Y228965D01*
X149992Y228492D02*
X149992D01*
X142608Y223608D02*
X149973Y230973D01*
X153532D01*
X132000Y254500D02*
Y264685D01*
X196500Y296873D02*
Y305500D01*
X138864Y252843D02*
X139882Y253861D01*
X138785Y252843D02*
X138864D01*
X139882Y253861D02*
X139931D01*
X195914Y296287D02*
X196500Y296873D01*
X138785Y232215D02*
Y252843D01*
X191236Y310764D02*
X196500Y305500D01*
X125500Y248000D02*
X132000Y254500D01*
X125500Y240095D02*
Y248000D01*
X191236Y310764D02*
Y333425D01*
X150500Y264558D02*
X178017Y292075D01*
X197414Y294894D02*
X198287Y295767D01*
X163962Y289090D02*
X164012D01*
X330500Y271000D02*
Y302500D01*
X150465Y228965D02*
X153492D01*
X198287Y295767D02*
Y320476D01*
X337500Y322500D02*
X343000Y328000D01*
X337500Y292000D02*
Y322500D01*
X149342Y200383D02*
X153725Y196000D01*
X198287Y320476D02*
X211236Y333425D01*
X156122Y309063D02*
Y315403D01*
X156213Y315493D01*
X123000Y340378D02*
X125000D01*
X125500Y338700D02*
Y339878D01*
X125000Y340378D02*
X125500Y339878D01*
X289500Y361500D02*
X308934D01*
X312575Y365141D01*
X286528Y364472D02*
X289500Y361500D01*
X134000Y377000D02*
X135424Y378424D01*
X134000Y349000D02*
Y377000D01*
X153729Y376637D02*
X154315Y376051D01*
X137000D02*
X137586Y376637D01*
X135424Y378424D02*
X159925D01*
X154315Y371000D02*
Y376051D01*
X137000Y350000D02*
Y376051D01*
X137586Y376637D02*
X153729D01*
X133031Y315048D02*
Y328031D01*
X136000Y331000D02*
X142414D01*
X133031Y328031D02*
X136000Y331000D01*
X143000Y331586D02*
Y346000D01*
X142414Y331000D02*
X143000Y331586D01*
X138213Y314113D02*
X140500Y316400D01*
X133967Y314113D02*
X138213D01*
X133031Y315048D02*
X133967Y314113D01*
X272997Y389134D02*
X305774D01*
X266810Y389372D02*
X267875Y390437D01*
X271693D01*
X268695Y388650D02*
X270250D01*
X265000Y384955D02*
X268695Y388650D01*
X266761Y389372D02*
X266810D01*
X270250Y388650D02*
X272400Y386500D01*
X274500D01*
X271693Y390437D02*
X272997Y389134D01*
X265000Y369500D02*
Y384955D01*
X297446Y430500D02*
X299976Y433030D01*
X272500Y431086D02*
X273086Y430500D01*
X272500Y431086D02*
Y463665D01*
X273086Y430500D02*
X297446D01*
X270586Y428500D02*
X305446D01*
X309976Y433030D01*
X270000Y429086D02*
Y464000D01*
Y429086D02*
X270586Y428500D01*
X153082Y430500D02*
X181414D01*
X182000Y504500D02*
X193000Y515500D01*
X181414Y430500D02*
X182000Y431086D01*
Y504500D01*
X142496Y433030D02*
X146813Y428713D01*
X183127D01*
X184000Y429586D01*
Y503500D02*
X186500Y506000D01*
X202000D01*
X184000Y429586D02*
Y503500D01*
X248122Y527892D02*
X248500Y527514D01*
X309988Y461283D02*
X310078Y461373D01*
X248500Y527500D02*
Y527514D01*
X310078Y461373D02*
Y461422D01*
X309988Y455342D02*
Y461283D01*
X248122Y527892D02*
Y527941D01*
X300000Y494000D02*
Y510500D01*
X270000Y464000D02*
X300000Y494000D01*
X337500Y198107D02*
Y214000D01*
X310500Y230500D02*
X321000D01*
X337500Y214000D01*
X317414Y211000D02*
X318000Y211586D01*
X302353Y211001D02*
X302354Y211000D01*
X317414D01*
X203000Y507000D02*
Y519603D01*
X202000Y506000D02*
X203000Y507000D01*
X316500Y257000D02*
X330500Y271000D01*
X278500Y257000D02*
X316500D01*
X125319Y239913D02*
X125500Y240095D01*
X121815Y192000D02*
Y199165D01*
X125319Y202669D01*
X114713Y364847D02*
Y366213D01*
X118185Y369685D01*
X106685Y296500D02*
Y308500D01*
X118185Y357000D02*
Y369685D01*
X111185Y192000D02*
Y199165D01*
X107681Y202669D02*
X111185Y199165D01*
X107681Y202669D02*
Y204087D01*
X348000Y239086D02*
Y268000D01*
X344315Y239000D02*
X344815Y238500D01*
X347414D01*
X348000Y239086D01*
X343000Y273000D02*
Y278000D01*
Y273000D02*
X348000Y268000D01*
X130500Y187000D02*
X136500Y193000D01*
X109000Y187000D02*
X130500D01*
X274500Y386500D02*
X276500Y384500D01*
X154315Y364500D02*
Y369815D01*
Y371000D01*
Y371229D02*
X155980Y372895D01*
X157395D01*
X160000Y375500D01*
X154315Y357000D02*
Y364000D01*
X130500Y338700D02*
Y345500D01*
X134000Y349000D01*
X154315Y364000D02*
Y364500D01*
X140200Y339000D02*
X140500Y338700D01*
X138000Y339000D02*
X140200D01*
X156122Y309063D02*
X156185Y309000D01*
X328598Y399764D02*
Y411902D01*
X328046Y435930D02*
X328574Y435402D01*
X328623D01*
X319976Y435930D02*
X328046D01*
X130500Y313000D02*
Y319300D01*
X171094Y399788D02*
Y411926D01*
X140500Y316400D02*
Y319300D01*
X140000Y371000D02*
X143685D01*
X137000Y350000D02*
X138000Y349000D01*
X144914D01*
X171118Y389134D02*
X183634D01*
X110500Y391041D02*
Y412788D01*
X109914Y390456D02*
X110500Y391041D01*
X123772Y389032D02*
X123874Y389134D01*
X111086Y413374D02*
X123874D01*
X110500Y412788D02*
X111086Y413374D01*
X123874Y389134D02*
X171118D01*
X125500Y338700D02*
Y345774D01*
X128815Y349089D02*
Y357000D01*
X125500Y345774D02*
X128815Y349089D01*
Y357000D02*
Y371000D01*
X145500Y338700D02*
Y348414D01*
X144914Y349000D02*
X145500Y348414D01*
X143685Y357000D02*
Y371000D01*
X125500Y309086D02*
Y319300D01*
X124914Y308500D02*
X125500Y309086D01*
X117315Y308500D02*
X124914D01*
X156185Y297000D02*
Y309000D01*
X145500Y309586D02*
Y319300D01*
X146086Y309000D02*
X156185D01*
X145500Y309586D02*
X146086Y309000D01*
X142496Y455330D02*
Y463996D01*
X145311Y466811D02*
Y520189D01*
X142496Y463996D02*
X145311Y466811D01*
X154541Y466229D02*
Y518644D01*
X152496Y455330D02*
Y464184D01*
X154541Y466229D01*
Y518644D02*
X156086Y520189D01*
X160366D01*
X193000Y515500D02*
Y520273D01*
X203586Y520189D02*
X207610D01*
X203000Y519603D02*
X203586Y520189D01*
X142496Y433030D02*
Y435930D01*
X152496Y431086D02*
Y435930D01*
Y431086D02*
X153082Y430500D01*
X170565Y435930D02*
X171093Y435402D01*
X162496Y435930D02*
X170565D01*
X309976Y455330D02*
X309988Y455342D01*
X254854Y520189D02*
Y523949D01*
X252854Y525949D02*
X254854Y523949D01*
X250051Y525949D02*
X252854D01*
X248500Y527500D02*
X250051Y525949D01*
X299976Y455330D02*
X299988Y455342D01*
Y461488D01*
X300000Y461500D01*
X297000Y513500D02*
Y518500D01*
Y513500D02*
X300000Y510500D01*
X302098Y493264D02*
Y520189D01*
X272500Y463665D02*
X302098Y493264D01*
X309976Y433030D02*
Y435930D01*
X299976Y433030D02*
Y435930D01*
X281832Y455330D02*
X289976D01*
X281354Y454902D02*
X281403D01*
X281832Y455330D01*
X280665Y364472D02*
X286528D01*
X312575Y365141D02*
Y375842D01*
X276953Y368185D02*
X280665Y364472D01*
X312575Y375842D02*
X316047Y379315D01*
X266315Y368185D02*
X276953D01*
X316047Y379315D02*
X319000D01*
Y364000D02*
Y368685D01*
X116069Y400500D02*
X116805Y399764D01*
X123874D01*
X274285D02*
X281354D01*
X273549Y400500D02*
X274285Y399764D01*
X273500Y400500D02*
X273549D01*
X170664Y455330D02*
X171081Y454913D01*
X162496Y455330D02*
X170664D01*
X123923Y454902D02*
X124351Y455330D01*
X132496D01*
X123947Y435402D02*
X124476Y435930D01*
X132496D01*
X281956D02*
X289976D01*
X281428Y435402D02*
X281956Y435930D01*
X281379Y435402D02*
X281428D01*
X319976Y455330D02*
X328145D01*
X328561Y454913D01*
X328610D01*
X132496Y455330D02*
X137496D01*
X157496D02*
X162496D01*
X132496Y435930D02*
X137496D01*
X157496D02*
X162496D01*
X314976D02*
X319976D01*
X289976D02*
X294976D01*
X289976Y455330D02*
X294976D01*
X314976D02*
X319976D01*
X150500Y250086D02*
Y264558D01*
X237500Y277000D02*
X239000Y278500D01*
X251035D01*
X250500Y253000D02*
X251874Y251626D01*
X247026Y262545D02*
Y263085D01*
X242432Y254301D02*
X246974Y258842D01*
X247681Y263740D02*
X249035D01*
X247026Y263085D02*
X247681Y263740D01*
X246974Y258842D02*
Y262493D01*
X247026Y262545D01*
X268488Y251626D02*
X270000Y253138D01*
X251874Y251626D02*
X268488D01*
X231500Y221500D02*
X242432Y232432D01*
Y254301D01*
X168500Y259000D02*
X169500Y260000D01*
X168500Y252500D02*
Y259000D01*
X169016Y246457D02*
Y251984D01*
X168500Y252500D02*
X169016Y251984D01*
X276500Y300586D02*
X277086Y300000D01*
X276500Y300586D02*
Y347685D01*
X278000Y349185D01*
X279414D01*
X287009D01*
X318000Y211586D02*
Y219414D01*
X317414Y220000D02*
X318000Y219414D01*
X170984Y208516D02*
X171000Y208500D01*
X170984Y208516D02*
Y213543D01*
X165000Y246535D02*
Y264000D01*
Y246535D02*
X165079Y246457D01*
X163000Y246567D02*
X163110Y246457D01*
X161016Y246583D02*
X161142Y246457D01*
X166815Y297000D02*
Y309000D01*
X164386Y289465D02*
X164416D01*
X166815Y291864D02*
Y297000D01*
X164416Y289465D02*
X166815Y291864D01*
X164012Y289090D02*
X164386Y289465D01*
X146000Y218500D02*
X146673Y219173D01*
X165027Y213492D02*
X165079Y213543D01*
X150500Y319300D02*
X166229D01*
X166815Y318714D01*
Y309000D02*
Y318714D01*
X265000Y369500D02*
X266315Y368185D01*
X298260Y378941D02*
Y383914D01*
X297674Y384500D02*
X298260Y383914D01*
X276500Y384500D02*
X297674D01*
X118185Y369685D02*
Y371000D01*
X177000Y213433D02*
X177000Y213433D01*
X176890Y213543D02*
X177000Y213433D01*
X177000Y213433D02*
X177000Y213433D01*
X106685Y308500D02*
Y318714D01*
X107271Y319300D01*
X120500D01*
X305774Y389134D02*
X328598D01*
X305740Y378941D02*
Y389100D01*
X305774Y389134D01*
X305740Y369059D02*
Y378941D01*
X172953Y246457D02*
Y251453D01*
X268500Y329586D02*
Y349500D01*
X273500Y354500D02*
X297232D01*
X268500Y349500D02*
X273500Y354500D01*
X287009Y349185D02*
X287595Y349771D01*
Y350079D01*
X288276Y350760D01*
X288768D01*
X251236Y333425D02*
X255661Y329000D01*
X267914D02*
X268500Y329586D01*
X255661Y329000D02*
X267914D01*
X151086Y249500D02*
X158650D01*
X150500Y250086D02*
X151086Y249500D01*
X159173Y246457D02*
Y248976D01*
X158650Y249500D02*
X159173Y248976D01*
X150086Y236839D02*
X153492D01*
X153543Y236890D01*
X149500Y236253D02*
X150086Y236839D01*
X153532Y230973D02*
X153543Y230984D01*
X153492Y228965D02*
X153543Y229016D01*
X150500Y338700D02*
Y347232D01*
X143685Y354047D02*
X150500Y347232D01*
X143685Y354047D02*
Y357000D01*
X120500Y338700D02*
Y351732D01*
X118185Y354047D02*
X120500Y351732D01*
X118185Y354047D02*
Y357000D01*
X186457Y223110D02*
X193390D01*
X153543Y232953D02*
X180453D01*
X153543D02*
X153590Y233000D01*
X265500Y201000D02*
Y214016D01*
X267559Y216075D01*
X268240Y217740D02*
X269224D01*
X267559Y217059D02*
X268240Y217740D01*
X267559Y216075D02*
Y217059D01*
X146673Y219173D02*
X153543D01*
X310500Y230500D02*
Y235685D01*
Y225315D02*
Y230500D01*
X269547Y202315D02*
X272500D01*
X186441Y229000D02*
X186457Y229016D01*
X286374Y369059D02*
X298260D01*
X285500Y368185D02*
X286374Y369059D01*
X135685Y535394D02*
X316787D01*
X268732Y210260D02*
X269224D01*
X278528Y199240D02*
X292035D01*
X275453Y202315D02*
X278528Y199240D01*
X272500Y202315D02*
X275453D01*
X332185Y210500D02*
X332579Y210106D01*
X342579Y200079D02*
X342815Y200315D01*
X195681Y235185D02*
X203000D01*
X193449Y232953D02*
X195681Y235185D01*
X186457Y232953D02*
X193449D01*
X224500Y235586D02*
Y250200D01*
X203000Y235185D02*
X203185Y235000D01*
X223914D01*
X224500Y235586D01*
Y250200D02*
X225000Y250700D01*
X195399Y229315D02*
X203000D01*
X193730Y230984D02*
X195399Y229315D01*
X186457Y230984D02*
X193730D01*
X225000Y213300D02*
Y228729D01*
X203000Y229315D02*
X224414D01*
X225000Y228729D01*
X100252Y184213D02*
Y500748D01*
X352220Y184213D02*
Y500748D01*
X100252Y184213D02*
X352220D01*
X100252Y500748D02*
X135685D01*
Y535394D01*
X316787Y500748D02*
Y535394D01*
Y500748D02*
X352220D01*
D14*
X274000Y368185D02*
D03*
Y378815D02*
D03*
X171118Y399764D02*
D03*
Y389134D02*
D03*
X123874Y399764D02*
D03*
Y389134D02*
D03*
X281354Y399764D02*
D03*
Y389134D02*
D03*
X328598Y399764D02*
D03*
Y389134D02*
D03*
X263000Y254685D02*
D03*
Y265315D02*
D03*
X263000Y283815D02*
D03*
Y273185D02*
D03*
X132000Y275315D02*
D03*
Y264685D02*
D03*
X244507Y214000D02*
D03*
Y224630D02*
D03*
X279500Y208685D02*
D03*
Y219315D02*
D03*
X272500Y202315D02*
D03*
Y191685D02*
D03*
X319000Y379315D02*
D03*
Y368685D02*
D03*
X278000Y359815D02*
D03*
Y349185D02*
D03*
X310500Y235685D02*
D03*
Y246315D02*
D03*
Y214685D02*
D03*
Y225315D02*
D03*
D15*
X285500Y368185D02*
D03*
Y378815D02*
D03*
X144500Y234685D02*
D03*
Y245315D02*
D03*
X158437Y333630D02*
D03*
Y323000D02*
D03*
X257500Y234815D02*
D03*
Y224185D02*
D03*
X281354Y440315D02*
D03*
Y450945D02*
D03*
X123874Y440315D02*
D03*
Y450945D02*
D03*
X203000Y245815D02*
D03*
Y235185D02*
D03*
X203000Y218685D02*
D03*
Y229315D02*
D03*
D16*
X160366Y520189D02*
D03*
X150366D02*
D03*
X197610D02*
D03*
X207610D02*
D03*
X254854D02*
D03*
X244854D02*
D03*
X292098D02*
D03*
X302098D02*
D03*
D28*
X161142Y213543D02*
Y217517D01*
Y207991D02*
Y213543D01*
X163105Y207295D02*
X163701D01*
X163055Y207345D02*
X163105Y207295D01*
X161787Y207345D02*
X163055D01*
X161142Y207991D02*
X161787Y207345D01*
X163701Y207295D02*
X165315Y205681D01*
Y204500D02*
Y205681D01*
X159173Y207941D02*
Y213543D01*
X158527Y207295D02*
X159173Y207941D01*
X236500Y264500D02*
Y274817D01*
X235571Y275746D02*
X236500Y274817D01*
X235571Y275746D02*
Y279006D01*
X238805Y282240D02*
X242965D01*
X235571Y279006D02*
X238805Y282240D01*
X196000Y245500D02*
X202685D01*
X202907Y245723D01*
X154000Y257000D02*
X162906D01*
Y258388D01*
X152556Y255556D02*
X154000Y257000D01*
X152556Y251696D02*
Y255556D01*
X162906Y258388D02*
X162929Y258411D01*
Y264657D01*
X184315Y257000D02*
Y263291D01*
X181677Y265929D02*
X184315Y263291D01*
X164201Y265929D02*
X181677D01*
X162929Y264657D02*
X164201Y265929D01*
X170500Y257000D02*
X173685D01*
X155295Y200171D02*
Y203890D01*
X197500Y218500D02*
X202815D01*
X234000Y217075D02*
X241554Y224630D01*
X231854Y200500D02*
X234000Y202646D01*
Y217075D01*
X153543Y238858D02*
X157517D01*
X153543Y238858D02*
X153543Y238858D01*
X148819Y238858D02*
X153543D01*
X144500Y231000D02*
Y234685D01*
X131999Y270001D02*
Y275314D01*
X154685Y204500D02*
Y205681D01*
Y204500D02*
X155295Y203890D01*
X165315Y204500D02*
X169000D01*
X201185Y201146D02*
Y210000D01*
Y201146D02*
X201831Y200500D01*
X231854D01*
X201185Y210000D02*
Y211181D01*
X202815Y218500D02*
X203000Y218685D01*
X144499Y251696D02*
X144500Y251694D01*
Y245315D02*
Y251694D01*
X147295Y237335D02*
X148819Y238858D01*
X184315Y255819D02*
Y257000D01*
X241554Y224630D02*
X244507D01*
X131999Y275314D02*
X132000Y275315D01*
X207500Y215000D02*
X210000Y217500D01*
X197162Y223000D02*
X209354D01*
X210000Y222354D01*
Y217500D02*
Y222354D01*
X197778Y224500D02*
X210854D01*
X211500Y210315D02*
Y223854D01*
X210854Y224500D02*
X211500Y223854D01*
X195231Y227047D02*
X197778Y224500D01*
X195084Y225079D02*
X197162Y223000D01*
X202799Y212795D02*
X205328D01*
X207500Y214967D01*
Y215000D01*
X201185Y211181D02*
X202799Y212795D01*
X186457Y225079D02*
X195084D01*
X186457Y227047D02*
X195231D01*
X178858Y246457D02*
Y251181D01*
X175835Y254205D02*
X178858Y251181D01*
X175299Y254205D02*
X175835D01*
X173685Y255819D02*
X175299Y254205D01*
X173685Y255819D02*
Y257000D01*
X180827Y246457D02*
Y252330D01*
X184315Y255819D01*
X147295Y236299D02*
Y237335D01*
X145681Y234685D02*
X147295Y236299D01*
X144500Y234685D02*
X145681D01*
X148988Y240827D02*
X153543D01*
X147295Y242520D02*
X148988Y240827D01*
X147295Y242520D02*
Y243701D01*
X145681Y245315D02*
X147295Y243701D01*
X144500Y245315D02*
X145681D01*
X156299Y207295D02*
X158527D01*
X154685Y205681D02*
X156299Y207295D01*
X178858Y242483D02*
Y246457D01*
D29*
X294838Y246516D02*
X310299D01*
X310500Y246315D01*
X272500Y287925D02*
X273500Y286925D01*
X255500Y249500D02*
X272116D01*
X273500Y250884D02*
Y286925D01*
X272116Y249500D02*
X273500Y250884D01*
X272500Y287925D02*
Y288000D01*
X233335Y261103D02*
Y288616D01*
X231951Y290000D02*
X233335Y288616D01*
X193000Y290000D02*
X231951D01*
X233335Y261103D02*
X234603Y259835D01*
X240799D01*
X169000Y323000D02*
X193000Y299000D01*
X108000Y392530D02*
Y451000D01*
Y382384D02*
Y385000D01*
X333197Y337697D02*
X333500Y338000D01*
X321185Y257185D02*
X333197Y269197D01*
Y337697D01*
X308870Y366202D02*
Y380870D01*
X290366Y364500D02*
X307168D01*
X308870Y366202D01*
Y380870D02*
X312500Y384500D01*
X226315Y477185D02*
X226500Y477000D01*
X226315Y477185D02*
Y499931D01*
X227884Y501500D01*
X259323D01*
X135500Y319300D02*
Y322705D01*
X139925Y327130D02*
X153126D01*
X135500Y322705D02*
X139925Y327130D01*
X157256Y323000D02*
X169000D01*
X277500Y461000D02*
X283000Y466500D01*
X277500Y453618D02*
Y461000D01*
X280173Y450945D02*
X281354D01*
X279189Y451929D02*
X280173Y450945D01*
X279189Y451929D02*
Y451929D01*
X277500Y453618D02*
X279189Y451929D01*
X281354Y450945D02*
X281913Y450386D01*
X307957Y520189D02*
X309987D01*
Y529116D01*
X308603Y530500D02*
X309987Y529116D01*
X264256Y530500D02*
X308603D01*
X310000Y466500D02*
Y520176D01*
X309987Y520189D02*
X310000Y520176D01*
X283000Y466500D02*
X310000D01*
X340000D01*
X169768Y530500D02*
X217012D01*
X264256D01*
X244507Y208493D02*
Y214000D01*
X303593Y447500D02*
X304976Y448884D01*
Y455330D01*
X286594Y450386D02*
X289480Y447500D01*
X281913Y450386D02*
X286594D01*
X289480Y447500D02*
X303593D01*
X264256Y520189D02*
Y530500D01*
X217012Y520189D02*
Y530500D01*
X141384D02*
X169768D01*
Y520189D02*
Y530500D01*
X140000Y529116D02*
X141384Y530500D01*
X140000Y483000D02*
Y529116D01*
X108000Y451000D02*
X140000Y483000D01*
X238500Y340689D02*
Y487579D01*
X231236Y494842D02*
X238500Y487579D01*
X231236Y333425D02*
X238500Y340689D01*
X333500Y338000D02*
Y356856D01*
X288768Y358240D02*
X332116D01*
X333500Y356856D01*
Y338000D02*
X343000D01*
X321185Y246315D02*
Y257185D01*
X310500Y246315D02*
X321185D01*
X328500Y239000D01*
X333685D01*
X163000Y340000D02*
Y379616D01*
Y340000D02*
X169000Y334000D01*
X161616Y381000D02*
X163000Y379616D01*
X109384Y381000D02*
X161616D01*
X213972Y340689D02*
X221236Y333425D01*
X213972Y340689D02*
Y487579D01*
X221236Y494842D01*
X208972Y336581D02*
X211236Y334317D01*
X208972Y336581D02*
Y491687D01*
X211236Y493951D01*
X241236D02*
Y494842D01*
Y493951D02*
X243500Y491687D01*
Y336581D02*
Y491687D01*
X241236Y334317D02*
X243500Y336581D01*
X241236Y333425D02*
Y334317D01*
X251236Y333425D02*
Y494842D01*
X261484Y359815D02*
X278000D01*
X261236Y359567D02*
Y494842D01*
Y333425D02*
Y359567D01*
X261484Y359815D01*
X278000D02*
X286993D01*
X261236Y494842D02*
Y499587D01*
X201236Y333425D02*
Y494842D01*
X191236Y333425D02*
Y494842D01*
X174000Y335000D02*
Y348319D01*
X169000Y323000D02*
Y334000D01*
X259323Y501500D02*
X261236Y499587D01*
X197544Y510000D02*
Y520123D01*
X292098Y510000D02*
Y520189D01*
X340000Y466500D02*
X344500Y462000D01*
X312500Y384500D02*
X339000D01*
X344500Y390000D02*
Y462000D01*
X339000Y384500D02*
X344500Y390000D01*
X285500Y368185D02*
X286681D01*
X290366Y364500D01*
X123819Y451000D02*
X123874Y450945D01*
X108000Y451000D02*
X123819D01*
X108000Y382384D02*
X109384Y381000D01*
X153126Y327130D02*
X157256Y323000D01*
X240799Y259835D02*
X240965Y260000D01*
X270138Y288000D02*
X272500D01*
X132000Y447500D02*
X146112D01*
X123874Y450945D02*
X124433Y450386D01*
X129114D01*
X132000Y447500D01*
X147496Y448884D02*
Y455330D01*
X146112Y447500D02*
X147496Y448884D01*
X260047Y283815D02*
X263000D01*
X265953D02*
X270138Y288000D01*
X263000Y283815D02*
X265953D01*
X242965Y282240D02*
X258472D01*
X260047Y283815D01*
X251500Y245500D02*
X255500Y249500D01*
X251500Y214204D02*
Y245500D01*
X251296Y214000D02*
X258086D01*
X244507D02*
X251296D01*
X251500Y214204D01*
X257500Y234815D02*
Y245363D01*
X258653Y246516D01*
X294838D01*
X287685Y358831D02*
Y359123D01*
X286993Y359815D02*
X287685Y359123D01*
Y358831D02*
X288276Y358240D01*
X288768D01*
X258472Y274760D02*
X260047Y273185D01*
X242965Y274760D02*
X258472D01*
X260047Y273185D02*
X263000D01*
X150305Y520128D02*
X150366Y520189D01*
X150305Y510000D02*
Y520128D01*
X197544Y520123D02*
X197610Y520189D01*
X244782Y520117D02*
X244854Y520189D01*
X244782Y510000D02*
Y520117D01*
X263000Y265315D02*
Y273185D01*
Y265315D02*
X263000Y265315D01*
X249035Y263740D02*
X258472D01*
X260047Y265315D01*
X263000D01*
X249035Y256260D02*
X258472D01*
X260047Y254685D01*
X263000D01*
X244507Y224630D02*
Y253090D01*
X247677Y256260D01*
X249035D01*
X258086Y214000D02*
X260268D01*
X257500Y214586D02*
Y224185D01*
Y214586D02*
X258086Y214000D01*
X268732Y210260D02*
X270307Y208685D01*
X294838Y214948D02*
Y228484D01*
Y213162D02*
Y214948D01*
X295101Y214685D02*
X310500D01*
X294838Y214948D02*
X295101Y214685D01*
X301500Y197884D02*
Y206500D01*
X294838Y213162D02*
X301500Y206500D01*
X299116Y195500D02*
X301500Y197884D01*
X283965Y195500D02*
X299116D01*
D30*
X212815Y211000D02*
X217000D01*
X211815Y210000D02*
X212815Y211000D01*
X108181Y222500D02*
X123000D01*
X107681Y223000D02*
X108181Y222500D01*
X292252Y378815D02*
X296567Y374500D01*
X301855Y375192D02*
Y378796D01*
X301164Y374500D02*
X301855Y375192D01*
X296567Y374500D02*
X301164D01*
X301855Y378796D02*
X302000Y378941D01*
X150811Y332445D02*
X157252D01*
X269472Y384448D02*
Y386772D01*
X282539Y441500D02*
X288980D01*
X125059D02*
X131500D01*
X124559Y441000D02*
X125059Y441500D01*
X271047Y378815D02*
X274000D01*
X269472Y380390D02*
X271047Y378815D01*
X269472Y380390D02*
Y384448D01*
X274000Y378815D02*
X285500D01*
X211500Y210315D02*
X211815Y210000D01*
X285500Y378815D02*
X292252D01*
D31*
X342815Y210500D02*
Y215868D01*
X336472Y255185D02*
X343000D01*
X226500Y354795D02*
Y375681D01*
X174000D02*
X186319D01*
X342815Y210500D02*
X342815Y210500D01*
X324260Y191760D02*
X332579Y200079D01*
X342815Y255000D02*
X343000Y255185D01*
X342815Y200315D02*
Y210500D01*
X270799Y219315D02*
X279500D01*
X269224Y217740D02*
X270799Y219315D01*
X291998Y191722D02*
X292035Y191760D01*
X272537Y191722D02*
X291998D01*
X272500Y191685D02*
X272537Y191722D01*
X292035Y191760D02*
X324260D01*
X332579Y200079D02*
Y210106D01*
D32*
X336472Y485000D02*
D03*
Y255079D02*
D03*
X116000Y485000D02*
D03*
Y255079D02*
D03*
D33*
X261236Y494842D02*
D03*
X251236D02*
D03*
X241236D02*
D03*
X231236D02*
D03*
X221236D02*
D03*
X211236D02*
D03*
X201236D02*
D03*
X261236Y333425D02*
D03*
X251236D02*
D03*
X241236D02*
D03*
X231236D02*
D03*
X221236D02*
D03*
X211236D02*
D03*
X201236D02*
D03*
X332579Y200079D02*
D03*
X343000Y308000D02*
D03*
Y318000D02*
D03*
Y328000D02*
D03*
Y288000D02*
D03*
D34*
X191236Y494842D02*
D03*
Y333425D02*
D03*
X342579Y200079D02*
D03*
D35*
X343000Y338000D02*
D03*
Y278000D02*
D03*
D36*
X164200Y209224D02*
D03*
X167047Y209547D02*
D03*
X170993Y208509D02*
D03*
X301500Y243192D02*
D03*
X270000Y257000D02*
D03*
X236500Y264500D02*
D03*
X217000Y259000D02*
D03*
X227000Y286989D02*
D03*
X230000Y283716D02*
D03*
X217000Y282500D02*
D03*
X193390Y240979D02*
D03*
X196000Y245500D02*
D03*
X161000Y254500D02*
D03*
X163000Y252500D02*
D03*
X161000Y259210D02*
D03*
X168000Y264000D02*
D03*
X170500Y257000D02*
D03*
X226722Y277278D02*
D03*
X171205Y277295D02*
D03*
X164500Y274693D02*
D03*
X167047Y274812D02*
D03*
X326000Y294500D02*
D03*
X173090Y197411D02*
D03*
X177000Y197500D02*
D03*
X193500Y197000D02*
D03*
X191000Y196786D02*
D03*
X196000Y197000D02*
D03*
X177000Y190500D02*
D03*
X155295Y200171D02*
D03*
X197500Y218500D02*
D03*
X236000Y206000D02*
D03*
X231500Y206000D02*
D03*
X217000Y211000D02*
D03*
X157517Y238858D02*
D03*
X141000Y229500D02*
D03*
X148500Y225500D02*
D03*
X123000Y222500D02*
D03*
X134500Y215500D02*
D03*
X136500Y218500D02*
D03*
X145966Y214378D02*
D03*
X132222Y210516D02*
D03*
X142608Y214378D02*
D03*
X145622Y207228D02*
D03*
X142608D02*
D03*
X102244Y283500D02*
D03*
X106000D02*
D03*
X108122Y289000D02*
D03*
X145311Y520189D02*
D03*
X144500Y231000D02*
D03*
X186501Y290001D02*
D03*
X163962Y289090D02*
D03*
X139931Y253861D02*
D03*
X327000Y292000D02*
D03*
X337500D02*
D03*
X183001Y290001D02*
D03*
X179502Y290002D02*
D03*
X328500Y282410D02*
D03*
X156213Y315493D02*
D03*
X123000Y340378D02*
D03*
X269472Y386772D02*
D03*
X150811Y332445D02*
D03*
X266761Y389372D02*
D03*
X288980Y441500D02*
D03*
X131500D02*
D03*
X310078Y461422D02*
D03*
X248122Y527941D02*
D03*
X302353Y211001D02*
D03*
X342815Y215868D02*
D03*
X330500Y302500D02*
D03*
X131999Y270001D02*
D03*
X114713Y364847D02*
D03*
X160000Y375500D02*
D03*
X159925Y378424D02*
D03*
X138000Y339000D02*
D03*
X328623Y435402D02*
D03*
X130500Y313000D02*
D03*
X135476Y333630D02*
D03*
X143000Y346000D02*
D03*
X140000Y371000D02*
D03*
X183634Y389134D02*
D03*
X171118Y411926D02*
D03*
X123874Y413374D02*
D03*
X193000Y520189D02*
D03*
X171142Y435402D02*
D03*
X300000Y461500D02*
D03*
X297000Y518500D02*
D03*
X281354Y454902D02*
D03*
X319000Y364000D02*
D03*
X116020Y400500D02*
D03*
X273500D02*
D03*
X328623Y411902D02*
D03*
X171130Y454913D02*
D03*
X123874Y454902D02*
D03*
X123898Y435402D02*
D03*
X281379D02*
D03*
X328610Y454913D02*
D03*
X231500Y253000D02*
D03*
X237500Y277000D02*
D03*
X250500Y253000D02*
D03*
X278500Y257000D02*
D03*
X191500Y255000D02*
D03*
X169500Y260000D02*
D03*
X165000Y264000D02*
D03*
X169000Y204500D02*
D03*
X182000Y203000D02*
D03*
X217000Y264500D02*
D03*
X193500Y249500D02*
D03*
X217000Y277500D02*
D03*
X172953Y251453D02*
D03*
X152556Y251696D02*
D03*
X144499Y251696D02*
D03*
X193390Y223110D02*
D03*
X154500Y246500D02*
D03*
X180453Y232953D02*
D03*
X161142Y217517D02*
D03*
X147520Y441000D02*
D03*
X305000D02*
D03*
X178858Y242483D02*
D03*
D37*
X193000Y299000D02*
D03*
X108000Y392530D02*
D03*
Y385000D02*
D03*
X193000Y290000D02*
D03*
X307957Y520189D02*
D03*
X244537Y208463D02*
D03*
X169768Y520189D02*
D03*
X217012D02*
D03*
X264256D02*
D03*
X226500Y375681D02*
D03*
X186319D02*
D03*
X174000Y335000D02*
D03*
X197544Y510000D02*
D03*
X150305Y510000D02*
D03*
X244782D02*
D03*
X292098Y510000D02*
D03*
X272500Y287925D02*
D03*
D38*
X107681Y204087D02*
D03*
X125319D02*
D03*
X107681Y239913D02*
D03*
X125319D02*
D03*
D39*
X143685Y357000D02*
D03*
X154315D02*
D03*
X333685Y239000D02*
D03*
X344315D02*
D03*
X156185Y297000D02*
D03*
X166815D02*
D03*
X117315Y296500D02*
D03*
X106685D02*
D03*
X128815Y357000D02*
D03*
X118185D02*
D03*
D40*
X226500Y477000D02*
D03*
Y354795D02*
D03*
D41*
X132496Y435930D02*
D03*
X137496D02*
D03*
X142496D02*
D03*
X147496D02*
D03*
X152496D02*
D03*
X157496D02*
D03*
X162496D02*
D03*
Y455330D02*
D03*
X157496D02*
D03*
X152496D02*
D03*
X147496D02*
D03*
X142496D02*
D03*
X137496D02*
D03*
X132496D02*
D03*
X289976D02*
D03*
X294976D02*
D03*
X299976D02*
D03*
X304976D02*
D03*
X309976D02*
D03*
X314976D02*
D03*
X319976D02*
D03*
Y435930D02*
D03*
X314976D02*
D03*
X309976D02*
D03*
X304976D02*
D03*
X299976D02*
D03*
X294976D02*
D03*
X289976D02*
D03*
X150500Y338700D02*
D03*
X145500D02*
D03*
X140500D02*
D03*
X135500D02*
D03*
X130500D02*
D03*
X125500D02*
D03*
X120500D02*
D03*
Y319300D02*
D03*
X125500D02*
D03*
X130500D02*
D03*
X135500D02*
D03*
X140500D02*
D03*
X145500D02*
D03*
X150500D02*
D03*
D42*
X174000Y348319D02*
D03*
Y375681D02*
D03*
D43*
X242965Y274760D02*
D03*
Y282240D02*
D03*
X251035Y278500D02*
D03*
X249035Y263740D02*
D03*
Y256260D02*
D03*
X240965Y260000D02*
D03*
X283965Y195500D02*
D03*
X292035Y191760D02*
D03*
Y199240D02*
D03*
D44*
X225000Y250700D02*
D03*
Y213300D02*
D03*
D45*
X268500Y237500D02*
D03*
D46*
X294838Y228484D02*
D03*
Y237500D02*
D03*
Y246516D02*
D03*
D47*
X169016Y246457D02*
D03*
X170984D02*
D03*
X174921D02*
D03*
X176890D02*
D03*
X180827Y213543D02*
D03*
X178858D02*
D03*
X176890D02*
D03*
X174921D02*
D03*
X172953D02*
D03*
X170984D02*
D03*
X169016D02*
D03*
X167047D02*
D03*
X165079D02*
D03*
X163110D02*
D03*
X161142D02*
D03*
X159173D02*
D03*
Y246457D02*
D03*
X161142D02*
D03*
X163110D02*
D03*
X165079D02*
D03*
X167047D02*
D03*
X172953D02*
D03*
X178858D02*
D03*
X180827D02*
D03*
D48*
X186457Y240827D02*
D03*
Y238858D02*
D03*
Y236890D02*
D03*
Y234921D02*
D03*
Y232953D02*
D03*
Y230984D02*
D03*
Y229016D02*
D03*
Y227047D02*
D03*
Y225079D02*
D03*
Y223110D02*
D03*
Y221142D02*
D03*
Y219173D02*
D03*
X153543D02*
D03*
Y221142D02*
D03*
Y223110D02*
D03*
Y225079D02*
D03*
Y227047D02*
D03*
Y229016D02*
D03*
Y230984D02*
D03*
Y232953D02*
D03*
Y234921D02*
D03*
Y236890D02*
D03*
Y238858D02*
D03*
Y240827D02*
D03*
D49*
X201185Y210000D02*
D03*
X211815D02*
D03*
X166815Y309000D02*
D03*
X156185D02*
D03*
X165315Y204500D02*
D03*
X154685D02*
D03*
X184315Y257000D02*
D03*
X173685D02*
D03*
X342815Y210500D02*
D03*
X332185D02*
D03*
X111185Y192000D02*
D03*
X121815D02*
D03*
X106685Y308500D02*
D03*
X117315D02*
D03*
X128815Y371000D02*
D03*
X118185D02*
D03*
X154315D02*
D03*
X143685D02*
D03*
D50*
X268732Y217740D02*
D03*
Y210260D02*
D03*
X260268Y214000D02*
D03*
X297232Y354500D02*
D03*
X288768Y358240D02*
D03*
Y350760D02*
D03*
D51*
X298260Y369059D02*
D03*
X305740D02*
D03*
Y378941D02*
D03*
X302000D02*
D03*
X298260D02*
D03*
D52*
X135500Y333654D02*
Y338700D01*
X304976Y435930D02*
Y440976D01*
X305000Y441000D01*
X147496Y435930D02*
Y440976D01*
X281354Y440315D02*
X282039Y441000D01*
D53*
X268500Y237500D02*
X287784D01*
X270307Y208685D02*
X279500D01*
X286631D01*
X287784Y209838D01*
Y237500D01*
X294838D01*
D54*
X343000Y288000D02*
Y308000D01*
M02*
