M48
;Layer_Color=9474304
;FILE_FORMAT=2:5
INCH,TZ
;TYPE=PLATED
T1F00S00C0.01181
T2F00S00C0.03543
T3F00S00C0.09055
%
T01
X342815Y215868
X328500Y282410
X327000Y292000
X326000Y294500
X330500Y302500
X337500Y292000
X272500Y287925
X270000Y257000
X278500
X250500Y253000
X231500
X236500Y264500
X237500Y277000
X226722Y277278
X230000Y283716
X227000Y286989
X217000Y282500
Y277500
Y264500
Y259000
X191500Y255000
X193500Y249500
X196000Y245500
X193390Y240979
X178858Y242483
X180453Y232953
X193390Y223110
X197500Y218500
X196000Y197000
X193500Y197000
X191000Y196786
X177000Y197500
X173090Y197411
X177000Y190500
X182000Y203000
X169000Y204500
X170993Y208509
X167047Y209547
X164200Y209224
X161142Y217517
X157517Y238858
X161000Y254500
X163000Y252500
X161000Y259210
X165000Y264000
X168000
X169500Y260000
X170500Y257000
X172953Y251453
X171205Y277295
X167047Y274812
X164500Y274693
X163962Y289090
X179502Y290002
X183001Y290001
X186501
X193000Y290000
Y299000
X217000Y211000
X231500Y206000
X236000Y206000
X244537Y208463
X302353Y211001
X301500Y243192
X154500Y246500
X152556Y251696
X144499Y251696
X139931Y253861
X131999Y270001
X106000Y283500
X102244
X108122Y289000
X123000Y222500
X136500Y218500
X134500Y215500
X132222Y210516
X142608Y207228
X145622
X145966Y214378
X142608
X141000Y229500
X144500Y231000
X148500Y225500
X155295Y200171
X156213Y315493
X150811Y332445
X135476Y333630
X138000Y339000
X143000Y346000
X123000Y340378
X114713Y364847
X108000Y385000
Y392530
X116020Y400500
X123874Y413374
X123898Y435402
X131500Y441500
X147520Y441000
X123874Y454902
X140000Y371000
X130500Y313000
X174000Y335000
X186319Y375681
X183634Y389134
X159925Y378424
X160000Y375500
X171118Y411926
X171142Y435402
X171130Y454913
X281354Y454902
X281379Y435402
X288980Y441500
X305000Y441000
X310078Y461422
X300000Y461500
X273500Y400500
X269472Y386772
X266761Y389372
X226500Y375681
X319000Y364000
X328623Y411902
Y435402
X328610Y454913
X307957Y520189
X297000Y518500
X292098Y510000
X264256Y520189
X248122Y527941
X244782Y510000
X217012Y520189
X193000
X197544Y510000
X169768Y520189
X145311
X150305Y510000
T02
X332579Y200079
X342579
X343000Y278000
Y288000
Y308000
X261236Y333425
X251236
X241236
X231236
X221236
X211236
X201236
X191236
X343000Y338000
Y328000
Y318000
X261236Y494842
X251236
X241236
X231236
X221236
X211236
X201236
X191236
T03
X336472Y255079
X116000
X336472Y485000
X116000
M30
