G04*
G04 #@! TF.GenerationSoftware,Altium Limited,Altium Designer,20.1.8 (145)*
G04*
G04 Layer_Physical_Order=1*
G04 Layer_Color=255*
%FSLAX25Y25*%
%MOIN*%
G70*
G04*
G04 #@! TF.SameCoordinates,2B40AF7D-86F1-4858-AC96-1B89F3EF06F7*
G04*
G04*
G04 #@! TF.FilePolarity,Positive*
G04*
G01*
G75*
%ADD13C,0.01000*%
%ADD14R,0.10236X0.04331*%
%ADD15R,0.06693X0.04331*%
%ADD16R,0.05000X0.12520*%
G04:AMPARAMS|DCode=17|XSize=82.68mil|YSize=54.33mil|CornerRadius=4.08mil|HoleSize=0mil|Usage=FLASHONLY|Rotation=0.000|XOffset=0mil|YOffset=0mil|HoleType=Round|Shape=RoundedRectangle|*
%AMROUNDEDRECTD17*
21,1,0.08268,0.04618,0,0,0.0*
21,1,0.07453,0.05433,0,0,0.0*
1,1,0.00815,0.03726,-0.02309*
1,1,0.00815,-0.03726,-0.02309*
1,1,0.00815,-0.03726,0.02309*
1,1,0.00815,0.03726,0.02309*
%
%ADD17ROUNDEDRECTD17*%
%ADD28C,0.01102*%
%ADD29C,0.02362*%
%ADD30C,0.01181*%
%ADD31C,0.01968*%
%ADD32C,0.19685*%
%ADD33C,0.05906*%
%ADD34R,0.05906X0.05906*%
%ADD35R,0.05906X0.05906*%
%ADD36C,0.01968*%
%ADD37C,0.02362*%
G36*
X311301Y531641D02*
Y523562D01*
X310801Y523355D01*
X305776Y528381D01*
X305480Y528578D01*
X305132Y528648D01*
X281024D01*
X280675Y528578D01*
X280380Y528381D01*
X265552Y513553D01*
X257748D01*
Y518583D01*
X264256D01*
X264871Y518706D01*
X265391Y519054D01*
X265739Y519574D01*
X265862Y520189D01*
X265739Y520803D01*
X265391Y521324D01*
X264871Y521672D01*
X264256Y521795D01*
X257748D01*
Y526843D01*
X251961D01*
Y513553D01*
X247748D01*
Y525038D01*
X249414D01*
X249763Y525107D01*
X250059Y525305D01*
X250644Y525890D01*
X250842Y526186D01*
X250911Y526535D01*
Y531641D01*
X250963Y531693D01*
X311249D01*
X311301Y531641D01*
D02*
G37*
G36*
Y496615D02*
Y466590D01*
X307123Y462411D01*
X301048D01*
X300993Y462494D01*
X300538Y462798D01*
X300000Y462905D01*
X299533Y462812D01*
X299166Y462957D01*
X299033Y463027D01*
Y485053D01*
X310801Y496822D01*
X311301Y496615D01*
D02*
G37*
G36*
X315876Y500748D02*
X315946Y500399D01*
X316143Y500104D01*
X316439Y499906D01*
X316787Y499837D01*
X351309D01*
Y445219D01*
X350809Y445068D01*
X350686Y445252D01*
X350686Y445252D01*
X349303Y446635D01*
X348782Y446983D01*
X348167Y447106D01*
X348167Y447106D01*
X322454D01*
Y453473D01*
X322329Y453774D01*
X322301Y453801D01*
X322000Y453926D01*
X288000D01*
X287699Y453801D01*
X287574Y453500D01*
Y447106D01*
X164973D01*
Y453473D01*
X164849Y453774D01*
X164821Y453801D01*
X164520Y453926D01*
X151911D01*
Y508394D01*
X197544D01*
X197544Y508394D01*
X197544Y508394D01*
X244782D01*
X244782Y508394D01*
X292098D01*
X292713Y508517D01*
X293234Y508865D01*
X293582Y509385D01*
X293704Y510000D01*
X293582Y510614D01*
X293234Y511135D01*
X292713Y511483D01*
X292098Y511606D01*
X266867D01*
X266813Y511678D01*
X266682Y512106D01*
X281401Y526825D01*
X289205D01*
Y513535D01*
X294992D01*
Y517589D01*
X295952D01*
X296007Y517507D01*
X296462Y517202D01*
X297000Y517095D01*
X297538Y517202D01*
X297993Y517507D01*
X298298Y517962D01*
X298405Y518500D01*
X298298Y519038D01*
X297993Y519493D01*
X297538Y519798D01*
X297000Y519905D01*
X296462Y519798D01*
X296007Y519493D01*
X295952Y519411D01*
X294992D01*
Y526825D01*
X299205D01*
Y513535D01*
X304992D01*
Y518583D01*
X307957D01*
X308571Y518706D01*
X309014Y519001D01*
X309313Y518913D01*
X309514Y518785D01*
Y498111D01*
X297478Y486075D01*
X297280Y485780D01*
X297211Y485431D01*
Y460722D01*
X297280Y460373D01*
X297478Y460078D01*
X298578Y458978D01*
X298873Y458780D01*
X299222Y458711D01*
X308278D01*
X308627Y458780D01*
X308922Y458978D01*
X309981Y460036D01*
X310078Y460017D01*
X310616Y460124D01*
X311071Y460429D01*
X311376Y460884D01*
X311483Y461422D01*
X311376Y461960D01*
X311071Y462416D01*
X310676Y462680D01*
X310518Y463042D01*
X310474Y463186D01*
X312857Y465568D01*
X313054Y465864D01*
X313124Y466213D01*
Y532019D01*
X313054Y532367D01*
X312857Y532663D01*
X312271Y533249D01*
X311976Y533446D01*
X311627Y533516D01*
X250586D01*
X250237Y533446D01*
X249941Y533249D01*
X249356Y532663D01*
X249158Y532367D01*
X249089Y532019D01*
Y529468D01*
X248956Y529398D01*
X248589Y529253D01*
X248122Y529346D01*
X247584Y529239D01*
X247129Y528934D01*
X247074Y528852D01*
X242026D01*
X241677Y528783D01*
X241381Y528585D01*
X240423Y527627D01*
X240225Y527331D01*
X240156Y526982D01*
Y513396D01*
X240225Y513047D01*
X240423Y512751D01*
X241069Y512106D01*
X240937Y511678D01*
X240883Y511606D01*
X197544D01*
X197544Y511606D01*
X197544Y511606D01*
X150305D01*
X149691Y511483D01*
X149170Y511135D01*
X148822Y510614D01*
X148700Y510000D01*
Y453926D01*
X130520D01*
X130219Y453801D01*
X130094Y453500D01*
Y443314D01*
X130116Y443260D01*
X130108Y443202D01*
X130176Y443115D01*
X130219Y443012D01*
X130272Y442990D01*
X130299Y442955D01*
X130310Y442938D01*
X130337Y442876D01*
X130408Y442347D01*
X130202Y442038D01*
X130095Y441500D01*
X130202Y440962D01*
X130408Y440653D01*
X130337Y440124D01*
X130310Y440062D01*
X130299Y440045D01*
X130272Y440010D01*
X130219Y439988D01*
X130176Y439885D01*
X130108Y439797D01*
X130116Y439740D01*
X130094Y439686D01*
Y437849D01*
X130126Y437771D01*
X130126Y437686D01*
X130126Y437686D01*
X130131Y437674D01*
X130191Y437614D01*
X130223Y437536D01*
X130302Y437503D01*
X130360Y437445D01*
X130362Y437443D01*
X130447Y437443D01*
X130525Y437411D01*
X148700D01*
Y337219D01*
X138760D01*
X138557Y337682D01*
X138563Y337719D01*
X138994Y338007D01*
X139298Y338462D01*
X139405Y339000D01*
X139298Y339538D01*
X138994Y339993D01*
X138538Y340298D01*
X138000Y340405D01*
X137462Y340298D01*
X137006Y339993D01*
X136702Y339538D01*
X136677Y339411D01*
X124527D01*
X124457Y339544D01*
X124312Y339911D01*
X124405Y340378D01*
X124298Y340916D01*
X123994Y341371D01*
X123538Y341676D01*
X123000Y341783D01*
X122462Y341676D01*
X122006Y341371D01*
X121952Y341289D01*
X116936D01*
X116587Y341220D01*
X116292Y341022D01*
X114643Y339374D01*
X114446Y339078D01*
X114376Y338729D01*
Y316685D01*
X114446Y316336D01*
X114643Y316040D01*
X123903Y306781D01*
X124198Y306583D01*
X124547Y306514D01*
X155453D01*
X155802Y306583D01*
X156097Y306781D01*
X169215Y319898D01*
X169412Y320194D01*
X169482Y320543D01*
Y332684D01*
X171906Y335108D01*
X172139Y335057D01*
X172413Y334908D01*
X172517Y334385D01*
X172865Y333865D01*
X173386Y333517D01*
X174000Y333394D01*
X178500D01*
X178500Y333394D01*
X179114Y333517D01*
X179635Y333865D01*
X187665Y341894D01*
X270451D01*
X270894Y341451D01*
Y287925D01*
X271017Y287311D01*
X271365Y286790D01*
X271885Y286442D01*
X272500Y286319D01*
X272876Y286394D01*
X340043D01*
X340077Y286312D01*
X340613Y285613D01*
X341312Y285077D01*
X342126Y284740D01*
X343000Y284625D01*
X343874Y284740D01*
X344688Y285077D01*
X345387Y285613D01*
X345923Y286312D01*
X346260Y287126D01*
X346375Y288000D01*
X346260Y288874D01*
X345923Y289688D01*
X345387Y290387D01*
X344688Y290923D01*
X343874Y291260D01*
X343000Y291375D01*
X342126Y291260D01*
X341312Y290923D01*
X340613Y290387D01*
X340077Y289688D01*
X340043Y289606D01*
X274106D01*
Y296484D01*
X274606Y296691D01*
X275442Y295856D01*
X275737Y295658D01*
X276086Y295589D01*
X324469D01*
X324736Y295089D01*
X324702Y295038D01*
X324595Y294500D01*
X324702Y293962D01*
X325007Y293507D01*
X325462Y293202D01*
X325535Y293188D01*
X325765Y292632D01*
X325702Y292538D01*
X325595Y292000D01*
X325702Y291462D01*
X326007Y291007D01*
X326462Y290702D01*
X327000Y290595D01*
X327538Y290702D01*
X327993Y291007D01*
X328048Y291089D01*
X336452D01*
X336507Y291007D01*
X336962Y290702D01*
X337500Y290595D01*
X338038Y290702D01*
X338493Y291007D01*
X338798Y291462D01*
X338905Y292000D01*
X338798Y292538D01*
X338493Y292993D01*
X338038Y293298D01*
X337500Y293405D01*
X336962Y293298D01*
X336507Y292993D01*
X336452Y292911D01*
X328303D01*
X328158Y293089D01*
X328396Y293589D01*
X334385D01*
X334734Y293658D01*
X335030Y293856D01*
X339382Y298208D01*
X339580Y298504D01*
X339649Y298853D01*
Y306087D01*
X339760Y306145D01*
X340149Y306218D01*
X340613Y305613D01*
X341312Y305077D01*
X342126Y304740D01*
X343000Y304625D01*
X343874Y304740D01*
X344688Y305077D01*
X345387Y305613D01*
X345923Y306312D01*
X346260Y307126D01*
X346375Y308000D01*
X346260Y308874D01*
X345923Y309688D01*
X345387Y310387D01*
X344688Y310923D01*
X343874Y311260D01*
X343000Y311375D01*
X342126Y311260D01*
X341312Y310923D01*
X340613Y310387D01*
X340149Y309782D01*
X339760Y309855D01*
X339649Y309913D01*
Y313360D01*
X341350Y315061D01*
X342126Y314740D01*
X343000Y314625D01*
X343874Y314740D01*
X344688Y315077D01*
X345387Y315613D01*
X345923Y316312D01*
X346260Y317126D01*
X346375Y318000D01*
X346260Y318874D01*
X345923Y319688D01*
X345387Y320387D01*
X344688Y320923D01*
X343874Y321260D01*
X343000Y321375D01*
X342126Y321260D01*
X341312Y320923D01*
X340613Y320387D01*
X340077Y319688D01*
X339740Y318874D01*
X339625Y318000D01*
X339740Y317126D01*
X340061Y316350D01*
X338093Y314382D01*
X337896Y314087D01*
X337827Y313738D01*
Y299230D01*
X336373Y297777D01*
X335911Y297968D01*
Y368373D01*
X338644Y371106D01*
X338842Y371401D01*
X338911Y371750D01*
Y439500D01*
X338842Y439849D01*
X338644Y440144D01*
X337829Y440959D01*
X337534Y441157D01*
X337185Y441226D01*
X334110D01*
Y442874D01*
X323087D01*
Y437756D01*
X334110D01*
Y439404D01*
X336808D01*
X337089Y439123D01*
Y372127D01*
X334411Y369450D01*
X334183Y369486D01*
X333911Y369629D01*
Y371123D01*
X335144Y372356D01*
X335342Y372651D01*
X335411Y373000D01*
Y408123D01*
X336230Y408942D01*
X336428Y409237D01*
X336497Y409586D01*
Y410414D01*
X336428Y410763D01*
X336230Y411059D01*
X334743Y412546D01*
X334447Y412744D01*
X334098Y412813D01*
X329671D01*
X329616Y412895D01*
X329534Y412950D01*
Y414134D01*
X334110D01*
Y419252D01*
X323087D01*
Y414134D01*
X327712D01*
Y412950D01*
X327629Y412895D01*
X327325Y412439D01*
X327218Y411902D01*
X327325Y411364D01*
X327629Y410908D01*
X328085Y410604D01*
X328623Y410497D01*
X329161Y410604D01*
X329616Y410908D01*
X329671Y410990D01*
X333721D01*
X334675Y410037D01*
Y409963D01*
X333856Y409144D01*
X333658Y408849D01*
X333589Y408500D01*
Y373377D01*
X332356Y372144D01*
X332158Y371849D01*
X332089Y371500D01*
Y303896D01*
X331589Y303658D01*
X331411Y303803D01*
Y352500D01*
X331342Y352849D01*
X331144Y353144D01*
X320386Y363903D01*
X320405Y364000D01*
X320298Y364538D01*
X319993Y364993D01*
X319538Y365298D01*
X319000Y365405D01*
X318462Y365298D01*
X318007Y364993D01*
X317702Y364538D01*
X317595Y364000D01*
X317702Y363462D01*
X318007Y363007D01*
X318462Y362702D01*
X319000Y362595D01*
X319097Y362614D01*
X329589Y352123D01*
Y303548D01*
X329507Y303493D01*
X329202Y303038D01*
X329095Y302500D01*
X329202Y301962D01*
X329507Y301507D01*
X329962Y301202D01*
X330500Y301095D01*
X331038Y301202D01*
X331493Y301507D01*
X331589Y301649D01*
X332089Y301498D01*
Y299463D01*
X332037Y299411D01*
X277963D01*
X277911Y299463D01*
Y344000D01*
X277842Y344349D01*
X277644Y344644D01*
X273144Y349144D01*
X272849Y349342D01*
X272500Y349411D01*
X181000D01*
X180651Y349342D01*
X180356Y349144D01*
X165856Y334644D01*
X165658Y334349D01*
X165589Y334000D01*
Y321377D01*
X154335Y310124D01*
X150120D01*
X149912Y310624D01*
X154378Y315090D01*
X154907Y314958D01*
X154929Y314934D01*
X155219Y314500D01*
X155675Y314195D01*
X156213Y314089D01*
X156750Y314195D01*
X157206Y314500D01*
X157511Y314956D01*
X157618Y315493D01*
X157511Y316031D01*
X157411Y316180D01*
Y407037D01*
X157463Y407089D01*
X179500D01*
X179849Y407158D01*
X180144Y407356D01*
X180342Y407651D01*
X180411Y408000D01*
Y439729D01*
X180342Y440078D01*
X180144Y440374D01*
X179559Y440959D01*
X179263Y441157D01*
X178914Y441226D01*
X176630D01*
Y442874D01*
X165606D01*
Y437756D01*
X176630D01*
Y439404D01*
X178537D01*
X178589Y439352D01*
Y408911D01*
X157086D01*
X156737Y408842D01*
X156441Y408644D01*
X155856Y408059D01*
X155746Y407894D01*
X155246Y408046D01*
Y410963D01*
X155298Y411015D01*
X170070D01*
X170125Y410933D01*
X170580Y410628D01*
X171118Y410521D01*
X171656Y410628D01*
X172112Y410933D01*
X172416Y411388D01*
X172523Y411926D01*
X172416Y412464D01*
X172112Y412920D01*
X172029Y412975D01*
Y414134D01*
X176630D01*
Y419252D01*
X165606D01*
Y414134D01*
X170207D01*
Y412975D01*
X170125Y412920D01*
X170070Y412837D01*
X154920D01*
X154572Y412768D01*
X154276Y412570D01*
X153690Y411985D01*
X153493Y411689D01*
X153423Y411340D01*
Y316712D01*
X148623Y311911D01*
X132877D01*
X131886Y312903D01*
X131905Y313000D01*
X131798Y313538D01*
X131493Y313993D01*
X131038Y314298D01*
X130500Y314405D01*
X129962Y314298D01*
X129507Y313993D01*
X129202Y313538D01*
X129095Y313000D01*
X129202Y312462D01*
X129507Y312007D01*
X129962Y311702D01*
X130500Y311595D01*
X130597Y311614D01*
X131588Y310624D01*
X131380Y310124D01*
X125665D01*
X117911Y317877D01*
Y320438D01*
X117912Y320440D01*
X118411Y320731D01*
X118476Y320704D01*
X152476D01*
X152778Y320829D01*
X152902Y321130D01*
Y331174D01*
X152862Y331271D01*
X152852Y331375D01*
X152802Y331416D01*
X152778Y331476D01*
X152681Y331516D01*
X152600Y331582D01*
X152511Y331609D01*
X152123Y331897D01*
X152166Y332196D01*
X152216Y332445D01*
X152166Y332694D01*
X152123Y332993D01*
X152511Y333281D01*
X152600Y333308D01*
X152681Y333374D01*
X152778Y333414D01*
X152802Y333474D01*
X152852Y333515D01*
X152862Y333619D01*
X152902Y333716D01*
Y336781D01*
X152870Y336859D01*
X152870Y336944D01*
X152870Y336944D01*
X152865Y336956D01*
X152805Y337016D01*
X152773Y337094D01*
X152694Y337127D01*
X152636Y337185D01*
X152634Y337187D01*
X152550Y337187D01*
X152471Y337219D01*
X151911D01*
Y437411D01*
X164547D01*
X164849Y437536D01*
X164973Y437837D01*
Y443894D01*
X268469D01*
Y390197D01*
X267969Y390045D01*
X267755Y390366D01*
X267299Y390670D01*
X266761Y390777D01*
X266224Y390670D01*
X265768Y390366D01*
X265554Y390045D01*
X184682D01*
X184627Y390127D01*
X184171Y390432D01*
X183634Y390539D01*
X183096Y390432D01*
X182640Y390127D01*
X182336Y389671D01*
X182229Y389134D01*
X182336Y388596D01*
X182640Y388140D01*
X183096Y387836D01*
X183634Y387729D01*
X184171Y387836D01*
X184627Y388140D01*
X184682Y388223D01*
X266002D01*
X266224Y388074D01*
X266761Y387967D01*
X267299Y388074D01*
X267755Y388379D01*
X267969Y388699D01*
X268469Y388547D01*
Y387750D01*
X268174Y387309D01*
X268068Y386772D01*
X268160Y386305D01*
X268016Y385937D01*
X267945Y385805D01*
X166394D01*
X166045Y385736D01*
X165749Y385538D01*
X160021Y379810D01*
X159925Y379829D01*
X159388Y379722D01*
X158932Y379417D01*
X158627Y378962D01*
X158520Y378424D01*
X158627Y377886D01*
X158932Y377431D01*
X159240Y377225D01*
X159276Y376734D01*
X159255Y376659D01*
X159007Y376493D01*
X158702Y376038D01*
X158595Y375500D01*
X158702Y374962D01*
X159007Y374507D01*
X159462Y374202D01*
X160000Y374095D01*
X160538Y374202D01*
X160994Y374507D01*
X161298Y374962D01*
X161405Y375500D01*
X161386Y375597D01*
X167377Y381589D01*
X275038D01*
X275387Y381658D01*
X275682Y381856D01*
X289559Y395732D01*
X289756Y396027D01*
X289825Y396376D01*
Y416693D01*
X289756Y417041D01*
X289559Y417337D01*
X289263Y417535D01*
X288914Y417604D01*
X286866D01*
Y419252D01*
X275842D01*
Y414134D01*
X286866D01*
Y415782D01*
X288003D01*
Y396754D01*
X274661Y383411D01*
X167374D01*
X167090Y383911D01*
X167133Y383982D01*
X272914D01*
X273263Y384052D01*
X273558Y384249D01*
X274144Y384835D01*
X274342Y385131D01*
X274411Y385479D01*
Y399452D01*
X274493Y399507D01*
X274798Y399962D01*
X274905Y400500D01*
X274798Y401038D01*
X274493Y401493D01*
X274411Y401548D01*
Y439352D01*
X274463Y439404D01*
X275842D01*
Y437756D01*
X286866D01*
Y442874D01*
X275842D01*
Y441226D01*
X274086D01*
X273737Y441157D01*
X273442Y440959D01*
X272856Y440374D01*
X272658Y440078D01*
X272589Y439729D01*
Y401548D01*
X272507Y401493D01*
X272202Y401038D01*
X272095Y400500D01*
X272202Y399962D01*
X272507Y399507D01*
X272589Y399452D01*
Y385857D01*
X272537Y385805D01*
X271000D01*
X270929Y385937D01*
X270784Y386305D01*
X270877Y386772D01*
X270770Y387309D01*
X270476Y387750D01*
Y443894D01*
X287574D01*
Y443314D01*
X287596Y443260D01*
X287589Y443202D01*
X287656Y443115D01*
X287699Y443012D01*
X287752Y442990D01*
X287779Y442955D01*
X287790Y442938D01*
X287818Y442876D01*
X287889Y442347D01*
X287682Y442038D01*
X287575Y441500D01*
X287682Y440962D01*
X287889Y440653D01*
X287818Y440124D01*
X287790Y440062D01*
X287779Y440045D01*
X287752Y440010D01*
X287699Y439988D01*
X287656Y439885D01*
X287589Y439797D01*
X287596Y439740D01*
X287574Y439686D01*
Y437849D01*
X287606Y437771D01*
X287606Y437686D01*
X287606Y437686D01*
X287611Y437674D01*
X287671Y437614D01*
X287704Y437536D01*
X287782Y437503D01*
X287841Y437445D01*
X287842Y437443D01*
X287927Y437443D01*
X288005Y437411D01*
X322027D01*
X322329Y437536D01*
X322454Y437837D01*
Y443894D01*
X347502D01*
X347945Y443451D01*
Y232570D01*
X337303D01*
Y227451D01*
X348327D01*
Y229239D01*
X348996D01*
Y223020D01*
X348933Y222546D01*
X343315D01*
Y219380D01*
X342815D01*
Y218881D01*
X336697D01*
Y216215D01*
X340507D01*
X340792Y215868D01*
X340946Y215093D01*
X341045Y214945D01*
X340810Y214504D01*
X220500D01*
X220116Y214427D01*
X219790Y214210D01*
X217742Y212161D01*
X217538Y212298D01*
X217000Y212405D01*
X216462Y212298D01*
X216007Y211993D01*
X215702Y211538D01*
X215595Y211000D01*
X215702Y210462D01*
X216007Y210007D01*
X216136Y209920D01*
X215984Y209420D01*
X172041D01*
X171986Y209502D01*
X171531Y209807D01*
X170993Y209914D01*
X170455Y209807D01*
X170000Y209502D01*
X169695Y209047D01*
X169588Y208509D01*
X169695Y207971D01*
X170000Y207515D01*
X170455Y207211D01*
X170993Y207104D01*
X171531Y207211D01*
X171986Y207515D01*
X172041Y207598D01*
X218009D01*
X218358Y207667D01*
X218653Y207865D01*
X220877Y210089D01*
X243235D01*
X243390Y209631D01*
X243391Y209589D01*
X235580Y201777D01*
X183441D01*
X183174Y202277D01*
X183298Y202462D01*
X183405Y203000D01*
X183298Y203538D01*
X182993Y203994D01*
X182538Y204298D01*
X182000Y204405D01*
X181462Y204298D01*
X181007Y203994D01*
X180702Y203538D01*
X180677Y203411D01*
X171214D01*
X170906Y203911D01*
X170924Y204000D01*
X167076D01*
X167094Y203911D01*
X166786Y203411D01*
X164963D01*
X164911Y203463D01*
Y208042D01*
X165194Y208231D01*
X165431Y208586D01*
X165818Y208655D01*
X165998Y208637D01*
X166054Y208554D01*
X166509Y208249D01*
X167047Y208142D01*
X167585Y208249D01*
X168041Y208554D01*
X168345Y209010D01*
X168452Y209547D01*
X168345Y210085D01*
X168041Y210541D01*
X167958Y210596D01*
Y211414D01*
X167889Y211763D01*
X167692Y212058D01*
X167106Y212644D01*
X166810Y212842D01*
X166461Y212911D01*
X151377D01*
X147388Y216900D01*
X147093Y217098D01*
X146744Y217167D01*
X137822D01*
X137813Y217177D01*
X137601Y217667D01*
X137798Y217962D01*
X137905Y218500D01*
X137798Y219038D01*
X137494Y219493D01*
X137038Y219798D01*
X136500Y219905D01*
X135962Y219798D01*
X135506Y219493D01*
X135452Y219411D01*
X133466D01*
X133117Y219342D01*
X132822Y219144D01*
X130871Y217194D01*
X130674Y216898D01*
X130605Y216549D01*
Y211222D01*
X130674Y210873D01*
X130839Y210626D01*
X130817Y210516D01*
X130924Y209978D01*
X131229Y209522D01*
X131685Y209218D01*
X132222Y209111D01*
X132760Y209218D01*
X133216Y209522D01*
X133520Y209978D01*
X133627Y210516D01*
X133520Y211053D01*
X133216Y211509D01*
X132760Y211814D01*
X132427Y211880D01*
Y216172D01*
X133844Y217589D01*
X134503D01*
X134699Y217089D01*
X134500Y216905D01*
X133962Y216798D01*
X133507Y216493D01*
X133202Y216038D01*
X133095Y215500D01*
X133202Y214962D01*
X133507Y214507D01*
X133962Y214202D01*
X134500Y214095D01*
X135038Y214202D01*
X135494Y214507D01*
X135798Y214962D01*
X135874Y215345D01*
X141081D01*
X141151Y215212D01*
X141296Y214845D01*
X141203Y214378D01*
X141310Y213840D01*
X141614Y213385D01*
X141697Y213330D01*
Y208277D01*
X141614Y208222D01*
X141310Y207766D01*
X141203Y207228D01*
X141310Y206691D01*
X141614Y206235D01*
X142070Y205930D01*
X142608Y205823D01*
X143146Y205930D01*
X143601Y206235D01*
X143837Y206588D01*
X144035Y206630D01*
X144194D01*
X144393Y206588D01*
X144629Y206235D01*
X145084Y205930D01*
X145622Y205823D01*
X146160Y205930D01*
X146616Y206235D01*
X146920Y206691D01*
X147027Y207228D01*
X146920Y207766D01*
X146911Y207779D01*
Y213352D01*
X146960Y213385D01*
X147224Y213780D01*
X147586Y213938D01*
X147730Y213982D01*
X150356Y211356D01*
X150651Y211158D01*
X151000Y211089D01*
X163947D01*
X163997Y210589D01*
X163663Y210522D01*
X163207Y210218D01*
X162902Y209762D01*
X162796Y209224D01*
X162902Y208687D01*
X163089Y208408D01*
Y203086D01*
X163158Y202737D01*
X163356Y202442D01*
X163520Y202277D01*
X163313Y201777D01*
X126994D01*
X122047Y206724D01*
Y220195D01*
X122500Y220532D01*
Y222500D01*
Y224468D01*
X122047Y224805D01*
Y237276D01*
X134482Y249711D01*
X134557Y249696D01*
X134557Y249696D01*
X144105D01*
X144105Y249696D01*
X144720Y249818D01*
X145126Y250090D01*
X152555D01*
X152556Y250090D01*
X153170Y250212D01*
X153220Y250245D01*
X153720Y249978D01*
Y247636D01*
X153507Y247493D01*
X153202Y247038D01*
X153095Y246500D01*
X153202Y245962D01*
X153507Y245507D01*
X153962Y245202D01*
X154500Y245095D01*
X155038Y245202D01*
X155493Y245507D01*
X155798Y245962D01*
X155905Y246500D01*
X155798Y247038D01*
X155542Y247421D01*
Y251938D01*
X156042Y252145D01*
X156331Y251856D01*
X156627Y251658D01*
X156975Y251589D01*
X161952D01*
X162006Y251507D01*
X162462Y251202D01*
X163000Y251095D01*
X163538Y251202D01*
X163994Y251507D01*
X164298Y251962D01*
X164405Y252500D01*
X164298Y253038D01*
X163994Y253493D01*
X163538Y253798D01*
X163000Y253905D01*
X162787Y253863D01*
X162363Y254287D01*
X162405Y254500D01*
X162298Y255038D01*
X161994Y255493D01*
X161911Y255548D01*
Y258162D01*
X161994Y258217D01*
X162298Y258672D01*
X162405Y259210D01*
X162298Y259748D01*
X161994Y260204D01*
X161538Y260508D01*
X161000Y260615D01*
X160462Y260508D01*
X160006Y260204D01*
X159702Y259748D01*
X159595Y259210D01*
X159702Y258672D01*
X160006Y258217D01*
X160089Y258162D01*
Y255548D01*
X160006Y255493D01*
X159702Y255038D01*
X159595Y254500D01*
X159702Y253962D01*
X159736Y253911D01*
X159469Y253411D01*
X157353D01*
X152998Y257766D01*
X152998Y257876D01*
X153172Y258299D01*
X153543Y258373D01*
X154009Y258684D01*
X154320Y259150D01*
X154429Y259699D01*
Y261508D01*
X149268D01*
Y262008D01*
X148768D01*
Y265752D01*
X147248D01*
X147041Y266252D01*
X157271Y276483D01*
X163872D01*
X163962Y275991D01*
X163506Y275686D01*
X163202Y275230D01*
X163095Y274693D01*
X163202Y274155D01*
X163506Y273699D01*
X163589Y273644D01*
Y264500D01*
X163642Y264234D01*
X163595Y264000D01*
X163702Y263462D01*
X164006Y263007D01*
X164462Y262702D01*
X165000Y262595D01*
X165538Y262702D01*
X165993Y263007D01*
X166222Y263349D01*
X166375Y263385D01*
X166625D01*
X166778Y263349D01*
X167007Y263007D01*
X167462Y262702D01*
X168000Y262595D01*
X168538Y262702D01*
X168993Y263007D01*
X169298Y263462D01*
X169405Y264000D01*
X169298Y264538D01*
X168993Y264993D01*
X168911Y265048D01*
Y273859D01*
X168842Y274207D01*
X168644Y274503D01*
X168433Y274714D01*
X168452Y274812D01*
X168345Y275349D01*
X168041Y275805D01*
X167775Y275982D01*
X167927Y276483D01*
X170091D01*
X170211Y276302D01*
X170667Y275997D01*
X171205Y275890D01*
X171742Y275997D01*
X172198Y276302D01*
X172503Y276758D01*
X172610Y277295D01*
X172503Y277833D01*
X172234Y278235D01*
X172296Y278477D01*
X172431Y278735D01*
X180551D01*
Y277337D01*
X180614Y277024D01*
X180791Y276759D01*
X181056Y276582D01*
X181368Y276520D01*
X188349D01*
X189371Y275498D01*
X189667Y275300D01*
X190016Y275231D01*
X193166D01*
Y273583D01*
X200646D01*
Y278701D01*
X193166D01*
Y277053D01*
X190393D01*
X189638Y277808D01*
Y281955D01*
X189576Y282267D01*
X189399Y282533D01*
X189134Y282710D01*
X188821Y282772D01*
X181368D01*
X181056Y282710D01*
X180791Y282533D01*
X180614Y282267D01*
X180551Y281955D01*
Y280557D01*
X153811D01*
Y281955D01*
X153749Y282267D01*
X153572Y282533D01*
X153307Y282710D01*
X152994Y282772D01*
X145541D01*
X145229Y282710D01*
X144964Y282533D01*
X144787Y282267D01*
X144725Y281955D01*
Y277337D01*
X144787Y277024D01*
X144964Y276759D01*
X145130Y276648D01*
Y269006D01*
X141962Y265837D01*
X141764Y265542D01*
X141695Y265193D01*
Y256979D01*
X141764Y256631D01*
X141962Y256335D01*
X142941Y255356D01*
X143237Y255158D01*
X143586Y255089D01*
X150809D01*
X152096Y253801D01*
X151889Y253301D01*
X144499D01*
X144499Y253301D01*
X143884Y253179D01*
X143478Y252907D01*
X141507D01*
X141246Y253408D01*
X141336Y253861D01*
X141229Y254399D01*
X140924Y254854D01*
X140842Y254909D01*
Y260275D01*
X140773Y260623D01*
X140575Y260919D01*
X139696Y261798D01*
Y267408D01*
X142644Y270356D01*
X142842Y270651D01*
X142911Y271000D01*
Y282123D01*
X145377Y284589D01*
X197500D01*
X197849Y284658D01*
X198144Y284856D01*
X202644Y289356D01*
X202842Y289651D01*
X202911Y290000D01*
Y298158D01*
X203411Y298309D01*
X203582Y298054D01*
X204047Y297743D01*
X204596Y297634D01*
X207823D01*
Y301378D01*
Y305122D01*
X204596D01*
X204047Y305013D01*
X203582Y304702D01*
X203411Y304447D01*
X202911Y304598D01*
Y313733D01*
X205068Y315890D01*
X212049D01*
X212362Y315952D01*
X212627Y316129D01*
X212804Y316394D01*
X212866Y316707D01*
Y318105D01*
X239606D01*
Y316707D01*
X239668Y316394D01*
X239846Y316129D01*
X240111Y315952D01*
X240423Y315890D01*
X247404D01*
X248427Y314868D01*
X248722Y314670D01*
X249071Y314601D01*
X252220D01*
Y312953D01*
X259701D01*
Y318071D01*
X252220D01*
Y316423D01*
X249448D01*
X248693Y317179D01*
Y321325D01*
X248631Y321638D01*
X248454Y321903D01*
X248189Y322080D01*
X247876Y322142D01*
X240423D01*
X240111Y322080D01*
X239846Y321903D01*
X239668Y321638D01*
X239606Y321325D01*
Y319927D01*
X212866D01*
Y321325D01*
X212804Y321638D01*
X212627Y321903D01*
X212362Y322080D01*
X212049Y322142D01*
X204596D01*
X204284Y322080D01*
X204019Y321903D01*
X203842Y321638D01*
X203780Y321325D01*
Y317179D01*
X201356Y314755D01*
X201158Y314459D01*
X201089Y314110D01*
Y290377D01*
X197123Y286411D01*
X145000D01*
X144651Y286342D01*
X144356Y286144D01*
X141356Y283144D01*
X141158Y282849D01*
X141089Y282500D01*
Y271377D01*
X138141Y268429D01*
X137943Y268134D01*
X137874Y267785D01*
Y261420D01*
X137943Y261072D01*
X138141Y260776D01*
X139020Y259897D01*
Y254909D01*
X138937Y254854D01*
X138633Y254399D01*
X138526Y253861D01*
X138616Y253408D01*
X138355Y252907D01*
X135177D01*
X134794Y253163D01*
X134180Y253285D01*
X133977Y253245D01*
X132963Y254259D01*
Y268987D01*
X132993Y269007D01*
X133297Y269463D01*
X133404Y270001D01*
X133297Y270538D01*
X132993Y270994D01*
X132537Y271299D01*
X131999Y271406D01*
X131462Y271299D01*
X131006Y270994D01*
X130701Y270538D01*
X130595Y270001D01*
X130701Y269463D01*
X131006Y269007D01*
X131036Y268987D01*
Y253860D01*
X131109Y253491D01*
X131318Y253179D01*
X132363Y252134D01*
X128844Y248615D01*
X128384Y248862D01*
X128411Y249000D01*
Y259500D01*
X128342Y259849D01*
X128144Y260144D01*
X124411Y263877D01*
Y279123D01*
X132377Y287089D01*
X163000D01*
X163349Y287158D01*
X163644Y287356D01*
X163804Y287594D01*
X163906Y287697D01*
X163962Y287686D01*
X164500Y287792D01*
X164956Y288097D01*
X165261Y288553D01*
X165367Y289090D01*
X165261Y289628D01*
X164956Y290084D01*
X164500Y290388D01*
X163962Y290495D01*
X163425Y290388D01*
X162969Y290084D01*
X162664Y289628D01*
X162557Y289091D01*
X162083Y288911D01*
X132000D01*
X131651Y288842D01*
X131356Y288644D01*
X122856Y280144D01*
X122658Y279849D01*
X122589Y279500D01*
Y264344D01*
X122089Y264064D01*
X120938Y264769D01*
X119361Y265423D01*
X117701Y265821D01*
X116500Y265915D01*
Y255079D01*
Y244242D01*
X117701Y244337D01*
X119361Y244735D01*
X120938Y245388D01*
X122393Y246280D01*
X123690Y247388D01*
X124799Y248686D01*
X125691Y250141D01*
X126089Y251102D01*
X126589Y251003D01*
Y249377D01*
X106675Y229464D01*
X106175Y229671D01*
Y249404D01*
X106675Y249545D01*
X107201Y248686D01*
X108309Y247388D01*
X109607Y246280D01*
X111062Y245388D01*
X112639Y244735D01*
X114299Y244337D01*
X115500Y244242D01*
Y255079D01*
Y265915D01*
X114299Y265821D01*
X112639Y265423D01*
X111062Y264769D01*
X109607Y263878D01*
X108309Y262769D01*
X107201Y261472D01*
X106675Y260613D01*
X106175Y260754D01*
Y273444D01*
X112144Y279414D01*
X112342Y279709D01*
X112411Y280058D01*
Y345037D01*
X112463Y345089D01*
X140000D01*
X140349Y345158D01*
X140644Y345356D01*
X140842Y345651D01*
X140911Y346000D01*
Y369952D01*
X140993Y370007D01*
X141298Y370462D01*
X141405Y371000D01*
X141298Y371538D01*
X140993Y371993D01*
X140538Y372298D01*
X140000Y372405D01*
X139462Y372298D01*
X139006Y371993D01*
X138702Y371538D01*
X138595Y371000D01*
X138702Y370462D01*
X139006Y370007D01*
X139089Y369952D01*
Y346911D01*
X112086D01*
X111737Y346842D01*
X111442Y346644D01*
X111373Y346576D01*
X110911Y346767D01*
Y359757D01*
X114616Y363461D01*
X114713Y363442D01*
X115250Y363549D01*
X115706Y363854D01*
X116011Y364309D01*
X116118Y364847D01*
X116011Y365385D01*
X115706Y365841D01*
X115250Y366145D01*
X114713Y366252D01*
X114175Y366145D01*
X113719Y365841D01*
X113415Y365385D01*
X113308Y364847D01*
X113327Y364750D01*
X109356Y360779D01*
X109158Y360483D01*
X109089Y360135D01*
Y290527D01*
X108957Y290457D01*
X108589Y290312D01*
X108122Y290405D01*
X107584Y290298D01*
X107129Y289993D01*
X106824Y289538D01*
X106717Y289000D01*
X106824Y288462D01*
X107129Y288007D01*
X107211Y287952D01*
Y284949D01*
X106711Y284682D01*
X106538Y284798D01*
X106000Y284905D01*
X105462Y284798D01*
X105007Y284493D01*
X104952Y284411D01*
X103293D01*
X103238Y284493D01*
X102782Y284798D01*
X102244Y284905D01*
X101707Y284798D01*
X101663Y284769D01*
X101163Y285036D01*
Y499837D01*
X135685D01*
X136034Y499906D01*
X136329Y500104D01*
X136527Y500399D01*
X136596Y500748D01*
Y534482D01*
X315876D01*
Y500748D01*
D02*
G37*
G36*
X322027Y453473D02*
Y437837D01*
X288005D01*
X288000Y437849D01*
Y439686D01*
X288480Y439962D01*
Y441500D01*
Y443038D01*
X288000Y443314D01*
Y453500D01*
X322000D01*
X322027Y453473D01*
D02*
G37*
G36*
X164547D02*
Y437837D01*
X130525D01*
X130520Y437849D01*
Y439686D01*
X131000Y439962D01*
Y441500D01*
Y443038D01*
X130520Y443314D01*
Y453500D01*
X164520D01*
X164547Y453473D01*
D02*
G37*
G36*
X272102Y347380D02*
X271851Y346880D01*
X181589D01*
X181395Y347140D01*
X181325Y347359D01*
X181499Y347589D01*
X271946D01*
X272102Y347380D01*
D02*
G37*
G36*
X185719Y344865D02*
X185787Y344557D01*
X177835Y336606D01*
X174110D01*
X173941Y336871D01*
X173891Y337094D01*
X181855Y345057D01*
X185596D01*
X185719Y344865D01*
D02*
G37*
G36*
X152476Y336781D02*
Y333716D01*
X151976Y333564D01*
X151958Y333592D01*
X151432Y333943D01*
X151311Y333967D01*
Y332445D01*
Y330923D01*
X151432Y330947D01*
X151958Y331298D01*
X151976Y331326D01*
X152476Y331174D01*
Y321130D01*
X118476D01*
X118449Y321158D01*
Y336793D01*
X152471D01*
X152476Y336781D01*
D02*
G37*
G36*
X105007Y282507D02*
X105462Y282202D01*
X106000Y282095D01*
X106538Y282202D01*
X106711Y282318D01*
X107211Y282050D01*
Y280999D01*
X101824Y275613D01*
X101256Y275662D01*
X101163Y275734D01*
Y281964D01*
X101663Y282231D01*
X101707Y282202D01*
X102244Y282095D01*
X102782Y282202D01*
X103238Y282507D01*
X103293Y282589D01*
X104952D01*
X105007Y282507D01*
D02*
G37*
G36*
X156545Y278236D02*
X156249Y278038D01*
X147415Y269203D01*
X146953Y269395D01*
Y276520D01*
X152994D01*
X153307Y276582D01*
X153572Y276759D01*
X153749Y277024D01*
X153811Y277337D01*
Y278735D01*
X156491D01*
X156545Y278236D01*
D02*
G37*
G36*
X300929Y211997D02*
X300866Y211911D01*
X221547D01*
X221279Y212411D01*
X221336Y212496D01*
X300677D01*
X300929Y211997D01*
D02*
G37*
G36*
X351309Y213480D02*
Y185124D01*
X327355D01*
Y195391D01*
X203606D01*
Y185124D01*
X191878D01*
X191671Y185624D01*
X196644Y190597D01*
X196842Y190893D01*
X196911Y191242D01*
Y195952D01*
X196994Y196007D01*
X197298Y196462D01*
X197405Y197000D01*
X197298Y197538D01*
X196994Y197994D01*
X196885Y198066D01*
X197037Y198566D01*
X236245D01*
X236245Y198566D01*
X236859Y198688D01*
X237380Y199036D01*
X245672Y207328D01*
X245672Y207328D01*
X246020Y207849D01*
X246142Y208463D01*
X246020Y209078D01*
X245679Y209589D01*
X245690Y209652D01*
X245838Y210089D01*
X301305D01*
X301359Y210008D01*
X301815Y209703D01*
X302353Y209596D01*
X302890Y209703D01*
X303346Y210008D01*
X303651Y210463D01*
X303758Y211001D01*
X303651Y211539D01*
X303346Y211994D01*
X303343Y211997D01*
X303495Y212496D01*
X349308D01*
X349692Y212573D01*
X350018Y212790D01*
X350710Y213482D01*
X350809Y213631D01*
X351309Y213480D01*
D02*
G37*
G36*
X118937Y238454D02*
X118835Y237941D01*
X118835Y237941D01*
Y206726D01*
X118335Y206519D01*
X107911Y216943D01*
Y228123D01*
X118518Y238730D01*
X118937Y238454D01*
D02*
G37*
G36*
X175721Y198066D02*
X175702Y198038D01*
X175595Y197500D01*
X175702Y196962D01*
X176006Y196507D01*
X176089Y196452D01*
Y191548D01*
X176006Y191493D01*
X175702Y191038D01*
X175595Y190500D01*
X175688Y190033D01*
X175543Y189665D01*
X175473Y189533D01*
X167208D01*
X167001Y190033D01*
X172992Y196025D01*
X173090Y196006D01*
X173627Y196113D01*
X174083Y196417D01*
X174387Y196873D01*
X174494Y197411D01*
X174387Y197948D01*
X174309Y198066D01*
X174576Y198566D01*
X175453D01*
X175721Y198066D01*
D02*
G37*
G36*
X171870D02*
X171792Y197948D01*
X171685Y197411D01*
X171704Y197313D01*
X165675Y191284D01*
X133570D01*
X126789Y198066D01*
X126996Y198566D01*
X171603D01*
X171870Y198066D01*
D02*
G37*
G36*
X190440Y198103D02*
X190434Y198066D01*
X190006Y197780D01*
X189702Y197324D01*
X189595Y196786D01*
X189614Y196689D01*
X182458Y189533D01*
X178527D01*
X178457Y189665D01*
X178312Y190033D01*
X178405Y190500D01*
X178298Y191038D01*
X177994Y191493D01*
X177911Y191548D01*
Y196452D01*
X177994Y196507D01*
X178298Y196962D01*
X178405Y197500D01*
X178298Y198038D01*
X178279Y198066D01*
X178547Y198566D01*
X190206D01*
X190440Y198103D01*
D02*
G37*
G36*
X194909Y195729D02*
X195089Y195553D01*
Y191619D01*
X190216Y186746D01*
X185557D01*
X185366Y187208D01*
X193816Y195658D01*
X194038Y195702D01*
X194493Y196007D01*
X194909Y195729D01*
D02*
G37*
G36*
X130740Y185624D02*
X130533Y185124D01*
X101163D01*
Y214419D01*
X101256Y214491D01*
X101824Y214540D01*
X130740Y185624D01*
D02*
G37*
%LPC*%
G36*
X200504Y526843D02*
X194717D01*
Y521100D01*
X194048D01*
X193993Y521182D01*
X193538Y521487D01*
X193000Y521594D01*
X192462Y521487D01*
X192007Y521182D01*
X191702Y520727D01*
X191595Y520189D01*
X191702Y519651D01*
X192007Y519196D01*
X192462Y518891D01*
X193000Y518784D01*
X193538Y518891D01*
X193993Y519196D01*
X194048Y519278D01*
X194717D01*
Y513535D01*
X200504D01*
Y526843D01*
D02*
G37*
G36*
X153260D02*
X147473D01*
Y521100D01*
X146359D01*
X146304Y521182D01*
X145849Y521487D01*
X145311Y521594D01*
X144773Y521487D01*
X144318Y521182D01*
X144013Y520727D01*
X143906Y520189D01*
X144013Y519651D01*
X144318Y519196D01*
X144773Y518891D01*
X145311Y518784D01*
X145849Y518891D01*
X146304Y519196D01*
X146359Y519278D01*
X147473D01*
Y513535D01*
X153260D01*
Y526843D01*
D02*
G37*
G36*
X210504D02*
X204716D01*
Y513535D01*
X210504D01*
Y518583D01*
X217012D01*
X217626Y518706D01*
X218147Y519054D01*
X218495Y519574D01*
X218618Y520189D01*
X218495Y520803D01*
X218147Y521324D01*
X217626Y521672D01*
X217012Y521795D01*
X210504D01*
Y526843D01*
D02*
G37*
G36*
X163260D02*
X157473D01*
Y513535D01*
X163260D01*
Y518583D01*
X169768D01*
X170382Y518706D01*
X170903Y519054D01*
X171251Y519574D01*
X171373Y520189D01*
X171251Y520803D01*
X170903Y521324D01*
X170382Y521672D01*
X169768Y521795D01*
X163260D01*
Y526843D01*
D02*
G37*
G36*
X261736Y498764D02*
Y495342D01*
X265157D01*
X265087Y495874D01*
X264689Y496836D01*
X264055Y497662D01*
X263230Y498295D01*
X262268Y498694D01*
X261736Y498764D01*
D02*
G37*
G36*
X260736D02*
X260204Y498694D01*
X259243Y498295D01*
X258417Y497662D01*
X257784Y496836D01*
X257385Y495874D01*
X257315Y495342D01*
X260736D01*
Y498764D01*
D02*
G37*
G36*
X194583Y498189D02*
X187890D01*
Y491496D01*
X194583D01*
Y498189D01*
D02*
G37*
G36*
X251236Y498218D02*
X250363Y498103D01*
X249549Y497766D01*
X248850Y497229D01*
X248313Y496530D01*
X247976Y495716D01*
X247861Y494842D01*
X247976Y493969D01*
X248313Y493155D01*
X248850Y492456D01*
X249549Y491919D01*
X250363Y491582D01*
X251236Y491467D01*
X252110Y491582D01*
X252924Y491919D01*
X253623Y492456D01*
X254159Y493155D01*
X254497Y493969D01*
X254611Y494842D01*
X254497Y495716D01*
X254159Y496530D01*
X253623Y497229D01*
X252924Y497766D01*
X252110Y498103D01*
X251236Y498218D01*
D02*
G37*
G36*
X241236D02*
X240363Y498103D01*
X239548Y497766D01*
X238849Y497229D01*
X238313Y496530D01*
X237976Y495716D01*
X237861Y494842D01*
X237976Y493969D01*
X238313Y493155D01*
X238849Y492456D01*
X239548Y491919D01*
X240363Y491582D01*
X241236Y491467D01*
X242110Y491582D01*
X242924Y491919D01*
X243623Y492456D01*
X244159Y493155D01*
X244496Y493969D01*
X244612Y494842D01*
X244496Y495716D01*
X244159Y496530D01*
X243623Y497229D01*
X242924Y497766D01*
X242110Y498103D01*
X241236Y498218D01*
D02*
G37*
G36*
X231236D02*
X230363Y498103D01*
X229549Y497766D01*
X228850Y497229D01*
X228313Y496530D01*
X227976Y495716D01*
X227861Y494842D01*
X227976Y493969D01*
X228313Y493155D01*
X228850Y492456D01*
X229549Y491919D01*
X230363Y491582D01*
X231236Y491467D01*
X232110Y491582D01*
X232924Y491919D01*
X233623Y492456D01*
X234159Y493155D01*
X234496Y493969D01*
X234612Y494842D01*
X234496Y495716D01*
X234159Y496530D01*
X233623Y497229D01*
X232924Y497766D01*
X232110Y498103D01*
X231236Y498218D01*
D02*
G37*
G36*
X221236D02*
X220363Y498103D01*
X219549Y497766D01*
X218849Y497229D01*
X218313Y496530D01*
X217976Y495716D01*
X217861Y494842D01*
X217976Y493969D01*
X218313Y493155D01*
X218849Y492456D01*
X219549Y491919D01*
X220363Y491582D01*
X221236Y491467D01*
X222110Y491582D01*
X222924Y491919D01*
X223623Y492456D01*
X224159Y493155D01*
X224497Y493969D01*
X224611Y494842D01*
X224497Y495716D01*
X224159Y496530D01*
X223623Y497229D01*
X222924Y497766D01*
X222110Y498103D01*
X221236Y498218D01*
D02*
G37*
G36*
X211236D02*
X210363Y498103D01*
X209548Y497766D01*
X208850Y497229D01*
X208313Y496530D01*
X207976Y495716D01*
X207861Y494842D01*
X207976Y493969D01*
X208313Y493155D01*
X208850Y492456D01*
X209548Y491919D01*
X210363Y491582D01*
X211236Y491467D01*
X212110Y491582D01*
X212924Y491919D01*
X213623Y492456D01*
X214159Y493155D01*
X214496Y493969D01*
X214612Y494842D01*
X214496Y495716D01*
X214159Y496530D01*
X213623Y497229D01*
X212924Y497766D01*
X212110Y498103D01*
X211236Y498218D01*
D02*
G37*
G36*
X201236D02*
X200363Y498103D01*
X199548Y497766D01*
X198849Y497229D01*
X198313Y496530D01*
X197976Y495716D01*
X197861Y494842D01*
X197976Y493969D01*
X198313Y493155D01*
X198849Y492456D01*
X199548Y491919D01*
X200363Y491582D01*
X201236Y491467D01*
X202110Y491582D01*
X202924Y491919D01*
X203623Y492456D01*
X204159Y493155D01*
X204497Y493969D01*
X204611Y494842D01*
X204497Y495716D01*
X204159Y496530D01*
X203623Y497229D01*
X202924Y497766D01*
X202110Y498103D01*
X201236Y498218D01*
D02*
G37*
G36*
X265157Y494343D02*
X261736D01*
Y490921D01*
X262268Y490991D01*
X263230Y491390D01*
X264055Y492023D01*
X264689Y492849D01*
X265087Y493811D01*
X265157Y494343D01*
D02*
G37*
G36*
X260736D02*
X257315D01*
X257385Y493811D01*
X257784Y492849D01*
X258417Y492023D01*
X259243Y491390D01*
X260204Y490991D01*
X260736Y490921D01*
Y494343D01*
D02*
G37*
G36*
X336972Y495837D02*
Y485500D01*
X347309D01*
X347215Y486701D01*
X346816Y488361D01*
X346163Y489938D01*
X345271Y491393D01*
X344163Y492691D01*
X342865Y493799D01*
X341410Y494691D01*
X339833Y495344D01*
X338174Y495742D01*
X336972Y495837D01*
D02*
G37*
G36*
X335972D02*
X334771Y495742D01*
X333112Y495344D01*
X331535Y494691D01*
X330080Y493799D01*
X328782Y492691D01*
X327674Y491393D01*
X326782Y489938D01*
X326129Y488361D01*
X325730Y486701D01*
X325636Y485500D01*
X335972D01*
Y495837D01*
D02*
G37*
G36*
X116500D02*
Y485500D01*
X126837D01*
X126742Y486701D01*
X126344Y488361D01*
X125691Y489938D01*
X124799Y491393D01*
X123690Y492691D01*
X122393Y493799D01*
X120938Y494691D01*
X119361Y495344D01*
X117701Y495742D01*
X116500Y495837D01*
D02*
G37*
G36*
X115500D02*
X114299Y495742D01*
X112639Y495344D01*
X111062Y494691D01*
X109607Y493799D01*
X108309Y492691D01*
X107201Y491393D01*
X106309Y489938D01*
X105656Y488361D01*
X105258Y486701D01*
X105163Y485500D01*
X115500D01*
Y495837D01*
D02*
G37*
G36*
X347309Y484500D02*
X336972D01*
Y474163D01*
X338174Y474258D01*
X339833Y474656D01*
X341410Y475309D01*
X342865Y476201D01*
X344163Y477310D01*
X345271Y478607D01*
X346163Y480062D01*
X346816Y481639D01*
X347215Y483299D01*
X347309Y484500D01*
D02*
G37*
G36*
X335972D02*
X325636D01*
X325730Y483299D01*
X326129Y481639D01*
X326782Y480062D01*
X327674Y478607D01*
X328782Y477310D01*
X330080Y476201D01*
X331535Y475309D01*
X333112Y474656D01*
X334771Y474258D01*
X335972Y474163D01*
Y484500D01*
D02*
G37*
G36*
X126837D02*
X116500D01*
Y474163D01*
X117701Y474258D01*
X119361Y474656D01*
X120938Y475309D01*
X122393Y476201D01*
X123690Y477310D01*
X124799Y478607D01*
X125691Y480062D01*
X126344Y481639D01*
X126742Y483299D01*
X126837Y484500D01*
D02*
G37*
G36*
X115500D02*
X105163D01*
X105258Y483299D01*
X105656Y481639D01*
X106309Y480062D01*
X107201Y478607D01*
X108309Y477310D01*
X109607Y476201D01*
X111062Y475309D01*
X112639Y474656D01*
X114299Y474258D01*
X115500Y474163D01*
Y484500D01*
D02*
G37*
G36*
X132944Y473329D02*
X102606D01*
Y466606D01*
X132944D01*
Y473329D01*
D02*
G37*
G36*
X328610Y456318D02*
X328073Y456211D01*
X327617Y455907D01*
X327312Y455451D01*
X327205Y454913D01*
X327312Y454376D01*
X327561Y454004D01*
X327466Y453693D01*
X327339Y453504D01*
X323087D01*
Y448386D01*
X334110D01*
Y453504D01*
X329881D01*
X329755Y453693D01*
X329660Y454004D01*
X329908Y454376D01*
X330015Y454913D01*
X329908Y455451D01*
X329604Y455907D01*
X329148Y456211D01*
X328610Y456318D01*
D02*
G37*
G36*
X281354Y456307D02*
X280817Y456200D01*
X280361Y455895D01*
X280056Y455439D01*
X279949Y454902D01*
X280056Y454364D01*
X280297Y454004D01*
X280184Y453658D01*
X280075Y453504D01*
X275842D01*
Y448386D01*
X286866D01*
Y453504D01*
X282633D01*
X282524Y453658D01*
X282412Y454004D01*
X282652Y454364D01*
X282759Y454902D01*
X282652Y455439D01*
X282348Y455895D01*
X281892Y456200D01*
X281354Y456307D01*
D02*
G37*
G36*
X171130Y456318D02*
X170592Y456211D01*
X170136Y455907D01*
X169832Y455451D01*
X169725Y454913D01*
X169832Y454376D01*
X170080Y454004D01*
X169985Y453693D01*
X169859Y453504D01*
X165606D01*
Y448386D01*
X176630D01*
Y453504D01*
X172401D01*
X172274Y453693D01*
X172179Y454004D01*
X172428Y454376D01*
X172535Y454913D01*
X172428Y455451D01*
X172123Y455907D01*
X171668Y456211D01*
X171130Y456318D01*
D02*
G37*
G36*
X123874Y456307D02*
X123336Y456200D01*
X122880Y455895D01*
X122576Y455439D01*
X122469Y454902D01*
X122576Y454364D01*
X122816Y454004D01*
X122704Y453658D01*
X122595Y453504D01*
X118362D01*
Y448386D01*
X129386D01*
Y453504D01*
X125153D01*
X125044Y453658D01*
X124931Y454004D01*
X125172Y454364D01*
X125279Y454902D01*
X125172Y455439D01*
X124867Y455895D01*
X124411Y456200D01*
X123874Y456307D01*
D02*
G37*
G36*
X129386Y442874D02*
X118362D01*
Y441226D01*
X116606D01*
X116257Y441157D01*
X115961Y440959D01*
X115375Y440374D01*
X115178Y440078D01*
X115109Y439729D01*
Y401548D01*
X115026Y401493D01*
X114722Y401038D01*
X114615Y400500D01*
X114722Y399962D01*
X115026Y399507D01*
X115482Y399202D01*
X116020Y399095D01*
X116557Y399202D01*
X117013Y399507D01*
X117068Y399589D01*
X131623D01*
X142089Y389123D01*
Y347048D01*
X142007Y346993D01*
X141702Y346538D01*
X141595Y346000D01*
X141702Y345462D01*
X142007Y345007D01*
X142462Y344702D01*
X143000Y344595D01*
X143538Y344702D01*
X143993Y345007D01*
X144298Y345462D01*
X144405Y346000D01*
X144298Y346538D01*
X143993Y346993D01*
X143911Y347048D01*
Y389500D01*
X143842Y389849D01*
X143644Y390144D01*
X132644Y401144D01*
X132349Y401342D01*
X132000Y401411D01*
X117068D01*
X117013Y401493D01*
X116931Y401548D01*
Y439352D01*
X116983Y439404D01*
X118362D01*
Y437756D01*
X129386D01*
Y442874D01*
D02*
G37*
G36*
X328623Y436806D02*
X328085Y436700D01*
X327629Y436395D01*
X327325Y435939D01*
X327218Y435402D01*
X327325Y434864D01*
X327629Y434408D01*
X327687Y434370D01*
Y429882D01*
X323087D01*
Y424764D01*
X334110D01*
Y429882D01*
X329510D01*
Y434337D01*
X329616Y434408D01*
X329921Y434864D01*
X330028Y435402D01*
X329921Y435939D01*
X329616Y436395D01*
X329161Y436700D01*
X328623Y436806D01*
D02*
G37*
G36*
X281379D02*
X280841Y436700D01*
X280385Y436395D01*
X280081Y435939D01*
X279974Y435402D01*
X280081Y434864D01*
X280385Y434408D01*
X280443Y434370D01*
Y429882D01*
X275842D01*
Y424764D01*
X286866D01*
Y429882D01*
X282265D01*
Y434337D01*
X282372Y434408D01*
X282677Y434864D01*
X282784Y435402D01*
X282677Y435939D01*
X282372Y436395D01*
X281916Y436700D01*
X281379Y436806D01*
D02*
G37*
G36*
X171142D02*
X170605Y436700D01*
X170149Y436395D01*
X169844Y435939D01*
X169738Y435402D01*
X169844Y434864D01*
X170149Y434408D01*
X170207Y434370D01*
Y429882D01*
X165606D01*
Y424764D01*
X176630D01*
Y429882D01*
X172029D01*
Y434337D01*
X172136Y434408D01*
X172441Y434864D01*
X172547Y435402D01*
X172441Y435939D01*
X172136Y436395D01*
X171680Y436700D01*
X171142Y436806D01*
D02*
G37*
G36*
X123898D02*
X123361Y436700D01*
X122905Y436395D01*
X122600Y435939D01*
X122493Y435402D01*
X122600Y434864D01*
X122905Y434408D01*
X122963Y434370D01*
Y429882D01*
X118362D01*
Y424764D01*
X129386D01*
Y429882D01*
X124785D01*
Y434337D01*
X124892Y434408D01*
X125196Y434864D01*
X125303Y435402D01*
X125196Y435939D01*
X124892Y436395D01*
X124436Y436700D01*
X123898Y436806D01*
D02*
G37*
G36*
X129386Y419252D02*
X118362D01*
Y414134D01*
X122169D01*
X122521Y413634D01*
X122469Y413374D01*
X122576Y412836D01*
X122880Y412381D01*
X123336Y412076D01*
X123874Y411969D01*
X124412Y412076D01*
X124867Y412381D01*
X125172Y412836D01*
X125279Y413374D01*
X125227Y413634D01*
X125579Y414134D01*
X129386D01*
Y419252D01*
D02*
G37*
G36*
X108000Y394136D02*
X107386Y394014D01*
X106865Y393666D01*
X106517Y393145D01*
X106394Y392530D01*
Y385000D01*
X106517Y384385D01*
X106865Y383865D01*
X107386Y383517D01*
X108000Y383394D01*
X108615Y383517D01*
X109135Y383865D01*
X109483Y384385D01*
X109606Y385000D01*
Y392530D01*
X109483Y393145D01*
X109135Y393666D01*
X108615Y394014D01*
X108000Y394136D01*
D02*
G37*
G36*
X226500Y377287D02*
X225886Y377165D01*
X225768Y377086D01*
X187051D01*
X186933Y377165D01*
X186319Y377287D01*
X185704Y377165D01*
X185184Y376817D01*
X184836Y376296D01*
X184713Y375681D01*
X184836Y375067D01*
X185184Y374546D01*
X185704Y374198D01*
X186319Y374076D01*
X186933Y374198D01*
X187051Y374276D01*
X225768D01*
X225886Y374198D01*
X226500Y374076D01*
X227115Y374198D01*
X227635Y374546D01*
X227983Y375067D01*
X228106Y375681D01*
X227983Y376296D01*
X227635Y376817D01*
X227115Y377165D01*
X226500Y377287D01*
D02*
G37*
G36*
X346953Y341953D02*
X343500D01*
Y338500D01*
X346953D01*
Y341953D01*
D02*
G37*
G36*
X342500D02*
X339047D01*
Y338500D01*
X342500D01*
Y341953D01*
D02*
G37*
G36*
X346953Y337500D02*
X343500D01*
Y334047D01*
X346953D01*
Y337500D01*
D02*
G37*
G36*
X342500D02*
X339047D01*
Y334047D01*
X342500D01*
Y337500D01*
D02*
G37*
G36*
X261736Y337346D02*
Y333925D01*
X265157D01*
X265087Y334457D01*
X264689Y335419D01*
X264055Y336244D01*
X263230Y336878D01*
X262268Y337276D01*
X261736Y337346D01*
D02*
G37*
G36*
X260736D02*
X260204Y337276D01*
X259243Y336878D01*
X258417Y336244D01*
X257784Y335419D01*
X257385Y334457D01*
X257315Y333925D01*
X260736D01*
Y337346D01*
D02*
G37*
G36*
X194583Y336772D02*
X187890D01*
Y330079D01*
X194583D01*
Y336772D01*
D02*
G37*
G36*
X251236Y336801D02*
X250363Y336685D01*
X249549Y336348D01*
X248850Y335812D01*
X248313Y335113D01*
X247976Y334299D01*
X247861Y333425D01*
X247976Y332552D01*
X248313Y331737D01*
X248850Y331038D01*
X249549Y330502D01*
X250363Y330165D01*
X251236Y330050D01*
X252110Y330165D01*
X252924Y330502D01*
X253623Y331038D01*
X254159Y331737D01*
X254497Y332552D01*
X254611Y333425D01*
X254497Y334299D01*
X254159Y335113D01*
X253623Y335812D01*
X252924Y336348D01*
X252110Y336685D01*
X251236Y336801D01*
D02*
G37*
G36*
X231236D02*
X230363Y336685D01*
X229549Y336348D01*
X228850Y335812D01*
X228313Y335113D01*
X227976Y334299D01*
X227861Y333425D01*
X227976Y332552D01*
X228297Y331775D01*
X223215Y326693D01*
X216499D01*
X216292Y327193D01*
X219586Y330486D01*
X220363Y330165D01*
X221236Y330050D01*
X222110Y330165D01*
X222924Y330502D01*
X223623Y331038D01*
X224159Y331737D01*
X224497Y332552D01*
X224611Y333425D01*
X224497Y334299D01*
X224159Y335113D01*
X223623Y335812D01*
X222924Y336348D01*
X222110Y336685D01*
X221236Y336801D01*
X220363Y336685D01*
X219549Y336348D01*
X218849Y335812D01*
X218313Y335113D01*
X217976Y334299D01*
X217861Y333425D01*
X217976Y332552D01*
X218298Y331775D01*
X215003Y328480D01*
X203540D01*
X203191Y328411D01*
X202896Y328213D01*
X182357Y307674D01*
X182159Y307379D01*
X182090Y307030D01*
Y291049D01*
X182008Y290994D01*
X181703Y290539D01*
X181596Y290001D01*
X181703Y289463D01*
X182008Y289007D01*
X182463Y288703D01*
X183001Y288596D01*
X183539Y288703D01*
X183994Y289007D01*
X184299Y289463D01*
X184406Y290001D01*
X184299Y290539D01*
X183994Y290994D01*
X183912Y291049D01*
Y306653D01*
X203708Y326448D01*
X203917Y326413D01*
X204088Y325877D01*
X185857Y307645D01*
X185659Y307350D01*
X185590Y307001D01*
Y291049D01*
X185508Y290994D01*
X185203Y290539D01*
X185096Y290001D01*
X185203Y289463D01*
X185508Y289007D01*
X185963Y288703D01*
X186501Y288596D01*
X187039Y288703D01*
X187494Y289007D01*
X187799Y289463D01*
X187906Y290001D01*
X187799Y290539D01*
X187494Y290994D01*
X187412Y291049D01*
Y306624D01*
X205659Y324870D01*
X223593D01*
X223941Y324940D01*
X224237Y325137D01*
X229586Y330486D01*
X230363Y330165D01*
X231236Y330050D01*
X232110Y330165D01*
X232924Y330502D01*
X233623Y331038D01*
X234159Y331737D01*
X234496Y332552D01*
X234612Y333425D01*
X234496Y334299D01*
X234159Y335113D01*
X233623Y335812D01*
X232924Y336348D01*
X232110Y336685D01*
X231236Y336801D01*
D02*
G37*
G36*
X211236D02*
X210363Y336685D01*
X209548Y336348D01*
X208850Y335812D01*
X208313Y335113D01*
X207976Y334299D01*
X207861Y333425D01*
X207976Y332552D01*
X208313Y331737D01*
X208850Y331038D01*
X209548Y330502D01*
X210363Y330165D01*
X211236Y330050D01*
X212110Y330165D01*
X212924Y330502D01*
X213623Y331038D01*
X214159Y331737D01*
X214496Y332552D01*
X214612Y333425D01*
X214496Y334299D01*
X214159Y335113D01*
X213623Y335812D01*
X212924Y336348D01*
X212110Y336685D01*
X211236Y336801D01*
D02*
G37*
G36*
X265157Y332925D02*
X261736D01*
Y329504D01*
X262268Y329574D01*
X263230Y329973D01*
X264055Y330606D01*
X264689Y331432D01*
X265087Y332393D01*
X265157Y332925D01*
D02*
G37*
G36*
X260736D02*
X257315D01*
X257385Y332393D01*
X257784Y331432D01*
X258417Y330606D01*
X259243Y329973D01*
X260204Y329574D01*
X260736Y329504D01*
Y332925D01*
D02*
G37*
G36*
X343000Y331375D02*
X342126Y331260D01*
X341312Y330923D01*
X340613Y330387D01*
X340077Y329688D01*
X339740Y328874D01*
X339625Y328000D01*
X339740Y327126D01*
X340077Y326312D01*
X340613Y325613D01*
X341312Y325077D01*
X342126Y324740D01*
X343000Y324625D01*
X343874Y324740D01*
X344688Y325077D01*
X345387Y325613D01*
X345923Y326312D01*
X346260Y327126D01*
X346375Y328000D01*
X346260Y328874D01*
X345923Y329688D01*
X345387Y330387D01*
X344688Y330923D01*
X343874Y331260D01*
X343000Y331375D01*
D02*
G37*
G36*
X255461Y308047D02*
X251614D01*
Y305382D01*
X255461D01*
Y308047D01*
D02*
G37*
G36*
X247876Y305122D02*
X244650D01*
Y301878D01*
X249311D01*
Y303687D01*
X249202Y304236D01*
X248891Y304702D01*
X248425Y305013D01*
X247876Y305122D01*
D02*
G37*
G36*
X243650D02*
X240423D01*
X239874Y305013D01*
X239408Y304702D01*
X239097Y304236D01*
X238988Y303687D01*
Y301878D01*
X243650D01*
Y305122D01*
D02*
G37*
G36*
X212049D02*
X208823D01*
Y301878D01*
X213484D01*
Y303687D01*
X213375Y304236D01*
X213064Y304702D01*
X212598Y305013D01*
X212049Y305122D01*
D02*
G37*
G36*
X255461Y304382D02*
X251614D01*
Y301717D01*
X255461D01*
Y304382D01*
D02*
G37*
G36*
X249311Y300878D02*
X244650D01*
Y297634D01*
X247876D01*
X248425Y297743D01*
X248891Y298054D01*
X249202Y298520D01*
X249311Y299069D01*
Y300878D01*
D02*
G37*
G36*
X243650D02*
X238988D01*
Y299069D01*
X239097Y298520D01*
X239408Y298054D01*
X239874Y297743D01*
X240423Y297634D01*
X243650D01*
Y300878D01*
D02*
G37*
G36*
X213484D02*
X208823D01*
Y297634D01*
X212049D01*
X212598Y297743D01*
X213064Y298054D01*
X213375Y298520D01*
X213484Y299069D01*
Y300878D01*
D02*
G37*
G36*
X201236Y336801D02*
X200363Y336685D01*
X199548Y336348D01*
X198849Y335812D01*
X198313Y335113D01*
X197976Y334299D01*
X197861Y333425D01*
X197976Y332552D01*
X198313Y331737D01*
X198849Y331038D01*
X199548Y330502D01*
X200325Y330181D01*
Y329114D01*
X178858Y307646D01*
X178660Y307351D01*
X178591Y307002D01*
Y291050D01*
X178508Y290995D01*
X178204Y290540D01*
X178097Y290002D01*
X178204Y289464D01*
X178508Y289008D01*
X178964Y288704D01*
X179502Y288597D01*
X180040Y288704D01*
X180495Y289008D01*
X180800Y289464D01*
X180907Y290002D01*
X180800Y290540D01*
X180495Y290995D01*
X180413Y291050D01*
Y306625D01*
X201881Y328092D01*
X202078Y328387D01*
X202147Y328736D01*
Y330181D01*
X202924Y330502D01*
X203623Y331038D01*
X204159Y331737D01*
X204497Y332552D01*
X204611Y333425D01*
X204497Y334299D01*
X204159Y335113D01*
X203623Y335812D01*
X202924Y336348D01*
X202110Y336685D01*
X201236Y336801D01*
D02*
G37*
G36*
X193000Y300606D02*
X192385Y300483D01*
X191865Y300135D01*
X191517Y299615D01*
X191394Y299000D01*
Y290000D01*
X191517Y289386D01*
X191865Y288865D01*
X192385Y288517D01*
X193000Y288394D01*
X193614Y288517D01*
X194135Y288865D01*
X194483Y289386D01*
X194606Y290000D01*
Y299000D01*
X194483Y299615D01*
X194135Y300135D01*
X193614Y300483D01*
X193000Y300606D01*
D02*
G37*
G36*
X241236Y336801D02*
X240363Y336685D01*
X239548Y336348D01*
X238849Y335812D01*
X238313Y335113D01*
X237976Y334299D01*
X237861Y333425D01*
X237976Y332552D01*
X238313Y331737D01*
X238849Y331038D01*
X239548Y330502D01*
X240325Y330181D01*
Y325586D01*
X240394Y325237D01*
X240592Y324941D01*
X241178Y324356D01*
X241473Y324158D01*
X241822Y324089D01*
X260537D01*
X260589Y324037D01*
Y308431D01*
X260307Y308047D01*
X260089Y308047D01*
X256461D01*
Y304882D01*
Y301717D01*
X260089D01*
X260307Y301717D01*
X260589Y301333D01*
Y296963D01*
X260537Y296911D01*
X236011D01*
X235662Y296842D01*
X235367Y296644D01*
X227097Y288375D01*
X227000Y288394D01*
X226462Y288287D01*
X226007Y287983D01*
X225702Y287527D01*
X225595Y286989D01*
X225702Y286451D01*
X226007Y285996D01*
X226462Y285691D01*
X227000Y285584D01*
X227110Y285606D01*
X227357Y285145D01*
X225623Y283411D01*
X218048D01*
X217993Y283493D01*
X217538Y283798D01*
X217000Y283905D01*
X216462Y283798D01*
X216007Y283493D01*
X215702Y283038D01*
X215595Y282500D01*
X215702Y281962D01*
X216007Y281507D01*
X216462Y281202D01*
X217000Y281095D01*
X217538Y281202D01*
X217993Y281507D01*
X218048Y281589D01*
X226000D01*
X226349Y281658D01*
X226644Y281856D01*
X228155Y283366D01*
X228697Y283202D01*
X228702Y283178D01*
X229007Y282723D01*
X229462Y282418D01*
X230000Y282311D01*
X230538Y282418D01*
X230993Y282723D01*
X231048Y282805D01*
X239426D01*
X239693Y282305D01*
X239668Y282267D01*
X239606Y281955D01*
Y280557D01*
X212866D01*
Y281955D01*
X212804Y282267D01*
X212627Y282533D01*
X212362Y282710D01*
X212049Y282772D01*
X204596D01*
X204284Y282710D01*
X204019Y282533D01*
X203842Y282267D01*
X203780Y281955D01*
Y277337D01*
X203842Y277024D01*
X204019Y276759D01*
X204185Y276648D01*
Y270474D01*
X201856Y268144D01*
X201752Y267989D01*
X201252Y268141D01*
Y268677D01*
X197406D01*
Y265512D01*
Y262347D01*
X201089D01*
X201252Y262347D01*
X201589Y261986D01*
Y261877D01*
X192856Y253144D01*
X192658Y252849D01*
X192589Y252500D01*
Y250548D01*
X192507Y250493D01*
X192202Y250038D01*
X192095Y249500D01*
X192202Y248962D01*
X192507Y248507D01*
X192649Y248411D01*
X192498Y247911D01*
X177783D01*
X174338Y251356D01*
X174357Y251453D01*
X174251Y251990D01*
X173946Y252446D01*
X173490Y252751D01*
X172953Y252857D01*
X172415Y252751D01*
X171959Y252446D01*
X171655Y251990D01*
X171548Y251453D01*
X171655Y250915D01*
X171959Y250459D01*
X172415Y250155D01*
X172953Y250048D01*
X173050Y250067D01*
X176761Y246356D01*
X177057Y246158D01*
X177405Y246089D01*
X193700D01*
X193773Y246000D01*
X197924D01*
X197869Y246274D01*
X197431Y246931D01*
X196829Y247333D01*
X196721Y247546D01*
X196631Y247842D01*
X202627Y253839D01*
X212750D01*
X213099Y253908D01*
X213394Y254106D01*
X216903Y257614D01*
X217000Y257595D01*
X217538Y257702D01*
X217993Y258007D01*
X218298Y258462D01*
X218405Y259000D01*
X218298Y259538D01*
X217993Y259993D01*
X217538Y260298D01*
X217000Y260405D01*
X216462Y260298D01*
X216007Y259993D01*
X215702Y259538D01*
X215595Y259000D01*
X215614Y258903D01*
X212373Y255661D01*
X202250D01*
X201901Y255592D01*
X201606Y255394D01*
X195341Y249130D01*
X194880Y249376D01*
X194905Y249500D01*
X194798Y250038D01*
X194493Y250493D01*
X194411Y250548D01*
Y252123D01*
X203144Y260856D01*
X203279Y261058D01*
X203744Y260989D01*
X203780Y260975D01*
Y259699D01*
X203842Y259386D01*
X204019Y259121D01*
X204284Y258944D01*
X204596Y258882D01*
X212049D01*
X212362Y258944D01*
X212627Y259121D01*
X212804Y259386D01*
X212866Y259699D01*
Y261045D01*
X239606D01*
Y259699D01*
X239668Y259386D01*
X239846Y259121D01*
X240111Y258944D01*
X240423Y258882D01*
X247876D01*
X248189Y258944D01*
X248454Y259121D01*
X248631Y259386D01*
X248693Y259699D01*
Y261045D01*
X251275D01*
X251644Y261118D01*
X251957Y261327D01*
X253583Y262953D01*
X259701D01*
Y268071D01*
X252220D01*
Y264315D01*
X250876Y262971D01*
X248693D01*
Y264317D01*
X248631Y264630D01*
X248454Y264895D01*
X248189Y265072D01*
X247876Y265134D01*
X240423D01*
X240111Y265072D01*
X239846Y264895D01*
X239668Y264630D01*
X239606Y264317D01*
Y262971D01*
X237463D01*
Y263487D01*
X237493Y263507D01*
X237798Y263962D01*
X237905Y264500D01*
X237798Y265038D01*
X237493Y265493D01*
X237038Y265798D01*
X236500Y265905D01*
X235962Y265798D01*
X235507Y265493D01*
X235202Y265038D01*
X235095Y264500D01*
X235202Y263962D01*
X235507Y263507D01*
X235537Y263487D01*
Y262971D01*
X218092D01*
X217941Y263471D01*
X217993Y263507D01*
X218298Y263962D01*
X218405Y264500D01*
X218298Y265038D01*
X217993Y265493D01*
X217911Y265548D01*
Y276452D01*
X217993Y276507D01*
X218298Y276962D01*
X218405Y277500D01*
X218298Y278038D01*
X218166Y278235D01*
X218434Y278735D01*
X225521D01*
X225660Y278424D01*
X225703Y278235D01*
X225424Y277816D01*
X225317Y277278D01*
X225424Y276741D01*
X225728Y276285D01*
X226184Y275980D01*
X226722Y275873D01*
X227259Y275980D01*
X227421Y276089D01*
X236452D01*
X236507Y276007D01*
X236962Y275702D01*
X237500Y275595D01*
X238038Y275702D01*
X238493Y276007D01*
X238798Y276462D01*
X238905Y277000D01*
X238798Y277538D01*
X238493Y277993D01*
X238133Y278235D01*
X238207Y278714D01*
X238216Y278735D01*
X239606D01*
Y277337D01*
X239668Y277024D01*
X239846Y276759D01*
X240111Y276582D01*
X240423Y276520D01*
X247404D01*
X248427Y275498D01*
X248722Y275300D01*
X249071Y275231D01*
X252220D01*
Y273583D01*
X259701D01*
Y278701D01*
X252220D01*
Y277053D01*
X249448D01*
X248693Y277808D01*
Y281955D01*
X248631Y282267D01*
X248606Y282305D01*
X248873Y282805D01*
X261513D01*
X262835Y281483D01*
Y277337D01*
X262897Y277024D01*
X263074Y276759D01*
X263339Y276582D01*
X263652Y276520D01*
X271104D01*
X271417Y276582D01*
X271682Y276759D01*
X271859Y277024D01*
X271921Y277337D01*
Y278735D01*
X298661D01*
Y277337D01*
X298724Y277024D01*
X298901Y276759D01*
X299166Y276582D01*
X299478Y276520D01*
X306459D01*
X311709Y271270D01*
X312005Y271072D01*
X312260Y271022D01*
Y268756D01*
X319740D01*
Y273874D01*
X312260D01*
Y273874D01*
X311852Y273705D01*
X307748Y277808D01*
Y281955D01*
X307686Y282267D01*
X307509Y282533D01*
X307244Y282710D01*
X306931Y282772D01*
X299478D01*
X299166Y282710D01*
X298901Y282533D01*
X298724Y282267D01*
X298661Y281955D01*
Y280557D01*
X271921D01*
Y281955D01*
X271859Y282267D01*
X271682Y282533D01*
X271417Y282710D01*
X271104Y282772D01*
X264123D01*
X262535Y284360D01*
X262239Y284558D01*
X261890Y284627D01*
X231048D01*
X230993Y284710D01*
X230609Y284967D01*
X230621Y285259D01*
X230692Y285467D01*
X265245D01*
X267068Y283643D01*
X267364Y283446D01*
X267713Y283376D01*
X322047D01*
X322254Y282876D01*
X321936Y282558D01*
X321739Y282263D01*
X321669Y281914D01*
Y255990D01*
X303579D01*
X303230Y255921D01*
X302935Y255723D01*
X300856Y253644D01*
X300658Y253349D01*
X300589Y253000D01*
Y244240D01*
X300507Y244186D01*
X300202Y243730D01*
X300095Y243192D01*
X300202Y242654D01*
X300507Y242199D01*
X300962Y241894D01*
X301500Y241787D01*
X302038Y241894D01*
X302493Y242199D01*
X302798Y242654D01*
X302905Y243192D01*
X302798Y243730D01*
X302493Y244186D01*
X302411Y244240D01*
Y252623D01*
X303956Y254168D01*
X322580D01*
X322929Y254237D01*
X323225Y254434D01*
X323422Y254730D01*
X323492Y255079D01*
Y281537D01*
X323544Y281589D01*
X327391D01*
X327507Y281416D01*
X327962Y281112D01*
X328500Y281005D01*
X329038Y281112D01*
X329493Y281416D01*
X329798Y281872D01*
X329905Y282410D01*
X329812Y282876D01*
X329957Y283244D01*
X330027Y283376D01*
X336335D01*
X339653Y280058D01*
Y274654D01*
X346346D01*
Y281347D01*
X340942D01*
X337357Y284932D01*
X337061Y285129D01*
X336713Y285199D01*
X268090D01*
X266266Y287022D01*
X265971Y287220D01*
X265622Y287289D01*
X229878D01*
X229529Y287220D01*
X229234Y287022D01*
X229167Y286956D01*
X228641Y287137D01*
X228619Y287319D01*
X236388Y295089D01*
X260914D01*
X261263Y295158D01*
X261559Y295356D01*
X262144Y295941D01*
X262342Y296237D01*
X262411Y296586D01*
Y324414D01*
X262342Y324763D01*
X262144Y325059D01*
X261559Y325644D01*
X261263Y325842D01*
X260914Y325911D01*
X242199D01*
X242147Y325963D01*
Y330181D01*
X242924Y330502D01*
X243623Y331038D01*
X244159Y331737D01*
X244496Y332552D01*
X244612Y333425D01*
X244496Y334299D01*
X244159Y335113D01*
X243623Y335812D01*
X242924Y336348D01*
X242110Y336685D01*
X241236Y336801D01*
D02*
G37*
G36*
X196406Y268677D02*
X192559D01*
Y266012D01*
X196406D01*
Y268677D01*
D02*
G37*
G36*
X306931Y265752D02*
X303705D01*
Y262508D01*
X308366D01*
Y264317D01*
X308257Y264866D01*
X307946Y265332D01*
X307480Y265643D01*
X306931Y265752D01*
D02*
G37*
G36*
X302705D02*
X299478D01*
X298929Y265643D01*
X298464Y265332D01*
X298153Y264866D01*
X298043Y264317D01*
Y262508D01*
X302705D01*
Y265752D01*
D02*
G37*
G36*
X271104D02*
X267878D01*
Y262508D01*
X272539D01*
Y264317D01*
X272430Y264866D01*
X272119Y265332D01*
X271654Y265643D01*
X271104Y265752D01*
D02*
G37*
G36*
X266878D02*
X263652D01*
X263102Y265643D01*
X262637Y265332D01*
X262326Y264866D01*
X262217Y264317D01*
Y262508D01*
X266878D01*
Y265752D01*
D02*
G37*
G36*
X188821D02*
X185595D01*
Y262508D01*
X190256D01*
Y264317D01*
X190147Y264866D01*
X189836Y265332D01*
X189370Y265643D01*
X188821Y265752D01*
D02*
G37*
G36*
X184595D02*
X181368D01*
X180819Y265643D01*
X180353Y265332D01*
X180042Y264866D01*
X179933Y264317D01*
Y262508D01*
X184595D01*
Y265752D01*
D02*
G37*
G36*
X152994D02*
X149768D01*
Y262508D01*
X154429D01*
Y264317D01*
X154320Y264866D01*
X154009Y265332D01*
X153543Y265643D01*
X152994Y265752D01*
D02*
G37*
G36*
X196406Y265012D02*
X192559D01*
Y262347D01*
X196406D01*
Y265012D01*
D02*
G37*
G36*
X320346Y263850D02*
X316500D01*
Y261185D01*
X320346D01*
Y263850D01*
D02*
G37*
G36*
X315500D02*
X311653D01*
Y261185D01*
X315500D01*
Y263850D01*
D02*
G37*
G36*
X308366Y261508D02*
X303705D01*
Y258264D01*
X306931D01*
X307480Y258373D01*
X307946Y258684D01*
X308257Y259150D01*
X308366Y259699D01*
Y261508D01*
D02*
G37*
G36*
X302705D02*
X298043D01*
Y259699D01*
X298153Y259150D01*
X298464Y258684D01*
X298929Y258373D01*
X299478Y258264D01*
X302705D01*
Y261508D01*
D02*
G37*
G36*
X266878D02*
X262217D01*
Y259699D01*
X262326Y259150D01*
X262637Y258684D01*
X263102Y258373D01*
X263652Y258264D01*
X266878D01*
Y261508D01*
D02*
G37*
G36*
X190256D02*
X185595D01*
Y258264D01*
X188821D01*
X189370Y258373D01*
X189836Y258684D01*
X190147Y259150D01*
X190256Y259699D01*
Y261508D01*
D02*
G37*
G36*
X184595D02*
X179933D01*
Y259699D01*
X180042Y259150D01*
X180353Y258684D01*
X180819Y258373D01*
X181368Y258264D01*
X184595D01*
Y261508D01*
D02*
G37*
G36*
X320346Y260185D02*
X316500D01*
Y257520D01*
X320346D01*
Y260185D01*
D02*
G37*
G36*
X315500D02*
X311653D01*
Y257520D01*
X315500D01*
Y260185D01*
D02*
G37*
G36*
X272539Y261508D02*
X267878D01*
Y258264D01*
X268586D01*
X268853Y257764D01*
X268702Y257538D01*
X268595Y257000D01*
X268702Y256462D01*
X269007Y256007D01*
X269462Y255702D01*
X270000Y255595D01*
X270538Y255702D01*
X270993Y256007D01*
X271048Y256089D01*
X277452D01*
X277507Y256007D01*
X277962Y255702D01*
X278500Y255595D01*
X279038Y255702D01*
X279493Y256007D01*
X279798Y256462D01*
X279905Y257000D01*
X279798Y257538D01*
X279493Y257993D01*
X279038Y258298D01*
X278500Y258405D01*
X277962Y258298D01*
X277507Y257993D01*
X277452Y257911D01*
X272083D01*
X272006Y258007D01*
X272109Y258678D01*
X272119Y258684D01*
X272430Y259150D01*
X272539Y259699D01*
Y261508D01*
D02*
G37*
G36*
X336972Y265915D02*
Y255579D01*
X347309D01*
X347215Y256780D01*
X346816Y258440D01*
X346163Y260016D01*
X345271Y261472D01*
X344163Y262769D01*
X342865Y263878D01*
X341410Y264769D01*
X339833Y265423D01*
X338174Y265821D01*
X336972Y265915D01*
D02*
G37*
G36*
X335972D02*
X334771Y265821D01*
X333112Y265423D01*
X331535Y264769D01*
X330080Y263878D01*
X328782Y262769D01*
X327674Y261472D01*
X326782Y260016D01*
X326129Y258440D01*
X325730Y256780D01*
X325636Y255579D01*
X335972D01*
Y265915D01*
D02*
G37*
G36*
X170000Y256500D02*
X168576D01*
X168631Y256226D01*
X169069Y255569D01*
X169726Y255131D01*
X170000Y255076D01*
Y256500D01*
D02*
G37*
G36*
X250500Y254405D02*
X249962Y254298D01*
X249507Y253993D01*
X249452Y253911D01*
X232548D01*
X232493Y253993D01*
X232038Y254298D01*
X231500Y254405D01*
X230962Y254298D01*
X230507Y253993D01*
X230202Y253538D01*
X230095Y253000D01*
X230202Y252462D01*
X230507Y252007D01*
X230962Y251702D01*
X231500Y251595D01*
X232038Y251702D01*
X232493Y252007D01*
X232548Y252089D01*
X249452D01*
X249507Y252007D01*
X249962Y251702D01*
X250500Y251595D01*
X251038Y251702D01*
X251493Y252007D01*
X251798Y252462D01*
X251905Y253000D01*
X251798Y253538D01*
X251493Y253993D01*
X251038Y254298D01*
X250500Y254405D01*
D02*
G37*
G36*
X169500Y261405D02*
X168962Y261298D01*
X168507Y260993D01*
X168202Y260538D01*
X168095Y260000D01*
X168202Y259462D01*
X168507Y259007D01*
X168778Y258825D01*
X168809Y258783D01*
X168925Y258296D01*
X168916Y258201D01*
X168631Y257774D01*
X168576Y257500D01*
X170500D01*
Y257000D01*
X171000D01*
Y255076D01*
X171274Y255131D01*
X171931Y255569D01*
X172195Y255965D01*
X172807Y256060D01*
X174512Y254356D01*
X174807Y254158D01*
X175156Y254089D01*
X190452D01*
X190506Y254007D01*
X190962Y253702D01*
X191500Y253595D01*
X192038Y253702D01*
X192493Y254007D01*
X192798Y254462D01*
X192905Y255000D01*
X192798Y255538D01*
X192493Y255993D01*
X192038Y256298D01*
X191500Y256405D01*
X190962Y256298D01*
X190506Y255993D01*
X190452Y255911D01*
X175533D01*
X170800Y260644D01*
X170668Y260733D01*
X170493Y260993D01*
X170038Y261298D01*
X169500Y261405D01*
D02*
G37*
G36*
X247876Y251276D02*
X240423D01*
X240111Y251214D01*
X239846Y251037D01*
X239668Y250771D01*
X239606Y250459D01*
Y249061D01*
X212866D01*
Y250459D01*
X212804Y250771D01*
X212627Y251037D01*
X212362Y251214D01*
X212049Y251276D01*
X204596D01*
X204284Y251214D01*
X204019Y251037D01*
X203842Y250771D01*
X203780Y250459D01*
Y249061D01*
X203150D01*
X202801Y248992D01*
X202505Y248794D01*
X198364Y244653D01*
X197913Y244894D01*
X197906Y244911D01*
X197924Y245000D01*
X194076D01*
X194094Y244911D01*
X193786Y244411D01*
X191000D01*
X190651Y244342D01*
X190356Y244144D01*
X185000Y238789D01*
D01*
X180550Y234338D01*
X180453Y234358D01*
X179915Y234251D01*
X179459Y233946D01*
X179155Y233490D01*
X179048Y232953D01*
X179155Y232415D01*
X179459Y231959D01*
X179915Y231655D01*
X180453Y231548D01*
X180991Y231655D01*
X181446Y231959D01*
X181751Y232415D01*
X181858Y232953D01*
X181838Y233050D01*
X184538Y235749D01*
D01*
X191377Y242589D01*
X192419D01*
X192570Y242089D01*
X192396Y241972D01*
X192092Y241517D01*
X191985Y240979D01*
X192092Y240441D01*
X192396Y239985D01*
X192479Y239931D01*
Y224159D01*
X192396Y224104D01*
X192092Y223648D01*
X191985Y223110D01*
X192092Y222573D01*
X192396Y222117D01*
X192852Y221812D01*
X193390Y221705D01*
X193927Y221812D01*
X194383Y222117D01*
X194688Y222573D01*
X194795Y223110D01*
X194688Y223648D01*
X194383Y224104D01*
X194301Y224159D01*
Y239931D01*
X194383Y239985D01*
X194688Y240441D01*
X194795Y240979D01*
X194688Y241517D01*
X194383Y241972D01*
X194209Y242089D01*
X194361Y242589D01*
X198500D01*
X198849Y242658D01*
X199144Y242856D01*
X203279Y246991D01*
X203780Y246784D01*
Y245841D01*
X203842Y245528D01*
X204019Y245263D01*
X204284Y245086D01*
X204596Y245024D01*
X212049D01*
X212362Y245086D01*
X212627Y245263D01*
X212804Y245528D01*
X212866Y245841D01*
Y247239D01*
X239606D01*
Y245841D01*
X239668Y245528D01*
X239846Y245263D01*
X240111Y245086D01*
X240423Y245024D01*
X247404D01*
X248427Y244002D01*
X248722Y243804D01*
X249071Y243735D01*
X252220D01*
Y242087D01*
X259701D01*
Y247205D01*
X252220D01*
Y245557D01*
X249448D01*
X248693Y246312D01*
Y250459D01*
X248631Y250771D01*
X248454Y251037D01*
X248189Y251214D01*
X247876Y251276D01*
D02*
G37*
G36*
X347309Y254579D02*
X336972D01*
Y244242D01*
X338174Y244337D01*
X339833Y244735D01*
X341410Y245388D01*
X342865Y246280D01*
X344163Y247388D01*
X345271Y248686D01*
X346163Y250141D01*
X346816Y251718D01*
X347215Y253377D01*
X347309Y254579D01*
D02*
G37*
G36*
X335972D02*
X325636D01*
X325730Y253377D01*
X326129Y251718D01*
X326782Y250141D01*
X327674Y248686D01*
X328782Y247388D01*
X330080Y246280D01*
X331535Y245388D01*
X333112Y244735D01*
X334771Y244337D01*
X335972Y244242D01*
Y254579D01*
D02*
G37*
G36*
X179358Y244407D02*
Y242983D01*
X180782D01*
X180727Y243257D01*
X180289Y243914D01*
X179632Y244352D01*
X179358Y244407D01*
D02*
G37*
G36*
X178358D02*
X178084Y244352D01*
X177428Y243914D01*
X176989Y243257D01*
X176935Y242983D01*
X178358D01*
Y244407D01*
D02*
G37*
G36*
X180782Y241983D02*
X179358D01*
Y240560D01*
X179632Y240614D01*
X180289Y241053D01*
X180727Y241709D01*
X180782Y241983D01*
D02*
G37*
G36*
X178358D02*
X176935D01*
X176989Y241709D01*
X177428Y241053D01*
X178084Y240614D01*
X178358Y240560D01*
Y241983D01*
D02*
G37*
G36*
X158017Y240782D02*
Y239358D01*
X159440D01*
X159386Y239632D01*
X158947Y240289D01*
X158291Y240727D01*
X158017Y240782D01*
D02*
G37*
G36*
X157017D02*
X156743Y240727D01*
X156086Y240289D01*
X155648Y239632D01*
X155593Y239358D01*
X157017D01*
Y240782D01*
D02*
G37*
G36*
X159440Y238358D02*
X158017D01*
Y236934D01*
X158291Y236989D01*
X158947Y237428D01*
X159386Y238084D01*
X159440Y238358D01*
D02*
G37*
G36*
X157017D02*
X155593D01*
X155648Y238084D01*
X156086Y237428D01*
X156743Y236989D01*
X157017Y236934D01*
Y238358D01*
D02*
G37*
G36*
X260307Y237181D02*
X256461D01*
Y234516D01*
X260307D01*
Y237181D01*
D02*
G37*
G36*
X255461D02*
X251614D01*
Y234516D01*
X255461D01*
Y237181D01*
D02*
G37*
G36*
X145000Y232924D02*
Y231500D01*
X146424D01*
X146369Y231774D01*
X145931Y232431D01*
X145274Y232869D01*
X145000Y232924D01*
D02*
G37*
G36*
X144000D02*
X143726Y232869D01*
X143069Y232431D01*
X142631Y231774D01*
X142576Y231500D01*
X144000D01*
Y232924D01*
D02*
G37*
G36*
X247876Y234256D02*
X244650D01*
Y231012D01*
X249311D01*
Y232821D01*
X249202Y233370D01*
X248891Y233836D01*
X248425Y234147D01*
X247876Y234256D01*
D02*
G37*
G36*
X243650D02*
X240423D01*
X239874Y234147D01*
X239408Y233836D01*
X239097Y233370D01*
X238988Y232821D01*
Y231012D01*
X243650D01*
Y234256D01*
D02*
G37*
G36*
X212049D02*
X208823D01*
Y231012D01*
X213484D01*
Y232821D01*
X213375Y233370D01*
X213064Y233836D01*
X212598Y234147D01*
X212049Y234256D01*
D02*
G37*
G36*
X207823D02*
X204596D01*
X204047Y234147D01*
X203582Y233836D01*
X203271Y233370D01*
X203161Y232821D01*
Y231012D01*
X207823D01*
Y234256D01*
D02*
G37*
G36*
X260307Y233516D02*
X256461D01*
Y230851D01*
X260307D01*
Y233516D01*
D02*
G37*
G36*
X255461D02*
X251614D01*
Y230851D01*
X255461D01*
Y233516D01*
D02*
G37*
G36*
X146424Y230500D02*
X145000D01*
Y229076D01*
X145274Y229131D01*
X145931Y229569D01*
X146369Y230226D01*
X146424Y230500D01*
D02*
G37*
G36*
X141000Y230905D02*
X140462Y230798D01*
X140006Y230493D01*
X139702Y230038D01*
X139595Y229500D01*
X139702Y228962D01*
X140006Y228507D01*
X140462Y228202D01*
X141000Y228095D01*
X141514Y228197D01*
X144856Y224856D01*
X145151Y224658D01*
X145500Y224589D01*
X147452D01*
X147506Y224507D01*
X147962Y224202D01*
X148500Y224095D01*
X149038Y224202D01*
X149494Y224507D01*
X149798Y224962D01*
X149905Y225500D01*
X149798Y226038D01*
X149494Y226493D01*
X149038Y226798D01*
X148500Y226905D01*
X147962Y226798D01*
X147506Y226493D01*
X147452Y226411D01*
X145877D01*
X143653Y228636D01*
X143899Y229096D01*
X144000Y229076D01*
Y230500D01*
X142498D01*
X142099Y230335D01*
X141993Y230493D01*
X141538Y230798D01*
X141000Y230905D01*
D02*
G37*
G36*
X249311Y230012D02*
X244650D01*
Y226768D01*
X247876D01*
X248425Y226877D01*
X248891Y227188D01*
X249202Y227654D01*
X249311Y228203D01*
Y230012D01*
D02*
G37*
G36*
X243650D02*
X238988D01*
Y228203D01*
X239097Y227654D01*
X239408Y227188D01*
X239874Y226877D01*
X240423Y226768D01*
X243650D01*
Y230012D01*
D02*
G37*
G36*
X213484D02*
X208823D01*
Y226768D01*
X212049D01*
X212598Y226877D01*
X213064Y227188D01*
X213375Y227654D01*
X213484Y228203D01*
Y230012D01*
D02*
G37*
G36*
X207823D02*
X203161D01*
Y228203D01*
X203271Y227654D01*
X203582Y227188D01*
X204047Y226877D01*
X204596Y226768D01*
X207823D01*
Y230012D01*
D02*
G37*
G36*
X123500Y224424D02*
Y223000D01*
X124924D01*
X124869Y223274D01*
X124431Y223931D01*
X123774Y224369D01*
X123500Y224424D01*
D02*
G37*
G36*
X124924Y222000D02*
X123500D01*
Y220576D01*
X123774Y220631D01*
X124431Y221069D01*
X124869Y221726D01*
X124924Y222000D01*
D02*
G37*
G36*
X342315Y222546D02*
X336697D01*
Y219881D01*
X342315D01*
Y222546D01*
D02*
G37*
G36*
X198000Y220424D02*
Y219000D01*
X199424D01*
X199369Y219274D01*
X198931Y219931D01*
X198274Y220369D01*
X198000Y220424D01*
D02*
G37*
G36*
X197000D02*
X196726Y220369D01*
X196069Y219931D01*
X195631Y219274D01*
X195576Y219000D01*
X197000D01*
Y220424D01*
D02*
G37*
G36*
X161642Y219441D02*
Y218017D01*
X163065D01*
X163011Y218291D01*
X162572Y218947D01*
X161916Y219386D01*
X161642Y219441D01*
D02*
G37*
G36*
X160642D02*
X160367Y219386D01*
X159711Y218947D01*
X159273Y218291D01*
X159218Y218017D01*
X160642D01*
Y219441D01*
D02*
G37*
G36*
X199424Y218000D02*
X198000D01*
Y216576D01*
X198274Y216631D01*
X198931Y217069D01*
X199369Y217726D01*
X199424Y218000D01*
D02*
G37*
G36*
X197000D02*
X195576D01*
X195631Y217726D01*
X196069Y217069D01*
X196726Y216631D01*
X197000Y216576D01*
Y218000D01*
D02*
G37*
G36*
X163065Y217017D02*
X161642D01*
Y215593D01*
X161916Y215648D01*
X162572Y216086D01*
X163011Y216743D01*
X163065Y217017D01*
D02*
G37*
G36*
X160642D02*
X159218D01*
X159273Y216743D01*
X159711Y216086D01*
X160367Y215648D01*
X160642Y215593D01*
Y217017D01*
D02*
G37*
G36*
X169500Y206424D02*
Y205000D01*
X170924D01*
X170869Y205274D01*
X170431Y205931D01*
X169774Y206369D01*
X169500Y206424D01*
D02*
G37*
G36*
X168500D02*
X168226Y206369D01*
X167569Y205931D01*
X167131Y205274D01*
X167076Y205000D01*
X168500D01*
Y206424D01*
D02*
G37*
G36*
X231500Y207405D02*
X230962Y207298D01*
X230507Y206993D01*
X230202Y206538D01*
X230095Y206000D01*
X230202Y205462D01*
X230507Y205007D01*
X230962Y204702D01*
X231500Y204595D01*
X232038Y204702D01*
X232493Y205007D01*
X232548Y205089D01*
X234952D01*
X235007Y205007D01*
X235462Y204702D01*
X236000Y204595D01*
X236538Y204702D01*
X236994Y205007D01*
X237298Y205462D01*
X237405Y206000D01*
X237298Y206538D01*
X236994Y206993D01*
X236538Y207298D01*
X236000Y207405D01*
X235462Y207298D01*
X235007Y206993D01*
X234952Y206911D01*
X232548D01*
X232493Y206993D01*
X232038Y207298D01*
X231500Y207405D01*
D02*
G37*
%LPD*%
G36*
X215834Y278235D02*
X215702Y278038D01*
X215595Y277500D01*
X215702Y276962D01*
X216007Y276507D01*
X216089Y276452D01*
Y265548D01*
X216007Y265493D01*
X215702Y265038D01*
X215595Y264500D01*
X215702Y263962D01*
X216007Y263507D01*
X216059Y263471D01*
X215908Y262971D01*
X212866D01*
Y264317D01*
X212804Y264630D01*
X212627Y264895D01*
X212362Y265072D01*
X212049Y265134D01*
X204596D01*
X204284Y265072D01*
X204019Y264895D01*
X203911Y264734D01*
X203411Y264833D01*
Y267123D01*
X205741Y269452D01*
X205938Y269748D01*
X206008Y270096D01*
Y276520D01*
X212049D01*
X212362Y276582D01*
X212627Y276759D01*
X212804Y277024D01*
X212866Y277337D01*
Y278735D01*
X215566D01*
X215834Y278235D01*
D02*
G37*
%LPC*%
G36*
X289480Y443022D02*
Y442000D01*
X290502D01*
X290478Y442121D01*
X290127Y442647D01*
X289601Y442998D01*
X289480Y443022D01*
D02*
G37*
G36*
X305500Y442522D02*
Y441500D01*
X306522D01*
X306498Y441621D01*
X306147Y442147D01*
X305621Y442498D01*
X305500Y442522D01*
D02*
G37*
G36*
X304500D02*
X304379Y442498D01*
X303853Y442147D01*
X303502Y441621D01*
X303478Y441500D01*
X304500D01*
Y442522D01*
D02*
G37*
G36*
X290502Y441000D02*
X289480D01*
Y439978D01*
X289601Y440002D01*
X290127Y440353D01*
X290478Y440879D01*
X290502Y441000D01*
D02*
G37*
G36*
X306522Y440500D02*
X305500D01*
Y439478D01*
X305621Y439502D01*
X306147Y439853D01*
X306498Y440379D01*
X306522Y440500D01*
D02*
G37*
G36*
X304500D02*
X303478D01*
X303502Y440379D01*
X303853Y439853D01*
X304379Y439502D01*
X304500Y439478D01*
Y440500D01*
D02*
G37*
G36*
X132000Y443022D02*
Y442000D01*
X133022D01*
X132998Y442121D01*
X132647Y442647D01*
X132121Y442998D01*
X132000Y443022D01*
D02*
G37*
G36*
X148020Y442522D02*
Y441500D01*
X149042D01*
X149018Y441621D01*
X148667Y442147D01*
X148140Y442498D01*
X148020Y442522D01*
D02*
G37*
G36*
X147020D02*
X146899Y442498D01*
X146373Y442147D01*
X146021Y441621D01*
X145998Y441500D01*
X147020D01*
Y442522D01*
D02*
G37*
G36*
X133022Y441000D02*
X132000D01*
Y439978D01*
X132121Y440002D01*
X132647Y440353D01*
X132998Y440879D01*
X133022Y441000D01*
D02*
G37*
G36*
X149042Y440500D02*
X148020D01*
Y439478D01*
X148140Y439502D01*
X148667Y439853D01*
X149018Y440379D01*
X149042Y440500D01*
D02*
G37*
G36*
X147020D02*
X145998D01*
X146021Y440379D01*
X146373Y439853D01*
X146899Y439502D01*
X147020Y439478D01*
Y440500D01*
D02*
G37*
G36*
X135976Y335152D02*
Y334130D01*
X136998D01*
X136975Y334251D01*
X136623Y334777D01*
X136097Y335128D01*
X135976Y335152D01*
D02*
G37*
G36*
X134976D02*
X134856Y335128D01*
X134329Y334777D01*
X133978Y334251D01*
X133954Y334130D01*
X134976D01*
Y335152D01*
D02*
G37*
G36*
X150311Y333967D02*
X150190Y333943D01*
X149664Y333592D01*
X149313Y333066D01*
X149289Y332945D01*
X150311D01*
Y333967D01*
D02*
G37*
G36*
X136998Y333130D02*
X135976D01*
Y332108D01*
X136097Y332132D01*
X136623Y332483D01*
X136975Y333009D01*
X136998Y333130D01*
D02*
G37*
G36*
X134976D02*
X133954D01*
X133978Y333009D01*
X134329Y332483D01*
X134856Y332132D01*
X134976Y332108D01*
Y333130D01*
D02*
G37*
G36*
X150311Y331945D02*
X149289D01*
X149313Y331824D01*
X149664Y331298D01*
X150190Y330947D01*
X150311Y330923D01*
Y331945D01*
D02*
G37*
G36*
X346532Y204031D02*
X343079D01*
Y200579D01*
X346532D01*
Y204031D01*
D02*
G37*
G36*
X342079D02*
X338626D01*
Y200579D01*
X342079D01*
Y204031D01*
D02*
G37*
G36*
X332579Y203454D02*
X331705Y203339D01*
X330891Y203002D01*
X330192Y202466D01*
X329656Y201766D01*
X329318Y200952D01*
X329204Y200079D01*
X329318Y199205D01*
X329656Y198391D01*
X330192Y197692D01*
X330891Y197156D01*
X331705Y196818D01*
X332579Y196704D01*
X333452Y196818D01*
X334266Y197156D01*
X334965Y197692D01*
X335502Y198391D01*
X335839Y199205D01*
X335954Y200079D01*
X335839Y200952D01*
X335502Y201766D01*
X334965Y202466D01*
X334266Y203002D01*
X333452Y203339D01*
X332579Y203454D01*
D02*
G37*
G36*
X346532Y199579D02*
X343079D01*
Y196126D01*
X346532D01*
Y199579D01*
D02*
G37*
G36*
X342079D02*
X338626D01*
Y196126D01*
X342079D01*
Y199579D01*
D02*
G37*
%LPD*%
D13*
X164586Y202500D02*
X181238D01*
X164000Y203086D02*
X164586Y202500D01*
X164000Y203086D02*
Y209516D01*
X167047Y209547D02*
Y211414D01*
X166461Y212000D02*
X167047Y211414D01*
X151000Y212000D02*
X166461D01*
X146744Y216256D02*
X151000Y212000D01*
X170993Y208509D02*
X218009D01*
X181238Y202500D02*
X181738Y203000D01*
X182000D01*
X301500Y243192D02*
Y253000D01*
X303579Y255079D01*
X322580D01*
Y281914D01*
X270000Y257000D02*
X278500D01*
X212750Y254750D02*
X217000Y259000D01*
X229878Y286378D02*
X265622D01*
X217000Y282500D02*
X226000D01*
X229878Y286378D01*
X227000Y286989D02*
X236011Y296000D01*
X230000Y283716D02*
X261890D01*
X265961Y279646D01*
X236011Y296000D02*
X260914D01*
X265622Y286378D02*
X267713Y284287D01*
X203150Y248150D02*
X244150D01*
X198500Y243500D02*
X203150Y248150D01*
X193390Y223110D02*
Y240979D01*
X180453Y232953D02*
X191000Y243500D01*
X198500D01*
X194500Y247000D02*
X202250Y254750D01*
X212750D01*
X177405Y247000D02*
X194500D01*
X172953Y251453D02*
X177405Y247000D01*
X161000Y254500D02*
Y259210D01*
X151976Y257500D02*
X156975Y252500D01*
X163000D01*
X168000Y264000D02*
Y273859D01*
X170156Y260000D02*
X175156Y255000D01*
X169500Y260000D02*
X170156D01*
X175156Y255000D02*
X191500D01*
X167047Y274812D02*
X168000Y273859D01*
X226722Y277278D02*
X227000Y277000D01*
X156894Y277394D02*
X171106D01*
X171205Y277295D01*
X164500Y264500D02*
Y274693D01*
X148258Y279646D02*
X186512D01*
X146000Y266500D02*
X156894Y277394D01*
X164500Y264500D02*
X165000Y264000D01*
X338738Y298853D02*
Y313738D01*
X334385Y294500D02*
X338738Y298853D01*
X326000Y294500D02*
X334385D01*
X166052Y190373D02*
X173090Y197411D01*
X133193Y190373D02*
X166052D01*
X177000Y190500D02*
Y197500D01*
X193500Y196631D02*
Y197000D01*
X184098Y187228D02*
X193500Y196631D01*
X132396Y187228D02*
X184098D01*
X182836Y188622D02*
X191000Y196786D01*
X132973Y188622D02*
X182836D01*
X131818Y185835D02*
X190593D01*
X102469Y215184D02*
X131818Y185835D01*
X102469Y215184D02*
Y274969D01*
X190593Y185835D02*
X196000Y191242D01*
X103870Y215754D02*
X132396Y187228D01*
X103870Y215754D02*
Y274399D01*
X105264Y216331D02*
X132973Y188622D01*
X105264Y216331D02*
Y273822D01*
X196000Y191242D02*
Y197000D01*
X107000Y228500D02*
X127500Y249000D01*
X107000Y216566D02*
Y228500D01*
Y216566D02*
X133193Y190373D01*
X231500Y206000D02*
X236000D01*
X231500Y206000D02*
X231500Y206000D01*
X141500Y229500D02*
X145500Y225500D01*
X141000Y229500D02*
X141500D01*
X145500Y225500D02*
X148500D01*
X135256Y216256D02*
X146744D01*
X134500Y215500D02*
X135256Y216256D01*
X133466Y218500D02*
X136500D01*
X131516Y216549D02*
X133466Y218500D01*
X131516Y211222D02*
Y216549D01*
X146000Y207728D02*
Y214344D01*
X145966Y214378D02*
X146000Y214344D01*
X142608Y207228D02*
Y214378D01*
X145622Y207228D02*
Y207350D01*
X146000Y207728D01*
X131516Y211222D02*
X132222Y210516D01*
X102244Y283500D02*
X106000D01*
X108122Y280622D02*
Y289000D01*
X102469Y274969D02*
X108122Y280622D01*
X112086Y346000D02*
X140000D01*
X105264Y273822D02*
X111500Y280058D01*
Y345414D01*
X112086Y346000D01*
X110000Y280529D02*
Y360135D01*
X114713Y364847D01*
X103870Y274399D02*
X110000Y280529D01*
X115287Y316685D02*
Y338729D01*
X116936Y340378D01*
X115287Y316685D02*
X124547Y307425D01*
X145000Y285500D02*
X197500D01*
X227000Y277000D02*
X237500D01*
X163962Y289041D02*
Y289090D01*
X139931Y253861D02*
Y260275D01*
X327000Y292000D02*
X337500D01*
X186501Y290001D02*
Y307001D01*
X183001Y290001D02*
Y307030D01*
X179502Y290002D02*
Y307002D01*
X277586Y298500D02*
X332414D01*
X334414Y296500D02*
X335000Y297086D01*
X276086Y296500D02*
X334414D01*
X332414Y298500D02*
X333000Y299086D01*
Y371500D01*
X328451Y282410D02*
X328500D01*
X328360Y282500D02*
X328451Y282410D01*
X323166Y282500D02*
X328360D01*
X267713Y284287D02*
X336713D01*
X322580Y281914D02*
X323166Y282500D01*
X336713Y284287D02*
X343000Y278000D01*
X277000Y299086D02*
Y344000D01*
Y299086D02*
X277586Y298500D01*
X205282Y325782D02*
X223593D01*
X186501Y307001D02*
X205282Y325782D01*
X215380Y327569D02*
X221236Y333425D01*
X203540Y327569D02*
X215380D01*
X183001Y307030D02*
X203540Y327569D01*
X179502Y307002D02*
X201236Y328736D01*
Y333425D01*
X154920Y411926D02*
X171118D01*
X154335Y316335D02*
Y411340D01*
X154920Y411926D01*
X155453Y307425D02*
X168570Y320543D01*
X125287Y309213D02*
X154713D01*
X132500Y311000D02*
X149000D01*
X124547Y307425D02*
X155453D01*
X117000Y317500D02*
X125287Y309213D01*
X154713D02*
X166500Y321000D01*
X149000Y311000D02*
X154335Y316335D01*
X157086Y408000D02*
X179500D01*
X156213Y315493D02*
Y315542D01*
X156500Y315909D02*
Y407414D01*
X156213Y315542D02*
X156303Y315633D01*
Y315712D02*
X156500Y315909D01*
Y407414D02*
X157086Y408000D01*
X156303Y315633D02*
Y315712D01*
X166500Y334000D02*
X181000Y348500D01*
X166500Y321000D02*
Y334000D01*
X168570Y320543D02*
Y333061D01*
X181477Y345969D01*
X116936Y340378D02*
X123000D01*
X181000Y348500D02*
X272500D01*
X274969Y297617D02*
X276086Y296500D01*
X272500Y348500D02*
X277000Y344000D01*
X272139Y345969D02*
X274969Y343139D01*
X181477Y345969D02*
X272139D01*
X274969Y297617D02*
Y343139D01*
X160000Y375500D02*
X167000Y382500D01*
X275038D02*
X288914Y396376D01*
X167000Y382500D02*
X275038D01*
X166394Y384894D02*
X272914D01*
X273500Y385479D01*
Y439729D01*
X159925Y378425D02*
X166394Y384894D01*
X183634Y389134D02*
X266474D01*
X266712Y389372D01*
X266761D01*
X265929Y512642D02*
X281024Y527736D01*
X298122Y485431D02*
X310425Y497734D01*
X241067Y513396D02*
Y526982D01*
X242026Y527941D02*
X248122D01*
X281024Y527736D02*
X305132D01*
X298122Y460722D02*
Y485431D01*
X241067Y513396D02*
X241821Y512642D01*
X241067Y526982D02*
X242026Y527941D01*
X307500Y461500D02*
X312213Y466213D01*
X305132Y527736D02*
X310425Y522443D01*
X299222Y459622D02*
X308278D01*
X250586Y532605D02*
X311627D01*
X241821Y512642D02*
X265929D01*
X312213Y466213D02*
Y532019D01*
X298122Y460722D02*
X299222Y459622D01*
X310425Y497734D02*
Y522443D01*
X311627Y532605D02*
X312213Y532019D01*
X308278Y459622D02*
X310078Y461422D01*
X127500Y249000D02*
Y259500D01*
X123500Y263500D02*
X127500Y259500D01*
X220500Y211000D02*
X302352D01*
X218009Y208509D02*
X220500Y211000D01*
X330500Y302500D02*
Y352500D01*
X123500Y279500D02*
X132000Y288000D01*
X123500Y263500D02*
Y279500D01*
X138785Y261420D02*
X139931Y260275D01*
X117000Y337914D02*
X117586Y338500D01*
X137500D01*
X117000Y317500D02*
Y337914D01*
X140000Y346000D02*
Y371000D01*
X137500Y338500D02*
X138000Y339000D01*
X288914Y396376D02*
Y416693D01*
X281354D02*
X288914D01*
X159925Y378424D02*
Y378425D01*
X179500Y408000D02*
Y439729D01*
X130500Y313000D02*
X132500Y311000D01*
X333000Y371500D02*
X334500Y373000D01*
Y408500D01*
X335000Y297086D02*
Y368750D01*
X338000Y371750D01*
Y439500D01*
X334098Y411902D02*
X335586Y410414D01*
Y409586D02*
Y410414D01*
X334500Y408500D02*
X335586Y409586D01*
X328623Y411902D02*
X334098D01*
X338738Y313738D02*
X343000Y318000D01*
X261500Y296586D02*
Y324414D01*
X260914Y325000D02*
X261500Y324414D01*
X241822Y325000D02*
X260914D01*
X328598Y440315D02*
X337185D01*
X338000Y439500D01*
X328598Y427323D02*
Y435402D01*
X171118Y440315D02*
X178914D01*
X179500Y439729D01*
X143000Y346000D02*
Y389500D01*
X116020Y400500D02*
X132000D01*
X143000Y389500D01*
X171118Y411926D02*
Y416693D01*
X123874Y413374D02*
Y416693D01*
X145311Y520189D02*
X150366D01*
X193000D02*
X197610D01*
X171118Y427323D02*
Y435402D01*
X300000Y461500D02*
X307500D01*
X249414Y525949D02*
X250000Y526535D01*
X246854Y525949D02*
X249414D01*
X250000Y526535D02*
Y532019D01*
X250586Y532605D01*
X244854Y520189D02*
Y523949D01*
X246854Y525949D01*
X292098Y520189D02*
X293787Y518500D01*
X297000D01*
X281354Y450945D02*
Y454902D01*
X304622Y279646D02*
X312354Y271914D01*
X315401D01*
X316000Y271315D01*
X319000Y364000D02*
X330500Y352500D01*
X116020Y400500D02*
Y439729D01*
X116606Y440315D01*
X123874D01*
X274086D02*
X281354D01*
X273500Y439729D02*
X274086Y440315D01*
X328598Y416693D02*
X328623Y416668D01*
Y411902D02*
Y416668D01*
X171118Y450945D02*
Y454902D01*
X123874Y450945D02*
Y454902D01*
Y427323D02*
Y435402D01*
X281354Y427323D02*
Y435402D01*
X328598Y450945D02*
Y454902D01*
X138785Y261420D02*
Y267785D01*
X231500Y253000D02*
X250500D01*
X223593Y325782D02*
X231236Y333425D01*
X221236D02*
X221236D01*
X144000Y264500D02*
X144240Y264740D01*
Y264856D02*
X145884Y266500D01*
X146041Y268628D02*
Y277429D01*
X142606Y265193D02*
X146041Y268628D01*
X144240Y264740D02*
Y264856D01*
X145884Y266500D02*
X146000D01*
X142606Y256979D02*
Y265193D01*
X144000Y259086D02*
Y264500D01*
X145586Y257500D02*
X151976D01*
X142606Y256979D02*
X143586Y256000D01*
X144000Y259086D02*
X145586Y257500D01*
X163000Y288079D02*
X163962Y289041D01*
X163000Y288000D02*
Y288079D01*
X138785Y267785D02*
X142000Y271000D01*
X132000Y288000D02*
X163000D01*
X193500Y249500D02*
Y252500D01*
X202500Y261500D01*
X207313Y279646D02*
X208323D01*
X244150D01*
X245567D01*
X217000Y264500D02*
Y277500D01*
X202000Y290000D02*
Y314110D01*
X197500Y285500D02*
X202000Y290000D01*
X142000Y282500D02*
X145000Y285500D01*
X265961Y279646D02*
X267378D01*
X260914Y296000D02*
X261500Y296586D01*
X241236Y325586D02*
Y333425D01*
Y325586D02*
X241822Y325000D01*
X154500Y246500D02*
X154631Y246631D01*
X143586Y256000D02*
X151186D01*
X154631Y252555D01*
Y246631D02*
Y252555D01*
X202500Y261500D02*
Y267500D01*
X205096Y270096D02*
Y277429D01*
X202500Y267500D02*
X205096Y270096D01*
Y277429D02*
X207313Y279646D01*
X142000Y271000D02*
Y282500D01*
X202000Y314110D02*
X206906Y319016D01*
X208323D01*
X146041Y277429D02*
X148258Y279646D01*
X208323Y319016D02*
X244150D01*
X249071Y315512D02*
X255961D01*
X245567Y319016D02*
X249071Y315512D01*
X244150Y319016D02*
X245567D01*
X190016Y276142D02*
X196906D01*
X186512Y279646D02*
X190016Y276142D01*
X249071Y276142D02*
X255961D01*
X245567Y279646D02*
X249071Y276142D01*
X267378Y279646D02*
X303205D01*
X304622D01*
X249071Y244646D02*
X255961D01*
X245567Y248150D02*
X249071Y244646D01*
X244150Y248150D02*
X245567D01*
X135685Y535394D02*
X316787D01*
X100252Y184213D02*
X352220D01*
X316787Y500748D02*
X352220D01*
Y184213D02*
Y500748D01*
X316787D02*
Y535394D01*
X100252Y500748D02*
X135685D01*
Y535394D01*
X100252Y184213D02*
Y500748D01*
X104000Y468000D02*
Y471936D01*
X105968D01*
X106624Y471280D01*
Y469968D01*
X105968Y469312D01*
X104000D01*
X105312D02*
X106624Y468000D01*
X109904D02*
X108592D01*
X107936Y468656D01*
Y469968D01*
X108592Y470624D01*
X109904D01*
X110560Y469968D01*
Y469312D01*
X107936D01*
X111872Y470624D02*
X113183Y468000D01*
X114495Y470624D01*
X119743Y468000D02*
X121055D01*
X120399D01*
Y471936D01*
X119743Y471280D01*
X123023Y468000D02*
Y468656D01*
X123679D01*
Y468000D01*
X123023D01*
X126303Y471280D02*
X126959Y471936D01*
X128270D01*
X128926Y471280D01*
Y468656D01*
X128270Y468000D01*
X126959D01*
X126303Y468656D01*
Y471280D01*
X130238Y468000D02*
X131550D01*
X130894D01*
Y471936D01*
X130238Y471280D01*
X208999Y192998D02*
X207999Y193997D01*
X206000D01*
X205000Y192998D01*
Y188999D01*
X206000Y187999D01*
X207999D01*
X208999Y188999D01*
X211998Y191998D02*
X213997D01*
X214997Y190998D01*
Y187999D01*
X211998D01*
X210998Y188999D01*
X211998Y189999D01*
X214997D01*
X216996Y191998D02*
Y187999D01*
Y189999D01*
X217996Y190998D01*
X218995Y191998D01*
X219995D01*
X222994Y193997D02*
Y187999D01*
X225993D01*
X226993Y188999D01*
Y189999D01*
Y190998D01*
X225993Y191998D01*
X222994D01*
X232991Y192998D02*
X231991Y193997D01*
X229992D01*
X228992Y192998D01*
Y191998D01*
X229992Y190998D01*
X231991D01*
X232991Y189999D01*
Y188999D01*
X231991Y187999D01*
X229992D01*
X228992Y188999D01*
X234990Y191998D02*
Y188999D01*
X235990Y187999D01*
X238989D01*
Y187000D01*
X237989Y186000D01*
X236990D01*
X238989Y187999D02*
Y191998D01*
X240988Y187999D02*
Y191998D01*
X243987D01*
X244987Y190998D01*
Y187999D01*
X250985Y191998D02*
X247986D01*
X246986Y190998D01*
Y188999D01*
X247986Y187999D01*
X250985D01*
X252984Y193997D02*
Y187999D01*
Y190998D01*
X253984Y191998D01*
X255983D01*
X256983Y190998D01*
Y187999D01*
X264981Y193997D02*
Y187999D01*
X267980D01*
X268979Y188999D01*
Y189999D01*
Y190998D01*
X267980Y191998D01*
X264981D01*
X270979D02*
Y188999D01*
X271978Y187999D01*
X274977D01*
Y187000D01*
X273978Y186000D01*
X272978D01*
X274977Y187999D02*
Y191998D01*
X282975Y193997D02*
Y187999D01*
Y190998D01*
X286974D01*
Y193997D01*
Y187999D01*
X289972Y191998D02*
X291972D01*
X292971Y190998D01*
Y187999D01*
X289972D01*
X288973Y188999D01*
X289972Y189999D01*
X292971D01*
X294971Y191998D02*
Y187999D01*
Y189999D01*
X295971Y190998D01*
X296970Y191998D01*
X297970D01*
X301969D02*
X303968D01*
X304968Y190998D01*
Y187999D01*
X301969D01*
X300969Y188999D01*
X301969Y189999D01*
X304968D01*
X306967Y187999D02*
Y193997D01*
Y189999D02*
X309966Y191998D01*
X306967Y189999D02*
X309966Y187999D01*
X312965D02*
X314964D01*
X313965D01*
Y191998D01*
X312965D01*
X317964D02*
X319963Y187999D01*
X321962Y191998D01*
X323961Y187999D02*
X325961D01*
X324961D01*
Y191998D01*
X323961D01*
D14*
X281354Y416693D02*
D03*
Y427323D02*
D03*
X328598Y416693D02*
D03*
Y427323D02*
D03*
Y450945D02*
D03*
Y440315D02*
D03*
X281354Y450945D02*
D03*
Y440315D02*
D03*
X123874Y450945D02*
D03*
Y440315D02*
D03*
X171118Y450945D02*
D03*
Y440315D02*
D03*
Y416693D02*
D03*
Y427323D02*
D03*
X123874Y416693D02*
D03*
Y427323D02*
D03*
X342815Y230010D02*
D03*
Y219380D02*
D03*
D15*
X255961Y276142D02*
D03*
Y265512D02*
D03*
Y304882D02*
D03*
Y315512D02*
D03*
X316000Y260685D02*
D03*
Y271315D02*
D03*
X196906Y276142D02*
D03*
Y265512D02*
D03*
X255961Y244646D02*
D03*
Y234016D02*
D03*
D16*
X150366Y520189D02*
D03*
X160366D02*
D03*
X207610D02*
D03*
X197610D02*
D03*
X244854D02*
D03*
X254854D02*
D03*
X302098D02*
D03*
X292098D02*
D03*
D17*
X303205Y279646D02*
D03*
Y262008D02*
D03*
X267378Y279646D02*
D03*
Y262008D02*
D03*
X244150Y319016D02*
D03*
Y301378D02*
D03*
X208323Y319016D02*
D03*
Y301378D02*
D03*
X185095Y279646D02*
D03*
Y262008D02*
D03*
X149268Y279646D02*
D03*
Y262008D02*
D03*
X244150Y279646D02*
D03*
Y262008D02*
D03*
X208323Y279646D02*
D03*
Y262008D02*
D03*
X244150Y248150D02*
D03*
Y230512D02*
D03*
X208323Y248150D02*
D03*
Y230512D02*
D03*
D28*
X169000Y204500D02*
Y219000D01*
X236500Y262008D02*
Y264500D01*
Y262008D02*
X244150D01*
X208323D02*
X236500D01*
X185500Y245500D02*
X196000D01*
X170500Y244000D02*
Y257000D01*
X170000Y243500D02*
X170500Y244000D01*
X183000Y218500D02*
X197500D01*
X144500Y231000D02*
X157500D01*
X131999Y253860D02*
Y270001D01*
Y253860D02*
X134180Y251680D01*
X314677Y262008D02*
X316000Y260685D01*
X303205Y262008D02*
X314677D01*
X184000Y244000D02*
X185500Y245500D01*
X244150Y262008D02*
X251275D01*
X254780Y265512D01*
X255961D01*
D29*
X134557Y251302D02*
X144105D01*
X144499Y251696D01*
X134180Y251680D02*
X134557Y251302D01*
X155295Y200171D02*
X236245D01*
X244537Y208463D01*
X126329Y200171D02*
X155295D01*
X120441Y206059D02*
X126329Y200171D01*
X120441Y237941D02*
X134180Y251680D01*
X120441Y206059D02*
Y237941D01*
X193000Y290000D02*
Y299000D01*
X108000Y385000D02*
Y392530D01*
X349551Y230845D02*
Y444116D01*
X348167Y445500D02*
X349551Y444116D01*
X269472Y445500D02*
X348167D01*
X151689D02*
X269472D01*
X302098Y520189D02*
X307957D01*
X160366D02*
X169768D01*
X207610D02*
X217012D01*
X254854D02*
X264256D01*
X144499Y251696D02*
X152556D01*
X197544Y510000D02*
X244782D01*
X150305Y336195D02*
X150500Y336000D01*
X150305Y336195D02*
Y446884D01*
X174000Y335000D02*
X178500D01*
X271116Y343500D02*
X272500Y342116D01*
Y288000D02*
Y342116D01*
X187000Y343500D02*
X271116D01*
X272500Y287925D02*
Y288000D01*
X150305Y510000D02*
X197544D01*
X197544Y510000D01*
X244782Y510000D02*
X292098D01*
X244782Y510000D02*
X244782Y510000D01*
X272500Y288000D02*
X343000D01*
X152556Y251696D02*
X152556Y251696D01*
X178500Y335000D02*
X187000Y343500D01*
X150305Y446884D02*
Y510000D01*
Y446884D02*
X151689Y445500D01*
X342815Y230010D02*
X343649Y230845D01*
X349551D01*
D30*
X217000Y211000D02*
X218000D01*
X220500Y213500D01*
X123000Y222500D02*
X157527D01*
X158027Y223000D01*
X269472Y386772D02*
Y445500D01*
X220500Y213500D02*
X349308D01*
X350000Y214192D01*
Y230396D01*
X349551Y230845D02*
X350000Y230396D01*
X165000Y262008D02*
X185095D01*
X165000Y241697D02*
Y262008D01*
X149268D02*
X165000D01*
X186512D02*
X188638Y264134D01*
X196906Y265512D02*
X196920D01*
X195724D02*
X196906D01*
X205187Y288187D02*
Y299252D01*
X198495Y268757D02*
X202000Y272262D01*
Y285000D02*
X205187Y288187D01*
X196920Y265512D02*
X198495Y267087D01*
Y268757D01*
X202000Y272262D02*
Y285000D01*
X208323Y301378D02*
X244150D01*
X207313D02*
X208323D01*
X257142Y234016D02*
X267378Y244252D01*
Y262008D01*
X255961Y234016D02*
X257142D01*
X254780D02*
X255961D01*
X267378Y262008D02*
X303205D01*
X198677Y220866D02*
X208323Y230512D01*
X178926Y220866D02*
X198677D01*
X208323Y230512D02*
X244150D01*
X186512Y262008D02*
X193402D01*
X194150Y263937D02*
X195724Y265512D01*
X194150Y262756D02*
Y263937D01*
X185095Y262008D02*
X186512D01*
X193402D02*
X194150Y262756D01*
X205187Y299252D02*
X207313Y301378D01*
X244150Y230512D02*
X251276D01*
X254780Y234016D01*
X314819Y260685D02*
X316000D01*
X244150Y301378D02*
X251276D01*
X254780Y304882D01*
X255961D01*
D31*
X183174Y216000D02*
X342683D01*
X342815Y215868D01*
Y219380D01*
X186319Y375681D02*
X226500D01*
X342815Y219380D02*
X342815Y219380D01*
D32*
X336472Y485000D02*
D03*
Y255079D02*
D03*
X116000Y485000D02*
D03*
Y255079D02*
D03*
D33*
X261236Y494842D02*
D03*
X251236D02*
D03*
X241236D02*
D03*
X231236D02*
D03*
X221236D02*
D03*
X211236D02*
D03*
X201236D02*
D03*
X261236Y333425D02*
D03*
X251236D02*
D03*
X241236D02*
D03*
X231236D02*
D03*
X221236D02*
D03*
X211236D02*
D03*
X201236D02*
D03*
X332579Y200079D02*
D03*
X343000Y308000D02*
D03*
Y318000D02*
D03*
Y328000D02*
D03*
Y288000D02*
D03*
D34*
X191236Y494842D02*
D03*
Y333425D02*
D03*
X342579Y200079D02*
D03*
D35*
X343000Y338000D02*
D03*
Y278000D02*
D03*
D36*
X164200Y209224D02*
D03*
X167047Y209547D02*
D03*
X170993Y208509D02*
D03*
X301500Y243192D02*
D03*
X270000Y257000D02*
D03*
X236500Y264500D02*
D03*
X217000Y259000D02*
D03*
X227000Y286989D02*
D03*
X230000Y283716D02*
D03*
X217000Y282500D02*
D03*
X193390Y240979D02*
D03*
X196000Y245500D02*
D03*
X161000Y254500D02*
D03*
X163000Y252500D02*
D03*
X161000Y259210D02*
D03*
X168000Y264000D02*
D03*
X170500Y257000D02*
D03*
X226722Y277278D02*
D03*
X171205Y277295D02*
D03*
X164500Y274693D02*
D03*
X167047Y274812D02*
D03*
X326000Y294500D02*
D03*
X173090Y197411D02*
D03*
X177000Y197500D02*
D03*
X193500Y197000D02*
D03*
X191000Y196786D02*
D03*
X196000Y197000D02*
D03*
X177000Y190500D02*
D03*
X155295Y200171D02*
D03*
X197500Y218500D02*
D03*
X236000Y206000D02*
D03*
X231500Y206000D02*
D03*
X217000Y211000D02*
D03*
X157517Y238858D02*
D03*
X141000Y229500D02*
D03*
X148500Y225500D02*
D03*
X123000Y222500D02*
D03*
X134500Y215500D02*
D03*
X136500Y218500D02*
D03*
X145966Y214378D02*
D03*
X132222Y210516D02*
D03*
X142608Y214378D02*
D03*
X145622Y207228D02*
D03*
X142608D02*
D03*
X102244Y283500D02*
D03*
X106000D02*
D03*
X108122Y289000D02*
D03*
X145311Y520189D02*
D03*
X144500Y231000D02*
D03*
X186501Y290001D02*
D03*
X163962Y289090D02*
D03*
X139931Y253861D02*
D03*
X327000Y292000D02*
D03*
X337500D02*
D03*
X183001Y290001D02*
D03*
X179502Y290002D02*
D03*
X328500Y282410D02*
D03*
X156213Y315493D02*
D03*
X123000Y340378D02*
D03*
X269472Y386772D02*
D03*
X150811Y332445D02*
D03*
X266761Y389372D02*
D03*
X288980Y441500D02*
D03*
X131500D02*
D03*
X310078Y461422D02*
D03*
X248122Y527941D02*
D03*
X302353Y211001D02*
D03*
X342815Y215868D02*
D03*
X330500Y302500D02*
D03*
X131999Y270001D02*
D03*
X114713Y364847D02*
D03*
X160000Y375500D02*
D03*
X159925Y378424D02*
D03*
X138000Y339000D02*
D03*
X328623Y435402D02*
D03*
X130500Y313000D02*
D03*
X135476Y333630D02*
D03*
X143000Y346000D02*
D03*
X140000Y371000D02*
D03*
X183634Y389134D02*
D03*
X171118Y411926D02*
D03*
X123874Y413374D02*
D03*
X193000Y520189D02*
D03*
X171142Y435402D02*
D03*
X300000Y461500D02*
D03*
X297000Y518500D02*
D03*
X281354Y454902D02*
D03*
X319000Y364000D02*
D03*
X116020Y400500D02*
D03*
X273500D02*
D03*
X328623Y411902D02*
D03*
X171130Y454913D02*
D03*
X123874Y454902D02*
D03*
X123898Y435402D02*
D03*
X281379D02*
D03*
X328610Y454913D02*
D03*
X231500Y253000D02*
D03*
X237500Y277000D02*
D03*
X250500Y253000D02*
D03*
X278500Y257000D02*
D03*
X191500Y255000D02*
D03*
X169500Y260000D02*
D03*
X165000Y264000D02*
D03*
X169000Y204500D02*
D03*
X182000Y203000D02*
D03*
X217000Y264500D02*
D03*
X193500Y249500D02*
D03*
X217000Y277500D02*
D03*
X172953Y251453D02*
D03*
X152556Y251696D02*
D03*
X144499Y251696D02*
D03*
X193390Y223110D02*
D03*
X154500Y246500D02*
D03*
X180453Y232953D02*
D03*
X161142Y217517D02*
D03*
X147520Y441000D02*
D03*
X305000D02*
D03*
X178858Y242483D02*
D03*
D37*
X193000Y299000D02*
D03*
X108000Y392530D02*
D03*
Y385000D02*
D03*
X193000Y290000D02*
D03*
X307957Y520189D02*
D03*
X244537Y208463D02*
D03*
X169768Y520189D02*
D03*
X217012D02*
D03*
X264256D02*
D03*
X226500Y375681D02*
D03*
X186319D02*
D03*
X174000Y335000D02*
D03*
X197544Y510000D02*
D03*
X150305Y510000D02*
D03*
X244782D02*
D03*
X292098Y510000D02*
D03*
X272500Y287925D02*
D03*
M02*
