G04*
G04 #@! TF.GenerationSoftware,Altium Limited,Altium Designer,20.1.8 (145)*
G04*
G04 Layer_Color=255*
%FSLAX25Y25*%
%MOIN*%
G70*
G04*
G04 #@! TF.SameCoordinates,2B40AF7D-86F1-4858-AC96-1B89F3EF06F7*
G04*
G04*
G04 #@! TF.FilePolarity,Positive*
G04*
G01*
G75*
%ADD14R,0.10236X0.04331*%
%ADD15R,0.06693X0.04331*%
%ADD16R,0.05000X0.12520*%
G04:AMPARAMS|DCode=17|XSize=82.68mil|YSize=54.33mil|CornerRadius=4.08mil|HoleSize=0mil|Usage=FLASHONLY|Rotation=0.000|XOffset=0mil|YOffset=0mil|HoleType=Round|Shape=RoundedRectangle|*
%AMROUNDEDRECTD17*
21,1,0.08268,0.04618,0,0,0.0*
21,1,0.07453,0.05433,0,0,0.0*
1,1,0.00815,0.03726,-0.02309*
1,1,0.00815,-0.03726,-0.02309*
1,1,0.00815,-0.03726,0.02309*
1,1,0.00815,0.03726,0.02309*
%
%ADD17ROUNDEDRECTD17*%
%ADD32C,0.19685*%
%ADD33C,0.05906*%
%ADD34R,0.05906X0.05906*%
%ADD35R,0.05906X0.05906*%
D14*
X281354Y416693D02*
D03*
Y427323D02*
D03*
X328598Y416693D02*
D03*
Y427323D02*
D03*
Y450945D02*
D03*
Y440315D02*
D03*
X281354Y450945D02*
D03*
Y440315D02*
D03*
X123874Y450945D02*
D03*
Y440315D02*
D03*
X171118Y450945D02*
D03*
Y440315D02*
D03*
Y416693D02*
D03*
Y427323D02*
D03*
X123874Y416693D02*
D03*
Y427323D02*
D03*
X342815Y230010D02*
D03*
Y219380D02*
D03*
D15*
X255961Y276142D02*
D03*
Y265512D02*
D03*
Y304882D02*
D03*
Y315512D02*
D03*
X316000Y260685D02*
D03*
Y271315D02*
D03*
X196906Y276142D02*
D03*
Y265512D02*
D03*
X255961Y244646D02*
D03*
Y234016D02*
D03*
D16*
X150366Y520189D02*
D03*
X160366D02*
D03*
X207610D02*
D03*
X197610D02*
D03*
X244854D02*
D03*
X254854D02*
D03*
X302098D02*
D03*
X292098D02*
D03*
D17*
X303205Y279646D02*
D03*
Y262008D02*
D03*
X267378Y279646D02*
D03*
Y262008D02*
D03*
X244150Y319016D02*
D03*
Y301378D02*
D03*
X208323Y319016D02*
D03*
Y301378D02*
D03*
X185095Y279646D02*
D03*
Y262008D02*
D03*
X149268Y279646D02*
D03*
Y262008D02*
D03*
X244150Y279646D02*
D03*
Y262008D02*
D03*
X208323Y279646D02*
D03*
Y262008D02*
D03*
X244150Y248150D02*
D03*
Y230512D02*
D03*
X208323Y248150D02*
D03*
Y230512D02*
D03*
D32*
X336472Y485000D02*
D03*
Y255079D02*
D03*
X116000Y485000D02*
D03*
Y255079D02*
D03*
D33*
X261236Y494842D02*
D03*
X251236D02*
D03*
X241236D02*
D03*
X231236D02*
D03*
X221236D02*
D03*
X211236D02*
D03*
X201236D02*
D03*
X261236Y333425D02*
D03*
X251236D02*
D03*
X241236D02*
D03*
X231236D02*
D03*
X221236D02*
D03*
X211236D02*
D03*
X201236D02*
D03*
X332579Y200079D02*
D03*
X343000Y308000D02*
D03*
Y318000D02*
D03*
Y328000D02*
D03*
Y288000D02*
D03*
D34*
X191236Y494842D02*
D03*
Y333425D02*
D03*
X342579Y200079D02*
D03*
D35*
X343000Y338000D02*
D03*
Y278000D02*
D03*
M02*
