M48
;Layer_Color=9474304
;FILE_FORMAT=2:5
INCH,LZ
;TYPE=PLATED
T1F00S00C0.03543
%
T01
X0033701Y00115
X0043701
X0053701
X0048701Y00265
X0038701
Y00365
X0048701
X0043701Y00515
X0033701
X0053701
X0080945
X0090945
X0100945
X0095945Y00365
Y00265
X0085945
Y00365
X0090945Y00115
X0100945
X0080945
X0128189
X0138189
X0148189
X0143189Y00265
X0133189
Y00365
X0143189
X0138189Y00515
X0128189
X0148189
X0175433
X0185433
X0195433
X0190433Y00365
Y00265
X0180433
Y00365
X0185433Y00115
X0195433
X0175433
M30
