G04*
G04 #@! TF.GenerationSoftware,Altium Limited,Altium Designer,20.1.8 (145)*
G04*
G04 Layer_Color=16711935*
%FSLAX25Y25*%
%MOIN*%
G70*
G04*
G04 #@! TF.SameCoordinates,6776F504-3C08-431A-B1F5-C50581409E40*
G04*
G04*
G04 #@! TF.FilePolarity,Negative*
G04*
G01*
G75*
%ADD13C,0.08674*%
%ADD14C,0.06706*%
%ADD15R,0.06706X0.06706*%
D13*
X90945Y51500D02*
D03*
Y11500D02*
D03*
X100945D02*
D03*
X80945D02*
D03*
Y51500D02*
D03*
X100945D02*
D03*
X138189D02*
D03*
Y11500D02*
D03*
X148189D02*
D03*
X128189D02*
D03*
Y51500D02*
D03*
X148189D02*
D03*
X43701D02*
D03*
Y11500D02*
D03*
X53701D02*
D03*
X33701D02*
D03*
Y51500D02*
D03*
X53701D02*
D03*
X185433D02*
D03*
Y11500D02*
D03*
X195433D02*
D03*
X175433D02*
D03*
Y51500D02*
D03*
X195433D02*
D03*
D14*
X48701Y26500D02*
D03*
X38701D02*
D03*
X48701Y36500D02*
D03*
X95945Y26500D02*
D03*
X85945D02*
D03*
X95945Y36500D02*
D03*
X143189Y26500D02*
D03*
X133189D02*
D03*
X143189Y36500D02*
D03*
X190433Y26500D02*
D03*
X180433D02*
D03*
X190433Y36500D02*
D03*
D15*
X38701D02*
D03*
X85945D02*
D03*
X133189D02*
D03*
X180433D02*
D03*
M02*
