G04*
G04 #@! TF.GenerationSoftware,Altium Limited,Altium Designer,20.1.8 (145)*
G04*
G04 Layer_Color=32896*
%FSLAX25Y25*%
%MOIN*%
G70*
G04*
G04 #@! TF.SameCoordinates,6776F504-3C08-431A-B1F5-C50581409E40*
G04*
G04*
G04 #@! TF.FilePolarity,Positive*
G04*
G01*
G75*
%ADD11C,0.01000*%
D11*
X110001Y22004D02*
X115999D01*
Y25003D01*
X114999Y26002D01*
X113000D01*
X112000Y25003D01*
Y22004D01*
X115999Y28002D02*
X110001D01*
Y31001D01*
X111001Y32000D01*
X114999D01*
X115999Y31001D01*
Y28002D01*
Y37998D02*
Y34000D01*
X110001D01*
Y37998D01*
X113000Y34000D02*
Y35999D01*
X110001Y43996D02*
Y39998D01*
X114000Y43996D01*
X114999D01*
X115999Y42997D01*
Y40997D01*
X114999Y39998D01*
X157001Y21504D02*
X162999D01*
Y24503D01*
X161999Y25502D01*
X160000D01*
X159000Y24503D01*
Y21504D01*
X162999Y27502D02*
X157001D01*
Y30501D01*
X158001Y31500D01*
X161999D01*
X162999Y30501D01*
Y27502D01*
Y37498D02*
Y33500D01*
X157001D01*
Y37498D01*
X160000Y33500D02*
Y35499D01*
X161999Y39498D02*
X162999Y40497D01*
Y42497D01*
X161999Y43496D01*
X161000D01*
X160000Y42497D01*
Y41497D01*
Y42497D01*
X159000Y43496D01*
X158001D01*
X157001Y42497D01*
Y40497D01*
X158001Y39498D01*
X63001Y22003D02*
X68999D01*
Y25002D01*
X67999Y26002D01*
X66000D01*
X65000Y25002D01*
Y22003D01*
X68999Y28001D02*
X63001D01*
Y31000D01*
X64001Y32000D01*
X67999D01*
X68999Y31000D01*
Y28001D01*
Y37998D02*
Y33999D01*
X63001D01*
Y37998D01*
X66000Y33999D02*
Y35999D01*
X63001Y39997D02*
Y41997D01*
Y40997D01*
X68999D01*
X67999Y39997D01*
X204001Y21504D02*
X209999D01*
Y24503D01*
X208999Y25502D01*
X207000D01*
X206000Y24503D01*
Y21504D01*
X209999Y27502D02*
X204001D01*
Y30501D01*
X205001Y31500D01*
X208999D01*
X209999Y30501D01*
Y27502D01*
Y37498D02*
Y33500D01*
X204001D01*
Y37498D01*
X207000Y33500D02*
Y35499D01*
X204001Y42497D02*
X209999D01*
X207000Y39498D01*
Y43496D01*
M02*
