G04*
G04 #@! TF.GenerationSoftware,Altium Limited,Altium Designer,20.1.8 (145)*
G04*
G04 Layer_Physical_Order=1*
G04 Layer_Color=255*
%FSLAX25Y25*%
%MOIN*%
G70*
G04*
G04 #@! TF.SameCoordinates,6776F504-3C08-431A-B1F5-C50581409E40*
G04*
G04*
G04 #@! TF.FilePolarity,Positive*
G04*
G01*
G75*
%ADD11C,0.01000*%
%ADD16C,0.02756*%
%ADD17C,0.07874*%
%ADD18C,0.05906*%
%ADD19R,0.05906X0.05906*%
G36*
X224365Y61330D02*
X225425Y60891D01*
X226335Y60193D01*
X227033Y59283D01*
X227472Y58224D01*
X227615Y57138D01*
X227605Y57087D01*
Y5906D01*
X227615Y5854D01*
X227472Y4769D01*
X227033Y3709D01*
X226335Y2799D01*
X225425Y2101D01*
X224365Y1662D01*
X223280Y1519D01*
X223228Y1529D01*
X5906D01*
X5854Y1519D01*
X4769Y1662D01*
X3709Y2101D01*
X2799Y2799D01*
X2101Y3709D01*
X1662Y4769D01*
X1519Y5854D01*
X1529Y5906D01*
Y57087D01*
X1519Y57138D01*
X1662Y58224D01*
X2101Y59283D01*
X2799Y60193D01*
X3709Y60891D01*
X4769Y61330D01*
X5854Y61473D01*
X5906Y61463D01*
X223228D01*
X223280Y61473D01*
X224365Y61330D01*
D02*
G37*
%LPC*%
G36*
X195433Y56480D02*
X194144Y56310D01*
X192943Y55813D01*
X191912Y55021D01*
X191121Y53990D01*
X190704Y52983D01*
X190162D01*
X189745Y53990D01*
X188954Y55021D01*
X187923Y55813D01*
X186722Y56310D01*
X185433Y56480D01*
X184144Y56310D01*
X182943Y55813D01*
X181912Y55021D01*
X181121Y53990D01*
X180704Y52983D01*
X180162D01*
X179745Y53990D01*
X178954Y55021D01*
X177923Y55813D01*
X176722Y56310D01*
X175433Y56480D01*
X174144Y56310D01*
X172943Y55813D01*
X171912Y55021D01*
X171121Y53990D01*
X170623Y52789D01*
X170453Y51500D01*
X170623Y50211D01*
X171121Y49010D01*
X171912Y47979D01*
X172943Y47188D01*
X174144Y46690D01*
X175433Y46520D01*
X176722Y46690D01*
X176787Y46717D01*
X178008Y45496D01*
Y40453D01*
X176480D01*
Y32547D01*
X184386D01*
Y40453D01*
X182858D01*
Y46500D01*
X182818Y46698D01*
X183256Y47058D01*
X184144Y46690D01*
X185433Y46520D01*
X186722Y46690D01*
X186787Y46717D01*
X188008Y45496D01*
Y39622D01*
X187614Y39319D01*
X186980Y38493D01*
X186582Y37532D01*
X186446Y36500D01*
X186582Y35468D01*
X186980Y34507D01*
X187614Y33681D01*
X188440Y33047D01*
X189401Y32649D01*
X190433Y32513D01*
X191465Y32649D01*
X192427Y33047D01*
X193252Y33681D01*
X193886Y34507D01*
X194284Y35468D01*
X194420Y36500D01*
X194284Y37532D01*
X193886Y38493D01*
X193252Y39319D01*
X192858Y39622D01*
Y46500D01*
X192818Y46698D01*
X193256Y47058D01*
X194144Y46690D01*
X195408Y46524D01*
Y34904D01*
X190926Y30422D01*
X190433Y30487D01*
X189401Y30351D01*
X188440Y29953D01*
X187614Y29319D01*
X186980Y28493D01*
X186582Y27532D01*
X186446Y26500D01*
X186582Y25468D01*
X186980Y24507D01*
X187614Y23681D01*
X188008Y23378D01*
Y16500D01*
X188048Y16302D01*
X187610Y15942D01*
X186722Y16310D01*
X185433Y16480D01*
X184144Y16310D01*
X184079Y16283D01*
X182858Y17504D01*
Y23378D01*
X183252Y23681D01*
X183886Y24507D01*
X184284Y25468D01*
X184420Y26500D01*
X184284Y27532D01*
X183886Y28493D01*
X183252Y29319D01*
X182427Y29953D01*
X181465Y30351D01*
X180433Y30487D01*
X179401Y30351D01*
X178440Y29953D01*
X177614Y29319D01*
X176980Y28493D01*
X176582Y27532D01*
X176446Y26500D01*
X176582Y25468D01*
X176980Y24507D01*
X177614Y23681D01*
X178008Y23378D01*
Y16500D01*
X178048Y16302D01*
X177610Y15942D01*
X176722Y16310D01*
X175433Y16480D01*
X174144Y16310D01*
X172943Y15812D01*
X171912Y15021D01*
X171121Y13990D01*
X170623Y12789D01*
X170453Y11500D01*
X170623Y10211D01*
X171121Y9010D01*
X171912Y7979D01*
X172943Y7187D01*
X174144Y6690D01*
X175433Y6520D01*
X176722Y6690D01*
X177923Y7187D01*
X178954Y7979D01*
X179745Y9010D01*
X180162Y10017D01*
X180704D01*
X181121Y9010D01*
X181912Y7979D01*
X182943Y7187D01*
X184144Y6690D01*
X185433Y6520D01*
X186722Y6690D01*
X187923Y7187D01*
X188954Y7979D01*
X189745Y9010D01*
X190162Y10017D01*
X190704D01*
X191121Y9010D01*
X191912Y7979D01*
X192943Y7187D01*
X194144Y6690D01*
X195433Y6520D01*
X196722Y6690D01*
X197923Y7187D01*
X198954Y7979D01*
X199746Y9010D01*
X200243Y10211D01*
X200413Y11500D01*
X200243Y12789D01*
X199746Y13990D01*
X198954Y15021D01*
X197923Y15812D01*
X196722Y16310D01*
X195433Y16480D01*
X194144Y16310D01*
X194079Y16283D01*
X192858Y17504D01*
Y23378D01*
X193252Y23681D01*
X193886Y24507D01*
X194284Y25468D01*
X194420Y26500D01*
X194355Y26993D01*
X199547Y32185D01*
X200073Y32972D01*
X200257Y33900D01*
Y49100D01*
X200103Y49874D01*
X200243Y50211D01*
X200413Y51500D01*
X200243Y52789D01*
X199746Y53990D01*
X198954Y55021D01*
X197923Y55813D01*
X196722Y56310D01*
X195433Y56480D01*
D02*
G37*
G36*
X100945D02*
X99656Y56310D01*
X98455Y55813D01*
X97424Y55021D01*
X96632Y53990D01*
X96215Y52983D01*
X95674D01*
X95257Y53990D01*
X94466Y55021D01*
X93435Y55813D01*
X92234Y56310D01*
X90945Y56480D01*
X89656Y56310D01*
X88455Y55813D01*
X87424Y55021D01*
X86632Y53990D01*
X86216Y52983D01*
X85674D01*
X85257Y53990D01*
X84466Y55021D01*
X83435Y55813D01*
X82234Y56310D01*
X80945Y56480D01*
X79656Y56310D01*
X78455Y55813D01*
X77424Y55021D01*
X76632Y53990D01*
X76135Y52789D01*
X75965Y51500D01*
X76135Y50211D01*
X76632Y49010D01*
X77424Y47979D01*
X78455Y47188D01*
X79656Y46690D01*
X80945Y46520D01*
X82234Y46690D01*
X82299Y46717D01*
X83520Y45496D01*
Y40453D01*
X81992D01*
Y32547D01*
X89898D01*
Y40453D01*
X88369D01*
Y46500D01*
X88330Y46698D01*
X88768Y47058D01*
X89656Y46690D01*
X90945Y46520D01*
X92234Y46690D01*
X92299Y46717D01*
X93520Y45496D01*
Y39622D01*
X93126Y39319D01*
X92492Y38493D01*
X92094Y37532D01*
X91958Y36500D01*
X92094Y35468D01*
X92492Y34507D01*
X93126Y33681D01*
X93951Y33047D01*
X94913Y32649D01*
X95945Y32513D01*
X96977Y32649D01*
X97938Y33047D01*
X98764Y33681D01*
X99398Y34507D01*
X99796Y35468D01*
X99932Y36500D01*
X99796Y37532D01*
X99398Y38493D01*
X98764Y39319D01*
X98369Y39622D01*
Y46500D01*
X98330Y46698D01*
X98768Y47058D01*
X99656Y46690D01*
X100920Y46524D01*
Y34904D01*
X96438Y30422D01*
X95945Y30487D01*
X94913Y30351D01*
X93951Y29953D01*
X93126Y29319D01*
X92492Y28493D01*
X92094Y27532D01*
X91958Y26500D01*
X92094Y25468D01*
X92492Y24507D01*
X93126Y23681D01*
X93520Y23378D01*
Y16500D01*
X93560Y16302D01*
X93121Y15942D01*
X92234Y16310D01*
X90945Y16480D01*
X89656Y16310D01*
X89591Y16283D01*
X88369Y17504D01*
Y23378D01*
X88764Y23681D01*
X89398Y24507D01*
X89796Y25468D01*
X89932Y26500D01*
X89796Y27532D01*
X89398Y28493D01*
X88764Y29319D01*
X87938Y29953D01*
X86977Y30351D01*
X85945Y30487D01*
X84913Y30351D01*
X83951Y29953D01*
X83126Y29319D01*
X82492Y28493D01*
X82094Y27532D01*
X81958Y26500D01*
X82094Y25468D01*
X82492Y24507D01*
X83126Y23681D01*
X83520Y23378D01*
Y16500D01*
X83560Y16302D01*
X83122Y15942D01*
X82234Y16310D01*
X80945Y16480D01*
X79656Y16310D01*
X78455Y15812D01*
X77424Y15021D01*
X76632Y13990D01*
X76135Y12789D01*
X75965Y11500D01*
X76135Y10211D01*
X76632Y9010D01*
X77424Y7979D01*
X78455Y7187D01*
X79656Y6690D01*
X80945Y6520D01*
X82234Y6690D01*
X83435Y7187D01*
X84466Y7979D01*
X85257Y9010D01*
X85674Y10017D01*
X86216D01*
X86632Y9010D01*
X87424Y7979D01*
X88455Y7187D01*
X89656Y6690D01*
X90945Y6520D01*
X92234Y6690D01*
X93435Y7187D01*
X94466Y7979D01*
X95257Y9010D01*
X95674Y10017D01*
X96215D01*
X96632Y9010D01*
X97424Y7979D01*
X98455Y7187D01*
X99656Y6690D01*
X100945Y6520D01*
X102234Y6690D01*
X103435Y7187D01*
X104466Y7979D01*
X105257Y9010D01*
X105755Y10211D01*
X105924Y11500D01*
X105755Y12789D01*
X105257Y13990D01*
X104466Y15021D01*
X103435Y15812D01*
X102234Y16310D01*
X100945Y16480D01*
X99656Y16310D01*
X99591Y16283D01*
X98369Y17504D01*
Y23378D01*
X98764Y23681D01*
X99398Y24507D01*
X99796Y25468D01*
X99932Y26500D01*
X99867Y26993D01*
X105059Y32185D01*
X105585Y32972D01*
X105769Y33900D01*
Y49100D01*
X105615Y49874D01*
X105755Y50211D01*
X105924Y51500D01*
X105755Y52789D01*
X105257Y53990D01*
X104466Y55021D01*
X103435Y55813D01*
X102234Y56310D01*
X100945Y56480D01*
D02*
G37*
G36*
X148189D02*
X146900Y56310D01*
X145699Y55813D01*
X144668Y55021D01*
X143877Y53990D01*
X143460Y52983D01*
X142918D01*
X142501Y53990D01*
X141710Y55021D01*
X140679Y55813D01*
X139478Y56310D01*
X138189Y56480D01*
X136900Y56310D01*
X135699Y55813D01*
X134668Y55021D01*
X133877Y53990D01*
X133460Y52983D01*
X132918D01*
X132501Y53990D01*
X131710Y55021D01*
X130679Y55813D01*
X129478Y56310D01*
X128189Y56480D01*
X126900Y56310D01*
X125699Y55813D01*
X124668Y55021D01*
X123877Y53990D01*
X123379Y52789D01*
X123209Y51500D01*
X123379Y50211D01*
X123877Y49010D01*
X124668Y47979D01*
X125699Y47188D01*
X126900Y46690D01*
X128189Y46520D01*
X129478Y46690D01*
X129543Y46717D01*
X130764Y45496D01*
Y40453D01*
X129236D01*
Y32547D01*
X137142D01*
Y40453D01*
X135614D01*
Y46500D01*
X135574Y46698D01*
X136012Y47058D01*
X136900Y46690D01*
X138189Y46520D01*
X139478Y46690D01*
X139543Y46717D01*
X140764Y45496D01*
Y39622D01*
X140370Y39319D01*
X139736Y38493D01*
X139338Y37532D01*
X139202Y36500D01*
X139338Y35468D01*
X139736Y34507D01*
X140370Y33681D01*
X141195Y33047D01*
X142157Y32649D01*
X143189Y32513D01*
X144221Y32649D01*
X145182Y33047D01*
X146008Y33681D01*
X146642Y34507D01*
X147040Y35468D01*
X147176Y36500D01*
X147040Y37532D01*
X146642Y38493D01*
X146008Y39319D01*
X145614Y39622D01*
Y46500D01*
X145574Y46698D01*
X146012Y47058D01*
X146900Y46690D01*
X148164Y46524D01*
Y34904D01*
X143682Y30422D01*
X143189Y30487D01*
X142157Y30351D01*
X141195Y29953D01*
X140370Y29319D01*
X139736Y28493D01*
X139338Y27532D01*
X139202Y26500D01*
X139338Y25468D01*
X139736Y24507D01*
X140370Y23681D01*
X140764Y23378D01*
Y16500D01*
X140804Y16302D01*
X140366Y15942D01*
X139478Y16310D01*
X138189Y16480D01*
X136900Y16310D01*
X136835Y16283D01*
X135614Y17504D01*
Y23378D01*
X136008Y23681D01*
X136642Y24507D01*
X137040Y25468D01*
X137176Y26500D01*
X137040Y27532D01*
X136642Y28493D01*
X136008Y29319D01*
X135182Y29953D01*
X134221Y30351D01*
X133189Y30487D01*
X132157Y30351D01*
X131195Y29953D01*
X130370Y29319D01*
X129736Y28493D01*
X129338Y27532D01*
X129202Y26500D01*
X129338Y25468D01*
X129736Y24507D01*
X130370Y23681D01*
X130764Y23378D01*
Y16500D01*
X130804Y16302D01*
X130366Y15942D01*
X129478Y16310D01*
X128189Y16480D01*
X126900Y16310D01*
X125699Y15812D01*
X124668Y15021D01*
X123877Y13990D01*
X123379Y12789D01*
X123209Y11500D01*
X123379Y10211D01*
X123877Y9010D01*
X124668Y7979D01*
X125699Y7187D01*
X126900Y6690D01*
X128189Y6520D01*
X129478Y6690D01*
X130679Y7187D01*
X131710Y7979D01*
X132501Y9010D01*
X132918Y10017D01*
X133460D01*
X133877Y9010D01*
X134668Y7979D01*
X135699Y7187D01*
X136900Y6690D01*
X138189Y6520D01*
X139478Y6690D01*
X140679Y7187D01*
X141710Y7979D01*
X142501Y9010D01*
X142918Y10017D01*
X143460D01*
X143877Y9010D01*
X144668Y7979D01*
X145699Y7187D01*
X146900Y6690D01*
X148189Y6520D01*
X149478Y6690D01*
X150679Y7187D01*
X151710Y7979D01*
X152501Y9010D01*
X152999Y10211D01*
X153169Y11500D01*
X152999Y12789D01*
X152501Y13990D01*
X151710Y15021D01*
X150679Y15812D01*
X149478Y16310D01*
X148189Y16480D01*
X146900Y16310D01*
X146835Y16283D01*
X145614Y17504D01*
Y23378D01*
X146008Y23681D01*
X146642Y24507D01*
X147040Y25468D01*
X147176Y26500D01*
X147111Y26993D01*
X152303Y32185D01*
X152829Y32972D01*
X153013Y33900D01*
Y49100D01*
X152859Y49874D01*
X152999Y50211D01*
X153169Y51500D01*
X152999Y52789D01*
X152501Y53990D01*
X151710Y55021D01*
X150679Y55813D01*
X149478Y56310D01*
X148189Y56480D01*
D02*
G37*
G36*
X53701D02*
X52412Y56310D01*
X51211Y55813D01*
X50180Y55021D01*
X49388Y53990D01*
X48971Y52983D01*
X48430D01*
X48013Y53990D01*
X47222Y55021D01*
X46191Y55813D01*
X44990Y56310D01*
X43701Y56480D01*
X42412Y56310D01*
X41211Y55813D01*
X40180Y55021D01*
X39388Y53990D01*
X38971Y52983D01*
X38430D01*
X38013Y53990D01*
X37222Y55021D01*
X36191Y55813D01*
X34990Y56310D01*
X33701Y56480D01*
X32412Y56310D01*
X31211Y55813D01*
X30180Y55021D01*
X29388Y53990D01*
X28891Y52789D01*
X28721Y51500D01*
X28891Y50211D01*
X29388Y49010D01*
X30180Y47979D01*
X31211Y47188D01*
X32412Y46690D01*
X33701Y46520D01*
X34990Y46690D01*
X35055Y46717D01*
X36276Y45496D01*
Y40453D01*
X34748D01*
Y32547D01*
X42654D01*
Y40453D01*
X41125D01*
Y46500D01*
X41086Y46698D01*
X41524Y47058D01*
X42412Y46690D01*
X43701Y46520D01*
X44990Y46690D01*
X45055Y46717D01*
X46276Y45496D01*
Y39622D01*
X45882Y39319D01*
X45248Y38493D01*
X44850Y37532D01*
X44714Y36500D01*
X44850Y35468D01*
X45248Y34507D01*
X45882Y33681D01*
X46707Y33047D01*
X47669Y32649D01*
X48701Y32513D01*
X49733Y32649D01*
X50694Y33047D01*
X51520Y33681D01*
X52153Y34507D01*
X52552Y35468D01*
X52688Y36500D01*
X52552Y37532D01*
X52153Y38493D01*
X51520Y39319D01*
X51125Y39622D01*
Y46500D01*
X51086Y46698D01*
X51524Y47058D01*
X52412Y46690D01*
X53676Y46524D01*
Y34904D01*
X49194Y30422D01*
X48701Y30487D01*
X47669Y30351D01*
X46707Y29953D01*
X45882Y29319D01*
X45248Y28493D01*
X44850Y27532D01*
X44714Y26500D01*
X44850Y25468D01*
X45248Y24507D01*
X45882Y23681D01*
X46276Y23378D01*
Y16500D01*
X46316Y16302D01*
X45877Y15942D01*
X44990Y16310D01*
X43701Y16480D01*
X42412Y16310D01*
X42347Y16283D01*
X41125Y17504D01*
Y23378D01*
X41520Y23681D01*
X42153Y24507D01*
X42552Y25468D01*
X42688Y26500D01*
X42552Y27532D01*
X42153Y28493D01*
X41520Y29319D01*
X40694Y29953D01*
X39733Y30351D01*
X38701Y30487D01*
X37669Y30351D01*
X36707Y29953D01*
X35882Y29319D01*
X35248Y28493D01*
X34850Y27532D01*
X34714Y26500D01*
X34850Y25468D01*
X35248Y24507D01*
X35882Y23681D01*
X36276Y23378D01*
Y16500D01*
X36316Y16302D01*
X35877Y15942D01*
X34990Y16310D01*
X33701Y16480D01*
X32412Y16310D01*
X31211Y15812D01*
X30180Y15021D01*
X29388Y13990D01*
X28891Y12789D01*
X28721Y11500D01*
X28891Y10211D01*
X29388Y9010D01*
X30180Y7979D01*
X31211Y7187D01*
X32412Y6690D01*
X33701Y6520D01*
X34990Y6690D01*
X36191Y7187D01*
X37222Y7979D01*
X38013Y9010D01*
X38430Y10017D01*
X38971D01*
X39388Y9010D01*
X40180Y7979D01*
X41211Y7187D01*
X42412Y6690D01*
X43701Y6520D01*
X44990Y6690D01*
X46191Y7187D01*
X47222Y7979D01*
X48013Y9010D01*
X48430Y10017D01*
X48971D01*
X49388Y9010D01*
X50180Y7979D01*
X51211Y7187D01*
X52412Y6690D01*
X53701Y6520D01*
X54990Y6690D01*
X56191Y7187D01*
X57222Y7979D01*
X58013Y9010D01*
X58511Y10211D01*
X58680Y11500D01*
X58511Y12789D01*
X58013Y13990D01*
X57222Y15021D01*
X56191Y15812D01*
X54990Y16310D01*
X53701Y16480D01*
X52412Y16310D01*
X52347Y16283D01*
X51125Y17504D01*
Y23378D01*
X51520Y23681D01*
X52153Y24507D01*
X52552Y25468D01*
X52688Y26500D01*
X52623Y26993D01*
X57815Y32185D01*
X58340Y32972D01*
X58525Y33900D01*
Y49100D01*
X58371Y49874D01*
X58511Y50211D01*
X58680Y51500D01*
X58511Y52789D01*
X58013Y53990D01*
X57222Y55021D01*
X56191Y55813D01*
X54990Y56310D01*
X53701Y56480D01*
D02*
G37*
%LPD*%
D11*
X5906Y62992D02*
X4880Y62902D01*
X3886Y62636D01*
X2953Y62201D01*
X2110Y61611D01*
X1382Y60883D01*
X791Y60039D01*
X356Y59106D01*
X90Y58112D01*
X0Y57087D01*
Y5906D02*
X90Y4880D01*
X356Y3886D01*
X791Y2953D01*
X1382Y2110D01*
X2110Y1382D01*
X2953Y791D01*
X3886Y356D01*
X4880Y90D01*
X5906Y0D01*
X223228D02*
X224254Y90D01*
X225248Y356D01*
X226181Y791D01*
X227024Y1382D01*
X227752Y2110D01*
X228343Y2953D01*
X228778Y3886D01*
X229044Y4880D01*
X229134Y5906D01*
Y57087D02*
X229044Y58112D01*
X228778Y59106D01*
X228343Y60039D01*
X227752Y60883D01*
X227024Y61611D01*
X226181Y62201D01*
X225248Y62636D01*
X224254Y62902D01*
X223228Y62992D01*
X5906Y0D02*
X223228D01*
X229134Y5906D02*
Y57087D01*
X5906Y62992D02*
X223228D01*
X0Y5906D02*
Y57087D01*
X189494Y35561D02*
X190433Y36500D01*
D16*
X195433Y51500D02*
X197833Y49100D01*
Y33900D02*
Y49100D01*
X190433Y26500D02*
X197833Y33900D01*
X190433Y16500D02*
Y26500D01*
Y16500D02*
X195433Y11500D01*
X180433Y16500D02*
Y26500D01*
Y16500D02*
X185433Y11500D01*
X180433Y36500D02*
Y46500D01*
X175433Y51500D02*
X180433Y46500D01*
X185433Y51500D02*
X190433Y46500D01*
Y36500D02*
Y46500D01*
X148189Y51500D02*
X150589Y49100D01*
Y33900D02*
Y49100D01*
X143189Y26500D02*
X150589Y33900D01*
X143189Y16500D02*
Y26500D01*
Y16500D02*
X148189Y11500D01*
X133189Y16500D02*
Y26500D01*
Y16500D02*
X138189Y11500D01*
X133189Y36500D02*
Y46500D01*
X128189Y51500D02*
X133189Y46500D01*
X138189Y51500D02*
X143189Y46500D01*
Y36500D02*
Y46500D01*
X100945Y51500D02*
X103345Y49100D01*
Y33900D02*
Y49100D01*
X95945Y26500D02*
X103345Y33900D01*
X95945Y16500D02*
Y26500D01*
Y16500D02*
X100945Y11500D01*
X85945Y16500D02*
Y26500D01*
Y16500D02*
X90945Y11500D01*
X85945Y36500D02*
Y46500D01*
X80945Y51500D02*
X85945Y46500D01*
X90945Y51500D02*
X95945Y46500D01*
Y36500D02*
Y46500D01*
X48701Y36500D02*
Y46500D01*
X43701Y51500D02*
X48701Y46500D01*
X33701Y51500D02*
X38701Y46500D01*
Y36500D02*
Y46500D01*
Y16500D02*
X43701Y11500D01*
X38701Y16500D02*
Y26500D01*
X48701Y16500D02*
X53701Y11500D01*
X48701Y16500D02*
Y26500D01*
X56100Y33900D01*
Y49100D01*
X53701Y51500D02*
X56100Y49100D01*
D17*
X90945Y51500D02*
D03*
Y11500D02*
D03*
X100945D02*
D03*
X80945D02*
D03*
Y51500D02*
D03*
X100945D02*
D03*
X138189D02*
D03*
Y11500D02*
D03*
X148189D02*
D03*
X128189D02*
D03*
Y51500D02*
D03*
X148189D02*
D03*
X43701D02*
D03*
Y11500D02*
D03*
X53701D02*
D03*
X33701D02*
D03*
Y51500D02*
D03*
X53701D02*
D03*
X185433D02*
D03*
Y11500D02*
D03*
X195433D02*
D03*
X175433D02*
D03*
Y51500D02*
D03*
X195433D02*
D03*
D18*
X48701Y26500D02*
D03*
X38701D02*
D03*
X48701Y36500D02*
D03*
X95945Y26500D02*
D03*
X85945D02*
D03*
X95945Y36500D02*
D03*
X143189Y26500D02*
D03*
X133189D02*
D03*
X143189Y36500D02*
D03*
X190433Y26500D02*
D03*
X180433D02*
D03*
X190433Y36500D02*
D03*
D19*
X38701D02*
D03*
X85945D02*
D03*
X133189D02*
D03*
X180433D02*
D03*
M02*
