G04*
G04 #@! TF.GenerationSoftware,Altium Limited,Altium Designer,20.1.8 (145)*
G04*
G04 Layer_Color=65535*
%FSLAX25Y25*%
%MOIN*%
G70*
G04*
G04 #@! TF.SameCoordinates,6776F504-3C08-431A-B1F5-C50581409E40*
G04*
G04*
G04 #@! TF.FilePolarity,Positive*
G04*
G01*
G75*
%ADD10C,0.00787*%
%ADD11C,0.01000*%
%ADD12C,0.00800*%
D10*
X53701Y21500D02*
Y41500D01*
X33701D02*
X53701D01*
X33701Y21500D02*
X53701D01*
X33701D02*
Y41500D01*
X100945Y21500D02*
Y41500D01*
X80945D02*
X100945D01*
X80945Y21500D02*
X100945D01*
X80945D02*
Y41500D01*
X148189Y21500D02*
Y41500D01*
X128189D02*
X148189D01*
X128189Y21500D02*
X148189D01*
X128189D02*
Y41500D01*
X195433Y21500D02*
Y41500D01*
X175433D02*
X195433D01*
X175433Y21500D02*
X195433D01*
X175433D02*
Y41500D01*
D11*
X31999Y25501D02*
X26001D01*
Y28500D01*
X27001Y29500D01*
X29000D01*
X30000Y28500D01*
Y25501D01*
X31999Y31499D02*
Y33499D01*
Y32499D01*
X26001D01*
X27001Y31499D01*
X78999Y25502D02*
X73001D01*
Y28501D01*
X74001Y29500D01*
X76000D01*
X77000Y28501D01*
Y25502D01*
X78999Y35498D02*
Y31500D01*
X75000Y35498D01*
X74001D01*
X73001Y34499D01*
Y32499D01*
X74001Y31500D01*
X125999Y26002D02*
X120001D01*
Y29001D01*
X121001Y30000D01*
X123000D01*
X124000Y29001D01*
Y26002D01*
X121001Y32000D02*
X120001Y32999D01*
Y34999D01*
X121001Y35998D01*
X122000D01*
X123000Y34999D01*
Y33999D01*
Y34999D01*
X124000Y35998D01*
X124999D01*
X125999Y34999D01*
Y32999D01*
X124999Y32000D01*
X172999Y26002D02*
X167001D01*
Y29001D01*
X168001Y30000D01*
X170000D01*
X171000Y29001D01*
Y26002D01*
X172999Y34999D02*
X167001D01*
X170000Y32000D01*
Y35998D01*
D12*
X36701Y44500D02*
Y42834D01*
Y43667D01*
X41699D01*
X40866Y44500D01*
X46701Y43168D02*
Y46500D01*
X50033Y43168D01*
X50866D01*
X51699Y44001D01*
Y45667D01*
X50866Y46500D01*
X46701Y18001D02*
X51699D01*
X49200Y20500D01*
Y17168D01*
X40866Y20500D02*
X41699Y19667D01*
Y18001D01*
X40866Y17168D01*
X40033D01*
X39200Y18001D01*
Y18834D01*
Y18001D01*
X38367Y17168D01*
X37534D01*
X36701Y18001D01*
Y19667D01*
X37534Y20500D01*
X83945Y44500D02*
Y42834D01*
Y43667D01*
X88943D01*
X88110Y44500D01*
X93945Y43168D02*
Y46500D01*
X97277Y43168D01*
X98110D01*
X98943Y44001D01*
Y45667D01*
X98110Y46500D01*
X93945Y18001D02*
X98943D01*
X96444Y20500D01*
Y17168D01*
X88110Y20500D02*
X88943Y19667D01*
Y18001D01*
X88110Y17168D01*
X87277D01*
X86444Y18001D01*
Y18834D01*
Y18001D01*
X85611Y17168D01*
X84778D01*
X83945Y18001D01*
Y19667D01*
X84778Y20500D01*
X131189Y44500D02*
Y42834D01*
Y43667D01*
X136187D01*
X135354Y44500D01*
X141189Y43168D02*
Y46500D01*
X144521Y43168D01*
X145354D01*
X146187Y44001D01*
Y45667D01*
X145354Y46500D01*
X141189Y18001D02*
X146187D01*
X143688Y20500D01*
Y17168D01*
X135354Y20500D02*
X136187Y19667D01*
Y18001D01*
X135354Y17168D01*
X134521D01*
X133688Y18001D01*
Y18834D01*
Y18001D01*
X132855Y17168D01*
X132022D01*
X131189Y18001D01*
Y19667D01*
X132022Y20500D01*
X182598D02*
X183431Y19667D01*
Y18001D01*
X182598Y17168D01*
X181765D01*
X180932Y18001D01*
Y18834D01*
Y18001D01*
X180099Y17168D01*
X179266D01*
X178433Y18001D01*
Y19667D01*
X179266Y20500D01*
X188433Y18001D02*
X193431D01*
X190932Y20500D01*
Y17168D01*
X188433Y43168D02*
Y46500D01*
X191765Y43168D01*
X192598D01*
X193431Y44001D01*
Y45667D01*
X192598Y46500D01*
X178433Y44500D02*
Y42834D01*
Y43667D01*
X183431D01*
X182598Y44500D01*
M02*
