M48
;Layer_Color=9474304
;FILE_FORMAT=2:5
INCH,TZ
;TYPE=PLATED
T1F00S00C0.00394
T2F00S00C0.01181
T3F00S00C0.03543
T4F00S00C0.09055
%
T01
X328500Y282500
X327000Y292000
Y294000
X335665Y292000
X330500Y302500
X301500Y244000
X302353Y211001
X278500Y257000
X270000
X250500Y253000
X231500
X235500Y262000
X237500Y277000
X227000
Y286989
X230000Y284500
X217000Y281500
Y277500
Y264500
Y259000
X191500Y255000
X193500Y249500
X196000Y245500
X193500Y242016
X178858Y242483
X180453Y232953
X193390Y223110
X197500Y218500
X196000Y196104
X193500Y196158
X191000Y195996
X177000Y196000
X173000
X177000Y190000
X182000Y203000
X169000Y204500
X170993Y208509
X167047Y209547
X165027Y209527
X161142Y217517
X157517Y238858
X161142Y255175
X163000Y253500
X161142Y259142
X165000Y264000
X167047Y263953
X169500Y260000
X170000Y257000
X172953Y251453
X169500Y277000
X167047Y275516
X165000
X163962Y289090
X179502Y290002
X183001Y290001
X186501
X217000Y210000
X231500Y206000
X235201
X155295Y198500
X146000Y207728
X142608
Y213984
X146000
X134500Y217500
X133000Y216000
X132222Y210516
X123270Y225000
X142500Y228500
X144500Y231000
X148500Y227000
X154500Y246500
X152556Y251696
X144499Y251696
X139931Y253861
X131999Y270001
X105000Y283500
X102000
X106500Y285500
X130500Y313000
X135476Y333630
X138000Y339000
X143000Y346000
X151976Y333630
X156122Y315493
X123000Y340000
X114713Y364847
X140000Y371000
X116020Y400500
X123874Y413374
X123898Y435402
X131020Y441000
X147520
X123874Y454902
X171130Y454913
X171142Y435402
X171118Y411926
X183634Y389134
X159925Y378424
X160000Y375500
X269472Y386378
X267067Y389067
X273500Y400500
X281379Y435402
X288500Y441000
X305000
X310000Y461500
X300000
X281354Y454902
X328610Y454913
X328623Y435402
Y411902
X319000Y364000
X297000Y518500
X248500Y528000
X193000Y520189
X145311
T02
X342815Y215868
X244537Y208463
X272500Y287925
X193000Y290000
Y299000
X108000Y385000
Y392530
X186319Y375681
X226500
X174000Y335000
X169768Y520189
X197544Y510000
X217012Y520189
X244782Y510000
X264256Y520189
X292098Y510000
X311500Y520189
X150305Y510000
T03
X332579Y200079
X342579
X343000Y278000
Y288000
Y308000
X261236Y333425
X251236
X241236
X231236
X221236
X211236
X201236
X191236
X343000Y338000
Y328000
Y318000
X261236Y494842
X251236
X241236
X231236
X221236
X211236
X201236
X191236
T04
X336472Y255079
X116000
X336472Y485000
X116000
M30
