G04*
G04 #@! TF.GenerationSoftware,Altium Limited,Altium Designer,20.1.8 (145)*
G04*
G04 Layer_Color=8388736*
%FSLAX25Y25*%
%MOIN*%
G70*
G04*
G04 #@! TF.SameCoordinates,CC740219-02E3-49CA-8287-50D337AD25DE*
G04*
G04*
G04 #@! TF.FilePolarity,Negative*
G04*
G01*
G75*
%ADD18R,0.11036X0.05131*%
%ADD19R,0.07493X0.05131*%
%ADD20R,0.05800X0.13320*%
G04:AMPARAMS|DCode=21|XSize=90.68mil|YSize=62.33mil|CornerRadius=8.07mil|HoleSize=0mil|Usage=FLASHONLY|Rotation=0.000|XOffset=0mil|YOffset=0mil|HoleType=Round|Shape=RoundedRectangle|*
%AMROUNDEDRECTD21*
21,1,0.09068,0.04618,0,0,0.0*
21,1,0.07453,0.06233,0,0,0.0*
1,1,0.01615,0.03726,-0.02309*
1,1,0.01615,-0.03726,-0.02309*
1,1,0.01615,-0.03726,0.02309*
1,1,0.01615,0.03726,0.02309*
%
%ADD21ROUNDEDRECTD21*%
%ADD22C,0.20485*%
%ADD23C,0.06706*%
%ADD24R,0.06706X0.06706*%
%ADD25R,0.06706X0.06706*%
%ADD26C,0.01981*%
%ADD27C,0.03162*%
%ADD28C,0.02769*%
D18*
X281354Y416693D02*
D03*
Y427323D02*
D03*
X328598Y416693D02*
D03*
Y427323D02*
D03*
Y450945D02*
D03*
Y440315D02*
D03*
X281354Y450945D02*
D03*
Y440315D02*
D03*
X123874Y450945D02*
D03*
Y440315D02*
D03*
X171118Y450945D02*
D03*
Y440315D02*
D03*
Y416693D02*
D03*
Y427323D02*
D03*
X123874Y416693D02*
D03*
Y427323D02*
D03*
X342815Y230010D02*
D03*
Y219380D02*
D03*
D19*
X255961Y276142D02*
D03*
Y265512D02*
D03*
Y304882D02*
D03*
Y315512D02*
D03*
X316000Y260685D02*
D03*
Y271315D02*
D03*
X196906Y276142D02*
D03*
Y265512D02*
D03*
X255961Y244646D02*
D03*
Y234016D02*
D03*
D20*
X150366Y520189D02*
D03*
X160366D02*
D03*
X207610D02*
D03*
X197610D02*
D03*
X244854D02*
D03*
X254854D02*
D03*
X302098D02*
D03*
X292098D02*
D03*
D21*
X303205Y279646D02*
D03*
Y262008D02*
D03*
X267378Y279646D02*
D03*
Y262008D02*
D03*
X244150Y319016D02*
D03*
Y301378D02*
D03*
X208323Y319016D02*
D03*
Y301378D02*
D03*
X185095Y279646D02*
D03*
Y262008D02*
D03*
X149268Y279646D02*
D03*
Y262008D02*
D03*
X244150Y279646D02*
D03*
Y262008D02*
D03*
X208323Y279646D02*
D03*
Y262008D02*
D03*
X244150Y248150D02*
D03*
Y230512D02*
D03*
X208323Y248150D02*
D03*
Y230512D02*
D03*
D22*
X336472Y485000D02*
D03*
Y255079D02*
D03*
X116000Y485000D02*
D03*
Y255079D02*
D03*
D23*
X261236Y494842D02*
D03*
X251236D02*
D03*
X241236D02*
D03*
X231236D02*
D03*
X221236D02*
D03*
X211236D02*
D03*
X201236D02*
D03*
X261236Y333425D02*
D03*
X251236D02*
D03*
X241236D02*
D03*
X231236D02*
D03*
X221236D02*
D03*
X211236D02*
D03*
X201236D02*
D03*
X332579Y200079D02*
D03*
X343000Y308000D02*
D03*
Y318000D02*
D03*
Y328000D02*
D03*
Y288000D02*
D03*
D24*
X191236Y494842D02*
D03*
Y333425D02*
D03*
X342579Y200079D02*
D03*
D25*
X343000Y338000D02*
D03*
Y278000D02*
D03*
D26*
X302353Y211001D02*
D03*
X217000Y210000D02*
D03*
X335665Y292000D02*
D03*
X328500Y282500D02*
D03*
X327000Y294000D02*
D03*
X330500Y302500D02*
D03*
X327000Y292000D02*
D03*
X123270Y225000D02*
D03*
X131999Y270001D02*
D03*
X139931Y253861D02*
D03*
X132222Y210516D02*
D03*
X146000Y207728D02*
D03*
X142608D02*
D03*
X146000Y213984D02*
D03*
X142608D02*
D03*
X105000Y283500D02*
D03*
X102000D02*
D03*
X177000Y190000D02*
D03*
X114713Y364847D02*
D03*
X106500Y285500D02*
D03*
X269472Y386378D02*
D03*
X160000Y375500D02*
D03*
X159925Y378424D02*
D03*
X151976Y333630D02*
D03*
X138000Y339000D02*
D03*
X123000Y340000D02*
D03*
X156122Y315493D02*
D03*
X328623Y435402D02*
D03*
X130500Y313000D02*
D03*
X135476Y333630D02*
D03*
X143000Y346000D02*
D03*
X140000Y371000D02*
D03*
X183634Y389134D02*
D03*
X267067Y389067D02*
D03*
X171118Y411926D02*
D03*
X123874Y413374D02*
D03*
X145311Y520189D02*
D03*
X193000D02*
D03*
X171142Y435402D02*
D03*
X310000Y461500D02*
D03*
X248500Y528000D02*
D03*
X300000Y461500D02*
D03*
X297000Y518500D02*
D03*
X281354Y454902D02*
D03*
X319000Y364000D02*
D03*
X116020Y400500D02*
D03*
X273500D02*
D03*
X328623Y411902D02*
D03*
X171130Y454913D02*
D03*
X123874Y454902D02*
D03*
X123898Y435402D02*
D03*
X281379D02*
D03*
X328610Y454913D02*
D03*
X227000Y286989D02*
D03*
X230000Y284500D02*
D03*
X231500Y253000D02*
D03*
X235500Y262000D02*
D03*
X237500Y277000D02*
D03*
X186501Y290001D02*
D03*
X183001D02*
D03*
X179502Y290002D02*
D03*
X250500Y253000D02*
D03*
X270000Y257000D02*
D03*
X278500D02*
D03*
X217000Y259000D02*
D03*
X191500Y255000D02*
D03*
X169500Y260000D02*
D03*
X170000Y257000D02*
D03*
X301500Y244000D02*
D03*
X170993Y208509D02*
D03*
X169500Y277000D02*
D03*
X165000Y275516D02*
D03*
X167047D02*
D03*
Y263953D02*
D03*
X163000Y253500D02*
D03*
X165000Y264000D02*
D03*
X161142Y259142D02*
D03*
X134500Y217500D02*
D03*
X163962Y289090D02*
D03*
X133000Y216000D02*
D03*
X155295Y198500D02*
D03*
X169000Y204500D02*
D03*
X165027Y209527D02*
D03*
X167047Y209547D02*
D03*
X182000Y203000D02*
D03*
X191000Y195996D02*
D03*
X193500Y196158D02*
D03*
X196000Y196104D02*
D03*
X235201Y206000D02*
D03*
X231500D02*
D03*
X217000Y264500D02*
D03*
X173000Y196000D02*
D03*
X177000D02*
D03*
X197500Y218500D02*
D03*
X196000Y245500D02*
D03*
X193500Y242016D02*
D03*
Y249500D02*
D03*
X217000Y281500D02*
D03*
Y277500D02*
D03*
X172953Y251453D02*
D03*
X227000Y277000D02*
D03*
X152556Y251696D02*
D03*
X142500Y228500D02*
D03*
X144499Y251696D02*
D03*
X148500Y227000D02*
D03*
X193390Y223110D02*
D03*
X161142Y255175D02*
D03*
X144500Y231000D02*
D03*
X154500Y246500D02*
D03*
X157517Y238858D02*
D03*
X180453Y232953D02*
D03*
X161142Y217517D02*
D03*
X147520Y441000D02*
D03*
X131020D02*
D03*
X288500D02*
D03*
X305000D02*
D03*
X178858Y242483D02*
D03*
D27*
X244537Y208463D02*
D03*
X169768Y520189D02*
D03*
X217012D02*
D03*
X264256D02*
D03*
X311500D02*
D03*
X226500Y375681D02*
D03*
X186319D02*
D03*
X174000Y335000D02*
D03*
X108000Y392530D02*
D03*
X197544Y510000D02*
D03*
X150305Y510000D02*
D03*
X244782D02*
D03*
X292098Y510000D02*
D03*
X108000Y385000D02*
D03*
X193000Y299000D02*
D03*
Y290000D02*
D03*
X272500Y287925D02*
D03*
D28*
X342815Y215868D02*
D03*
M02*
