G04*
G04 #@! TF.GenerationSoftware,Altium Limited,Altium Designer,20.1.8 (145)*
G04*
G04 Layer_Color=128*
%FSLAX25Y25*%
%MOIN*%
G70*
G04*
G04 #@! TF.SameCoordinates,CC740219-02E3-49CA-8287-50D337AD25DE*
G04*
G04*
G04 #@! TF.FilePolarity,Positive*
G04*
G01*
G75*
%ADD14R,0.10236X0.04331*%
%ADD15R,0.06693X0.04331*%
%ADD16R,0.05000X0.12520*%
G04:AMPARAMS|DCode=40|XSize=82.68mil|YSize=54.33mil|CornerRadius=4.08mil|HoleSize=0mil|Usage=FLASHONLY|Rotation=270.000|XOffset=0mil|YOffset=0mil|HoleType=Round|Shape=RoundedRectangle|*
%AMROUNDEDRECTD40*
21,1,0.08268,0.04618,0,0,270.0*
21,1,0.07453,0.05433,0,0,270.0*
1,1,0.00815,-0.02309,-0.03726*
1,1,0.00815,-0.02309,0.03726*
1,1,0.00815,0.02309,0.03726*
1,1,0.00815,0.02309,-0.03726*
%
%ADD40ROUNDEDRECTD40*%
%ADD41R,0.04331X0.10236*%
%ADD42R,0.18819X0.12402*%
%ADD43R,0.02000X0.07800*%
%ADD44R,0.12992X0.09449*%
G04:AMPARAMS|DCode=45|XSize=51.18mil|YSize=23.23mil|CornerRadius=5.81mil|HoleSize=0mil|Usage=FLASHONLY|Rotation=180.000|XOffset=0mil|YOffset=0mil|HoleType=Round|Shape=RoundedRectangle|*
%AMROUNDEDRECTD45*
21,1,0.05118,0.01161,0,0,180.0*
21,1,0.03957,0.02323,0,0,180.0*
1,1,0.01161,-0.01978,0.00581*
1,1,0.01161,0.01978,0.00581*
1,1,0.01161,0.01978,-0.00581*
1,1,0.01161,-0.01978,-0.00581*
%
%ADD45ROUNDEDRECTD45*%
%ADD46R,0.08300X0.22000*%
G04:AMPARAMS|DCode=47|XSize=127.56mil|YSize=51.58mil|CornerRadius=3.87mil|HoleSize=0mil|Usage=FLASHONLY|Rotation=270.000|XOffset=0mil|YOffset=0mil|HoleType=Round|Shape=RoundedRectangle|*
%AMROUNDEDRECTD47*
21,1,0.12756,0.04384,0,0,270.0*
21,1,0.11982,0.05158,0,0,270.0*
1,1,0.00774,-0.02192,-0.05991*
1,1,0.00774,-0.02192,0.05991*
1,1,0.00774,0.02192,0.05991*
1,1,0.00774,0.02192,-0.05991*
%
%ADD47ROUNDEDRECTD47*%
G04:AMPARAMS|DCode=48|XSize=36.61mil|YSize=51.58mil|CornerRadius=2.75mil|HoleSize=0mil|Usage=FLASHONLY|Rotation=270.000|XOffset=0mil|YOffset=0mil|HoleType=Round|Shape=RoundedRectangle|*
%AMROUNDEDRECTD48*
21,1,0.03661,0.04608,0,0,270.0*
21,1,0.03112,0.05158,0,0,270.0*
1,1,0.00549,-0.02304,-0.01556*
1,1,0.00549,-0.02304,0.01556*
1,1,0.00549,0.02304,0.01556*
1,1,0.00549,0.02304,-0.01556*
%
%ADD48ROUNDEDRECTD48*%
G04:AMPARAMS|DCode=49|XSize=11.02mil|YSize=61.42mil|CornerRadius=2.76mil|HoleSize=0mil|Usage=FLASHONLY|Rotation=180.000|XOffset=0mil|YOffset=0mil|HoleType=Round|Shape=RoundedRectangle|*
%AMROUNDEDRECTD49*
21,1,0.01102,0.05591,0,0,180.0*
21,1,0.00551,0.06142,0,0,180.0*
1,1,0.00551,-0.00276,0.02795*
1,1,0.00551,0.00276,0.02795*
1,1,0.00551,0.00276,-0.02795*
1,1,0.00551,-0.00276,-0.02795*
%
%ADD49ROUNDEDRECTD49*%
G04:AMPARAMS|DCode=50|XSize=11.02mil|YSize=61.42mil|CornerRadius=2.76mil|HoleSize=0mil|Usage=FLASHONLY|Rotation=90.000|XOffset=0mil|YOffset=0mil|HoleType=Round|Shape=RoundedRectangle|*
%AMROUNDEDRECTD50*
21,1,0.01102,0.05591,0,0,90.0*
21,1,0.00551,0.06142,0,0,90.0*
1,1,0.00551,0.02795,0.00276*
1,1,0.00551,0.02795,-0.00276*
1,1,0.00551,-0.02795,-0.00276*
1,1,0.00551,-0.02795,0.00276*
%
%ADD50ROUNDEDRECTD50*%
%ADD51R,0.04331X0.06693*%
%ADD52R,0.03347X0.02362*%
G04:AMPARAMS|DCode=53|XSize=47.64mil|YSize=23.23mil|CornerRadius=5.81mil|HoleSize=0mil|Usage=FLASHONLY|Rotation=270.000|XOffset=0mil|YOffset=0mil|HoleType=Round|Shape=RoundedRectangle|*
%AMROUNDEDRECTD53*
21,1,0.04764,0.01161,0,0,270.0*
21,1,0.03602,0.02323,0,0,270.0*
1,1,0.01161,-0.00581,-0.01801*
1,1,0.01161,-0.00581,0.01801*
1,1,0.01161,0.00581,0.01801*
1,1,0.01161,0.00581,-0.01801*
%
%ADD53ROUNDEDRECTD53*%
D14*
X274000Y368185D02*
D03*
Y378815D02*
D03*
X171118Y399764D02*
D03*
Y389134D02*
D03*
X123874Y399764D02*
D03*
Y389134D02*
D03*
X281354Y399764D02*
D03*
Y389134D02*
D03*
X328598Y399764D02*
D03*
Y389134D02*
D03*
X263000Y254685D02*
D03*
Y265315D02*
D03*
X263000Y283815D02*
D03*
Y273185D02*
D03*
X132000Y275315D02*
D03*
Y264685D02*
D03*
X244507Y214000D02*
D03*
Y224630D02*
D03*
X279500Y208685D02*
D03*
Y219315D02*
D03*
X272500Y202315D02*
D03*
Y191685D02*
D03*
X319000Y379315D02*
D03*
Y368685D02*
D03*
X278000Y359815D02*
D03*
Y349185D02*
D03*
X310500Y235685D02*
D03*
Y246315D02*
D03*
Y214685D02*
D03*
Y225315D02*
D03*
D15*
X285500Y368185D02*
D03*
Y378815D02*
D03*
X144500Y234685D02*
D03*
Y245315D02*
D03*
X158437Y333630D02*
D03*
Y323000D02*
D03*
X257500Y234815D02*
D03*
Y224185D02*
D03*
X281354Y440315D02*
D03*
Y450945D02*
D03*
X123874Y440315D02*
D03*
Y450945D02*
D03*
X203000Y245815D02*
D03*
Y235185D02*
D03*
X203000Y218685D02*
D03*
Y229315D02*
D03*
D16*
X160366Y520189D02*
D03*
X150366D02*
D03*
X197610D02*
D03*
X207610D02*
D03*
X254854D02*
D03*
X244854D02*
D03*
X292098D02*
D03*
X302098D02*
D03*
X160366D02*
D03*
X150366D02*
D03*
X197610D02*
D03*
X207610D02*
D03*
X254854D02*
D03*
X244854D02*
D03*
X292098D02*
D03*
X302098D02*
D03*
D40*
X107681Y204087D02*
D03*
X125319D02*
D03*
X107681Y239913D02*
D03*
X125319D02*
D03*
D41*
X143685Y357000D02*
D03*
X154315D02*
D03*
X333685Y239000D02*
D03*
X344315D02*
D03*
X156185Y297000D02*
D03*
X166815D02*
D03*
X117315Y296500D02*
D03*
X106685D02*
D03*
X128815Y357000D02*
D03*
X118185D02*
D03*
D42*
X226500Y477000D02*
D03*
Y354795D02*
D03*
D43*
X132496Y435930D02*
D03*
X137496D02*
D03*
X142496D02*
D03*
X147496D02*
D03*
X152496D02*
D03*
X157496D02*
D03*
X162496D02*
D03*
Y455330D02*
D03*
X157496D02*
D03*
X152496D02*
D03*
X147496D02*
D03*
X142496D02*
D03*
X137496D02*
D03*
X132496D02*
D03*
X289976D02*
D03*
X294976D02*
D03*
X299976D02*
D03*
X304976D02*
D03*
X309976D02*
D03*
X314976D02*
D03*
X319976D02*
D03*
Y435930D02*
D03*
X314976D02*
D03*
X309976D02*
D03*
X304976D02*
D03*
X299976D02*
D03*
X294976D02*
D03*
X289976D02*
D03*
X150500Y338700D02*
D03*
X145500D02*
D03*
X140500D02*
D03*
X135500D02*
D03*
X130500D02*
D03*
X125500D02*
D03*
X120500D02*
D03*
Y319300D02*
D03*
X125500D02*
D03*
X130500D02*
D03*
X135500D02*
D03*
X140500D02*
D03*
X145500D02*
D03*
X150500D02*
D03*
D44*
X174000Y348319D02*
D03*
Y375681D02*
D03*
D45*
X242965Y274760D02*
D03*
Y282240D02*
D03*
X251035Y278500D02*
D03*
X249035Y263740D02*
D03*
Y256260D02*
D03*
X240965Y260000D02*
D03*
X283965Y195500D02*
D03*
X292035Y191760D02*
D03*
Y199240D02*
D03*
D46*
X225000Y250700D02*
D03*
Y213300D02*
D03*
D47*
X268500Y237500D02*
D03*
D48*
X294838Y228484D02*
D03*
Y237500D02*
D03*
Y246516D02*
D03*
D49*
X169016Y246457D02*
D03*
X170984D02*
D03*
X174921D02*
D03*
X176890D02*
D03*
X180827Y213543D02*
D03*
X178858D02*
D03*
X176890D02*
D03*
X174921D02*
D03*
X172953D02*
D03*
X170984D02*
D03*
X169016D02*
D03*
X167047D02*
D03*
X165079D02*
D03*
X163110D02*
D03*
X161142D02*
D03*
X159173D02*
D03*
Y246457D02*
D03*
X161142D02*
D03*
X163110D02*
D03*
X165079D02*
D03*
X167047D02*
D03*
X172953D02*
D03*
X178858D02*
D03*
X180827D02*
D03*
D50*
X186457Y240827D02*
D03*
Y238858D02*
D03*
Y236890D02*
D03*
Y234921D02*
D03*
Y232953D02*
D03*
Y230984D02*
D03*
Y229016D02*
D03*
Y227047D02*
D03*
Y225079D02*
D03*
Y223110D02*
D03*
Y221142D02*
D03*
Y219173D02*
D03*
X153543D02*
D03*
Y221142D02*
D03*
Y223110D02*
D03*
Y225079D02*
D03*
Y227047D02*
D03*
Y229016D02*
D03*
Y230984D02*
D03*
Y232953D02*
D03*
Y234921D02*
D03*
Y236890D02*
D03*
Y238858D02*
D03*
Y240827D02*
D03*
D51*
X201185Y210000D02*
D03*
X211815D02*
D03*
X166815Y309000D02*
D03*
X156185D02*
D03*
X165315Y204500D02*
D03*
X154685D02*
D03*
X184315Y257000D02*
D03*
X173685D02*
D03*
X342815Y210500D02*
D03*
X332185D02*
D03*
X111185Y192000D02*
D03*
X121815D02*
D03*
X106685Y308500D02*
D03*
X117315D02*
D03*
X128815Y371000D02*
D03*
X118185D02*
D03*
X154315D02*
D03*
X143685D02*
D03*
D52*
X268732Y217740D02*
D03*
Y210260D02*
D03*
X260268Y214000D02*
D03*
X297232Y354500D02*
D03*
X288768Y358240D02*
D03*
Y350760D02*
D03*
D53*
X298260Y369059D02*
D03*
X305740D02*
D03*
Y378941D02*
D03*
X302000D02*
D03*
X298260D02*
D03*
M02*
