G04*
G04 #@! TF.GenerationSoftware,Altium Limited,Altium Designer,20.1.8 (145)*
G04*
G04 Layer_Color=16711935*
%FSLAX25Y25*%
%MOIN*%
G70*
G04*
G04 #@! TF.SameCoordinates,CC740219-02E3-49CA-8287-50D337AD25DE*
G04*
G04*
G04 #@! TF.FilePolarity,Positive*
G04*
G01*
G75*
%ADD10C,0.00787*%
%ADD12C,0.00500*%
%ADD72C,0.01575*%
%ADD75C,0.00394*%
%ADD76C,0.00000*%
D10*
X238472Y274610D02*
X237685D01*
X238472D01*
X254315Y263890D02*
X253528D01*
X254315D01*
X297315Y199390D02*
X296528D01*
X297315D01*
X298260Y383488D02*
X297472D01*
X298260D01*
X187505Y247107D02*
X186914Y247697D01*
X186323Y247107D01*
X186914Y246516D01*
X187505Y247107D01*
D12*
X104689Y210189D02*
Y233811D01*
X128311D01*
Y210189D02*
Y233811D01*
X104689Y210189D02*
X128311D01*
X189000Y362157D02*
Y469638D01*
X264000D01*
Y362157D02*
Y469638D01*
X189000Y362157D02*
X264000D01*
X249756Y272516D02*
Y284484D01*
X244244D02*
X249756D01*
X244244Y272516D02*
Y284484D01*
Y272516D02*
X249756D01*
X288992Y224272D02*
Y250728D01*
X274346Y224272D02*
X288992D01*
X274346D02*
Y250728D01*
X288992D01*
X242244Y254016D02*
Y265984D01*
Y254016D02*
X247756D01*
Y265984D01*
X242244D02*
X247756D01*
X155827Y244173D02*
X184173D01*
X155827Y215827D02*
Y244173D01*
Y215827D02*
X184173D01*
Y244173D01*
X285244Y201484D02*
X290756D01*
Y189516D02*
Y201484D01*
X285244Y189516D02*
X290756D01*
X285244D02*
Y201484D01*
X307709Y370850D02*
Y377150D01*
X296291Y370850D02*
Y377150D01*
Y370850D02*
X307709D01*
X296291Y377150D02*
X307709D01*
X273480Y282638D02*
X297102D01*
X273480Y259016D02*
Y282638D01*
Y259016D02*
X297102D01*
Y282638D01*
X214425Y322008D02*
X238047D01*
X214425Y298386D02*
Y322008D01*
Y298386D02*
X238047D01*
Y322008D01*
X155370Y282638D02*
X178992D01*
X155370Y259016D02*
Y282638D01*
Y259016D02*
X178992D01*
Y282638D01*
X214425D02*
X238047D01*
X214425Y259016D02*
Y282638D01*
Y259016D02*
X238047D01*
Y282638D01*
X214425Y251142D02*
X238047D01*
X214425Y227520D02*
Y251142D01*
Y227520D02*
X238047D01*
Y251142D01*
D72*
X227287Y343555D02*
X226743Y344304D01*
X225863Y344018D01*
Y343092D01*
X226743Y342806D01*
X227287Y343555D01*
D75*
X142405Y351803D02*
Y362197D01*
X155594Y351803D02*
Y362197D01*
X142405Y351803D02*
X155594D01*
X142405Y362197D02*
X155594D01*
X279197Y366906D02*
Y380094D01*
X268803Y366906D02*
Y380094D01*
Y366906D02*
X279197D01*
X268803Y380094D02*
X279197D01*
X281957Y366807D02*
X289043D01*
X281957Y380193D02*
X289043D01*
Y366807D02*
Y380193D01*
X281957Y366807D02*
Y380193D01*
X165921Y387854D02*
Y401043D01*
X176315Y387854D02*
Y401043D01*
X165921D02*
X176315D01*
X165921Y387854D02*
X176315D01*
X118677D02*
Y401043D01*
X129071Y387854D02*
Y401043D01*
X118677D02*
X129071D01*
X118677Y387854D02*
X129071D01*
X276157D02*
Y401043D01*
X286551Y387854D02*
Y401043D01*
X276157D02*
X286551D01*
X276157Y387854D02*
X286551D01*
X333795D02*
Y401043D01*
X323402Y387854D02*
Y401043D01*
Y387854D02*
X333795D01*
X323402Y401043D02*
X333795D01*
X276157Y415413D02*
X286551D01*
X276157Y428602D02*
X286551D01*
X276157Y415413D02*
Y428602D01*
X286551Y415413D02*
Y428602D01*
X323402Y415413D02*
X333795D01*
X323402Y428602D02*
X333795D01*
X323402Y415413D02*
Y428602D01*
X333795Y415413D02*
Y428602D01*
Y439036D02*
Y452224D01*
X323402Y439036D02*
Y452224D01*
X333795D01*
X323402Y439036D02*
X333795D01*
X286551D02*
Y452224D01*
X276157Y439036D02*
Y452224D01*
X286551D01*
X276157Y439036D02*
X286551D01*
X129071D02*
Y452224D01*
X118677Y439036D02*
Y452224D01*
X129071D01*
X118677Y439036D02*
X129071D01*
X176315D02*
Y452224D01*
X165921Y439036D02*
Y452224D01*
X176315D01*
X165921Y439036D02*
X176315D01*
X165921Y415413D02*
X176315D01*
X165921Y428602D02*
X176315D01*
X165921Y415413D02*
Y428602D01*
X176315Y415413D02*
Y428602D01*
X118677Y415413D02*
X129071D01*
X118677Y428602D02*
X129071D01*
X118677Y415413D02*
Y428602D01*
X129071Y415413D02*
Y428602D01*
X257803Y253406D02*
X268197D01*
X257803Y266594D02*
X268197D01*
Y253406D02*
Y266594D01*
X257803Y253406D02*
Y266594D01*
X257803Y285094D02*
X268197D01*
X257803Y271905D02*
X268197D01*
X257803D02*
Y285094D01*
X268197Y271905D02*
Y285094D01*
X140957Y233307D02*
X148043D01*
X140957Y246693D02*
X148043D01*
Y233307D02*
Y246693D01*
X140957Y233307D02*
Y246693D01*
X126803Y276594D02*
X137197D01*
X126803Y263405D02*
X137197D01*
X126803D02*
Y276594D01*
X137197Y263405D02*
Y276594D01*
X154894Y335008D02*
X161980D01*
X154894Y321622D02*
X161980D01*
X154894D02*
Y335008D01*
X161980Y321622D02*
Y335008D01*
X239310Y212720D02*
X249704D01*
X239310Y225909D02*
X249704D01*
Y212720D02*
Y225909D01*
X239310Y212720D02*
Y225909D01*
X199807Y206457D02*
X213193D01*
X199807Y213543D02*
X213193D01*
X199807Y206457D02*
Y213543D01*
X213193Y206457D02*
Y213543D01*
X337618Y231290D02*
X348012D01*
X337618Y218101D02*
X348012D01*
Y231290D01*
X337618Y218101D02*
Y231290D01*
X168193Y305457D02*
Y312543D01*
X154807Y305457D02*
Y312543D01*
X168193D01*
X154807Y305457D02*
X168193D01*
X332406Y233803D02*
Y244197D01*
X345594Y233803D02*
Y244197D01*
X332406Y233803D02*
X345594D01*
X332406Y244197D02*
X345594D01*
X284697Y207406D02*
Y220594D01*
X274303Y207406D02*
Y220594D01*
Y207406D02*
X284697D01*
X274303Y220594D02*
X284697D01*
X267303Y190406D02*
Y203594D01*
X277697Y190406D02*
Y203594D01*
X267303D02*
X277697D01*
X267303Y190406D02*
X277697D01*
X267256Y208095D02*
Y219905D01*
X261744Y208095D02*
Y219905D01*
X267256D01*
X261744Y208095D02*
X267256D01*
X166693Y200957D02*
Y208043D01*
X153307Y200957D02*
Y208043D01*
X166693D01*
X153307Y200957D02*
X166693D01*
X172307Y260543D02*
X185693D01*
X172307Y253457D02*
X185693D01*
Y260543D01*
X172307Y253457D02*
Y260543D01*
X290244Y360405D02*
X295756D01*
X290244Y348594D02*
X295756D01*
Y360405D01*
X290244Y348594D02*
Y360405D01*
X313803Y380594D02*
X324197D01*
X313803Y367406D02*
X324197D01*
X313803D02*
Y380594D01*
X324197Y367406D02*
Y380594D01*
X259504Y264134D02*
Y277520D01*
X252417Y264134D02*
Y277520D01*
X259504D01*
X252417Y264134D02*
X259504D01*
X344193Y206957D02*
Y214043D01*
X330807Y206957D02*
Y214043D01*
X344193D01*
X330807Y206957D02*
X344193D01*
X252417Y303504D02*
X259504D01*
X252417Y316890D02*
X259504D01*
X252417Y303504D02*
Y316890D01*
X259504Y303504D02*
Y316890D01*
X272803Y361094D02*
X283197D01*
X272803Y347906D02*
X283197D01*
X272803D02*
Y361094D01*
X283197Y347906D02*
Y361094D01*
X109807Y188457D02*
Y195543D01*
X123193Y188457D02*
Y195543D01*
X109807Y188457D02*
X123193D01*
X109807Y195543D02*
X123193D01*
X315697Y234406D02*
Y247594D01*
X305303Y234406D02*
Y247594D01*
Y234406D02*
X315697D01*
X305303Y247594D02*
X315697D01*
X253957Y236193D02*
X261043D01*
X253957Y222807D02*
X261043D01*
X253957D02*
Y236193D01*
X261043Y222807D02*
Y236193D01*
X315697Y213406D02*
Y226594D01*
X305303Y213406D02*
Y226594D01*
Y213406D02*
X315697D01*
X305303Y226594D02*
X315697D01*
X154906Y291803D02*
X168095D01*
X154906Y302197D02*
X168095D01*
X154906Y291803D02*
Y302197D01*
X168095Y291803D02*
Y302197D01*
X105307Y304957D02*
Y312043D01*
X118693Y304957D02*
Y312043D01*
X105307Y304957D02*
X118693D01*
X105307Y312043D02*
X118693D01*
X105406Y301697D02*
X118595D01*
X105406Y291303D02*
X118595D01*
Y301697D01*
X105406Y291303D02*
Y301697D01*
X116906Y362197D02*
X130095D01*
X116906Y351803D02*
X130095D01*
Y362197D01*
X116906Y351803D02*
Y362197D01*
X277811Y438937D02*
X284898D01*
X277811Y452323D02*
X284898D01*
Y438937D02*
Y452323D01*
X277811Y438937D02*
Y452323D01*
X120331Y438937D02*
X127417D01*
X120331Y452323D02*
X127417D01*
Y438937D02*
Y452323D01*
X120331Y438937D02*
Y452323D01*
X312457Y259307D02*
X319543D01*
X312457Y272693D02*
X319543D01*
X312457Y259307D02*
Y272693D01*
X319543Y259307D02*
Y272693D01*
X199457Y247193D02*
X206543D01*
X199457Y233807D02*
X206543D01*
X199457D02*
Y247193D01*
X206543Y233807D02*
Y247193D01*
X199457Y217307D02*
X206543D01*
X199457Y230693D02*
X206543D01*
Y217307D02*
Y230693D01*
X199457Y217307D02*
Y230693D01*
X200449Y264134D02*
Y277520D01*
X193362Y264134D02*
Y277520D01*
X200449D01*
X193362Y264134D02*
X200449D01*
X259504Y232638D02*
Y246024D01*
X252417Y232638D02*
Y246024D01*
X259504D01*
X252417Y232638D02*
X259504D01*
X116807Y374543D02*
X130193D01*
X116807Y367457D02*
X130193D01*
Y374543D01*
X116807Y367457D02*
Y374543D01*
X142307D02*
X155693D01*
X142307Y367457D02*
X155693D01*
Y374543D01*
X142307Y367457D02*
Y374543D01*
D76*
X130296Y444430D02*
X131144Y444781D01*
X131496Y445630D01*
X131144Y446478D01*
X130296Y446830D01*
X287776Y444430D02*
X288625Y444781D01*
X288977Y445630D01*
X288625Y446478D01*
X287776Y446830D01*
X152700Y330200D02*
X151851Y329849D01*
X151500Y329000D01*
X151851Y328151D01*
X152700Y327800D01*
X130296Y453530D02*
X164696D01*
X130296Y446830D02*
Y453530D01*
Y444430D02*
Y446830D01*
Y437730D02*
Y444430D01*
Y437730D02*
X164696D01*
Y453530D01*
X131596Y433430D02*
Y437730D01*
Y433430D02*
X133396D01*
Y437730D01*
X131596D02*
X133396D01*
X136596Y433430D02*
Y437730D01*
Y433430D02*
X138396D01*
Y437730D01*
X136596D02*
X138396D01*
X141596Y433430D02*
Y437730D01*
Y433430D02*
X143396D01*
Y437730D01*
X141596D02*
X143396D01*
X146596Y433430D02*
Y437730D01*
Y433430D02*
X148396D01*
Y437730D01*
X146596D02*
X148396D01*
X151596Y433430D02*
Y437730D01*
Y433430D02*
X153396D01*
Y437730D01*
X151596D02*
X153396D01*
X156596Y433430D02*
Y437730D01*
Y433430D02*
X158396D01*
Y437730D01*
X156596D02*
X158396D01*
X161596Y433430D02*
Y437730D01*
Y433430D02*
X163396D01*
Y437730D01*
X161596D02*
X163396D01*
Y453530D02*
Y457830D01*
X161596D02*
X163396D01*
X161596Y453530D02*
Y457830D01*
Y453530D02*
X163396D01*
X158396D02*
Y457830D01*
X156596D02*
X158396D01*
X156596Y453530D02*
Y457830D01*
Y453530D02*
X158396D01*
X153396D02*
Y457830D01*
X151596D02*
X153396D01*
X151596Y453530D02*
Y457830D01*
Y453530D02*
X153396D01*
X148396D02*
Y457830D01*
X146596D02*
X148396D01*
X146596Y453530D02*
Y457830D01*
Y453530D02*
X148396D01*
X143396D02*
Y457830D01*
X141596D02*
X143396D01*
X141596Y453530D02*
Y457830D01*
Y453530D02*
X143396D01*
X138396D02*
Y457830D01*
X136596D02*
X138396D01*
X136596Y453530D02*
Y457830D01*
Y453530D02*
X138396D01*
X133396D02*
Y457830D01*
X131596D02*
X133396D01*
X131596Y453530D02*
Y457830D01*
Y453530D02*
X133396D01*
X289076D02*
X290876D01*
X289076D02*
Y457830D01*
X290876D01*
Y453530D02*
Y457830D01*
X294076Y453530D02*
X295876D01*
X294076D02*
Y457830D01*
X295876D01*
Y453530D02*
Y457830D01*
X299076Y453530D02*
X300876D01*
X299076D02*
Y457830D01*
X300876D01*
Y453530D02*
Y457830D01*
X304076Y453530D02*
X305876D01*
X304076D02*
Y457830D01*
X305876D01*
Y453530D02*
Y457830D01*
X309076Y453530D02*
X310876D01*
X309076D02*
Y457830D01*
X310876D01*
Y453530D02*
Y457830D01*
X314076Y453530D02*
X315876D01*
X314076D02*
Y457830D01*
X315876D01*
Y453530D02*
Y457830D01*
X319076Y453530D02*
X320876D01*
X319076D02*
Y457830D01*
X320876D01*
Y453530D02*
Y457830D01*
X319076Y437730D02*
X320876D01*
Y433430D02*
Y437730D01*
X319076Y433430D02*
X320876D01*
X319076D02*
Y437730D01*
X314076D02*
X315876D01*
Y433430D02*
Y437730D01*
X314076Y433430D02*
X315876D01*
X314076D02*
Y437730D01*
X309076D02*
X310876D01*
Y433430D02*
Y437730D01*
X309076Y433430D02*
X310876D01*
X309076D02*
Y437730D01*
X304076D02*
X305876D01*
Y433430D02*
Y437730D01*
X304076Y433430D02*
X305876D01*
X304076D02*
Y437730D01*
X299076D02*
X300876D01*
Y433430D02*
Y437730D01*
X299076Y433430D02*
X300876D01*
X299076D02*
Y437730D01*
X294076D02*
X295876D01*
Y433430D02*
Y437730D01*
X294076Y433430D02*
X295876D01*
X294076D02*
Y437730D01*
X289076D02*
X290876D01*
Y433430D02*
Y437730D01*
X289076Y433430D02*
X290876D01*
X289076D02*
Y437730D01*
X322176D02*
Y453530D01*
X287776Y437730D02*
X322176D01*
X287776D02*
Y444430D01*
Y446830D01*
Y453530D01*
X322176D01*
X118300Y321100D02*
X152700D01*
Y327800D01*
Y330200D01*
Y336900D01*
X118300D02*
X152700D01*
X118300Y321100D02*
Y336900D01*
X151400D02*
Y341200D01*
X149600D02*
X151400D01*
X149600Y336900D02*
Y341200D01*
Y336900D02*
X151400D01*
X146400D02*
Y341200D01*
X144600D02*
X146400D01*
X144600Y336900D02*
Y341200D01*
Y336900D02*
X146400D01*
X141400D02*
Y341200D01*
X139600D02*
X141400D01*
X139600Y336900D02*
Y341200D01*
Y336900D02*
X141400D01*
X136400D02*
Y341200D01*
X134600D02*
X136400D01*
X134600Y336900D02*
Y341200D01*
Y336900D02*
X136400D01*
X131400D02*
Y341200D01*
X129600D02*
X131400D01*
X129600Y336900D02*
Y341200D01*
Y336900D02*
X131400D01*
X126400D02*
Y341200D01*
X124600D02*
X126400D01*
X124600Y336900D02*
Y341200D01*
Y336900D02*
X126400D01*
X121400D02*
Y341200D01*
X119600D02*
X121400D01*
X119600Y336900D02*
Y341200D01*
Y336900D02*
X121400D01*
X119600Y316800D02*
Y321100D01*
Y316800D02*
X121400D01*
Y321100D01*
X119600D02*
X121400D01*
X124600Y316800D02*
Y321100D01*
Y316800D02*
X126400D01*
Y321100D01*
X124600D02*
X126400D01*
X129600Y316800D02*
Y321100D01*
Y316800D02*
X131400D01*
Y321100D01*
X129600D02*
X131400D01*
X134600Y316800D02*
Y321100D01*
Y316800D02*
X136400D01*
Y321100D01*
X134600D02*
X136400D01*
X139600Y316800D02*
Y321100D01*
Y316800D02*
X141400D01*
Y321100D01*
X139600D02*
X141400D01*
X144600Y316800D02*
Y321100D01*
Y316800D02*
X146400D01*
Y321100D01*
X144600D02*
X146400D01*
X149600Y316800D02*
Y321100D01*
Y316800D02*
X151400D01*
Y321100D01*
X149600D02*
X151400D01*
M02*
